<svg width="137" height="63" viewBox="0 0 137 63" fill="none" xmlns="http://www.w3.org/2000/svg">
<g clip-path="url(#clip0_48_1129)">
<path d="M77.75 5H60.25C59.2554 5 58.3016 5.39509 57.5983 6.09835C56.8951 6.80161 56.5 7.75544 56.5 8.75V21.25C56.5 22.2446 56.8951 23.1984 57.5983 23.9017C58.3016 24.6049 59.2554 25 60.25 25H77.75C78.7446 25 79.6984 24.6049 80.4017 23.9017C81.1049 23.1984 81.5 22.2446 81.5 21.25V8.75C81.5 7.75544 81.1049 6.80161 80.4017 6.09835C79.6984 5.39509 78.7446 5 77.75 5ZM76.9125 7.5L69 13.4375L61.0875 7.5H76.9125ZM77.75 22.5H60.25C59.9185 22.5 59.6005 22.3683 59.3661 22.1339C59.1317 21.8995 59 21.5815 59 21.25V9.0625L68.25 16C68.4664 16.1623 68.7295 16.25 69 16.25C69.2705 16.25 69.5336 16.1623 69.75 16L79 9.0625V21.25C79 21.5815 78.8683 21.8995 78.6339 22.1339C78.3995 22.3683 78.0815 22.5 77.75 22.5Z" fill="#D9D9D9"/>
</g>
<path d="M4.48779 46.7578V56H3.28174V46.7578H4.48779ZM7.4585 46.7578V47.7607H0.317383V46.7578H7.4585ZM12.228 54.8257V51.29C12.228 51.0192 12.173 50.7843 12.063 50.5854C11.9572 50.3823 11.7964 50.2257 11.5806 50.1157C11.3647 50.0057 11.0981 49.9507 10.7808 49.9507C10.4845 49.9507 10.2243 50.0015 10 50.103C9.77995 50.2046 9.60645 50.3379 9.47949 50.5029C9.35677 50.668 9.29541 50.8457 9.29541 51.0361H8.12109C8.12109 50.7907 8.18457 50.5474 8.31152 50.3062C8.43848 50.0649 8.62044 49.847 8.85742 49.6523C9.09863 49.4535 9.38639 49.2969 9.7207 49.1826C10.0592 49.0641 10.4359 49.0049 10.8506 49.0049C11.3499 49.0049 11.79 49.0895 12.1709 49.2588C12.556 49.4281 12.8564 49.6841 13.0723 50.0269C13.2923 50.3654 13.4023 50.7907 13.4023 51.3027V54.502C13.4023 54.7305 13.4214 54.9738 13.4595 55.2319C13.5018 55.4901 13.5632 55.7122 13.6436 55.8984V56H12.4185C12.3592 55.8646 12.3127 55.6847 12.2788 55.4604C12.245 55.2319 12.228 55.0203 12.228 54.8257ZM12.4312 51.8359L12.4438 52.6611H11.2568C10.9225 52.6611 10.6242 52.6886 10.3618 52.7437C10.0994 52.7944 9.87939 52.8727 9.70166 52.9785C9.52393 53.0843 9.38851 53.2176 9.29541 53.3784C9.20231 53.535 9.15576 53.7191 9.15576 53.9307C9.15576 54.1465 9.20443 54.3433 9.30176 54.521C9.39909 54.6987 9.54508 54.8405 9.73975 54.9463C9.93864 55.0479 10.182 55.0986 10.4697 55.0986C10.8294 55.0986 11.1468 55.0225 11.4219 54.8701C11.6969 54.7178 11.9149 54.5316 12.0757 54.3115C12.2407 54.0915 12.3296 53.8778 12.3423 53.6704L12.8438 54.2354C12.8141 54.4131 12.7337 54.6099 12.6025 54.8257C12.4714 55.0415 12.2957 55.2489 12.0757 55.4478C11.8599 55.6424 11.6017 55.8053 11.3013 55.9365C11.005 56.0635 10.6707 56.127 10.2983 56.127C9.83285 56.127 9.42448 56.036 9.07324 55.854C8.72624 55.672 8.4554 55.4287 8.26074 55.124C8.07031 54.8151 7.9751 54.4702 7.9751 54.0894C7.9751 53.7212 8.04704 53.3975 8.19092 53.1182C8.3348 52.8346 8.54215 52.5998 8.81299 52.4136C9.08382 52.2231 9.40967 52.0793 9.79053 51.9819C10.1714 51.8846 10.5967 51.8359 11.0664 51.8359H12.4312ZM16.7754 46.25V56H15.5947V46.25H16.7754ZM21.7607 56.127C21.2826 56.127 20.8488 56.0465 20.4595 55.8857C20.0744 55.7207 19.7422 55.4901 19.4629 55.1938C19.1878 54.8976 18.9762 54.5464 18.8281 54.1401C18.68 53.7339 18.606 53.2896 18.606 52.8071V52.5405C18.606 51.9819 18.6885 51.4847 18.8535 51.0488C19.0186 50.6087 19.2428 50.2363 19.5264 49.9316C19.8099 49.627 20.1315 49.3963 20.4912 49.2397C20.8509 49.0832 21.2233 49.0049 21.6084 49.0049C22.0993 49.0049 22.5225 49.0895 22.8779 49.2588C23.2376 49.4281 23.5317 49.665 23.7603 49.9697C23.9888 50.2702 24.158 50.6257 24.2681 51.0361C24.3781 51.4424 24.4331 51.8867 24.4331 52.3691V52.896H19.3042V51.9375H23.2588V51.8486C23.2419 51.5439 23.1784 51.2477 23.0684 50.96C22.9626 50.6722 22.7933 50.4352 22.5605 50.249C22.3278 50.0628 22.0104 49.9697 21.6084 49.9697C21.3418 49.9697 21.0964 50.0269 20.8721 50.1411C20.6478 50.2511 20.4552 50.4162 20.2944 50.6362C20.1336 50.8563 20.0088 51.125 19.9199 51.4424C19.8311 51.7598 19.7866 52.1258 19.7866 52.5405V52.8071C19.7866 53.133 19.8311 53.4398 19.9199 53.7275C20.013 54.0111 20.1463 54.2607 20.3198 54.4766C20.4976 54.6924 20.7113 54.8617 20.9609 54.9844C21.2148 55.1071 21.5026 55.1685 21.8242 55.1685C22.2389 55.1685 22.5902 55.0838 22.8779 54.9146C23.1657 54.7453 23.4175 54.5189 23.6333 54.2354L24.3442 54.8003C24.1961 55.0246 24.0078 55.2383 23.7793 55.4414C23.5508 55.6445 23.2694 55.8096 22.9351 55.9365C22.605 56.0635 22.2135 56.127 21.7607 56.127ZM27.2285 50.5981V56H26.0542V49.1318H27.165L27.2285 50.5981ZM26.9492 52.3057L26.4604 52.2866C26.4647 51.8169 26.5345 51.3831 26.6699 50.9854C26.8053 50.5833 26.9958 50.2342 27.2412 49.938C27.4867 49.6418 27.7786 49.4132 28.1172 49.2524C28.46 49.0874 28.8387 49.0049 29.2534 49.0049C29.592 49.0049 29.8966 49.0514 30.1675 49.1445C30.4383 49.2334 30.6689 49.3773 30.8594 49.5762C31.054 49.7751 31.2021 50.0332 31.3037 50.3506C31.4053 50.6637 31.4561 51.0467 31.4561 51.4995V56H30.2754V51.4868C30.2754 51.1271 30.2225 50.8394 30.1167 50.6235C30.0109 50.4035 29.8564 50.2448 29.6533 50.1475C29.4502 50.0459 29.2005 49.9951 28.9043 49.9951C28.6123 49.9951 28.3457 50.0565 28.1045 50.1792C27.8675 50.3019 27.6623 50.4712 27.4888 50.687C27.3195 50.9028 27.1862 51.1504 27.0889 51.4297C26.9958 51.7048 26.9492 51.9967 26.9492 52.3057ZM36.3652 49.1318V50.0332H32.6519V49.1318H36.3652ZM33.9087 47.4624H35.083V54.2988C35.083 54.5316 35.119 54.7072 35.1909 54.8257C35.2629 54.9442 35.356 55.0225 35.4702 55.0605C35.5845 55.0986 35.7072 55.1177 35.8384 55.1177C35.9357 55.1177 36.0373 55.1092 36.1431 55.0923C36.2531 55.0711 36.3356 55.0542 36.3906 55.0415L36.397 56C36.3039 56.0296 36.1812 56.0571 36.0288 56.0825C35.8807 56.1121 35.7008 56.127 35.4893 56.127C35.2015 56.127 34.937 56.0698 34.6958 55.9556C34.4546 55.8413 34.262 55.6509 34.1182 55.3843C33.9785 55.1134 33.9087 54.7495 33.9087 54.2925V47.4624ZM39.9224 55.2891L41.833 49.1318H43.0898L40.335 57.0601C40.2715 57.2293 40.1868 57.4113 40.0811 57.606C39.9795 57.8049 39.8483 57.9932 39.6875 58.1709C39.5267 58.3486 39.332 58.4925 39.1035 58.6025C38.8792 58.7168 38.6105 58.7739 38.2974 58.7739C38.2043 58.7739 38.0858 58.7612 37.9419 58.7358C37.798 58.7104 37.6965 58.6893 37.6372 58.6724L37.6309 57.7202C37.6647 57.7244 37.7176 57.7287 37.7896 57.7329C37.8657 57.7414 37.9186 57.7456 37.9482 57.7456C38.2148 57.7456 38.4412 57.7096 38.6274 57.6377C38.8136 57.57 38.9702 57.4536 39.0972 57.2886C39.2284 57.1278 39.3405 56.9056 39.4336 56.6221L39.9224 55.2891ZM38.5195 49.1318L40.3032 54.4639L40.6079 55.7017L39.7637 56.1333L37.2373 49.1318H38.5195ZM54.5244 52.8071C54.5075 53.1965 54.4482 53.5879 54.3467 53.9814C54.2451 54.3708 54.0928 54.7284 53.8896 55.0542C53.6865 55.38 53.422 55.6424 53.0962 55.8413C52.7746 56.036 52.3853 56.1333 51.9282 56.1333C51.6362 56.1333 51.3802 56.0825 51.1602 55.981C50.9443 55.8752 50.7666 55.7249 50.627 55.5303C50.4915 55.3356 50.3963 55.1007 50.3413 54.8257C50.2905 54.5506 50.2821 54.2438 50.3159 53.9053L50.6396 50.3887H51.5728L51.249 53.9053C51.2236 54.2142 51.23 54.466 51.2681 54.6606C51.3104 54.8553 51.3739 55.0055 51.4585 55.1113C51.5431 55.2129 51.6383 55.2827 51.7441 55.3208C51.8542 55.3589 51.96 55.3779 52.0615 55.3779C52.3154 55.3779 52.5418 55.3123 52.7407 55.1812C52.9396 55.0457 53.1068 54.8617 53.2422 54.6289C53.3818 54.3919 53.4897 54.119 53.5659 53.8101C53.6421 53.4969 53.6886 53.1626 53.7056 52.8071C53.7352 52.1766 53.7056 51.5968 53.6167 51.0679C53.5321 50.5389 53.3861 50.0692 53.1787 49.6587C52.9756 49.2482 52.709 48.9012 52.3789 48.6177C52.0488 48.3341 51.6553 48.1183 51.1982 47.9702C50.7412 47.8221 50.2186 47.748 49.6304 47.748C49.0972 47.748 48.6042 47.8306 48.1514 47.9956C47.7028 48.1564 47.2987 48.3892 46.939 48.6938C46.5835 48.9985 46.2767 49.3646 46.0186 49.792C45.7646 50.2194 45.5636 50.7018 45.4155 51.2393C45.2716 51.7725 45.187 52.348 45.1616 52.9658C45.132 53.6006 45.1659 54.1846 45.2632 54.7178C45.3605 55.2467 45.5171 55.7186 45.7329 56.1333C45.953 56.5522 46.2301 56.9056 46.5645 57.1934C46.8988 57.4854 47.286 57.7054 47.7261 57.8535C48.1662 58.0059 48.6571 58.082 49.1987 58.082C49.5711 58.082 49.9478 58.0376 50.3286 57.9487C50.7137 57.8599 51.0353 57.7393 51.2935 57.5869L51.5347 58.3105C51.2384 58.501 50.8682 58.6427 50.4238 58.7358C49.9837 58.8289 49.5669 58.8755 49.1733 58.8755C48.5301 58.8755 47.9419 58.7866 47.4087 58.6089C46.8797 58.4354 46.41 58.1794 45.9995 57.8408C45.5933 57.5065 45.2547 57.0981 44.9839 56.6157C44.7131 56.1375 44.5142 55.5916 44.3872 54.978C44.2603 54.3644 44.2116 53.6937 44.2412 52.9658C44.2708 52.2718 44.3745 51.618 44.5522 51.0044C44.7342 50.3908 44.9818 49.8343 45.2949 49.335C45.6081 48.8356 45.9805 48.4061 46.4121 48.0464C46.848 47.6825 47.3368 47.4032 47.8784 47.2085C48.4243 47.0138 49.0168 46.9165 49.6558 46.9165C50.3075 46.9165 50.8978 47.0054 51.4268 47.1831C51.9557 47.3608 52.4191 47.6169 52.8169 47.9512C53.2189 48.2855 53.5511 48.6938 53.8135 49.1763C54.0758 49.6587 54.2663 50.2046 54.3848 50.814C54.5075 51.4233 54.554 52.0877 54.5244 52.8071ZM48.0054 53.3467C47.9757 53.6429 47.9757 53.9074 48.0054 54.1401C48.035 54.3729 48.0921 54.5697 48.1768 54.7305C48.2614 54.8913 48.3714 55.014 48.5068 55.0986C48.6465 55.179 48.8094 55.2192 48.9956 55.2192C49.1183 55.2192 49.2474 55.1896 49.3828 55.1304C49.5182 55.0669 49.6515 54.9696 49.7827 54.8384C49.9139 54.7072 50.0366 54.5358 50.1509 54.3242C50.2651 54.1126 50.3604 53.8587 50.4365 53.5625L50.8555 54.0195C50.7581 54.3665 50.6312 54.6712 50.4746 54.9336C50.3223 55.196 50.1509 55.416 49.9604 55.5938C49.77 55.7715 49.5669 55.9069 49.3511 56C49.1395 56.0889 48.9237 56.1333 48.7036 56.1333C48.3947 56.1333 48.1239 56.0677 47.8911 55.9365C47.6584 55.8011 47.4701 55.6107 47.3262 55.3652C47.1823 55.1198 47.0807 54.8278 47.0215 54.4893C46.9665 54.1465 46.958 53.7656 46.9961 53.3467C47.0342 52.9023 47.1125 52.4919 47.231 52.1152C47.3494 51.7386 47.4954 51.4022 47.6689 51.106C47.8467 50.8097 48.0456 50.5579 48.2656 50.3506C48.4899 50.1432 48.7269 49.9867 48.9766 49.8809C49.2262 49.7708 49.4823 49.7158 49.7446 49.7158C50.2017 49.7158 50.5614 49.7835 50.8237 49.9189C51.0861 50.0501 51.3358 50.2067 51.5728 50.3887L51.0332 51.0171C50.9105 50.8986 50.7497 50.7886 50.5508 50.687C50.3519 50.5854 50.117 50.5347 49.8462 50.5347C49.6134 50.5347 49.3955 50.5939 49.1924 50.7124C48.9893 50.8309 48.8052 51.0086 48.6401 51.2456C48.4793 51.4826 48.3439 51.7767 48.2339 52.1279C48.1239 52.4749 48.0477 52.8812 48.0054 53.3467ZM60.7793 49.1318H61.8457V55.854C61.8457 56.4591 61.723 56.9754 61.4775 57.4028C61.2321 57.8302 60.8893 58.154 60.4492 58.374C60.0133 58.5983 59.5098 58.7104 58.9385 58.7104C58.7015 58.7104 58.4222 58.6724 58.1006 58.5962C57.7832 58.5243 57.4701 58.3994 57.1611 58.2217C56.8564 58.0482 56.6004 57.8133 56.3931 57.5171L57.0088 56.8188C57.2965 57.1659 57.597 57.4071 57.9102 57.5425C58.2275 57.6779 58.5407 57.7456 58.8496 57.7456C59.222 57.7456 59.5436 57.6758 59.8145 57.5361C60.0853 57.3965 60.2948 57.1891 60.4429 56.9141C60.5952 56.6432 60.6714 56.3089 60.6714 55.9111V50.6426L60.7793 49.1318ZM56.0503 52.6421V52.5088C56.0503 51.984 56.1117 51.508 56.2344 51.0806C56.3613 50.6489 56.5412 50.2786 56.7739 49.9697C57.0109 49.6608 57.2965 49.4238 57.6309 49.2588C57.9652 49.0895 58.3418 49.0049 58.7607 49.0049C59.1924 49.0049 59.569 49.0811 59.8906 49.2334C60.2165 49.3815 60.4915 49.5994 60.7158 49.8872C60.9443 50.1707 61.1242 50.5135 61.2554 50.9155C61.3866 51.3175 61.4775 51.7725 61.5283 52.2803V52.8643C61.4818 53.3678 61.3908 53.8206 61.2554 54.2227C61.1242 54.6247 60.9443 54.9674 60.7158 55.251C60.4915 55.5345 60.2165 55.7524 59.8906 55.9048C59.5648 56.0529 59.1839 56.127 58.748 56.127C58.3376 56.127 57.9652 56.0402 57.6309 55.8667C57.3008 55.6932 57.0173 55.4499 56.7803 55.1367C56.5433 54.8236 56.3613 54.4554 56.2344 54.0322C56.1117 53.6048 56.0503 53.1414 56.0503 52.6421ZM57.2246 52.5088V52.6421C57.2246 52.9849 57.2585 53.3065 57.3262 53.6069C57.3981 53.9074 57.506 54.1719 57.6499 54.4004C57.798 54.6289 57.9863 54.8088 58.2148 54.9399C58.4434 55.0669 58.7163 55.1304 59.0337 55.1304C59.423 55.1304 59.7446 55.0479 59.9985 54.8828C60.2524 54.7178 60.4535 54.4998 60.6016 54.229C60.7539 53.9582 60.8724 53.6641 60.957 53.3467V51.8169C60.9105 51.5841 60.8385 51.3599 60.7412 51.144C60.6481 50.924 60.5254 50.7293 60.373 50.5601C60.2249 50.3866 60.0409 50.249 59.8208 50.1475C59.6007 50.0459 59.3426 49.9951 59.0464 49.9951C58.7248 49.9951 58.4476 50.0628 58.2148 50.1982C57.9863 50.3294 57.798 50.5114 57.6499 50.7441C57.506 50.9727 57.3981 51.2393 57.3262 51.5439C57.2585 51.8444 57.2246 52.166 57.2246 52.5088ZM65.0474 50.4966V56H63.8667V49.1318H64.9839L65.0474 50.4966ZM64.8062 52.3057L64.2603 52.2866C64.2645 51.8169 64.3258 51.3831 64.4443 50.9854C64.5628 50.5833 64.7384 50.2342 64.9712 49.938C65.2039 49.6418 65.4938 49.4132 65.8408 49.2524C66.1878 49.0874 66.5898 49.0049 67.0469 49.0049C67.3685 49.0049 67.6647 49.0514 67.9355 49.1445C68.2064 49.2334 68.4412 49.3752 68.6401 49.5698C68.839 49.7645 68.9935 50.0142 69.1035 50.3188C69.2135 50.6235 69.2686 50.9917 69.2686 51.4233V56H68.0942V51.4805C68.0942 51.1208 68.0329 50.833 67.9102 50.6172C67.7917 50.4014 67.6224 50.2448 67.4023 50.1475C67.1823 50.0459 66.9242 49.9951 66.6279 49.9951C66.2809 49.9951 65.991 50.0565 65.7583 50.1792C65.5256 50.3019 65.3394 50.4712 65.1997 50.687C65.0601 50.9028 64.9585 51.1504 64.895 51.4297C64.8358 51.7048 64.8062 51.9967 64.8062 52.3057ZM69.2559 51.6582L68.4688 51.8994C68.473 51.5228 68.5343 51.161 68.6528 50.814C68.7756 50.467 68.9512 50.158 69.1797 49.8872C69.4124 49.6164 69.6981 49.4027 70.0366 49.2461C70.3752 49.0853 70.7624 49.0049 71.1982 49.0049C71.5664 49.0049 71.8923 49.0535 72.1758 49.1509C72.4635 49.2482 72.7048 49.3984 72.8994 49.6016C73.0983 49.8005 73.2485 50.0565 73.3501 50.3696C73.4517 50.6828 73.5024 51.0552 73.5024 51.4868V56H72.3218V51.4741C72.3218 51.089 72.2604 50.7907 72.1377 50.5791C72.0192 50.3633 71.8499 50.2131 71.6299 50.1284C71.4141 50.0396 71.1559 49.9951 70.8555 49.9951C70.5973 49.9951 70.3688 50.0396 70.1699 50.1284C69.971 50.2173 69.8039 50.34 69.6685 50.4966C69.533 50.6489 69.4294 50.8245 69.3574 51.0234C69.2897 51.2223 69.2559 51.4339 69.2559 51.6582ZM79.5796 54.8257V51.29C79.5796 51.0192 79.5246 50.7843 79.4146 50.5854C79.3088 50.3823 79.1479 50.2257 78.9321 50.1157C78.7163 50.0057 78.4497 49.9507 78.1323 49.9507C77.8361 49.9507 77.5758 50.0015 77.3516 50.103C77.1315 50.2046 76.958 50.3379 76.8311 50.5029C76.7083 50.668 76.647 50.8457 76.647 51.0361H75.4727C75.4727 50.7907 75.5361 50.5474 75.6631 50.3062C75.79 50.0649 75.972 49.847 76.209 49.6523C76.4502 49.4535 76.738 49.2969 77.0723 49.1826C77.4108 49.0641 77.7874 49.0049 78.2021 49.0049C78.7015 49.0049 79.1416 49.0895 79.5225 49.2588C79.9076 49.4281 80.208 49.6841 80.4238 50.0269C80.6439 50.3654 80.7539 50.7907 80.7539 51.3027V54.502C80.7539 54.7305 80.7729 54.9738 80.811 55.2319C80.8534 55.4901 80.9147 55.7122 80.9951 55.8984V56H79.77C79.7108 55.8646 79.6642 55.6847 79.6304 55.4604C79.5965 55.2319 79.5796 55.0203 79.5796 54.8257ZM79.7827 51.8359L79.7954 52.6611H78.6084C78.2741 52.6611 77.9757 52.6886 77.7134 52.7437C77.451 52.7944 77.231 52.8727 77.0532 52.9785C76.8755 53.0843 76.7401 53.2176 76.647 53.3784C76.5539 53.535 76.5073 53.7191 76.5073 53.9307C76.5073 54.1465 76.556 54.3433 76.6533 54.521C76.7507 54.6987 76.8966 54.8405 77.0913 54.9463C77.2902 55.0479 77.5335 55.0986 77.8213 55.0986C78.181 55.0986 78.4984 55.0225 78.7734 54.8701C79.0485 54.7178 79.2664 54.5316 79.4272 54.3115C79.5923 54.0915 79.6812 53.8778 79.6938 53.6704L80.1953 54.2354C80.1657 54.4131 80.0853 54.6099 79.9541 54.8257C79.8229 55.0415 79.6473 55.2489 79.4272 55.4478C79.2114 55.6424 78.9533 55.8053 78.6528 55.9365C78.3566 56.0635 78.0223 56.127 77.6499 56.127C77.1844 56.127 76.776 56.036 76.4248 55.854C76.0778 55.672 75.807 55.4287 75.6123 55.124C75.4219 54.8151 75.3267 54.4702 75.3267 54.0894C75.3267 53.7212 75.3986 53.3975 75.5425 53.1182C75.6864 52.8346 75.8937 52.5998 76.1646 52.4136C76.4354 52.2231 76.7612 52.0793 77.1421 51.9819C77.5229 51.8846 77.9482 51.8359 78.418 51.8359H79.7827ZM84.127 49.1318V56H82.9463V49.1318H84.127ZM82.8574 47.3101C82.8574 47.1196 82.9146 46.9588 83.0288 46.8276C83.1473 46.6965 83.3208 46.6309 83.5493 46.6309C83.7736 46.6309 83.945 46.6965 84.0635 46.8276C84.1862 46.9588 84.2476 47.1196 84.2476 47.3101C84.2476 47.492 84.1862 47.6486 84.0635 47.7798C83.945 47.9067 83.7736 47.9702 83.5493 47.9702C83.3208 47.9702 83.1473 47.9067 83.0288 47.7798C82.9146 47.6486 82.8574 47.492 82.8574 47.3101ZM87.5381 46.25V56H86.3574V46.25H87.5381ZM89.6924 55.3779C89.6924 55.179 89.7537 55.0119 89.8765 54.8765C90.0034 54.7368 90.1854 54.667 90.4224 54.667C90.6593 54.667 90.8392 54.7368 90.9619 54.8765C91.0889 55.0119 91.1523 55.179 91.1523 55.3779C91.1523 55.5726 91.0889 55.7376 90.9619 55.873C90.8392 56.0085 90.6593 56.0762 90.4224 56.0762C90.1854 56.0762 90.0034 56.0085 89.8765 55.873C89.7537 55.7376 89.6924 55.5726 89.6924 55.3779ZM96.0996 55.1621C96.3789 55.1621 96.637 55.105 96.874 54.9907C97.111 54.8765 97.3057 54.7199 97.458 54.521C97.6104 54.3179 97.6971 54.0872 97.7183 53.8291H98.8354C98.8143 54.2354 98.6768 54.6141 98.4229 54.9653C98.1732 55.3123 97.8452 55.5938 97.439 55.8096C97.0327 56.0212 96.5863 56.127 96.0996 56.127C95.5833 56.127 95.1326 56.036 94.7476 55.854C94.3667 55.672 94.0493 55.4224 93.7954 55.105C93.5457 54.7876 93.3574 54.4237 93.2305 54.0132C93.1077 53.5985 93.0464 53.1605 93.0464 52.6992V52.4326C93.0464 51.9714 93.1077 51.5355 93.2305 51.125C93.3574 50.7103 93.5457 50.3442 93.7954 50.0269C94.0493 49.7095 94.3667 49.4598 94.7476 49.2778C95.1326 49.0959 95.5833 49.0049 96.0996 49.0049C96.637 49.0049 97.1068 49.1149 97.5088 49.335C97.9108 49.5508 98.2261 49.847 98.4546 50.2236C98.6873 50.596 98.8143 51.0192 98.8354 51.4932H97.7183C97.6971 51.2096 97.6167 50.9536 97.4771 50.7251C97.3416 50.4966 97.1554 50.3146 96.9185 50.1792C96.6857 50.0396 96.4128 49.9697 96.0996 49.9697C95.7399 49.9697 95.4373 50.0417 95.1919 50.1855C94.9507 50.3252 94.7581 50.5156 94.6143 50.7568C94.4746 50.9938 94.373 51.2583 94.3096 51.5503C94.2503 51.8381 94.2207 52.1322 94.2207 52.4326V52.6992C94.2207 52.9997 94.2503 53.2959 94.3096 53.5879C94.3688 53.8799 94.4683 54.1444 94.6079 54.3813C94.7518 54.6183 94.9443 54.8088 95.1855 54.9526C95.431 55.0923 95.7357 55.1621 96.0996 55.1621ZM100.095 52.6421V52.4961C100.095 52.001 100.167 51.5418 100.311 51.1187C100.454 50.6912 100.662 50.321 100.933 50.0078C101.203 49.6904 101.531 49.445 101.917 49.2715C102.302 49.0938 102.733 49.0049 103.211 49.0049C103.694 49.0049 104.128 49.0938 104.513 49.2715C104.902 49.445 105.232 49.6904 105.503 50.0078C105.778 50.321 105.987 50.6912 106.131 51.1187C106.275 51.5418 106.347 52.001 106.347 52.4961V52.6421C106.347 53.1372 106.275 53.5964 106.131 54.0195C105.987 54.4427 105.778 54.813 105.503 55.1304C105.232 55.4435 104.904 55.689 104.519 55.8667C104.138 56.0402 103.707 56.127 103.224 56.127C102.742 56.127 102.308 56.0402 101.923 55.8667C101.538 55.689 101.208 55.4435 100.933 55.1304C100.662 54.813 100.454 54.4427 100.311 54.0195C100.167 53.5964 100.095 53.1372 100.095 52.6421ZM101.269 52.4961V52.6421C101.269 52.9849 101.309 53.3086 101.39 53.6133C101.47 53.9137 101.591 54.1803 101.751 54.4131C101.917 54.6458 102.122 54.8299 102.367 54.9653C102.613 55.0965 102.898 55.1621 103.224 55.1621C103.546 55.1621 103.827 55.0965 104.068 54.9653C104.314 54.8299 104.517 54.6458 104.678 54.4131C104.839 54.1803 104.959 53.9137 105.04 53.6133C105.124 53.3086 105.167 52.9849 105.167 52.6421V52.4961C105.167 52.1576 105.124 51.8381 105.04 51.5376C104.959 51.2329 104.836 50.9642 104.671 50.7314C104.511 50.4945 104.307 50.3083 104.062 50.1729C103.821 50.0374 103.537 49.9697 103.211 49.9697C102.89 49.9697 102.606 50.0374 102.361 50.1729C102.12 50.3083 101.917 50.4945 101.751 50.7314C101.591 50.9642 101.47 51.2329 101.39 51.5376C101.309 51.8381 101.269 52.1576 101.269 52.4961ZM109.238 50.4966V56H108.057V49.1318H109.174L109.238 50.4966ZM108.997 52.3057L108.451 52.2866C108.455 51.8169 108.516 51.3831 108.635 50.9854C108.753 50.5833 108.929 50.2342 109.162 49.938C109.394 49.6418 109.684 49.4132 110.031 49.2524C110.378 49.0874 110.78 49.0049 111.237 49.0049C111.559 49.0049 111.855 49.0514 112.126 49.1445C112.397 49.2334 112.632 49.3752 112.831 49.5698C113.029 49.7645 113.184 50.0142 113.294 50.3188C113.404 50.6235 113.459 50.9917 113.459 51.4233V56H112.285V51.4805C112.285 51.1208 112.223 50.833 112.101 50.6172C111.982 50.4014 111.813 50.2448 111.593 50.1475C111.373 50.0459 111.115 49.9951 110.818 49.9951C110.471 49.9951 110.181 50.0565 109.949 50.1792C109.716 50.3019 109.53 50.4712 109.39 50.687C109.25 50.9028 109.149 51.1504 109.085 51.4297C109.026 51.7048 108.997 51.9967 108.997 52.3057ZM113.446 51.6582L112.659 51.8994C112.663 51.5228 112.725 51.161 112.843 50.814C112.966 50.467 113.142 50.158 113.37 49.8872C113.603 49.6164 113.889 49.4027 114.227 49.2461C114.566 49.0853 114.953 49.0049 115.389 49.0049C115.757 49.0049 116.083 49.0535 116.366 49.1509C116.654 49.2482 116.895 49.3984 117.09 49.6016C117.289 49.8005 117.439 50.0565 117.541 50.3696C117.642 50.6828 117.693 51.0552 117.693 51.4868V56H116.512V51.4741C116.512 51.089 116.451 50.7907 116.328 50.5791C116.21 50.3633 116.04 50.2131 115.82 50.1284C115.604 50.0396 115.346 49.9951 115.046 49.9951C114.788 49.9951 114.559 50.0396 114.36 50.1284C114.161 50.2173 113.994 50.34 113.859 50.4966C113.723 50.6489 113.62 50.8245 113.548 51.0234C113.48 51.2223 113.446 51.4339 113.446 51.6582ZM119.739 55.3779C119.739 55.179 119.801 55.0119 119.923 54.8765C120.05 54.7368 120.232 54.667 120.469 54.667C120.706 54.667 120.886 54.7368 121.009 54.8765C121.136 55.0119 121.199 55.179 121.199 55.3779C121.199 55.5726 121.136 55.7376 121.009 55.873C120.886 56.0085 120.706 56.0762 120.469 56.0762C120.232 56.0762 120.05 56.0085 119.923 55.873C119.801 55.7376 119.739 55.5726 119.739 55.3779ZM126.146 55.1621C126.426 55.1621 126.684 55.105 126.921 54.9907C127.158 54.8765 127.353 54.7199 127.505 54.521C127.657 54.3179 127.744 54.0872 127.765 53.8291H128.882C128.861 54.2354 128.724 54.6141 128.47 54.9653C128.22 55.3123 127.892 55.5938 127.486 55.8096C127.08 56.0212 126.633 56.127 126.146 56.127C125.63 56.127 125.18 56.036 124.794 55.854C124.414 55.672 124.096 55.4224 123.842 55.105C123.593 54.7876 123.404 54.4237 123.277 54.0132C123.155 53.5985 123.093 53.1605 123.093 52.6992V52.4326C123.093 51.9714 123.155 51.5355 123.277 51.125C123.404 50.7103 123.593 50.3442 123.842 50.0269C124.096 49.7095 124.414 49.4598 124.794 49.2778C125.18 49.0959 125.63 49.0049 126.146 49.0049C126.684 49.0049 127.154 49.1149 127.556 49.335C127.958 49.5508 128.273 49.847 128.501 50.2236C128.734 50.596 128.861 51.0192 128.882 51.4932H127.765C127.744 51.2096 127.664 50.9536 127.524 50.7251C127.389 50.4966 127.202 50.3146 126.965 50.1792C126.733 50.0396 126.46 49.9697 126.146 49.9697C125.787 49.9697 125.484 50.0417 125.239 50.1855C124.998 50.3252 124.805 50.5156 124.661 50.7568C124.521 50.9938 124.42 51.2583 124.356 51.5503C124.297 51.8381 124.268 52.1322 124.268 52.4326V52.6992C124.268 52.9997 124.297 53.2959 124.356 53.5879C124.416 53.8799 124.515 54.1444 124.655 54.3813C124.799 54.6183 124.991 54.8088 125.232 54.9526C125.478 55.0923 125.783 55.1621 126.146 55.1621ZM130.142 52.6421V52.4961C130.142 52.001 130.214 51.5418 130.357 51.1187C130.501 50.6912 130.709 50.321 130.979 50.0078C131.25 49.6904 131.578 49.445 131.963 49.2715C132.348 49.0938 132.78 49.0049 133.258 49.0049C133.741 49.0049 134.174 49.0938 134.56 49.2715C134.949 49.445 135.279 49.6904 135.55 50.0078C135.825 50.321 136.034 50.6912 136.178 51.1187C136.322 51.5418 136.394 52.001 136.394 52.4961V52.6421C136.394 53.1372 136.322 53.5964 136.178 54.0195C136.034 54.4427 135.825 54.813 135.55 55.1304C135.279 55.4435 134.951 55.689 134.566 55.8667C134.185 56.0402 133.753 56.127 133.271 56.127C132.789 56.127 132.355 56.0402 131.97 55.8667C131.585 55.689 131.255 55.4435 130.979 55.1304C130.709 54.813 130.501 54.4427 130.357 54.0195C130.214 53.5964 130.142 53.1372 130.142 52.6421ZM131.316 52.4961V52.6421C131.316 52.9849 131.356 53.3086 131.437 53.6133C131.517 53.9137 131.638 54.1803 131.798 54.4131C131.963 54.6458 132.169 54.8299 132.414 54.9653C132.66 55.0965 132.945 55.1621 133.271 55.1621C133.593 55.1621 133.874 55.0965 134.115 54.9653C134.361 54.8299 134.564 54.6458 134.725 54.4131C134.885 54.1803 135.006 53.9137 135.086 53.6133C135.171 53.3086 135.213 52.9849 135.213 52.6421V52.4961C135.213 52.1576 135.171 51.8381 135.086 51.5376C135.006 51.2329 134.883 50.9642 134.718 50.7314C134.557 50.4945 134.354 50.3083 134.109 50.1729C133.868 50.0374 133.584 49.9697 133.258 49.9697C132.937 49.9697 132.653 50.0374 132.408 50.1729C132.167 50.3083 131.963 50.4945 131.798 50.7314C131.638 50.9642 131.517 51.2329 131.437 51.5376C131.356 51.8381 131.316 52.1576 131.316 52.4961Z" fill="white"/>
<defs>
<clipPath id="clip0_48_1129">
<rect width="30" height="30" fill="white" transform="translate(54)"/>
</clipPath>
</defs>
</svg>
