<svg width="38" height="38" viewBox="0 0 38 38" fill="none" xmlns="http://www.w3.org/2000/svg">
<path d="M30.9427 1.90002H7.05695C6.1931 1.90002 5.36463 2.25659 4.7538 2.89128C4.14297 3.52598 3.7998 4.38681 3.7998 5.2844L3.7998 30.1031C3.7998 31.0007 4.14297 31.8616 4.7538 32.4963C5.36463 33.131 6.1931 33.4875 7.05695 33.4875H16.3703V22.7485H12.0953V17.6938H16.3703V13.8412C16.3703 9.45917 18.8811 7.03863 22.7265 7.03863C24.5682 7.03863 26.4939 7.37989 26.4939 7.37989V11.6809H24.3721C22.2814 11.6809 21.6293 13.029 21.6293 14.4116V17.6938H26.2965L25.5501 22.7485H21.6293V33.4875H30.9427C31.8065 33.4875 32.635 33.131 33.2458 32.4963C33.8566 31.8616 34.1998 31.0007 34.1998 30.1031V5.2844C34.1998 4.38681 33.8566 3.52598 33.2458 2.89128C32.635 2.25659 31.8065 1.90002 30.9427 1.90002Z" fill="#169579"/>
</svg>
