<svg width="113" height="79" viewBox="0 0 113 79" fill="none" xmlns="http://www.w3.org/2000/svg">
<g clip-path="url(#clip0_351_296)">
<path d="M23.2422 18.0265C19.1249 32.5606 15.0076 47.1207 12.2627 62.3324C14.3826 63.2368 16.5893 63.7745 18.823 63.9309L21.3551 52.7067C21.2677 52.6321 21.1699 52.579 21.0669 52.5503C22.7524 53.0311 24.3062 54.0716 25.5685 55.5649C26.8805 57.1297 28.0666 58.8553 29.1094 60.7165C29.0942 61.7809 29.3447 62.8242 29.8252 63.6977C30.3058 64.5712 30.9919 65.2305 31.7857 65.5815C32.5985 65.9074 33.4601 65.9892 34.3022 65.8203C35.1444 65.6514 35.9438 65.2365 36.6373 64.6085C36.4931 65.5408 36.4931 66.4996 36.6373 67.4319C36.692 67.8395 36.7938 68.2346 36.9392 68.6047C37.2826 69.3578 37.7965 69.9631 38.4146 70.3422C39.4896 71.0247 40.712 71.2414 41.8937 70.959C41.8757 71.849 42.0831 72.723 42.4856 73.453C42.8881 74.183 43.4647 74.7307 44.1308 75.0161C45.5077 75.5381 46.9863 75.4241 48.303 74.6946C48.4836 75.3192 48.7639 75.89 49.1265 76.3713C49.59 76.8462 50.1579 77.1283 50.7528 77.1792C52.2227 77.344 53.6944 76.8889 54.9388 75.8848C55.6662 76.3768 56.4759 76.6421 57.3006 76.6587C58.1252 76.6753 58.9411 76.4428 59.6806 75.9804C60.0723 75.7469 60.426 75.4228 60.7236 75.0247C61.2964 74.178 61.6211 73.1073 61.6432 71.9928C61.6436 70.8781 61.5932 69.7643 61.4922 68.6569C62.1741 69.7837 62.9888 70.7711 63.9077 71.5845C64.3713 71.9777 64.8933 72.2474 65.4418 72.3774C65.9904 72.5073 66.554 72.4947 67.0986 72.3403C67.9945 72.0022 68.7581 71.2524 69.2396 70.238C69.7387 69.1852 70.0196 67.9899 70.0562 66.763C70.4188 67.5123 70.8152 68.2346 71.2434 68.9262C71.6275 69.5913 72.0904 70.1774 72.6158 70.6637C73.1497 71.1474 73.7999 71.3808 74.4549 71.3239C74.9515 71.2065 75.4157 70.9289 75.8028 70.518C76.1898 70.1071 76.4866 69.5768 76.6645 68.9783C77.0088 67.7783 77.183 66.5107 77.1792 65.234C77.2135 64.5043 77.2478 63.7658 77.2272 63.01C77.7206 64.2882 78.3088 65.5041 78.9839 66.6414C79.6611 67.7856 80.5757 68.6697 81.6259 69.1955C81.8894 69.3111 82.1574 69.4097 82.4288 69.4909C82.638 69.5944 82.862 69.6417 83.0865 69.6297C83.3109 69.6178 83.531 69.5468 83.7326 69.4214C83.8694 69.2739 83.9804 69.0918 84.0584 68.8868C84.1363 68.6819 84.1797 68.4586 84.1855 68.2312C84.1812 67.7582 84.2585 67.2898 84.412 66.8586C88.4332 64.9386 92.3927 62.8102 96.2287 60.5167C96.5931 62.3083 97.0516 64.0671 97.6011 65.7813C100.461 64.9446 103.227 63.6605 105.836 61.9589C108.112 60.9169 110.302 59.5959 112.375 58.0148C112.046 43.6197 110.118 29.0421 104.916 16.2368C104.612 15.4004 104.209 14.6272 103.722 13.9434C98.017 16.4585 92.4702 19.5166 87.1294 23.0912C87.2996 23.437 87.3986 23.8313 87.4176 24.238C81.8867 24.7245 76.4793 22.3702 71.2503 20.0246C69.6193 19.1889 67.9065 18.6366 66.1585 18.3826C64.5333 18.3582 62.9091 18.4918 61.3001 18.7823C59.4176 17.416 57.3946 16.3869 55.2888 15.7243C54.04 15.2238 52.7417 14.9489 51.4322 14.9077C50.233 14.9735 49.0464 15.2453 47.905 15.7156C41.729 18.0091 35.9167 22.2399 29.4868 22.9957C29.5349 22.4484 29.5898 21.9011 29.6378 21.3537C29.6924 21.0618 29.6657 20.7549 29.5623 20.485C27.5524 19.3099 25.4266 18.4829 23.2422 18.0265V18.0265Z" fill="white"/>
<path d="M109.411 57.6847H109.349L103.674 54.9829C103.653 54.9724 103.634 54.9566 103.617 54.9363C103.601 54.9161 103.588 54.892 103.579 54.8652C103.57 54.8385 103.565 54.8098 103.565 54.7807C103.565 54.7517 103.569 54.723 103.578 54.6962C103.585 54.6687 103.596 54.6432 103.611 54.6215C103.626 54.5998 103.645 54.5823 103.666 54.57C103.686 54.5578 103.709 54.5511 103.731 54.5504C103.754 54.5496 103.777 54.5549 103.798 54.5659L109.466 57.2677C109.488 57.2773 109.508 57.2925 109.526 57.3123C109.543 57.3322 109.557 57.3562 109.566 57.3831C109.576 57.4099 109.581 57.4389 109.582 57.4683C109.582 57.4978 109.578 57.5271 109.569 57.5544C109.556 57.5932 109.534 57.6263 109.506 57.6494C109.477 57.6726 109.445 57.6848 109.411 57.6847V57.6847Z" fill="black"/>
<path d="M111.325 54.9742H111.271C108.14 53.6228 105.072 52.0478 102.082 50.2569C102.061 50.2448 102.042 50.2274 102.027 50.2059C102.011 50.1843 101.999 50.159 101.991 50.1314C101.984 50.1038 101.98 50.0745 101.982 50.0453C101.983 50.0162 101.989 49.9876 102 49.9615C102.009 49.9351 102.022 49.9114 102.038 49.8917C102.054 49.872 102.074 49.8568 102.095 49.847C102.116 49.8373 102.139 49.8331 102.161 49.8349C102.184 49.8366 102.206 49.8442 102.226 49.8572C105.204 51.6446 108.26 53.2138 111.38 54.5572C111.418 54.5764 111.449 54.6111 111.468 54.6556C111.488 54.7 111.495 54.7516 111.489 54.8019C111.483 54.8522 111.463 54.8984 111.433 54.9328C111.404 54.9672 111.366 54.9879 111.325 54.9915V54.9742Z" fill="black"/>
<path d="M111.806 50.7347H111.751C108.285 49.3012 104.82 47.6593 101.457 45.8697C101.415 45.845 101.382 45.8003 101.365 45.7451C101.349 45.6898 101.35 45.6286 101.368 45.5743C101.377 45.548 101.39 45.5242 101.406 45.5043C101.423 45.4844 101.442 45.4687 101.463 45.4582C101.484 45.4477 101.507 45.4426 101.529 45.4432C101.552 45.4437 101.574 45.4499 101.595 45.4614C104.95 47.251 108.402 48.8842 111.888 50.3177C111.91 50.3265 111.93 50.3408 111.947 50.3596C111.965 50.3785 111.979 50.4015 111.989 50.4274C111.999 50.4533 112.005 50.4815 112.007 50.5104C112.008 50.5393 112.005 50.5683 111.998 50.5957C111.984 50.6438 111.957 50.6842 111.922 50.7096C111.887 50.7351 111.846 50.744 111.806 50.7347V50.7347Z" fill="black"/>
<path d="M111.806 46.6775H111.744C107.702 44.7576 104.573 43.107 100.271 40.8048C100.249 40.7943 100.23 40.7785 100.213 40.7583C100.197 40.7381 100.184 40.7139 100.175 40.6872C100.166 40.6604 100.161 40.6317 100.161 40.6027C100.161 40.5736 100.166 40.5449 100.175 40.5181C100.193 40.4649 100.226 40.4227 100.269 40.4C100.311 40.3774 100.358 40.3761 100.401 40.3965C104.71 42.6987 107.833 44.3493 111.868 46.2605C111.911 46.282 111.946 46.3239 111.965 46.3774C111.984 46.431 111.986 46.4919 111.971 46.5472C111.955 46.5861 111.932 46.6189 111.903 46.6419C111.874 46.6649 111.84 46.6772 111.806 46.6775V46.6775Z" fill="black"/>
<path d="M110.804 42.0472C110.782 42.0554 110.758 42.0554 110.735 42.0472L99.1588 36.0702C99.1374 36.0597 99.1179 36.0439 99.1015 36.0237C99.085 36.0035 99.0719 35.9793 99.0629 35.9525C99.054 35.9258 99.0494 35.8971 99.0493 35.8681C99.0493 35.839 99.0538 35.8103 99.0627 35.7835C99.0809 35.7303 99.1146 35.688 99.1567 35.6654C99.1989 35.6428 99.2463 35.6415 99.2892 35.6619L110.866 41.6388C110.887 41.6493 110.907 41.6652 110.923 41.6854C110.94 41.7056 110.953 41.7298 110.962 41.7565C110.971 41.7832 110.975 41.812 110.975 41.841C110.975 41.87 110.971 41.8988 110.962 41.9255C110.947 41.9627 110.925 41.994 110.897 42.0156C110.869 42.0371 110.837 42.0481 110.804 42.0472Z" fill="black"/>
<path d="M110.427 37.7036C110.404 37.7118 110.381 37.7118 110.358 37.7036L97.7867 30.6494C97.7653 30.639 97.7458 30.6232 97.7296 30.6028C97.7133 30.5824 97.7005 30.5579 97.6921 30.5309C97.6838 30.504 97.6799 30.4751 97.6808 30.4461C97.6817 30.4171 97.6874 30.3887 97.6975 30.3627C97.7065 30.3364 97.7195 30.3126 97.7357 30.2926C97.752 30.2727 97.7711 30.2571 97.7922 30.2466C97.8132 30.2361 97.8357 30.2309 97.8583 30.2315C97.881 30.232 97.9033 30.2382 97.924 30.2498L110.496 37.3039C110.517 37.3143 110.536 37.3301 110.553 37.3505C110.569 37.3709 110.582 37.3954 110.59 37.4224C110.599 37.4493 110.602 37.4782 110.601 37.5072C110.601 37.5362 110.595 37.5646 110.585 37.5906C110.57 37.6269 110.547 37.657 110.519 37.6771C110.491 37.6971 110.459 37.7064 110.427 37.7036Z" fill="black"/>
<path d="M109.205 32.1782C109.18 32.1863 109.154 32.1863 109.13 32.1782L96.4482 24.9589C96.4058 24.9343 96.3727 24.8895 96.356 24.8343C96.3393 24.7791 96.3404 24.7178 96.359 24.6636C96.3784 24.612 96.413 24.5721 96.4554 24.5526C96.4977 24.5331 96.5445 24.5355 96.5855 24.5593L109.274 31.7786C109.31 31.7982 109.34 31.8333 109.359 31.8778C109.377 31.9223 109.383 31.9735 109.374 32.0227C109.366 32.0718 109.345 32.1159 109.314 32.1475C109.283 32.179 109.245 32.196 109.205 32.1956V32.1782Z" fill="black"/>
<path d="M106.35 24.9591H106.289C103.139 23.4214 99.9205 21.9445 96.7365 20.5632C96.7147 20.5544 96.6945 20.5402 96.6771 20.5213C96.6597 20.5025 96.6455 20.4794 96.6353 20.4535C96.6251 20.4276 96.619 20.3994 96.6176 20.3705C96.6161 20.3416 96.6191 20.3126 96.6266 20.2853C96.6327 20.257 96.6435 20.2306 96.6582 20.2079C96.6729 20.1852 96.6911 20.1667 96.7119 20.1536C96.7326 20.1405 96.7553 20.1331 96.7784 20.1318C96.8016 20.1305 96.8247 20.1355 96.8462 20.1463C100.037 21.5276 103.262 23.0044 106.412 24.5421C106.454 24.5564 106.489 24.5899 106.512 24.636C106.535 24.6821 106.543 24.7373 106.536 24.7908C106.528 24.8444 106.505 24.8923 106.47 24.925C106.436 24.9578 106.393 24.973 106.35 24.9678V24.9591Z" fill="black"/>
<path d="M106.11 19.8856H106.049L101.519 17.4965C101.477 17.4718 101.443 17.4275 101.426 17.3727C101.408 17.318 101.407 17.2566 101.423 17.2011C101.432 17.1741 101.444 17.1494 101.46 17.1288C101.476 17.1082 101.496 17.092 101.517 17.0814C101.538 17.0708 101.561 17.0659 101.584 17.0671C101.607 17.0682 101.629 17.0754 101.65 17.0882L106.179 19.4773C106.223 19.4888 106.263 19.5222 106.288 19.5703C106.313 19.6184 106.322 19.6771 106.313 19.7335C106.304 19.79 106.277 19.8396 106.239 19.8713C106.201 19.9031 106.155 19.9145 106.11 19.903V19.8856Z" fill="black"/>
<path d="M10.1083 12.675C14.5824 14.5776 19.1115 16.2977 23.421 17.931C22.7347 21.71 20.9025 24.9851 19.681 28.547C19.056 30.4486 18.5199 32.395 18.0753 34.3763C15.8611 43.6081 13.7338 52.8747 11.6934 62.1761C7.99087 60.5743 4.18674 59.3768 0.322754 58.5968C4.26852 43.0811 7.82316 28.1474 10.1083 12.675Z" fill="#ACD4F7"/>
<g opacity="0.13">
<path d="M94.6231 58.5533C93.9248 58.8187 93.2377 59.1289 92.5644 59.4829C92.4124 59.479 92.2605 59.4965 92.1115 59.535C91.7755 59.6237 91.4485 59.7607 91.1371 59.9433C90.7802 60.0997 90.4509 60.2387 90.1077 60.4298C89.9705 60.4906 89.5588 60.6904 89.4215 60.7426L89.298 60.7947L88.9892 60.9076H88.8039C88.736 60.8926 88.6693 60.8693 88.6049 60.8381V60.8381C88.4612 60.6633 88.3261 60.4776 88.2001 60.2821C88.0354 60.0128 88.2001 60.2821 88.2824 60.4211C88.1731 60.229 88.0539 60.0461 87.9256 59.8738L87.8364 59.7348C87.7197 59.535 87.6099 59.3178 87.507 59.1006C87.0638 58.2465 86.6583 57.3619 86.2924 56.451C85.5032 54.531 84.7827 52.559 83.9455 50.6738C83.5097 49.3575 83.0077 48.0778 82.4427 46.8427C80.7711 43.5162 78.7383 40.5041 76.4039 37.8946C74.75 35.7872 72.8751 33.9778 70.8318 32.5171C69.4942 31.4312 67.9864 30.7257 66.4125 30.4495C66.3105 30.4145 66.2038 30.407 66.0993 30.4276C65.9948 30.4482 65.895 30.4963 65.8061 30.5688C65.7173 30.6414 65.6415 30.7367 65.5836 30.8488C65.5257 30.9608 65.4871 31.0869 65.4702 31.219C65.4533 31.3511 65.4584 31.4863 65.4854 31.6157C65.5124 31.7451 65.5606 31.8659 65.6268 31.9703C65.693 32.0746 65.7757 32.1602 65.8697 32.2215C65.9637 32.2827 66.0668 32.3183 66.1724 32.3259C67.3786 32.5073 68.5359 33.0363 69.5554 33.8723C69.4909 34.0604 69.474 34.2693 69.5072 34.47C69.5404 34.6707 69.622 34.8535 69.7407 34.993C70.8524 36.2179 72.1356 37.1649 73.3022 38.3116C73.2473 38.2682 73.8923 38.9631 73.9884 39.1369C74.0845 39.3106 74.256 39.467 74.3864 39.6408C74.3302 39.7035 74.2857 39.7812 74.2561 39.8684C74.2264 39.9555 74.2123 40.0498 74.2149 40.1446C74.2903 40.7528 74.8325 41.4738 75.0795 42.0385C76.3559 44.5057 77.8587 46.7905 78.9429 49.4055C80.4903 53.1285 81.4923 57.1756 81.9005 61.3507C82.1476 62.8623 82.2848 65.6162 81.9005 66.4068L81.7907 66.5458L81.7153 66.5979L81.5643 66.6674C81.5393 66.6724 81.5138 66.6724 81.4888 66.6674V66.6674C81.3883 66.6765 81.2874 66.6765 81.1869 66.6674H81.0634C80.631 66.5284 80.8644 66.6674 80.2193 66.207C80.0187 66.0683 79.7832 66.0342 79.563 66.1117C79.3428 66.1893 79.1551 66.3725 79.0399 66.6225C78.9246 66.8724 78.8909 67.1693 78.9458 67.4502C79.0008 67.7312 79.14 67.9739 79.3341 68.1269C81.8045 70.3769 83.5406 69.5777 84.0278 66.5197C84.2215 64.6705 84.1635 62.7929 83.8563 60.9684C83.9249 61.2377 84.0004 61.5158 84.0759 61.7938C84.2131 62.8884 84.3366 63.9135 84.4464 64.8344L84.3984 64.9125C84.2783 65.1778 84.2441 65.4916 84.303 65.788C84.3619 66.0845 84.5092 66.3405 84.7141 66.5023C84.8072 66.6774 84.9415 66.811 85.0978 66.8842C85.2542 66.9575 85.4248 66.9667 85.5856 66.9106C85.7039 66.8777 85.8131 66.8056 85.9023 66.7019C85.9915 66.5981 86.0574 66.4663 86.0934 66.3199C88.8182 65.0407 91.4515 63.4684 93.9643 61.62C94.296 61.3148 94.6554 61.061 95.0348 60.8642C95.302 60.7419 95.5388 60.5321 95.721 60.2561C95.8463 60.148 95.9556 60.0127 96.0436 59.8564C96.5033 58.675 95.3779 58.0581 94.6231 58.5533Z" fill="black"/>
</g>
<g opacity="0.13">
<path d="M111.902 55.0784C111.762 55.0806 111.625 55.1191 111.497 55.1913C110.873 55.4346 110.303 55.9384 109.686 56.2251C108.595 56.8941 108.169 57.0244 106.701 57.9105C104.182 59.648 99.9893 61.2725 97.7316 62.4714C97.4446 62.5927 97.2054 62.849 97.0634 63.1872C96.9214 63.5254 96.8874 63.9197 96.9684 64.2888C97.0494 64.6578 97.2393 64.9734 97.4988 65.1703C97.7583 65.3672 98.0677 65.4304 98.363 65.3469C100.724 64.3826 102.954 62.9839 105.225 61.7503C106.426 61.0466 108.711 60.0128 110.612 58.8227C111.49 58.2319 112.602 57.5369 112.712 57.1981C112.828 57.0041 112.9 56.773 112.92 56.5304C112.939 56.2878 112.905 56.0432 112.821 55.8237C112.737 55.6042 112.607 55.4184 112.445 55.2869C112.282 55.1553 112.095 55.0831 111.902 55.0784V55.0784Z" fill="black"/>
</g>
<g opacity="0.13">
<path d="M28.3136 24.264C27.3598 28.6598 25.6648 31.9003 24.4227 36.7392C23.6791 39.5623 23.0921 42.4477 22.666 45.3744C22.3984 46.6689 22.1857 47.9807 21.9798 49.2925C21.7327 50.4403 21.6444 51.6337 21.719 52.8196C21.7785 53.0836 21.8803 53.3292 22.0181 53.5412C22.1558 53.7532 22.3266 53.9269 22.5198 54.0516C22.7129 54.1763 22.9243 54.2493 23.1407 54.2661C23.3572 54.2828 23.574 54.2428 23.7777 54.1488C24.2924 54.8351 24.8413 55.4866 25.3903 56.1295V56.0426C25.356 54.7482 25.3903 53.4364 25.3903 52.1594C25.2079 51.4319 25.0951 50.6794 25.0541 49.918C25.2599 48.4846 25.5344 47.0685 25.6648 45.6264C26.2557 40.9852 27.1744 36.4205 28.4097 31.9871C28.7734 30.6666 29.0479 29.294 29.5076 28.017C29.8302 26.8615 30.3585 25.68 30.3585 24.4464C30.3078 24.1624 30.1862 23.9066 30.0117 23.7169C29.8372 23.5272 29.6191 23.4137 29.3896 23.3932C29.1602 23.3728 28.9316 23.4464 28.7378 23.6032C28.544 23.7601 28.3953 23.9918 28.3136 24.264Z" fill="black"/>
</g>
<g opacity="0.13">
<path d="M29.3979 59.8653C29.371 60.006 29.3063 60.1306 29.215 60.2177C29.1236 60.3048 29.0113 60.3492 28.897 60.3431C28.9862 60.4131 29.0858 60.4593 29.1897 60.4787C29.2935 60.4981 29.3994 60.4904 29.5008 60.456C29.6636 60.3958 29.8057 60.2679 29.904 60.0929C30.0024 59.918 30.0513 59.7062 30.0429 59.4917L29.3979 59.8653Z" fill="black"/>
</g>
<g opacity="0.13">
<path d="M21.7059 52.8196C21.7059 52.6458 21.6712 52.4721 21.6504 52.2983C21.6509 52.4744 21.6695 52.6496 21.7059 52.8196V52.8196Z" fill="black"/>
</g>
<g opacity="0.13">
<path d="M35.7523 63.427C35.3475 63.7745 34.7985 63.6703 33.7417 63.6442C32.9408 63.6449 32.1423 63.5342 31.3605 63.3141C30.8459 63.1577 30.3586 62.6625 29.8165 62.7407C29.6045 62.7854 29.4105 62.9193 29.2662 63.121C29.1218 63.3226 29.0355 63.5801 29.0212 63.8516C29.0069 64.1232 29.0654 64.3928 29.1874 64.617C29.3093 64.8411 29.4875 65.0065 29.693 65.0863C30.3952 65.4529 31.1206 65.7435 31.8615 65.9551C32.477 66.2071 33.1315 66.2667 33.7691 66.1288C34.5587 65.8969 35.3171 65.5193 36.0199 65.0081C36.3082 64.7736 36.7062 64.5825 36.8091 64.1394C36.8419 63.9705 36.8292 63.7927 36.7732 63.6339C36.7171 63.4751 36.6208 63.3446 36.4996 63.2628C36.3784 63.1811 36.2391 63.1529 36.1037 63.1826C35.9684 63.2123 35.8447 63.2983 35.7523 63.427V63.427Z" fill="black"/>
</g>
<g opacity="0.13">
<path d="M46.4709 65.1646C46.1141 65.321 46.0455 65.5555 45.4965 65.9291C44.5547 66.5943 43.52 67.0221 42.4497 67.1888C41.533 67.5232 40.5833 67.69 39.6293 67.684C39.1458 67.7015 38.6619 67.6753 38.1814 67.6058C37.8754 67.4842 37.5545 67.4341 37.2344 67.4581C36.964 67.5052 36.7146 67.6688 36.5283 67.9214C36.3421 68.174 36.2303 68.5002 36.2117 68.845C36.1932 69.1897 36.2691 69.5321 36.4266 69.8143C36.5841 70.0965 36.8137 70.3014 37.0766 70.3944C40.1989 71.5412 42.7722 70.3944 44.9887 68.7004C45.6671 68.2082 46.302 67.6258 46.8827 66.9629C47.1983 66.5198 47.2738 66.598 47.3424 65.9986C47.3421 65.8647 47.3174 65.7327 47.2701 65.6129C47.2229 65.4931 47.1544 65.3888 47.07 65.308C46.9856 65.2273 46.8877 65.1723 46.7838 65.1475C46.6798 65.1226 46.5728 65.1284 46.4709 65.1646V65.1646Z" fill="black"/>
</g>
<g opacity="0.13">
<path d="M59.5845 73.3219C58.9326 73.4348 59.0904 73.5391 58.7473 73.6781C58.0744 74.0633 57.3554 74.3041 56.62 74.3905C56.6849 74.2846 56.7313 74.1624 56.7562 74.0321C56.781 73.9018 56.7837 73.7663 56.7641 73.6346C56.736 73.3713 56.6338 73.1296 56.4762 72.954C56.3186 72.7785 56.1163 72.6808 55.9064 72.679C55.3917 72.7225 55.0074 73.2524 54.5339 73.487C53.8562 73.8999 53.1541 74.2455 52.4341 74.5208C51.6766 74.8048 50.891 74.951 50.1009 74.9551C49.6549 74.9551 49.2157 74.5729 48.8108 74.5121C49.6277 74.0855 50.4131 73.5681 51.1577 72.9657C52.0044 72.298 52.7833 71.5015 53.4771 70.594C53.5564 70.5105 53.6198 70.4054 53.6626 70.2866C53.7053 70.1678 53.7264 70.0383 53.7242 69.9077C53.7404 69.7213 53.7085 69.5332 53.6332 69.3716C53.558 69.2101 53.4434 69.0837 53.3068 69.0113C53.1701 68.939 53.0186 68.9246 52.8749 68.9703C52.7312 69.016 52.603 69.1193 52.5096 69.2649C52.5576 69.2214 52.6811 69.1085 52.6056 69.1606L51.5489 69.9772C49.5607 71.486 47.3611 72.4949 45.0709 72.9483C44.6578 73.0278 44.2391 73.0511 43.822 73.0178H43.7054C43.398 72.9148 43.0829 72.8536 42.7652 72.8354C42.6751 72.8274 42.5847 72.842 42.499 72.8782C42.4133 72.9145 42.3341 72.9718 42.2659 73.0469C42.1282 73.1984 42.0437 73.4129 42.031 73.6433C42.0182 73.8737 42.0783 74.1011 42.198 74.2754C42.3177 74.4498 42.4872 74.5568 42.6692 74.5729C43.3314 74.899 44.0228 75.1207 44.7278 75.2331C45.4662 75.2866 46.2069 75.24 46.9375 75.0941C47.3297 75.0489 47.7178 74.9588 48.0972 74.8248C48.0097 74.9492 47.9446 75.0961 47.9062 75.2553C47.8677 75.4146 47.857 75.5824 47.8746 75.7475C47.8922 75.9125 47.9377 76.0707 48.0081 76.2114C48.0785 76.352 48.1721 76.4717 48.2825 76.5623C49.1992 77.1119 50.2037 77.386 51.2178 77.3634C52.2319 77.3408 53.2282 77.022 54.1291 76.432C54.4759 76.2617 54.811 76.0554 55.1309 75.8152C55.1291 76.1893 55.2443 76.5491 55.4513 76.816C55.6583 77.083 55.9403 77.2354 56.2358 77.2399C57.4161 77.0488 58.6993 76.9619 59.6669 76.0584C59.9619 75.7631 60.3531 75.5198 60.4835 75.0507C60.5433 74.8619 60.5662 74.6577 60.5502 74.4553C60.5341 74.2529 60.4796 74.0585 60.3912 73.8886C60.3029 73.7187 60.1834 73.5784 60.0429 73.4797C59.9024 73.381 59.7451 73.3269 59.5845 73.3219Z" fill="black"/>
</g>
<g opacity="0.13">
<path d="M69.1711 67.7186C68.4368 68.1877 68.6152 68.2833 68.1486 68.6568C67.6797 69.1299 67.1171 69.4304 66.5222 69.5256C66.1809 69.647 65.8266 69.6998 65.4723 69.6819H65.2253C65.1257 69.6642 65.0271 69.6381 64.9302 69.6038C64.3263 69.4821 63.6813 68.9175 63.0911 69.3692C62.9183 69.5033 62.7799 69.6978 62.6925 69.9293C62.6051 70.1608 62.5725 70.4193 62.5986 70.6737C62.6247 70.9282 62.7085 71.1676 62.8397 71.3631C62.9709 71.5587 63.1441 71.7019 63.3382 71.7756C64.1267 72.1298 64.9582 72.3062 65.7948 72.2969C66.7988 72.1928 67.765 71.7651 68.6015 71.0546C68.9983 70.6786 69.3785 70.2755 69.7406 69.847C69.8877 69.7319 70.011 69.5742 70.1005 69.3869C70.19 69.1996 70.243 68.9881 70.2553 68.7698C70.2518 68.6041 70.2191 68.4415 70.1596 68.2939C70.1 68.1463 70.0152 68.0174 69.9113 67.9167C69.8074 67.8159 69.687 67.7458 69.5589 67.7115C69.4308 67.6773 69.2983 67.6797 69.1711 67.7186V67.7186Z" fill="black"/>
</g>
<g opacity="0.13">
<path d="M77.4057 64.0698C77.4097 63.7924 77.3412 63.5211 77.2109 63.2981C77.0806 63.075 76.8958 62.9126 76.6852 62.8362H76.6097C76.6516 61.7966 76.5893 60.7545 76.4244 59.7347C76.0383 58.1927 75.5182 56.7096 74.8736 55.3128C74.3703 53.7671 73.6753 52.333 72.8149 51.0647C72.7259 50.9771 72.6193 50.9228 72.5071 50.908C72.395 50.8931 72.2818 50.9183 72.1804 50.9807C72.079 51.0431 71.9934 51.1402 71.9333 51.2609C71.8733 51.3817 71.8411 51.5214 71.8405 51.6641C71.8405 52.1941 72.2522 52.5329 72.4375 53.0107C73.3718 54.7734 74.031 56.7462 74.3795 58.8226C74.9623 60.8168 75.1507 62.9612 74.9285 65.0688V65.147C74.9285 65.2686 74.8942 65.3816 74.8736 65.4945C74.853 65.6075 74.8736 65.6422 74.8255 65.7465C74.7775 65.8507 74.6128 66.1634 74.4961 66.3633C74.3795 66.5631 74.0638 67.0148 73.8991 67.232L73.7893 67.3102C73.3017 67.3483 72.814 67.235 72.3688 66.9801C72.1218 66.8672 72.0738 66.8324 72.3688 66.9801C71.9549 66.7144 71.526 66.4879 71.0856 66.3025C70.8679 66.2738 70.649 66.3395 70.4645 66.4887C70.2801 66.638 70.1411 66.862 70.0702 67.1241C69.9993 67.3863 70.0008 67.6711 70.0743 67.9322C70.1478 68.1932 70.289 68.4149 70.4749 68.5612C70.7906 68.7697 71.1611 68.9695 71.4425 69.1346C71.4694 69.3514 71.5346 69.5577 71.6332 69.7382C71.7318 69.9187 71.8613 70.0687 72.012 70.1771C72.0875 70.2292 72.1698 70.2639 72.2453 70.3074C72.257 70.5883 72.3402 70.8568 72.4825 71.0729C72.6247 71.289 72.8184 71.441 73.0345 71.5062C73.3257 71.6736 73.6432 71.7551 73.963 71.7445C74.2827 71.734 74.5964 71.6317 74.8804 71.4454C75.3546 71.2509 75.7523 70.8345 75.9921 70.2813C76.0455 70.1479 76.0772 70.0023 76.0855 69.8531C76.0937 69.7039 76.0783 69.5541 76.0401 69.4126C76.2133 69.1946 76.3182 68.9044 76.3352 68.5959C76.7792 67.8523 77.097 67.0005 77.2685 66.094C77.3677 65.4672 77.4228 64.8305 77.4332 64.1914C77.4332 64.1914 77.4332 64.1914 77.4332 64.1219L77.4057 64.0698Z" fill="black"/>
</g>
<path d="M18.4732 64.6953H18.3772C15.1519 63.9569 11.8237 63.1837 8.52989 62.0456C7.25352 61.5157 6.0252 61.1769 4.72824 60.786C3.24781 60.3927 1.78611 59.8938 0.350145 59.2917C0.219107 59.233 0.111859 59.1107 0.0520178 58.9519C-0.00782366 58.793 -0.0153542 58.6106 0.0310551 58.4447C0.0774643 58.2788 0.174013 58.1431 0.299487 58.0673C0.424961 57.9915 0.569087 57.982 0.700125 58.0407C2.09689 58.6297 3.51983 59.1142 4.96155 59.4915C6.2242 59.8564 7.54173 60.2387 8.83183 60.786C11.8924 61.8371 15.0078 62.5756 18.0821 63.2793C19.3996 56.5291 21.1907 49.9353 22.9268 43.5588C23.9561 39.7623 25.0266 35.8443 25.9942 31.8742C25.9972 31.857 25.9972 31.8392 25.9942 31.822C26.3236 30.7969 26.6804 29.7892 27.0098 28.8162C28.0074 26.2539 28.7606 23.5505 29.2538 20.7629C29.2354 20.7278 29.2091 20.7006 29.1783 20.6847C29.1192 20.6881 29.0603 20.6732 29.0067 20.6413C26.145 19.3353 23.2315 18.2189 20.278 17.2966C16.7463 16.2206 13.2791 14.8301 9.90233 13.1353C9.83712 13.1036 9.77763 13.0555 9.72736 12.9941C9.67709 12.9327 9.63709 12.8591 9.60973 12.7777C9.58237 12.6963 9.5682 12.6087 9.56808 12.5203C9.56795 12.4318 9.58188 12.3442 9.60902 12.2627C9.63615 12.1812 9.67594 12.1074 9.72604 12.0458C9.77614 11.9841 9.83551 11.9358 9.90063 11.9038C9.96576 11.8717 10.0353 11.8565 10.1051 11.8592C10.175 11.8618 10.2437 11.8822 10.3072 11.9191C13.635 13.5713 17.0491 14.9298 20.525 15.9848C23.479 16.9222 26.3925 18.0531 29.2538 19.3729C29.5252 19.4199 29.7746 19.5871 29.958 19.8447C30.1414 20.1022 30.2468 20.4337 30.2556 20.7803C30.259 20.8178 30.259 20.8557 30.2556 20.8932C29.7579 23.8139 28.9861 26.6487 27.9568 29.3374C27.6274 30.293 27.2706 31.2834 26.9687 32.2825C25.9942 36.2613 24.91 40.188 23.8944 43.9758C22.0347 50.8215 20.278 57.2849 18.9605 64.1914C18.9347 64.3318 18.8729 64.4574 18.7847 64.5486C18.6966 64.6398 18.587 64.6914 18.4732 64.6953Z" fill="black"/>
<path d="M11.8577 62.5843C11.8145 62.5928 11.7705 62.5928 11.7273 62.5843C11.5938 62.5413 11.4791 62.433 11.4084 62.2833C11.3377 62.1335 11.3166 61.9544 11.3499 61.7851C14.3331 46.6938 18.2121 31.9091 22.9539 17.5573C22.9801 17.4766 23.0188 17.4033 23.0677 17.3419C23.1167 17.2804 23.1749 17.2321 23.2389 17.1997C23.3029 17.1673 23.3714 17.1515 23.4403 17.1532C23.5092 17.1549 23.5772 17.1742 23.6401 17.2098C23.7665 17.2805 23.866 17.4109 23.9173 17.5733C23.9686 17.7357 23.9676 17.9171 23.9146 18.0786C19.1912 32.3638 15.3304 47.082 12.3655 62.1065C12.3329 62.2449 12.2659 62.3662 12.1743 62.4523C12.0828 62.5384 11.9717 62.5847 11.8577 62.5843V62.5843Z" fill="black"/>
<path d="M97.5461 66.624C97.4631 66.6227 97.3812 66.599 97.3059 66.5545C97.1807 66.4661 97.0872 66.3198 97.0452 66.1462C94.9865 57.0939 92.77 48.0503 90.4437 38.468C89.236 33.5249 87.9939 28.4079 86.7519 23.2302C86.7184 23.084 86.7253 22.9277 86.7715 22.7871C86.8176 22.6466 86.9003 22.5301 87.0058 22.4571C92.3163 18.8189 97.8518 15.7333 103.557 13.231C103.624 13.2006 103.694 13.1871 103.764 13.1911C103.835 13.1952 103.904 13.2169 103.967 13.2548C104.031 13.2927 104.088 13.3462 104.136 13.4122C104.183 13.4782 104.22 13.5554 104.244 13.6393C104.271 13.7228 104.284 13.8125 104.282 13.9027C104.28 13.993 104.263 14.0817 104.233 14.1634C104.203 14.2451 104.159 14.3179 104.106 14.3772C104.052 14.4365 103.989 14.4811 103.921 14.508C98.4023 16.9277 93.0443 19.8995 87.8979 23.3953C89.0988 28.3906 90.2997 33.325 91.4594 38.1118C93.7308 47.4508 95.8786 56.2946 97.9167 65.1298C102.775 62.9318 107.606 60.4212 112.279 57.6586C112.341 57.6222 112.408 57.6016 112.476 57.5981C112.544 57.5945 112.612 57.6081 112.675 57.638C112.739 57.6679 112.798 57.7135 112.848 57.7722C112.897 57.8309 112.937 57.9015 112.966 57.98C113.022 58.138 113.027 58.3177 112.979 58.4802C112.932 58.6427 112.836 58.7751 112.712 58.8487C107.839 61.7243 102.803 64.3305 97.7314 66.6066C97.6711 66.6278 97.6082 66.6338 97.5461 66.624V66.624Z" fill="black"/>
<path d="M103.839 63.1665C103.723 63.1658 103.611 63.117 103.519 63.0275C103.427 62.938 103.361 62.8129 103.331 62.6713C100.277 48.1372 96.8051 33.551 92.9966 19.3123C92.9745 19.2301 92.9654 19.1433 92.9698 19.0567C92.9743 18.9701 92.9921 18.8855 93.0224 18.8076C93.0526 18.7298 93.0947 18.6603 93.1462 18.603C93.1977 18.5457 93.2576 18.5019 93.3225 18.4739C93.3874 18.446 93.456 18.4345 93.5244 18.4401C93.5928 18.4457 93.6596 18.4683 93.7211 18.5066C93.7826 18.545 93.8376 18.5982 93.8828 18.6634C93.928 18.7286 93.9626 18.8045 93.9847 18.8866C97.8001 33.1514 101.286 47.7723 104.34 62.3238C104.357 62.4076 104.362 62.4951 104.353 62.5811C104.344 62.6671 104.321 62.75 104.287 62.825C104.252 62.9 104.207 62.9657 104.152 63.0184C104.098 63.071 104.035 63.1095 103.969 63.1317C103.927 63.1518 103.883 63.1635 103.839 63.1665V63.1665Z" fill="black"/>
<path d="M45.9838 43.4631C45.3369 43.4995 44.6943 43.3135 44.124 42.9251C43.5538 42.5366 43.0772 41.96 42.7448 41.2565C41.6194 38.4939 43.733 35.3925 44.4261 34.3674C47.2945 30.1627 50.2589 25.8103 53.9508 22.5264C58.1093 18.8169 62.659 17.1402 66.7557 17.8004C68.8203 18.2334 70.8393 18.9621 72.7739 19.9723C73.3915 20.2677 74.0365 20.563 74.6678 20.841C78.681 22.5841 82.8872 23.5107 87.1296 23.5863C87.2674 23.5908 87.3982 23.6633 87.4944 23.7882C87.5905 23.9132 87.6443 24.0808 87.6443 24.2552C87.6453 24.3426 87.6322 24.4293 87.6058 24.5101C87.5794 24.5909 87.5403 24.664 87.4908 24.7249C87.4414 24.7859 87.3826 24.8335 87.3181 24.8648C87.2537 24.896 87.1849 24.9103 87.1159 24.9068C82.7626 24.8215 78.4476 23.8627 74.3316 22.066C73.6865 21.788 73.0346 21.4839 72.4102 21.1972C70.5501 20.2246 68.6097 19.5193 66.6253 19.0949C62.7893 18.4781 58.5005 20.0766 54.5547 23.5863C50.9657 26.7746 48.0425 31.0662 45.2152 35.2188C43.6369 37.5383 43.1566 39.3019 43.6712 40.631C43.9362 41.1475 44.3097 41.5602 44.7497 41.8226C45.1898 42.085 45.679 42.1868 46.1622 42.1166C47.2572 41.9369 48.3123 41.4789 49.2639 40.77L51.4186 39.4409C55.8173 36.6782 59.969 34.0547 63.9079 30.5449C64.0207 30.4435 64.1608 30.4031 64.2972 30.4324C64.4336 30.4617 64.5552 30.5584 64.6353 30.7013C64.7153 30.8441 64.7473 31.0214 64.7242 31.1941C64.701 31.3668 64.6246 31.5208 64.5118 31.6222C60.5042 35.2014 56.3183 37.8337 51.8853 40.631L49.7306 41.9863C48.6542 42.7798 47.4608 43.2855 46.224 43.4718L45.9838 43.4631Z" fill="black"/>
<path d="M84.6385 67.5796C84.5154 67.5836 84.3952 67.5324 84.2991 67.435C84.203 67.3375 84.1372 67.2002 84.1134 67.0473C84.0896 66.8944 84.1092 66.7358 84.1689 66.5995C84.2286 66.4632 84.3244 66.358 84.4394 66.3025C88.1931 64.3392 91.9879 62.3063 95.7141 60.2213C95.8418 60.1565 95.9844 60.1564 96.1122 60.2211C96.2399 60.2858 96.3431 60.4103 96.4003 60.5688C96.4533 60.7303 96.4543 60.9117 96.403 61.0741C96.3517 61.2364 96.2522 61.3669 96.1258 61.4376C92.3928 63.5052 88.5774 65.5467 84.8306 67.5188C84.7703 67.5546 84.705 67.5753 84.6385 67.5796V67.5796Z" fill="black"/>
<path d="M83.177 70.2379C83.0672 70.2379 82.9642 70.2379 82.875 70.2379C81.9143 70.0354 80.9991 69.5738 80.1916 68.8843C79.3841 68.1948 78.7032 67.2935 78.195 66.2416C77.4465 64.7488 76.8166 63.1658 76.3147 61.5157C76.1432 61.0205 75.9785 60.5166 75.8001 60.0214C74.3878 56.0077 72.4636 52.3154 70.1044 49.0926C70.0436 49.0337 69.9937 48.9586 69.9583 48.8725C69.923 48.7865 69.903 48.6916 69.8999 48.5947C69.8968 48.4978 69.9106 48.4012 69.9404 48.3118C69.9701 48.2224 70.015 48.1424 70.072 48.0774C70.1289 48.0125 70.1964 47.9643 70.2697 47.9361C70.3431 47.908 70.4204 47.9006 70.4962 47.9146C70.572 47.9286 70.6445 47.9636 70.7084 48.017C70.7724 48.0705 70.8262 48.1411 70.8662 48.2239C73.3058 51.5548 75.2972 55.3701 76.7608 59.5175L77.2755 61.0465C77.7493 62.6159 78.3471 64.1206 79.0596 65.538C79.4807 66.4394 80.0495 67.2161 80.7278 67.8155C81.4061 68.415 82.1781 68.8233 82.9917 69.0129C83.1391 69.046 83.2909 69.028 83.4309 68.9608C83.5681 68.8566 83.623 68.5091 83.6093 67.927C83.4191 60.1585 81.4703 52.6226 77.9947 46.2158C74.5191 39.809 69.663 34.8009 64.0039 31.7873C63.8776 31.7166 63.7781 31.5861 63.7268 31.4238C63.6755 31.2614 63.6764 31.08 63.7294 30.9185C63.7564 30.8385 63.7955 30.7661 63.8446 30.7053C63.8937 30.6445 63.9518 30.5966 64.0156 30.5643C64.0793 30.532 64.1475 30.516 64.2161 30.5171C64.2848 30.5183 64.3526 30.5366 64.4157 30.571C70.2562 33.6856 75.2678 38.8571 78.855 45.4713C82.4422 52.0855 84.4543 59.8643 84.6523 67.8836C84.6969 68.2937 84.6573 68.7115 84.5371 69.0965C84.4168 69.4816 84.2202 69.8208 83.9661 70.0815C83.7183 70.2199 83.4463 70.2739 83.177 70.2379V70.2379Z" fill="black"/>
<path d="M57.0801 77.4832C56.1125 77.5139 55.165 77.1314 54.3901 76.3972C54.2789 76.2917 54.2051 76.135 54.1845 75.961C54.164 75.787 54.1984 75.6098 54.2803 75.4677C54.3204 75.3973 54.3712 75.3378 54.4296 75.2926C54.4881 75.2474 54.5532 75.2175 54.6209 75.2045C54.6887 75.1916 54.7578 75.1959 54.8242 75.2172C54.8906 75.2385 54.953 75.2764 55.0077 75.3287C55.7283 76.0063 56.6299 76.2995 57.5193 76.1453H57.5947C58.7072 76.0724 59.7524 75.4483 60.5043 74.4078C60.6907 74.1488 60.8326 73.8437 60.9212 73.5117C61.0098 73.1798 61.0431 72.8282 61.019 72.4792C61.0156 72.4504 61.0156 72.4211 61.019 72.3923C61.003 71.0702 60.9066 69.7516 60.7308 68.4482C60.7139 68.3085 60.7329 68.1655 60.7851 68.0404C60.8372 67.9154 60.9196 67.8148 61.0203 67.7535C61.121 67.6922 61.2345 67.6734 61.3442 67.7C61.4539 67.7265 61.554 67.797 61.6297 67.9009C62.38 69.0599 63.2609 70.0727 64.2442 70.9068C64.693 71.2864 65.2022 71.5368 65.7357 71.6404C66.2692 71.744 66.8142 71.6981 67.3322 71.5062C68.5606 70.9415 69.8232 68.231 69.5487 66.7542C69.5314 66.6703 69.5278 66.5828 69.5379 66.497C69.548 66.4112 69.5717 66.3289 69.6076 66.2551C69.6435 66.1812 69.6909 66.1173 69.7468 66.0673C69.8027 66.0172 69.866 65.9819 69.933 65.9636C69.9997 65.9429 70.069 65.939 70.1368 65.9523C70.2047 65.9655 70.2698 65.9956 70.3285 66.0408C70.3872 66.086 70.4382 66.1455 70.4786 66.2157C70.5191 66.286 70.5482 66.3656 70.5643 66.4501C71.0035 68.761 69.288 72.0101 67.6891 72.7485C67.0249 73.0129 66.3226 73.0869 65.633 72.9652C64.9434 72.8435 64.2839 72.5291 63.7021 72.0448C63.0724 71.5562 62.4917 70.9728 61.9728 70.3073C62.0307 70.9883 62.0605 71.6727 62.0621 72.3576C62.1041 72.8825 62.0586 73.4128 61.9286 73.9141C61.7986 74.4154 61.5869 74.8766 61.3072 75.2679C60.845 75.9272 60.2833 76.4628 59.6552 76.8433C59.0271 77.2237 58.3452 77.4413 57.6497 77.4832H57.5742H57.0801Z" fill="black"/>
<path d="M74.2697 72.0711C73.845 72.0559 73.4261 71.9411 73.0345 71.7323C71.0582 70.7593 70.0083 68.0314 68.9927 65.3991C68.3065 63.5661 67.5653 61.6809 66.5703 60.5602C66.4678 60.4436 66.406 60.2804 66.3983 60.1062C66.3906 59.932 66.4376 59.761 66.5291 59.6306C66.6225 59.5004 66.7525 59.4219 66.8912 59.4121C67.03 59.4023 67.1661 59.4621 67.2703 59.5785C68.4162 60.8643 69.1848 62.8711 69.9328 64.791C70.9004 67.3103 71.8199 69.682 73.4119 70.4639C74.0982 70.8027 74.9422 71.2197 76.0745 68.7959C76.3574 68.084 76.5077 67.2994 76.5137 66.5024C76.5315 64.3801 76.2789 62.268 75.7657 60.2475C75.7039 59.9347 75.6353 59.622 75.5735 59.3092C75.5399 59.1387 75.5611 58.9583 75.6325 58.8075C75.7039 58.6568 75.8197 58.5483 75.9544 58.5056C76.0891 58.463 76.2316 58.4898 76.3506 58.5803C76.4697 58.6707 76.5555 58.8173 76.5891 58.9878C76.6509 59.2918 76.7127 59.6046 76.7813 59.9173C77.3199 62.0745 77.5817 64.3271 77.5567 66.5893C77.5464 67.5958 77.3464 68.5846 76.9734 69.4735C76.047 71.4803 75.1275 72.0711 74.2697 72.0711Z" fill="black"/>
<path d="M40.2881 71.6715H40.1509C39.255 71.6907 38.3766 71.3553 37.6385 70.7121C36.9004 70.0689 36.3393 69.15 36.0336 68.0836C35.8744 67.3271 35.844 66.5365 35.9444 65.764C34.8466 66.6069 33.5442 66.9157 32.28 66.6328C31.3266 66.4199 30.4462 65.8473 29.7544 64.99C29.0625 64.1327 28.5914 63.0308 28.4028 61.8286C28.3354 61.52 28.3308 61.1948 28.3896 60.8833C28.4484 60.5719 28.5686 60.2844 28.7391 60.0477C28.7877 59.9867 28.8454 59.9384 28.9088 59.9056C28.9722 59.8727 29.0401 59.856 29.1086 59.8565C29.1771 59.8569 29.2449 59.8744 29.308 59.9079C29.3712 59.9415 29.4285 59.9905 29.4767 60.0521C29.525 60.1137 29.5631 60.1867 29.589 60.267C29.6149 60.3472 29.6281 60.4332 29.6278 60.5199C29.6275 60.6066 29.6137 60.6924 29.5872 60.7724C29.5607 60.8524 29.522 60.9249 29.4733 60.9859C29.4253 61.0468 29.3841 61.2466 29.4321 61.6114C29.5866 62.5438 29.958 63.3963 30.4986 64.059C31.0392 64.7217 31.7242 65.1643 32.4652 65.3297C33.1944 65.4943 33.9452 65.4069 34.6384 65.0767C35.3316 64.7464 35.9416 64.1856 36.4041 63.4532C36.4722 63.3358 36.5692 63.2507 36.6799 63.2113C36.7906 63.1719 36.9085 63.1806 37.0149 63.236C37.1678 63.133 37.326 63.043 37.4884 62.9667C39.5793 61.9614 41.776 61.3525 44.0075 61.1597C45.8054 60.9773 46.9994 61.5333 47.5621 62.7842C47.8429 63.4615 47.9394 64.2371 47.8366 64.9909C47.7271 66.0963 47.3618 67.1361 46.7867 67.9793C46.2231 68.7341 45.5645 69.3653 44.8378 69.8471C43.4707 70.9413 41.9035 71.5697 40.2881 71.6715ZM37.1727 64.7216C36.9142 65.6834 36.8644 66.7155 37.0286 67.71C37.4129 69.3867 38.902 70.3163 40.1784 70.3163C41.6449 70.2292 43.0665 69.6473 44.2957 68.6309C44.9191 68.2171 45.4866 67.6804 45.9769 67.0411C46.413 66.3934 46.6918 65.6 46.7798 64.7563C46.8459 64.2844 46.7931 63.7981 46.6288 63.3663C46.2034 62.4107 45.0025 62.3151 44.0624 62.402C41.9305 62.6097 39.8351 63.2188 37.8452 64.209C37.5951 64.3225 37.3662 64.4999 37.1727 64.7302V64.7216Z" fill="black"/>
<path d="M45.4143 76.1454C44.6325 76.1611 43.8619 75.909 43.1841 75.4157C42.556 74.9344 42.0457 74.2418 41.7101 73.415C41.3745 72.5883 41.2267 71.6599 41.2833 70.7331C41.2951 70.558 41.3614 70.396 41.4676 70.2828C41.5737 70.1696 41.7111 70.1144 41.8494 70.1294C41.9877 70.1443 42.1157 70.2283 42.2051 70.3627C42.2945 70.4971 42.3381 70.671 42.3263 70.8461C42.2798 71.5292 42.3833 72.2153 42.6255 72.8285C42.8677 73.4418 43.2392 73.9583 43.6988 74.321C44.206 74.6514 44.764 74.8381 45.334 74.8681C45.904 74.8981 46.4723 74.7707 46.9995 74.4948C48.1454 73.9039 49.2072 73.0793 50.1424 72.0536C51.5766 70.6376 52.8873 69.0565 53.0382 67.0583C53.0593 66.9294 53.0593 66.7963 53.0382 66.6674C52.9675 66.5232 52.8649 66.4085 52.7432 66.3373C51.8622 65.7461 50.8362 65.6032 49.8747 65.9377C48.9346 66.2484 48.032 66.7189 47.1916 67.3363L47.0338 67.4319C46.973 67.4718 46.9065 67.4962 46.8383 67.5036C46.77 67.511 46.7012 67.5014 46.6359 67.4751C46.5706 67.4489 46.51 67.4067 46.4576 67.3508C46.4052 67.295 46.362 67.2266 46.3304 67.1495C46.2989 67.0725 46.2796 66.9884 46.2738 66.902C46.2679 66.8156 46.2755 66.7285 46.2963 66.6458C46.317 66.5632 46.3503 66.4865 46.3945 66.4201C46.4386 66.3537 46.4926 66.299 46.5534 66.2591L46.7113 66.1548C47.6273 65.4841 48.6106 64.9727 49.6346 64.6345C50.8606 64.2225 52.1648 64.4215 53.2784 65.1906C53.5598 65.366 53.7902 65.6494 53.9369 66.0004C54.0835 66.3514 54.1389 66.7521 54.095 67.1452C53.9372 69.6559 52.4206 71.4889 50.8011 73.0874C49.7771 74.1979 48.6186 75.0925 47.37 75.7371C46.741 76.0121 46.0798 76.1502 45.4143 76.1454V76.1454Z" fill="black"/>
<path d="M51.5077 78.0219C50.7607 78.0216 50.0236 77.8046 49.353 77.3878C48.9164 77.166 48.54 76.7886 48.2696 76.3013C47.9991 75.814 47.8463 75.2377 47.8296 74.6425C47.8341 74.5558 47.852 74.4711 47.8824 74.3932C47.9128 74.3152 47.955 74.2457 48.0066 74.1884C48.0582 74.1311 48.1182 74.0873 48.1832 74.0594C48.2482 74.0314 48.3169 74.02 48.3854 74.0257C48.4539 74.0314 48.5208 74.0542 48.5824 74.0926C48.6439 74.1311 48.6989 74.1845 48.7442 74.2498C48.7894 74.3152 48.824 74.3911 48.8461 74.4734C48.8681 74.5557 48.8771 74.6427 48.8726 74.7294C48.8726 75.3549 49.3599 75.9196 49.8128 76.1976C50.532 76.6517 51.3469 76.8038 52.1391 76.6319C53.3439 76.2517 54.446 75.4686 55.33 74.3645C56.3319 73.2612 56.7573 72.349 56.7024 71.4977C56.6125 71.0108 56.3971 70.5757 56.0902 70.2611C55.7833 69.9465 55.4023 69.7702 55.0075 69.7602C54.1155 69.7752 53.2597 70.2086 52.6057 70.9764C52.5516 71.03 52.4897 71.0697 52.4236 71.093C52.3574 71.1164 52.2883 71.123 52.2201 71.1125C52.1519 71.102 52.086 71.0746 52.0262 71.0319C51.9664 70.9892 51.9138 70.932 51.8714 70.8635C51.8291 70.795 51.7978 70.7167 51.7793 70.6329C51.7609 70.5492 51.7557 70.4616 51.764 70.3753C51.7723 70.289 51.7939 70.2056 51.8276 70.1299C51.8614 70.0541 51.9066 69.9876 51.9606 69.9339C52.8194 68.9751 53.9242 68.4441 55.0692 68.4397C55.7073 68.466 56.3195 68.7656 56.8056 69.2895C57.2918 69.8135 57.6231 70.5307 57.7455 71.3239C57.9102 73.0614 56.8534 74.4514 56.0368 75.3462C55.0051 76.6233 53.7201 77.5237 52.3175 77.9524C52.0494 78.0026 51.7787 78.0258 51.5077 78.0219V78.0219Z" fill="black"/>
<path d="M36.8705 64.1132C36.7479 64.1117 36.6294 64.0563 36.5355 63.9565C36.4416 63.8566 36.3781 63.7185 36.3558 63.5659C36.1705 62.2106 34.9834 61.4027 34.2971 61.0378C32.2934 59.9693 30.5572 60.004 29.1368 61.1421C29.0249 61.2222 28.8941 61.2488 28.7681 61.2169C28.6421 61.185 28.5294 61.0967 28.4505 60.9683C26.5755 57.5868 24.0055 54.9191 21.0188 53.2539C20.8914 53.1836 20.7912 53.0521 20.7404 52.8884C20.6896 52.7247 20.6922 52.5421 20.7477 52.3808C20.8032 52.2195 20.9071 52.0927 21.0364 52.0284C21.1657 51.964 21.31 51.9674 21.4374 52.0376C24.438 53.7193 27.0399 56.3634 28.9858 59.7086C30.6259 58.6401 32.5404 58.6749 34.6883 59.8129C36.2048 60.6295 37.1518 61.8805 37.3508 63.34C37.3636 63.4257 37.3627 63.5138 37.3481 63.599C37.3335 63.6842 37.3055 63.7649 37.2658 63.8362C37.2262 63.9075 37.1756 63.968 37.1171 64.0141C37.0586 64.0601 36.9934 64.0909 36.9254 64.1045L36.8705 64.1132Z" fill="black"/>
<path d="M29.3224 23.8036C29.2044 23.8035 29.09 23.7527 28.9977 23.6596C28.9055 23.5665 28.8409 23.4366 28.8145 23.2911C28.7836 23.1195 28.8073 22.9394 28.8805 22.7898C28.9537 22.6402 29.0706 22.5331 29.2057 22.4918C34.4767 20.8744 39.6631 18.8435 44.7349 16.4106L45.1329 16.2282C46.8249 15.347 48.5942 14.7257 50.4031 14.3778C54.6439 13.787 58.5485 16.1153 61.9933 18.1221C62.1148 18.199 62.2087 18.3316 62.2559 18.4929C62.303 18.6543 62.2999 18.8322 62.2472 18.9908C62.1878 19.1461 62.0827 19.2658 61.9545 19.3243C61.8262 19.3827 61.685 19.3753 61.561 19.3036C58.2397 17.3489 54.4792 15.1249 50.5334 15.6809C48.8079 16.003 47.1191 16.5863 45.5034 17.4184L45.1123 17.6008C39.996 20.0331 34.7663 22.064 29.4527 23.682L29.3224 23.8036Z" fill="black"/>
<path d="M39.6842 12.3448C39.5715 12.3449 39.4617 12.2986 39.3715 12.213C39.2812 12.1275 39.2153 12.0072 39.1836 11.8702C39.1519 11.7332 39.1562 11.5869 39.1957 11.4532C39.2352 11.3195 39.3079 11.2056 39.4029 11.1286C44.1954 7.309 49.8053 5.46369 55.4604 5.84664C55.5988 5.86 55.7276 5.94084 55.8198 6.07211C55.9119 6.20339 55.9602 6.37484 55.9545 6.55032C55.951 6.63671 55.934 6.72135 55.9044 6.79931C55.8748 6.87727 55.8332 6.94698 55.7821 7.00439C55.731 7.06181 55.6714 7.10577 55.6068 7.13371C55.5421 7.16165 55.4737 7.17302 55.4055 7.16714C49.9655 6.8007 44.5694 8.57607 39.9587 12.2493C39.8751 12.31 39.7806 12.3429 39.6842 12.3448V12.3448Z" fill="black"/>
<path d="M36.4041 5.88128C36.2964 5.87546 36.1927 5.82751 36.1074 5.74404C36.0221 5.66056 35.9593 5.54567 35.9277 5.41516C35.8961 5.28465 35.8972 5.14494 35.9309 5.01528C35.9646 4.88561 36.0292 4.77236 36.1159 4.6911C38.9476 2.36777 42.1188 0.787321 45.4416 0.0433157C45.5088 0.0270588 45.5779 0.0279328 45.6448 0.0458741C45.7118 0.0638155 45.7752 0.0984703 45.8314 0.147813C45.8876 0.197155 45.9355 0.260187 45.9723 0.333237C46.0091 0.406287 46.0339 0.487883 46.0455 0.57325C46.0695 0.747118 46.0382 0.925947 45.9585 1.07077C45.8788 1.2156 45.7572 1.31468 45.62 1.34643C42.4415 2.06425 39.4084 3.57952 36.6992 5.80309C36.6086 5.86395 36.5063 5.89106 36.4041 5.88128V5.88128Z" fill="black"/>
<path d="M69.8437 78.5345C69.7077 78.5346 69.5771 78.4674 69.4797 78.3473C69.3823 78.2272 69.3258 78.0637 69.3222 77.8917C69.3194 77.8054 69.3303 77.7192 69.354 77.6383C69.3778 77.5574 69.4141 77.4832 69.4607 77.4201C69.5073 77.3571 69.5633 77.3064 69.6256 77.271C69.6878 77.2356 69.7549 77.2163 69.8231 77.214C72.8833 77.0886 75.8256 75.6902 78.195 73.2352C78.3015 73.1234 78.4387 73.0698 78.5764 73.0861C78.7141 73.1024 78.841 73.1873 78.9293 73.322C79.0171 73.4594 79.0585 73.6351 79.0443 73.8109C79.0302 73.9867 78.9617 74.1482 78.8538 74.2603C76.3061 76.8947 73.1452 78.3965 69.8574 78.5345H69.8437Z" fill="black"/>
<path d="M109.411 57.6847H109.349L103.674 54.9829C103.653 54.9724 103.634 54.9566 103.617 54.9363C103.601 54.9161 103.588 54.892 103.579 54.8652C103.57 54.8385 103.565 54.8098 103.565 54.7807C103.565 54.7517 103.569 54.723 103.578 54.6962C103.585 54.6687 103.596 54.6432 103.611 54.6215C103.626 54.5998 103.645 54.5823 103.666 54.57C103.686 54.5578 103.709 54.5511 103.731 54.5504C103.754 54.5496 103.777 54.5549 103.798 54.5659L109.466 57.2677C109.488 57.2773 109.508 57.2925 109.526 57.3123C109.543 57.3322 109.557 57.3562 109.566 57.3831C109.576 57.4099 109.581 57.4389 109.582 57.4683C109.582 57.4978 109.578 57.5271 109.569 57.5544C109.556 57.5932 109.534 57.6263 109.506 57.6494C109.477 57.6726 109.445 57.6848 109.411 57.6847V57.6847Z" fill="black" stroke="black" stroke-width="0.5" stroke-miterlimit="10"/>
<path d="M111.325 54.9742H111.271C108.14 53.6228 105.072 52.0478 102.082 50.2569C102.061 50.2448 102.042 50.2274 102.027 50.2059C102.011 50.1843 101.999 50.159 101.991 50.1314C101.984 50.1038 101.98 50.0745 101.982 50.0453C101.983 50.0162 101.989 49.9876 102 49.9615C102.009 49.9351 102.022 49.9114 102.038 49.8917C102.054 49.872 102.074 49.8568 102.095 49.847C102.116 49.8373 102.139 49.8331 102.161 49.8349C102.184 49.8366 102.206 49.8442 102.226 49.8572C105.204 51.6446 108.26 53.2138 111.38 54.5572C111.418 54.5764 111.449 54.6111 111.468 54.6556C111.488 54.7 111.495 54.7516 111.489 54.8019C111.483 54.8522 111.463 54.8984 111.433 54.9328C111.404 54.9672 111.366 54.9879 111.325 54.9915V54.9742Z" fill="black" stroke="black" stroke-width="0.5" stroke-miterlimit="10"/>
<path d="M111.806 50.7347H111.751C108.285 49.3012 104.82 47.6593 101.457 45.8697C101.415 45.845 101.382 45.8003 101.365 45.7451C101.349 45.6898 101.35 45.6286 101.368 45.5743C101.377 45.548 101.39 45.5242 101.406 45.5043C101.423 45.4844 101.442 45.4687 101.463 45.4582C101.484 45.4477 101.507 45.4426 101.529 45.4432C101.552 45.4437 101.574 45.4499 101.595 45.4614C104.95 47.251 108.402 48.8842 111.888 50.3177C111.91 50.3265 111.93 50.3408 111.947 50.3596C111.965 50.3785 111.979 50.4015 111.989 50.4274C111.999 50.4533 112.005 50.4815 112.007 50.5104C112.008 50.5393 112.005 50.5683 111.998 50.5957C111.984 50.6438 111.957 50.6842 111.922 50.7096C111.887 50.7351 111.846 50.744 111.806 50.7347V50.7347Z" fill="black" stroke="black" stroke-width="0.5" stroke-miterlimit="10"/>
<path d="M111.806 46.6775H111.744C107.702 44.7576 104.573 43.107 100.271 40.8048C100.249 40.7943 100.23 40.7785 100.213 40.7583C100.197 40.7381 100.184 40.7139 100.175 40.6872C100.166 40.6604 100.161 40.6317 100.161 40.6027C100.161 40.5736 100.166 40.5449 100.175 40.5181C100.193 40.4649 100.226 40.4227 100.269 40.4C100.311 40.3774 100.358 40.3761 100.401 40.3965C104.71 42.6987 107.833 44.3493 111.868 46.2605C111.911 46.282 111.946 46.3239 111.965 46.3774C111.984 46.431 111.986 46.4919 111.971 46.5472C111.955 46.5861 111.932 46.6189 111.903 46.6419C111.874 46.6649 111.84 46.6772 111.806 46.6775V46.6775Z" fill="black" stroke="black" stroke-width="0.5" stroke-miterlimit="10"/>
<path d="M110.804 42.0472C110.782 42.0554 110.758 42.0554 110.735 42.0472L99.1588 36.0702C99.1374 36.0597 99.1179 36.0439 99.1015 36.0237C99.085 36.0035 99.0719 35.9793 99.0629 35.9525C99.054 35.9258 99.0494 35.8971 99.0493 35.8681C99.0493 35.839 99.0538 35.8103 99.0627 35.7835C99.0809 35.7303 99.1146 35.688 99.1567 35.6654C99.1989 35.6428 99.2463 35.6415 99.2892 35.6619L110.866 41.6388C110.887 41.6493 110.907 41.6652 110.923 41.6854C110.94 41.7056 110.953 41.7298 110.962 41.7565C110.971 41.7832 110.975 41.812 110.975 41.841C110.975 41.87 110.971 41.8988 110.962 41.9255C110.947 41.9627 110.925 41.994 110.897 42.0156C110.869 42.0371 110.837 42.0481 110.804 42.0472Z" fill="black" stroke="black" stroke-width="0.5" stroke-miterlimit="10"/>
<path d="M110.427 37.7036C110.404 37.7118 110.381 37.7118 110.358 37.7036L97.7867 30.6494C97.7653 30.639 97.7458 30.6232 97.7296 30.6028C97.7133 30.5824 97.7005 30.5579 97.6921 30.5309C97.6838 30.504 97.6799 30.4751 97.6808 30.4461C97.6817 30.4171 97.6874 30.3887 97.6975 30.3627C97.7065 30.3364 97.7195 30.3126 97.7357 30.2926C97.752 30.2727 97.7711 30.2571 97.7922 30.2466C97.8132 30.2361 97.8357 30.2309 97.8583 30.2315C97.881 30.232 97.9033 30.2382 97.924 30.2498L110.496 37.3039C110.517 37.3143 110.536 37.3301 110.553 37.3505C110.569 37.3709 110.582 37.3954 110.59 37.4224C110.599 37.4493 110.602 37.4782 110.601 37.5072C110.601 37.5362 110.595 37.5646 110.585 37.5906C110.57 37.6269 110.547 37.657 110.519 37.6771C110.491 37.6971 110.459 37.7064 110.427 37.7036Z" fill="black" stroke="black" stroke-width="0.5" stroke-miterlimit="10"/>
<path d="M109.205 32.1782C109.18 32.1863 109.154 32.1863 109.13 32.1782L96.4482 24.9589C96.4058 24.9343 96.3727 24.8895 96.356 24.8343C96.3393 24.7791 96.3404 24.7178 96.359 24.6636C96.3784 24.612 96.413 24.5721 96.4554 24.5526C96.4977 24.5331 96.5445 24.5355 96.5855 24.5593L109.274 31.7786C109.31 31.7982 109.34 31.8333 109.359 31.8778C109.377 31.9223 109.383 31.9735 109.374 32.0227C109.366 32.0718 109.345 32.1159 109.314 32.1475C109.283 32.179 109.245 32.196 109.205 32.1956V32.1782Z" fill="black" stroke="black" stroke-width="0.5" stroke-miterlimit="10"/>
<path d="M106.35 24.9591H106.289C103.139 23.4214 99.9205 21.9445 96.7365 20.5632C96.7147 20.5544 96.6945 20.5402 96.6771 20.5213C96.6597 20.5025 96.6455 20.4794 96.6353 20.4535C96.6251 20.4276 96.619 20.3994 96.6176 20.3705C96.6161 20.3416 96.6191 20.3126 96.6266 20.2853C96.6327 20.257 96.6435 20.2306 96.6582 20.2079C96.6729 20.1852 96.6911 20.1667 96.7119 20.1536C96.7326 20.1405 96.7553 20.1331 96.7784 20.1318C96.8016 20.1305 96.8247 20.1355 96.8462 20.1463C100.037 21.5276 103.262 23.0044 106.412 24.5421C106.454 24.5564 106.489 24.5899 106.512 24.636C106.535 24.6821 106.543 24.7373 106.536 24.7908C106.528 24.8444 106.505 24.8923 106.47 24.925C106.436 24.9578 106.393 24.973 106.35 24.9678V24.9591Z" fill="black" stroke="black" stroke-width="0.5" stroke-miterlimit="10"/>
<path d="M106.11 19.8856H106.049L101.519 17.4965C101.477 17.4718 101.443 17.4275 101.426 17.3727C101.408 17.318 101.407 17.2566 101.423 17.2011C101.432 17.1741 101.444 17.1494 101.46 17.1288C101.476 17.1082 101.496 17.092 101.517 17.0814C101.538 17.0708 101.561 17.0659 101.584 17.0671C101.607 17.0682 101.629 17.0754 101.65 17.0882L106.179 19.4773C106.223 19.4888 106.263 19.5222 106.288 19.5703C106.313 19.6184 106.322 19.6771 106.313 19.7335C106.304 19.79 106.277 19.8396 106.239 19.8713C106.201 19.9031 106.155 19.9145 106.11 19.903V19.8856Z" fill="black" stroke="black" stroke-width="0.5" stroke-miterlimit="10"/>
<path d="M10.1083 12.675C14.5824 14.5776 19.1115 16.2977 23.421 17.931C22.7347 21.71 20.9025 24.9851 19.681 28.547C19.056 30.4486 18.5199 32.395 18.0753 34.3763C15.8611 43.6081 13.7338 52.8747 11.6934 62.1761C7.99087 60.5743 4.18674 59.3768 0.322754 58.5968C4.26852 43.0811 7.82316 28.1474 10.1083 12.675Z" fill="#11273C"/>
<g opacity="0.13">
<path d="M94.6231 58.5533C93.9248 58.8187 93.2377 59.1289 92.5644 59.4829C92.4124 59.479 92.2605 59.4965 92.1115 59.535C91.7755 59.6237 91.4485 59.7607 91.1371 59.9433C90.7802 60.0997 90.4509 60.2387 90.1077 60.4298C89.9705 60.4906 89.5588 60.6904 89.4215 60.7426L89.298 60.7947L88.9892 60.9076H88.8039C88.736 60.8926 88.6693 60.8693 88.6049 60.8381V60.8381C88.4612 60.6633 88.3261 60.4776 88.2001 60.2821C88.0354 60.0128 88.2001 60.2821 88.2824 60.4211C88.1731 60.229 88.0539 60.0461 87.9256 59.8738L87.8364 59.7348C87.7197 59.535 87.6099 59.3178 87.507 59.1006C87.0638 58.2465 86.6583 57.3619 86.2924 56.451C85.5032 54.531 84.7827 52.559 83.9455 50.6738C83.5097 49.3575 83.0077 48.0778 82.4427 46.8427C80.7711 43.5162 78.7383 40.5041 76.4039 37.8946C74.75 35.7872 72.8751 33.9778 70.8318 32.5171C69.4942 31.4312 67.9864 30.7257 66.4125 30.4495C66.3105 30.4145 66.2038 30.407 66.0993 30.4276C65.9948 30.4482 65.895 30.4963 65.8061 30.5688C65.7173 30.6414 65.6415 30.7367 65.5836 30.8488C65.5257 30.9608 65.4871 31.0869 65.4702 31.219C65.4533 31.3511 65.4584 31.4863 65.4854 31.6157C65.5124 31.7451 65.5606 31.8659 65.6268 31.9703C65.693 32.0746 65.7757 32.1602 65.8697 32.2215C65.9637 32.2827 66.0668 32.3183 66.1724 32.3259C67.3786 32.5073 68.5359 33.0363 69.5554 33.8723C69.4909 34.0604 69.474 34.2693 69.5072 34.47C69.5404 34.6707 69.622 34.8535 69.7407 34.993C70.8524 36.2179 72.1356 37.1649 73.3022 38.3116C73.2473 38.2682 73.8923 38.9631 73.9884 39.1369C74.0845 39.3106 74.256 39.467 74.3864 39.6408C74.3302 39.7035 74.2857 39.7812 74.2561 39.8684C74.2264 39.9555 74.2123 40.0498 74.2149 40.1446C74.2903 40.7528 74.8325 41.4738 75.0795 42.0385C76.3559 44.5057 77.8587 46.7905 78.9429 49.4055C80.4903 53.1285 81.4923 57.1756 81.9005 61.3507C82.1476 62.8623 82.2848 65.6162 81.9005 66.4068L81.7907 66.5458L81.7153 66.5979L81.5643 66.6674C81.5393 66.6724 81.5138 66.6724 81.4888 66.6674V66.6674C81.3883 66.6765 81.2874 66.6765 81.1869 66.6674H81.0634C80.631 66.5284 80.8644 66.6674 80.2193 66.207C80.0187 66.0683 79.7832 66.0342 79.563 66.1117C79.3428 66.1893 79.1551 66.3725 79.0399 66.6225C78.9246 66.8724 78.8909 67.1693 78.9458 67.4502C79.0008 67.7312 79.14 67.9739 79.3341 68.1269C81.8045 70.3769 83.5406 69.5777 84.0278 66.5197C84.2215 64.6705 84.1635 62.7929 83.8563 60.9684C83.9249 61.2377 84.0004 61.5158 84.0759 61.7938C84.2131 62.8884 84.3366 63.9135 84.4464 64.8344L84.3984 64.9125C84.2783 65.1778 84.2441 65.4916 84.303 65.788C84.3619 66.0845 84.5092 66.3405 84.7141 66.5023C84.8072 66.6774 84.9415 66.811 85.0978 66.8842C85.2542 66.9575 85.4248 66.9667 85.5856 66.9106C85.7039 66.8777 85.8131 66.8056 85.9023 66.7019C85.9915 66.5981 86.0574 66.4663 86.0934 66.3199C88.8182 65.0407 91.4515 63.4684 93.9643 61.62C94.296 61.3148 94.6554 61.061 95.0348 60.8642C95.302 60.7419 95.5388 60.5321 95.721 60.2561C95.8463 60.148 95.9556 60.0127 96.0436 59.8564C96.5033 58.675 95.3779 58.0581 94.6231 58.5533Z" fill="#169579"/>
</g>
<g opacity="0.13">
<path d="M111.902 55.0784C111.762 55.0806 111.625 55.1191 111.497 55.1913C110.873 55.4346 110.303 55.9384 109.686 56.2251C108.595 56.8941 108.169 57.0244 106.701 57.9105C104.182 59.648 99.9893 61.2725 97.7316 62.4714C97.4446 62.5927 97.2054 62.849 97.0634 63.1872C96.9214 63.5254 96.8874 63.9197 96.9684 64.2888C97.0494 64.6578 97.2393 64.9734 97.4988 65.1703C97.7583 65.3672 98.0677 65.4304 98.363 65.3469C100.724 64.3826 102.954 62.9839 105.225 61.7503C106.426 61.0466 108.711 60.0128 110.612 58.8227C111.49 58.2319 112.602 57.5369 112.712 57.1981C112.828 57.0041 112.9 56.773 112.92 56.5304C112.939 56.2878 112.905 56.0432 112.821 55.8237C112.737 55.6042 112.607 55.4184 112.445 55.2869C112.282 55.1553 112.095 55.0831 111.902 55.0784V55.0784Z" fill="#169579"/>
</g>
<g opacity="0.13">
<path d="M28.3136 24.264C27.3598 28.6598 25.6648 31.9003 24.4227 36.7392C23.6791 39.5623 23.0921 42.4477 22.666 45.3744C22.3984 46.6689 22.1857 47.9807 21.9798 49.2925C21.7327 50.4403 21.6444 51.6337 21.719 52.8196C21.7785 53.0836 21.8803 53.3292 22.0181 53.5412C22.1558 53.7532 22.3266 53.9269 22.5198 54.0516C22.7129 54.1763 22.9243 54.2493 23.1407 54.2661C23.3572 54.2828 23.574 54.2428 23.7777 54.1488C24.2924 54.8351 24.8413 55.4866 25.3903 56.1295V56.0426C25.356 54.7482 25.3903 53.4364 25.3903 52.1594C25.2079 51.4319 25.0951 50.6794 25.0541 49.918C25.2599 48.4846 25.5344 47.0685 25.6648 45.6264C26.2557 40.9852 27.1744 36.4205 28.4097 31.9871C28.7734 30.6666 29.0479 29.294 29.5076 28.017C29.8302 26.8615 30.3585 25.68 30.3585 24.4464C30.3078 24.1624 30.1862 23.9066 30.0117 23.7169C29.8372 23.5272 29.6191 23.4137 29.3896 23.3932C29.1602 23.3728 28.9316 23.4464 28.7378 23.6032C28.544 23.7601 28.3953 23.9918 28.3136 24.264Z" fill="#169579"/>
</g>
<g opacity="0.13">
<path d="M29.3979 59.8653C29.371 60.006 29.3063 60.1306 29.215 60.2177C29.1236 60.3048 29.0113 60.3492 28.897 60.3431C28.9862 60.4131 29.0858 60.4593 29.1897 60.4787C29.2935 60.4981 29.3994 60.4904 29.5008 60.456C29.6636 60.3958 29.8057 60.2679 29.904 60.0929C30.0024 59.918 30.0513 59.7062 30.0429 59.4917L29.3979 59.8653Z" fill="#169579"/>
</g>
<g opacity="0.13">
<path d="M21.7059 52.8196C21.7059 52.6458 21.6712 52.4721 21.6504 52.2983C21.6509 52.4744 21.6695 52.6496 21.7059 52.8196V52.8196Z" fill="#169579"/>
</g>
<g opacity="0.13">
<path d="M35.7523 63.427C35.3475 63.7745 34.7985 63.6703 33.7417 63.6442C32.9408 63.6449 32.1423 63.5342 31.3605 63.3141C30.8459 63.1577 30.3586 62.6625 29.8165 62.7407C29.6045 62.7854 29.4105 62.9193 29.2662 63.121C29.1218 63.3226 29.0355 63.5801 29.0212 63.8516C29.0069 64.1232 29.0654 64.3928 29.1874 64.617C29.3093 64.8411 29.4875 65.0065 29.693 65.0863C30.3952 65.4529 31.1206 65.7435 31.8615 65.9551C32.477 66.2071 33.1315 66.2667 33.7691 66.1288C34.5587 65.8969 35.3171 65.5193 36.0199 65.0081C36.3082 64.7736 36.7062 64.5825 36.8091 64.1394C36.8419 63.9705 36.8292 63.7927 36.7732 63.6339C36.7171 63.4751 36.6208 63.3446 36.4996 63.2628C36.3784 63.1811 36.2391 63.1529 36.1037 63.1826C35.9684 63.2123 35.8447 63.2983 35.7523 63.427V63.427Z" fill="#169579"/>
</g>
<g opacity="0.13">
<path d="M46.4709 65.1646C46.1141 65.321 46.0455 65.5555 45.4965 65.9291C44.5547 66.5943 43.52 67.0221 42.4497 67.1888C41.533 67.5232 40.5833 67.69 39.6293 67.684C39.1458 67.7015 38.6619 67.6753 38.1814 67.6058C37.8754 67.4842 37.5545 67.4341 37.2344 67.4581C36.964 67.5052 36.7146 67.6688 36.5283 67.9214C36.3421 68.174 36.2303 68.5002 36.2117 68.845C36.1932 69.1897 36.2691 69.5321 36.4266 69.8143C36.5841 70.0965 36.8137 70.3014 37.0766 70.3944C40.1989 71.5412 42.7722 70.3944 44.9887 68.7004C45.6671 68.2082 46.302 67.6258 46.8827 66.9629C47.1983 66.5198 47.2738 66.598 47.3424 65.9986C47.3421 65.8647 47.3174 65.7327 47.2701 65.6129C47.2229 65.4931 47.1544 65.3888 47.07 65.308C46.9856 65.2273 46.8877 65.1723 46.7838 65.1475C46.6798 65.1226 46.5728 65.1284 46.4709 65.1646V65.1646Z" fill="#169579"/>
</g>
<g opacity="0.13">
<path d="M59.5845 73.3219C58.9326 73.4348 59.0904 73.5391 58.7473 73.6781C58.0744 74.0633 57.3554 74.3041 56.62 74.3905C56.6849 74.2846 56.7313 74.1624 56.7562 74.0321C56.781 73.9018 56.7837 73.7663 56.7641 73.6346C56.736 73.3713 56.6338 73.1296 56.4762 72.954C56.3186 72.7785 56.1163 72.6808 55.9064 72.679C55.3917 72.7225 55.0074 73.2524 54.5339 73.487C53.8562 73.8999 53.1541 74.2455 52.4341 74.5208C51.6766 74.8048 50.891 74.951 50.1009 74.9551C49.6549 74.9551 49.2157 74.5729 48.8108 74.5121C49.6277 74.0855 50.4131 73.5681 51.1577 72.9657C52.0044 72.298 52.7833 71.5015 53.4771 70.594C53.5564 70.5105 53.6198 70.4054 53.6626 70.2866C53.7053 70.1678 53.7264 70.0383 53.7242 69.9077C53.7404 69.7213 53.7085 69.5332 53.6332 69.3716C53.558 69.2101 53.4434 69.0837 53.3068 69.0113C53.1701 68.939 53.0186 68.9246 52.8749 68.9703C52.7312 69.016 52.603 69.1193 52.5096 69.2649C52.5576 69.2214 52.6811 69.1085 52.6056 69.1606L51.5489 69.9772C49.5607 71.486 47.3611 72.4949 45.0709 72.9483C44.6578 73.0278 44.2391 73.0511 43.822 73.0178H43.7054C43.398 72.9148 43.0829 72.8536 42.7652 72.8354C42.6751 72.8274 42.5847 72.842 42.499 72.8782C42.4133 72.9145 42.3341 72.9718 42.2659 73.0469C42.1282 73.1984 42.0437 73.4129 42.031 73.6433C42.0182 73.8737 42.0783 74.1011 42.198 74.2754C42.3177 74.4498 42.4872 74.5568 42.6692 74.5729C43.3314 74.899 44.0228 75.1207 44.7278 75.2331C45.4662 75.2866 46.2069 75.24 46.9375 75.0941C47.3297 75.0489 47.7178 74.9588 48.0972 74.8248C48.0097 74.9492 47.9446 75.0961 47.9062 75.2553C47.8677 75.4146 47.857 75.5824 47.8746 75.7475C47.8922 75.9125 47.9377 76.0707 48.0081 76.2114C48.0785 76.352 48.1721 76.4717 48.2825 76.5623C49.1992 77.1119 50.2037 77.386 51.2178 77.3634C52.2319 77.3408 53.2282 77.022 54.1291 76.432C54.4759 76.2617 54.811 76.0554 55.1309 75.8152C55.1291 76.1893 55.2443 76.5491 55.4513 76.816C55.6583 77.083 55.9403 77.2354 56.2358 77.2399C57.4161 77.0488 58.6993 76.9619 59.6669 76.0584C59.9619 75.7631 60.3531 75.5198 60.4835 75.0507C60.5433 74.8619 60.5662 74.6577 60.5502 74.4553C60.5341 74.2529 60.4796 74.0585 60.3912 73.8886C60.3029 73.7187 60.1834 73.5784 60.0429 73.4797C59.9024 73.381 59.7451 73.3269 59.5845 73.3219Z" fill="#169579"/>
</g>
<g opacity="0.13">
<path d="M69.1711 67.7186C68.4368 68.1877 68.6152 68.2833 68.1486 68.6568C67.6797 69.1299 67.1171 69.4304 66.5222 69.5256C66.1809 69.647 65.8266 69.6998 65.4723 69.6819H65.2253C65.1257 69.6642 65.0271 69.6381 64.9302 69.6038C64.3263 69.4821 63.6813 68.9175 63.0911 69.3692C62.9183 69.5033 62.7799 69.6978 62.6925 69.9293C62.6051 70.1608 62.5725 70.4193 62.5986 70.6737C62.6247 70.9282 62.7085 71.1676 62.8397 71.3631C62.9709 71.5587 63.1441 71.7019 63.3382 71.7756C64.1267 72.1298 64.9582 72.3062 65.7948 72.2969C66.7988 72.1928 67.765 71.7651 68.6015 71.0546C68.9983 70.6786 69.3785 70.2755 69.7406 69.847C69.8877 69.7319 70.011 69.5742 70.1005 69.3869C70.19 69.1996 70.243 68.9881 70.2553 68.7698C70.2518 68.6041 70.2191 68.4415 70.1596 68.2939C70.1 68.1463 70.0152 68.0174 69.9113 67.9167C69.8074 67.8159 69.687 67.7458 69.5589 67.7115C69.4308 67.6773 69.2983 67.6797 69.1711 67.7186V67.7186Z" fill="#169579"/>
</g>
<g opacity="0.13">
<path d="M77.4057 64.0698C77.4097 63.7924 77.3412 63.5211 77.2109 63.2981C77.0806 63.075 76.8958 62.9126 76.6852 62.8362H76.6097C76.6516 61.7966 76.5893 60.7545 76.4244 59.7347C76.0383 58.1927 75.5182 56.7096 74.8736 55.3128C74.3703 53.7671 73.6753 52.333 72.8149 51.0647C72.7259 50.9771 72.6193 50.9228 72.5071 50.908C72.395 50.8931 72.2818 50.9183 72.1804 50.9807C72.079 51.0431 71.9934 51.1402 71.9333 51.2609C71.8733 51.3817 71.8411 51.5214 71.8405 51.6641C71.8405 52.1941 72.2522 52.5329 72.4375 53.0107C73.3718 54.7734 74.031 56.7462 74.3795 58.8226C74.9623 60.8168 75.1507 62.9612 74.9285 65.0688V65.147C74.9285 65.2686 74.8942 65.3816 74.8736 65.4945C74.853 65.6075 74.8736 65.6422 74.8255 65.7465C74.7775 65.8507 74.6128 66.1634 74.4961 66.3633C74.3795 66.5631 74.0638 67.0148 73.8991 67.232L73.7893 67.3102C73.3017 67.3483 72.814 67.235 72.3688 66.9801C72.1218 66.8672 72.0738 66.8324 72.3688 66.9801C71.9549 66.7144 71.526 66.4879 71.0856 66.3025C70.8679 66.2738 70.649 66.3395 70.4645 66.4887C70.2801 66.638 70.1411 66.862 70.0702 67.1241C69.9993 67.3863 70.0008 67.6711 70.0743 67.9322C70.1478 68.1932 70.289 68.4149 70.4749 68.5612C70.7906 68.7697 71.1611 68.9695 71.4425 69.1346C71.4694 69.3514 71.5346 69.5577 71.6332 69.7382C71.7318 69.9187 71.8613 70.0687 72.012 70.1771C72.0875 70.2292 72.1698 70.2639 72.2453 70.3074C72.257 70.5883 72.3402 70.8568 72.4825 71.0729C72.6247 71.289 72.8184 71.441 73.0345 71.5062C73.3257 71.6736 73.6432 71.7551 73.963 71.7445C74.2827 71.734 74.5964 71.6317 74.8804 71.4454C75.3546 71.2509 75.7523 70.8345 75.9921 70.2813C76.0455 70.1479 76.0772 70.0023 76.0855 69.8531C76.0937 69.7039 76.0783 69.5541 76.0401 69.4126C76.2133 69.1946 76.3182 68.9044 76.3352 68.5959C76.7792 67.8523 77.097 67.0005 77.2685 66.094C77.3677 65.4672 77.4228 64.8305 77.4332 64.1914C77.4332 64.1914 77.4332 64.1914 77.4332 64.1219L77.4057 64.0698Z" fill="#169579"/>
</g>
<path d="M18.4732 64.6953H18.3772C15.1519 63.9569 11.8237 63.1837 8.52989 62.0456C7.25352 61.5157 6.0252 61.1769 4.72824 60.786C3.24781 60.3927 1.78611 59.8938 0.350145 59.2917C0.219107 59.233 0.111859 59.1107 0.0520178 58.9519C-0.00782366 58.793 -0.0153542 58.6106 0.0310551 58.4447C0.0774643 58.2788 0.174013 58.1431 0.299487 58.0673C0.424961 57.9915 0.569087 57.982 0.700125 58.0407C2.09689 58.6297 3.51983 59.1142 4.96155 59.4915C6.2242 59.8564 7.54173 60.2387 8.83183 60.786C11.8924 61.8371 15.0078 62.5756 18.0821 63.2793C19.3996 56.5291 21.1907 49.9353 22.9268 43.5588C23.9561 39.7623 25.0266 35.8443 25.9942 31.8742C25.9972 31.857 25.9972 31.8392 25.9942 31.822C26.3236 30.7969 26.6804 29.7892 27.0098 28.8162C28.0074 26.2539 28.7606 23.5505 29.2538 20.7629C29.2354 20.7278 29.2091 20.7006 29.1783 20.6847C29.1192 20.6881 29.0603 20.6732 29.0067 20.6413C26.145 19.3353 23.2315 18.2189 20.278 17.2966C16.7463 16.2206 13.2791 14.8301 9.90233 13.1353C9.83712 13.1036 9.77763 13.0555 9.72736 12.9941C9.67709 12.9327 9.63709 12.8591 9.60973 12.7777C9.58237 12.6963 9.5682 12.6087 9.56808 12.5203C9.56795 12.4318 9.58188 12.3442 9.60902 12.2627C9.63615 12.1812 9.67594 12.1074 9.72604 12.0458C9.77614 11.9841 9.83551 11.9358 9.90063 11.9038C9.96576 11.8717 10.0353 11.8565 10.1051 11.8592C10.175 11.8618 10.2437 11.8822 10.3072 11.9191C13.635 13.5713 17.0491 14.9298 20.525 15.9848C23.479 16.9222 26.3925 18.0531 29.2538 19.3729C29.5252 19.4199 29.7746 19.5871 29.958 19.8447C30.1414 20.1022 30.2468 20.4337 30.2556 20.7803C30.259 20.8178 30.259 20.8557 30.2556 20.8932C29.7579 23.8139 28.9861 26.6487 27.9568 29.3374C27.6274 30.293 27.2706 31.2834 26.9687 32.2825C25.9942 36.2613 24.91 40.188 23.8944 43.9758C22.0347 50.8215 20.278 57.2849 18.9605 64.1914C18.9347 64.3318 18.8729 64.4574 18.7847 64.5486C18.6966 64.6398 18.587 64.6914 18.4732 64.6953Z" fill="black"/>
<path d="M11.8577 62.5843C11.8145 62.5928 11.7705 62.5928 11.7273 62.5843C11.5938 62.5413 11.4791 62.433 11.4084 62.2833C11.3377 62.1335 11.3166 61.9544 11.3499 61.7851C14.3331 46.6938 18.2121 31.9091 22.9539 17.5573C22.9801 17.4766 23.0188 17.4033 23.0677 17.3419C23.1167 17.2804 23.1749 17.2321 23.2389 17.1997C23.3029 17.1673 23.3714 17.1515 23.4403 17.1532C23.5092 17.1549 23.5772 17.1742 23.6401 17.2098C23.7665 17.2805 23.866 17.4109 23.9173 17.5733C23.9686 17.7357 23.9676 17.9171 23.9146 18.0786C19.1912 32.3638 15.3304 47.082 12.3655 62.1065C12.3329 62.2449 12.2659 62.3662 12.1743 62.4523C12.0828 62.5384 11.9717 62.5847 11.8577 62.5843V62.5843Z" fill="black"/>
<path d="M97.5461 66.624C97.4631 66.6227 97.3812 66.599 97.3059 66.5545C97.1807 66.4661 97.0872 66.3198 97.0452 66.1462C94.9865 57.0939 92.77 48.0503 90.4437 38.468C89.236 33.5249 87.9939 28.4079 86.7519 23.2302C86.7184 23.084 86.7253 22.9277 86.7715 22.7871C86.8176 22.6466 86.9003 22.5301 87.0058 22.4571C92.3163 18.8189 97.8518 15.7333 103.557 13.231C103.624 13.2006 103.694 13.1871 103.764 13.1911C103.835 13.1952 103.904 13.2169 103.967 13.2548C104.031 13.2927 104.088 13.3462 104.136 13.4122C104.183 13.4782 104.22 13.5554 104.244 13.6393C104.271 13.7228 104.284 13.8125 104.282 13.9027C104.28 13.993 104.263 14.0817 104.233 14.1634C104.203 14.2451 104.159 14.3179 104.106 14.3772C104.052 14.4365 103.989 14.4811 103.921 14.508C98.4023 16.9277 93.0443 19.8995 87.8979 23.3953C89.0988 28.3906 90.2997 33.325 91.4594 38.1118C93.7308 47.4508 95.8786 56.2946 97.9167 65.1298C102.775 62.9318 107.606 60.4212 112.279 57.6586C112.341 57.6222 112.408 57.6016 112.476 57.5981C112.544 57.5945 112.612 57.6081 112.675 57.638C112.739 57.6679 112.798 57.7135 112.848 57.7722C112.897 57.8309 112.937 57.9015 112.966 57.98C113.022 58.138 113.027 58.3177 112.979 58.4802C112.932 58.6427 112.836 58.7751 112.712 58.8487C107.839 61.7243 102.803 64.3305 97.7314 66.6066C97.6711 66.6278 97.6082 66.6338 97.5461 66.624V66.624Z" fill="black"/>
<path d="M103.839 63.1665C103.723 63.1658 103.611 63.117 103.519 63.0275C103.427 62.938 103.361 62.8129 103.331 62.6713C100.277 48.1372 96.8051 33.551 92.9966 19.3123C92.9745 19.2301 92.9654 19.1433 92.9698 19.0567C92.9743 18.9701 92.9921 18.8855 93.0224 18.8076C93.0526 18.7298 93.0947 18.6603 93.1462 18.603C93.1977 18.5457 93.2576 18.5019 93.3225 18.4739C93.3874 18.446 93.456 18.4345 93.5244 18.4401C93.5928 18.4457 93.6596 18.4683 93.7211 18.5066C93.7826 18.545 93.8376 18.5982 93.8828 18.6634C93.928 18.7286 93.9626 18.8045 93.9847 18.8866C97.8001 33.1514 101.286 47.7723 104.34 62.3238C104.357 62.4076 104.362 62.4951 104.353 62.5811C104.344 62.6671 104.321 62.75 104.287 62.825C104.252 62.9 104.207 62.9657 104.152 63.0184C104.098 63.071 104.035 63.1095 103.969 63.1317C103.927 63.1518 103.883 63.1635 103.839 63.1665V63.1665Z" fill="black"/>
<path d="M45.9838 43.4631C45.3369 43.4995 44.6943 43.3135 44.124 42.9251C43.5538 42.5366 43.0772 41.96 42.7448 41.2565C41.6194 38.4939 43.733 35.3925 44.4261 34.3674C47.2945 30.1627 50.2589 25.8103 53.9508 22.5264C58.1093 18.8169 62.659 17.1402 66.7557 17.8004C68.8203 18.2334 70.8393 18.9621 72.7739 19.9723C73.3915 20.2677 74.0365 20.563 74.6678 20.841C78.681 22.5841 82.8872 23.5107 87.1296 23.5863C87.2674 23.5908 87.3982 23.6633 87.4944 23.7882C87.5905 23.9132 87.6443 24.0808 87.6443 24.2552C87.6453 24.3426 87.6322 24.4293 87.6058 24.5101C87.5794 24.5909 87.5403 24.664 87.4908 24.7249C87.4414 24.7859 87.3826 24.8335 87.3181 24.8648C87.2537 24.896 87.1849 24.9103 87.1159 24.9068C82.7626 24.8215 78.4476 23.8627 74.3316 22.066C73.6865 21.788 73.0346 21.4839 72.4102 21.1972C70.5501 20.2246 68.6097 19.5193 66.6253 19.0949C62.7893 18.4781 58.5005 20.0766 54.5547 23.5863C50.9657 26.7746 48.0425 31.0662 45.2152 35.2188C43.6369 37.5383 43.1566 39.3019 43.6712 40.631C43.9362 41.1475 44.3097 41.5602 44.7497 41.8226C45.1898 42.085 45.679 42.1868 46.1622 42.1166C47.2572 41.9369 48.3123 41.4789 49.2639 40.77L51.4186 39.4409C55.8173 36.6782 59.969 34.0547 63.9079 30.5449C64.0207 30.4435 64.1608 30.4031 64.2972 30.4324C64.4336 30.4617 64.5552 30.5584 64.6353 30.7013C64.7153 30.8441 64.7473 31.0214 64.7242 31.1941C64.701 31.3668 64.6246 31.5208 64.5118 31.6222C60.5042 35.2014 56.3183 37.8337 51.8853 40.631L49.7306 41.9863C48.6542 42.7798 47.4608 43.2855 46.224 43.4718L45.9838 43.4631Z" fill="black"/>
<path d="M84.6385 67.5796C84.5154 67.5836 84.3952 67.5324 84.2991 67.435C84.203 67.3375 84.1372 67.2002 84.1134 67.0473C84.0896 66.8944 84.1092 66.7358 84.1689 66.5995C84.2286 66.4632 84.3244 66.358 84.4394 66.3025C88.1931 64.3392 91.9879 62.3063 95.7141 60.2213C95.8418 60.1565 95.9844 60.1564 96.1122 60.2211C96.2399 60.2858 96.3431 60.4103 96.4003 60.5688C96.4533 60.7303 96.4543 60.9117 96.403 61.0741C96.3517 61.2364 96.2522 61.3669 96.1258 61.4376C92.3928 63.5052 88.5774 65.5467 84.8306 67.5188C84.7703 67.5546 84.705 67.5753 84.6385 67.5796V67.5796Z" fill="black"/>
<path d="M83.177 70.2379C83.0672 70.2379 82.9642 70.2379 82.875 70.2379C81.9143 70.0354 80.9991 69.5738 80.1916 68.8843C79.3841 68.1948 78.7032 67.2935 78.195 66.2416C77.4465 64.7488 76.8166 63.1658 76.3147 61.5157C76.1432 61.0205 75.9785 60.5166 75.8001 60.0214C74.3878 56.0077 72.4636 52.3154 70.1044 49.0926C70.0436 49.0337 69.9937 48.9586 69.9583 48.8725C69.923 48.7865 69.903 48.6916 69.8999 48.5947C69.8968 48.4978 69.9106 48.4012 69.9404 48.3118C69.9701 48.2224 70.015 48.1424 70.072 48.0774C70.1289 48.0125 70.1964 47.9643 70.2697 47.9361C70.3431 47.908 70.4204 47.9006 70.4962 47.9146C70.572 47.9286 70.6445 47.9636 70.7084 48.017C70.7724 48.0705 70.8262 48.1411 70.8662 48.2239C73.3058 51.5548 75.2972 55.3701 76.7608 59.5175L77.2755 61.0465C77.7493 62.6159 78.3471 64.1206 79.0596 65.538C79.4807 66.4394 80.0495 67.2161 80.7278 67.8155C81.4061 68.415 82.1781 68.8233 82.9917 69.0129C83.1391 69.046 83.2909 69.028 83.4309 68.9608C83.5681 68.8566 83.623 68.5091 83.6093 67.927C83.4191 60.1585 81.4703 52.6226 77.9947 46.2158C74.5191 39.809 69.663 34.8009 64.0039 31.7873C63.8776 31.7166 63.7781 31.5861 63.7268 31.4238C63.6755 31.2614 63.6764 31.08 63.7294 30.9185C63.7564 30.8385 63.7955 30.7661 63.8446 30.7053C63.8937 30.6445 63.9518 30.5966 64.0156 30.5643C64.0793 30.532 64.1475 30.516 64.2161 30.5171C64.2848 30.5183 64.3526 30.5366 64.4157 30.571C70.2562 33.6856 75.2678 38.8571 78.855 45.4713C82.4422 52.0855 84.4543 59.8643 84.6523 67.8836C84.6969 68.2937 84.6573 68.7115 84.5371 69.0965C84.4168 69.4816 84.2202 69.8208 83.9661 70.0815C83.7183 70.2199 83.4463 70.2739 83.177 70.2379V70.2379Z" fill="black"/>
<path d="M57.0801 77.4832C56.1125 77.5139 55.165 77.1314 54.3901 76.3972C54.2789 76.2917 54.2051 76.135 54.1845 75.961C54.164 75.787 54.1984 75.6098 54.2803 75.4677C54.3204 75.3973 54.3712 75.3378 54.4296 75.2926C54.4881 75.2474 54.5532 75.2175 54.6209 75.2045C54.6887 75.1916 54.7578 75.1959 54.8242 75.2172C54.8906 75.2385 54.953 75.2764 55.0077 75.3287C55.7283 76.0063 56.6299 76.2995 57.5193 76.1453H57.5947C58.7072 76.0724 59.7524 75.4483 60.5043 74.4078C60.6907 74.1488 60.8326 73.8437 60.9212 73.5117C61.0098 73.1798 61.0431 72.8282 61.019 72.4792C61.0156 72.4504 61.0156 72.4211 61.019 72.3923C61.003 71.0702 60.9066 69.7516 60.7308 68.4482C60.7139 68.3085 60.7329 68.1655 60.7851 68.0404C60.8372 67.9154 60.9196 67.8148 61.0203 67.7535C61.121 67.6922 61.2345 67.6734 61.3442 67.7C61.4539 67.7265 61.554 67.797 61.6297 67.9009C62.38 69.0599 63.2609 70.0727 64.2442 70.9068C64.693 71.2864 65.2022 71.5368 65.7357 71.6404C66.2692 71.744 66.8142 71.6981 67.3322 71.5062C68.5606 70.9415 69.8232 68.231 69.5487 66.7542C69.5314 66.6703 69.5278 66.5828 69.5379 66.497C69.548 66.4112 69.5717 66.3289 69.6076 66.2551C69.6435 66.1812 69.6909 66.1173 69.7468 66.0673C69.8027 66.0172 69.866 65.9819 69.933 65.9636C69.9997 65.9429 70.069 65.939 70.1368 65.9523C70.2047 65.9655 70.2698 65.9956 70.3285 66.0408C70.3872 66.086 70.4382 66.1455 70.4786 66.2157C70.5191 66.286 70.5482 66.3656 70.5643 66.4501C71.0035 68.761 69.288 72.0101 67.6891 72.7485C67.0249 73.0129 66.3226 73.0869 65.633 72.9652C64.9434 72.8435 64.2839 72.5291 63.7021 72.0448C63.0724 71.5562 62.4917 70.9728 61.9728 70.3073C62.0307 70.9883 62.0605 71.6727 62.0621 72.3576C62.1041 72.8825 62.0586 73.4128 61.9286 73.9141C61.7986 74.4154 61.5869 74.8766 61.3072 75.2679C60.845 75.9272 60.2833 76.4628 59.6552 76.8433C59.0271 77.2237 58.3452 77.4413 57.6497 77.4832H57.5742H57.0801Z" fill="black"/>
<path d="M74.2697 72.0711C73.845 72.0559 73.4261 71.9411 73.0345 71.7323C71.0582 70.7593 70.0083 68.0314 68.9927 65.3991C68.3065 63.5661 67.5653 61.6809 66.5703 60.5602C66.4678 60.4436 66.406 60.2804 66.3983 60.1062C66.3906 59.932 66.4376 59.761 66.5291 59.6306C66.6225 59.5004 66.7525 59.4219 66.8912 59.4121C67.03 59.4023 67.1661 59.4621 67.2703 59.5785C68.4162 60.8643 69.1848 62.8711 69.9328 64.791C70.9004 67.3103 71.8199 69.682 73.4119 70.4639C74.0982 70.8027 74.9422 71.2197 76.0745 68.7959C76.3574 68.084 76.5077 67.2994 76.5137 66.5024C76.5315 64.3801 76.2789 62.268 75.7657 60.2475C75.7039 59.9347 75.6353 59.622 75.5735 59.3092C75.5399 59.1387 75.5611 58.9583 75.6325 58.8075C75.7039 58.6568 75.8197 58.5483 75.9544 58.5056C76.0891 58.463 76.2316 58.4898 76.3506 58.5803C76.4697 58.6707 76.5555 58.8173 76.5891 58.9878C76.6509 59.2918 76.7127 59.6046 76.7813 59.9173C77.3199 62.0745 77.5817 64.3271 77.5567 66.5893C77.5464 67.5958 77.3464 68.5846 76.9734 69.4735C76.047 71.4803 75.1275 72.0711 74.2697 72.0711Z" fill="black"/>
<path d="M40.2881 71.6715H40.1509C39.255 71.6907 38.3766 71.3553 37.6385 70.7121C36.9004 70.0689 36.3393 69.15 36.0336 68.0836C35.8744 67.3271 35.844 66.5365 35.9444 65.764C34.8466 66.6069 33.5442 66.9157 32.28 66.6328C31.3266 66.4199 30.4462 65.8473 29.7544 64.99C29.0625 64.1327 28.5914 63.0308 28.4028 61.8286C28.3354 61.52 28.3308 61.1948 28.3896 60.8833C28.4484 60.5719 28.5686 60.2844 28.7391 60.0477C28.7877 59.9867 28.8454 59.9384 28.9088 59.9056C28.9722 59.8727 29.0401 59.856 29.1086 59.8565C29.1771 59.8569 29.2449 59.8744 29.308 59.9079C29.3712 59.9415 29.4285 59.9905 29.4767 60.0521C29.525 60.1137 29.5631 60.1867 29.589 60.267C29.6149 60.3472 29.6281 60.4332 29.6278 60.5199C29.6275 60.6066 29.6137 60.6924 29.5872 60.7724C29.5607 60.8524 29.522 60.9249 29.4733 60.9859C29.4253 61.0468 29.3841 61.2466 29.4321 61.6114C29.5866 62.5438 29.958 63.3963 30.4986 64.059C31.0392 64.7217 31.7242 65.1643 32.4652 65.3297C33.1944 65.4943 33.9452 65.4069 34.6384 65.0767C35.3316 64.7464 35.9416 64.1856 36.4041 63.4532C36.4722 63.3358 36.5692 63.2507 36.6799 63.2113C36.7906 63.1719 36.9085 63.1806 37.0149 63.236C37.1678 63.133 37.326 63.043 37.4884 62.9667C39.5793 61.9614 41.776 61.3525 44.0075 61.1597C45.8054 60.9773 46.9994 61.5333 47.5621 62.7842C47.8429 63.4615 47.9394 64.2371 47.8366 64.9909C47.7271 66.0963 47.3618 67.1361 46.7867 67.9793C46.2231 68.7341 45.5645 69.3653 44.8378 69.8471C43.4707 70.9413 41.9035 71.5697 40.2881 71.6715ZM37.1727 64.7216C36.9142 65.6834 36.8644 66.7155 37.0286 67.71C37.4129 69.3867 38.902 70.3163 40.1784 70.3163C41.6449 70.2292 43.0665 69.6473 44.2957 68.6309C44.9191 68.2171 45.4866 67.6804 45.9769 67.0411C46.413 66.3934 46.6918 65.6 46.7798 64.7563C46.8459 64.2844 46.7931 63.7981 46.6288 63.3663C46.2034 62.4107 45.0025 62.3151 44.0624 62.402C41.9305 62.6097 39.8351 63.2188 37.8452 64.209C37.5951 64.3225 37.3662 64.4999 37.1727 64.7302V64.7216Z" fill="black"/>
<path d="M45.4143 76.1454C44.6325 76.1611 43.8619 75.909 43.1841 75.4157C42.556 74.9344 42.0457 74.2418 41.7101 73.415C41.3745 72.5883 41.2267 71.6599 41.2833 70.7331C41.2951 70.558 41.3614 70.396 41.4676 70.2828C41.5737 70.1696 41.7111 70.1144 41.8494 70.1294C41.9877 70.1443 42.1157 70.2283 42.2051 70.3627C42.2945 70.4971 42.3381 70.671 42.3263 70.8461C42.2798 71.5292 42.3833 72.2153 42.6255 72.8285C42.8677 73.4418 43.2392 73.9583 43.6988 74.321C44.206 74.6514 44.764 74.8381 45.334 74.8681C45.904 74.8981 46.4723 74.7707 46.9995 74.4948C48.1454 73.9039 49.2072 73.0793 50.1424 72.0536C51.5766 70.6376 52.8873 69.0565 53.0382 67.0583C53.0593 66.9294 53.0593 66.7963 53.0382 66.6674C52.9675 66.5232 52.8649 66.4085 52.7432 66.3373C51.8622 65.7461 50.8362 65.6032 49.8747 65.9377C48.9346 66.2484 48.032 66.7189 47.1916 67.3363L47.0338 67.4319C46.973 67.4718 46.9065 67.4962 46.8383 67.5036C46.77 67.511 46.7012 67.5014 46.6359 67.4751C46.5706 67.4489 46.51 67.4067 46.4576 67.3508C46.4052 67.295 46.362 67.2266 46.3304 67.1495C46.2989 67.0725 46.2796 66.9884 46.2738 66.902C46.2679 66.8156 46.2755 66.7285 46.2963 66.6458C46.317 66.5632 46.3503 66.4865 46.3945 66.4201C46.4386 66.3537 46.4926 66.299 46.5534 66.2591L46.7113 66.1548C47.6273 65.4841 48.6106 64.9727 49.6346 64.6345C50.8606 64.2225 52.1648 64.4215 53.2784 65.1906C53.5598 65.366 53.7902 65.6494 53.9369 66.0004C54.0835 66.3514 54.1389 66.7521 54.095 67.1452C53.9372 69.6559 52.4206 71.4889 50.8011 73.0874C49.7771 74.1979 48.6186 75.0925 47.37 75.7371C46.741 76.0121 46.0798 76.1502 45.4143 76.1454V76.1454Z" fill="black"/>
<path d="M51.5077 78.0219C50.7607 78.0216 50.0236 77.8046 49.353 77.3878C48.9164 77.166 48.54 76.7886 48.2696 76.3013C47.9991 75.814 47.8463 75.2377 47.8296 74.6425C47.8341 74.5558 47.852 74.4711 47.8824 74.3932C47.9128 74.3152 47.955 74.2457 48.0066 74.1884C48.0582 74.1311 48.1182 74.0873 48.1832 74.0594C48.2482 74.0314 48.3169 74.02 48.3854 74.0257C48.4539 74.0314 48.5208 74.0542 48.5824 74.0926C48.6439 74.1311 48.6989 74.1845 48.7442 74.2498C48.7894 74.3152 48.824 74.3911 48.8461 74.4734C48.8681 74.5557 48.8771 74.6427 48.8726 74.7294C48.8726 75.3549 49.3599 75.9196 49.8128 76.1976C50.532 76.6517 51.3469 76.8038 52.1391 76.6319C53.3439 76.2517 54.446 75.4686 55.33 74.3645C56.3319 73.2612 56.7573 72.349 56.7024 71.4977C56.6125 71.0108 56.3971 70.5757 56.0902 70.2611C55.7833 69.9465 55.4023 69.7702 55.0075 69.7602C54.1155 69.7752 53.2597 70.2086 52.6057 70.9764C52.5516 71.03 52.4897 71.0697 52.4236 71.093C52.3574 71.1164 52.2883 71.123 52.2201 71.1125C52.1519 71.102 52.086 71.0746 52.0262 71.0319C51.9664 70.9892 51.9138 70.932 51.8714 70.8635C51.8291 70.795 51.7978 70.7167 51.7793 70.6329C51.7609 70.5492 51.7557 70.4616 51.764 70.3753C51.7723 70.289 51.7939 70.2056 51.8276 70.1299C51.8614 70.0541 51.9066 69.9876 51.9606 69.9339C52.8194 68.9751 53.9242 68.4441 55.0692 68.4397C55.7073 68.466 56.3195 68.7656 56.8056 69.2895C57.2918 69.8135 57.6231 70.5307 57.7455 71.3239C57.9102 73.0614 56.8534 74.4514 56.0368 75.3462C55.0051 76.6233 53.7201 77.5237 52.3175 77.9524C52.0494 78.0026 51.7787 78.0258 51.5077 78.0219V78.0219Z" fill="black"/>
<path d="M36.8705 64.1132C36.7479 64.1117 36.6294 64.0563 36.5355 63.9565C36.4416 63.8566 36.3781 63.7185 36.3558 63.5659C36.1705 62.2106 34.9834 61.4027 34.2971 61.0378C32.2934 59.9693 30.5572 60.004 29.1368 61.1421C29.0249 61.2222 28.8941 61.2488 28.7681 61.2169C28.6421 61.185 28.5294 61.0967 28.4505 60.9683C26.5755 57.5868 24.0055 54.9191 21.0188 53.2539C20.8914 53.1836 20.7912 53.0521 20.7404 52.8884C20.6896 52.7247 20.6922 52.5421 20.7477 52.3808C20.8032 52.2195 20.9071 52.0927 21.0364 52.0284C21.1657 51.964 21.31 51.9674 21.4374 52.0376C24.438 53.7193 27.0399 56.3634 28.9858 59.7086C30.6259 58.6401 32.5404 58.6749 34.6883 59.8129C36.2048 60.6295 37.1518 61.8805 37.3508 63.34C37.3636 63.4257 37.3627 63.5138 37.3481 63.599C37.3335 63.6842 37.3055 63.7649 37.2658 63.8362C37.2262 63.9075 37.1756 63.968 37.1171 64.0141C37.0586 64.0601 36.9934 64.0909 36.9254 64.1045L36.8705 64.1132Z" fill="black"/>
<path d="M29.3224 23.8036C29.2044 23.8035 29.09 23.7527 28.9977 23.6596C28.9055 23.5665 28.8409 23.4366 28.8145 23.2911C28.7836 23.1195 28.8073 22.9394 28.8805 22.7898C28.9537 22.6402 29.0706 22.5331 29.2057 22.4918C34.4767 20.8744 39.6631 18.8435 44.7349 16.4106L45.1329 16.2282C46.8249 15.347 48.5942 14.7257 50.4031 14.3778C54.6439 13.787 58.5485 16.1153 61.9933 18.1221C62.1148 18.199 62.2087 18.3316 62.2559 18.4929C62.303 18.6543 62.2999 18.8322 62.2472 18.9908C62.1878 19.1461 62.0827 19.2658 61.9545 19.3243C61.8262 19.3827 61.685 19.3753 61.561 19.3036C58.2397 17.3489 54.4792 15.1249 50.5334 15.6809C48.8079 16.003 47.1191 16.5863 45.5034 17.4184L45.1123 17.6008C39.996 20.0331 34.7663 22.064 29.4527 23.682L29.3224 23.8036Z" fill="black"/>
<path d="M39.6842 12.3448C39.5715 12.3449 39.4617 12.2986 39.3715 12.213C39.2812 12.1275 39.2153 12.0072 39.1836 11.8702C39.1519 11.7332 39.1562 11.5869 39.1957 11.4532C39.2352 11.3195 39.3079 11.2056 39.4029 11.1286C44.1954 7.309 49.8053 5.46369 55.4604 5.84664C55.5988 5.86 55.7276 5.94084 55.8198 6.07211C55.9119 6.20339 55.9602 6.37484 55.9545 6.55032C55.951 6.63671 55.934 6.72135 55.9044 6.79931C55.8748 6.87727 55.8332 6.94698 55.7821 7.00439C55.731 7.06181 55.6714 7.10577 55.6068 7.13371C55.5421 7.16165 55.4737 7.17302 55.4055 7.16714C49.9655 6.8007 44.5694 8.57607 39.9587 12.2493C39.8751 12.31 39.7806 12.3429 39.6842 12.3448V12.3448Z" fill="black"/>
<path d="M36.4041 5.88128C36.2964 5.87546 36.1927 5.82751 36.1074 5.74404C36.0221 5.66056 35.9593 5.54567 35.9277 5.41516C35.8961 5.28465 35.8972 5.14494 35.9309 5.01528C35.9646 4.88561 36.0292 4.77236 36.1159 4.6911C38.9476 2.36777 42.1188 0.787321 45.4416 0.0433157C45.5088 0.0270588 45.5779 0.0279328 45.6448 0.0458741C45.7118 0.0638155 45.7752 0.0984703 45.8314 0.147813C45.8876 0.197155 45.9355 0.260187 45.9723 0.333237C46.0091 0.406287 46.0339 0.487883 46.0455 0.57325C46.0695 0.747118 46.0382 0.925947 45.9585 1.07077C45.8788 1.2156 45.7572 1.31468 45.62 1.34643C42.4415 2.06425 39.4084 3.57952 36.6992 5.80309C36.6086 5.86395 36.5063 5.89106 36.4041 5.88128V5.88128Z" fill="black"/>
<path d="M69.8437 78.5345C69.7077 78.5346 69.5771 78.4674 69.4797 78.3473C69.3823 78.2272 69.3258 78.0637 69.3222 77.8917C69.3194 77.8054 69.3303 77.7192 69.354 77.6383C69.3778 77.5574 69.4141 77.4832 69.4607 77.4201C69.5073 77.3571 69.5633 77.3064 69.6256 77.271C69.6878 77.2356 69.7549 77.2163 69.8231 77.214C72.8833 77.0886 75.8256 75.6902 78.195 73.2352C78.3015 73.1234 78.4387 73.0698 78.5764 73.0861C78.7141 73.1024 78.841 73.1873 78.9293 73.322C79.0171 73.4594 79.0585 73.6351 79.0443 73.8109C79.0302 73.9867 78.9617 74.1482 78.8538 74.2603C76.3061 76.8947 73.1452 78.3965 69.8574 78.5345H69.8437Z" fill="black"/>
</g>
<defs>
<clipPath id="clip0_351_296">
<rect width="113" height="78.491" fill="white"/>
</clipPath>
</defs>
</svg>
