<svg width="90" height="147" viewBox="0 0 90 147" fill="none" xmlns="http://www.w3.org/2000/svg">
<g clip-path="url(#clip0_48_1063)">
<path d="M35.3147 22.7353C35.4552 23.7409 34.5082 28.0366 34.1161 29.3083C33.7611 30.463 33.1604 31.5274 32.3551 32.4284C31.5708 33.3526 31.0455 34.1511 30.1873 35.0087C29.2843 35.9215 28.716 37.112 28.5743 38.3876C28.5077 39.0087 28.6927 39.6741 28.3449 40.1917C28.2451 40.4229 28.0766 40.6179 27.8622 40.7501C27.6478 40.8824 27.3979 40.9455 27.1463 40.931C25.7701 40.931 22.8919 41.1972 21.3826 41.1824C19.4145 41.2416 15.9296 40.6944 14.9973 40.687C14.3019 40.687 14.0651 39.6519 13.9023 38.9643C13.8069 38.2709 13.6306 37.591 13.377 36.9385C13.0102 36.3291 12.5481 35.7825 12.0082 35.3193C9.54917 32.7302 7.75432 29.5845 6.77718 26.1512C6.39243 24.9386 6.65879 20.0367 7.76862 18.0626C8.54794 16.6461 9.43862 15.2938 10.4322 14.0183C11.5655 12.7305 12.9471 11.6844 14.4942 10.9425C16.3683 10.0898 18.3664 9.54074 20.4133 9.31591C21.9619 9.07362 23.5439 9.15344 25.0603 9.55038C26.5766 9.94732 27.9945 10.6528 29.2254 11.6227C31.4637 13.0606 33.1565 15.2051 34.0347 17.7151C34.6159 19.3453 35.0444 21.0259 35.3147 22.7353Z" fill="#0C695B"/>
<path d="M34.4418 19.046C34.3087 18.6172 34.1681 18.1736 34.0127 17.73C33.1345 15.2199 31.4417 13.0755 29.2034 11.6376C27.9726 10.6677 26.5546 9.96222 25.0383 9.56528C23.522 9.16834 21.94 9.08851 20.3913 9.3308C18.3444 9.55563 16.3464 10.1047 14.4722 10.9574C12.9251 11.6993 11.5436 12.7454 10.4103 14.0331C9.41664 15.3087 8.52597 16.661 7.74665 18.0775C6.63682 20.0515 6.37046 24.9535 6.7552 26.1661C7.73235 29.5994 9.5272 32.7451 11.9862 35.3342C12.5261 35.7974 12.9883 36.344 13.355 36.9534C13.6086 37.6059 13.7849 38.2858 13.8803 38.9792C14.0431 39.6668 14.2799 40.6945 14.9754 40.7019C15.2713 40.7019 15.804 40.7611 16.4551 40.8276C16.5365 39.2306 16.4107 37.1974 15.3379 35.97C9.41881 29.1901 8.22759 20.0663 13.5622 15.7041C19.3185 11.0239 28.2268 10.987 34.4418 19.046Z" fill="#169579"/>
<mask id="path-3-inside-1_48_1063" fill="white">
<path d="M22.3743 8.59871C18.8829 8.54595 15.453 9.52044 12.5116 11.4009C7.54693 14.6837 4.51339 21.8481 6.59248 27.5929C7.34232 29.7475 8.39621 31.7841 9.72221 33.6409C10.3514 34.452 11.0257 35.2271 11.7421 35.9625C12.8075 37.1233 12.9629 38.1806 13.3995 39.5928C13.5042 40.0196 13.7097 40.4151 13.9988 40.7462C13.7267 40.9703 13.5437 41.2841 13.4826 41.6311C13.4216 41.9782 13.4866 42.3355 13.6658 42.6389V42.6759C12.7261 43.8737 13.1553 44.6056 14.1763 45.0419C12.6374 47.26 15.7671 47.7849 18.8302 47.8145C18.8559 48.2911 18.9583 48.7605 19.1336 49.2045C19.4221 49.7812 20.2064 49.8256 20.7687 49.8182C21.5092 49.8543 22.2476 49.7123 22.9218 49.4041C23.4841 49.064 23.5877 48.2433 23.6247 47.6001C25.1045 47.5409 27.6645 47.7479 28.7521 46.6019C28.8635 46.492 28.9508 46.3601 29.0085 46.2147C29.0663 46.0693 29.0932 45.9135 29.0877 45.7572C29.0821 45.6008 29.0442 45.4473 28.9762 45.3064C28.9083 45.1655 28.8118 45.0401 28.6929 44.9384C29.5142 44.4947 29.8102 43.8145 29.0259 42.7646C29.3884 42.2323 29.2479 41.5373 28.5672 40.8793C28.689 40.7423 28.7934 40.5908 28.8779 40.4283C29.2774 39.6224 29.0555 38.7943 29.2331 37.9292C29.5364 36.4505 30.5723 35.5263 31.4897 34.432C32.7122 33.147 33.7124 31.6679 34.4493 30.055C36.6689 24.3841 36.1584 17.3823 31.6451 12.9166C29.2183 10.4471 25.9332 8.63568 22.3743 8.59871ZM15.5969 41.3598C17.5115 41.634 19.4415 41.7871 21.3755 41.8182C23.0846 41.8182 24.7937 41.6852 26.4955 41.5817C26.9325 41.5729 27.367 41.5133 27.7903 41.4042C29.0777 42.602 25.4892 42.8829 24.6162 42.9273C23.5433 42.9273 22.4631 42.9273 21.3828 42.8903C20.3026 42.8534 19.0448 42.8164 17.8758 42.7425C17.3283 42.7055 13.1035 42.0475 14.9162 41.2268C15.1391 41.2898 15.3667 41.3343 15.5969 41.3598ZM18.8894 33.5818C18.89 31.3693 18.7044 29.1607 18.3345 26.9793C19.254 26.6909 20.1264 26.27 20.9241 25.7297C21.7047 26.4069 22.6201 26.9108 23.6099 27.2085C22.3965 31.408 22.6333 36.4061 22.87 40.6205H21.3902C20.6504 40.6205 19.9771 40.6205 19.2742 40.5392C19.1459 38.1978 19.0177 35.8787 18.8894 33.5818ZM20.3692 23.5856C19.9105 22.8462 19.5257 21.4932 20.3692 20.7834C21.4124 19.9405 22.0266 20.9461 22.1893 21.9146C22.2475 22.4118 22.1759 22.9155 21.9814 23.3768C21.7869 23.8381 21.4762 24.2411 21.0795 24.5468C20.8041 24.2568 20.5655 23.934 20.3692 23.5856ZM25.2303 44.7461C23.9207 44.7979 22.6111 44.7461 21.3089 44.7461C20.199 44.7461 19.0892 44.7461 17.9794 44.6722C17.2025 44.6278 13.4587 44.7313 14.4427 43.2674C15.9225 44.0068 18.882 43.7332 20.051 43.7776C22.5297 43.8737 25.2303 44.1546 27.6867 43.5779C27.9104 43.5254 28.1285 43.4511 28.3378 43.3561C29.0629 44.5835 25.7778 44.7239 25.2303 44.7461ZM22.2263 48.6869C21.7686 48.8271 21.2918 48.8945 20.8131 48.8866C20.4432 48.8866 20.1472 48.8866 19.9919 48.6278C19.8814 48.3701 19.8188 48.0945 19.8069 47.8145C20.9537 47.8145 22.0265 47.7184 22.7294 47.6666C22.6924 48.088 22.5963 48.5465 22.2263 48.6869ZM25.541 46.5502C24.483 46.6315 23.4102 46.6833 22.3521 46.7424C21.2941 46.8016 20.2952 46.8459 19.2742 46.8607C18.9264 46.8607 14.0062 46.9125 15.079 45.4411C15.1016 45.4058 15.1214 45.3687 15.1382 45.3302C17.2395 45.8256 20.4136 45.6703 21.3089 45.6777C22.0488 45.6777 25.5114 45.8774 27.7089 45.3154C29.1073 46.077 25.9554 46.5206 25.541 46.5502ZM33.8352 27.933C33.4127 29.6284 32.6022 31.2026 31.4675 32.5319C30.5057 33.737 29.2479 34.8461 28.5598 36.2287C27.8199 37.7961 28.2638 39.7998 26.2661 40.3321C25.4653 40.5136 24.6455 40.598 23.8245 40.5835C23.6734 38.1213 23.6734 35.6521 23.8245 33.1899C23.8696 31.2277 24.1025 29.2742 24.52 27.3563C24.7503 27.3895 24.9828 27.4043 25.2155 27.4007C27.1096 27.4007 30.3503 25.922 29.3366 23.4155C29.0111 22.6096 27.99 22.447 27.2132 22.5431C25.6372 22.7501 24.6753 24.2806 24.1352 25.6262C24.0538 25.8406 23.9798 26.0551 23.9059 26.2695C23.6654 26.2072 23.4303 26.1256 23.203 26.0255C22.6737 25.7883 22.1765 25.4852 21.7232 25.1235C23.4545 23.5782 24.1722 21.1235 21.9156 19.5413C20.273 18.3953 18.734 21.02 18.956 22.4987C19.1444 23.4939 19.6173 24.4133 20.3174 25.1456C19.6321 25.5777 18.883 25.8996 18.0978 26.0994C17.491 24.1697 16.2036 21.8185 13.8508 22.6688C12.4154 23.1863 12.4598 25.0273 13.3181 26.0846C14.3095 27.312 15.8559 27.519 17.4023 27.2232C17.7218 29.0647 17.8901 30.9292 17.9054 32.798C18.0386 35.334 18.1791 37.8701 18.3123 40.4061L17.5132 40.3247C16.9344 40.3111 16.3578 40.2493 15.7893 40.1399C14.7016 39.8368 14.6055 39.1787 14.3613 38.1362C13.688 35.2897 10.9726 33.5744 9.54462 31.0679C8.11664 28.5615 7.0956 26.0403 7.24358 23.1641C7.43695 20.1347 8.58422 17.2439 10.5213 14.9055C14.6425 9.48595 23.4101 8.30297 28.8557 12.1772C31.8153 14.3066 33.2951 17.0792 34.2125 20.5986C34.908 23.1715 34.4567 25.3896 33.8352 27.933ZM24.8011 26.4543C24.915 26.124 25.0535 25.8027 25.2155 25.4931C25.7852 24.3693 26.0367 24.0662 27.3315 24.0144C28.3304 23.9553 28.8779 23.9479 28.3304 24.9608C27.6497 26.1586 26.1699 26.5504 24.8011 26.4321V26.4543ZM17.1655 26.299C16.4947 26.4119 15.8073 26.374 15.153 26.1881C14.4131 25.9441 13.3255 25.0791 13.6732 24.1475C14.5019 21.996 16.6328 24.8869 16.9509 25.6706C17.0397 25.8554 17.1063 26.0403 17.1655 26.2769V26.299Z"/>
</mask>
<path d="M22.3743 8.59871C18.8829 8.54595 15.453 9.52044 12.5116 11.4009C7.54693 14.6837 4.51339 21.8481 6.59248 27.5929C7.34232 29.7475 8.39621 31.7841 9.72221 33.6409C10.3514 34.452 11.0257 35.2271 11.7421 35.9625C12.8075 37.1233 12.9629 38.1806 13.3995 39.5928C13.5042 40.0196 13.7097 40.4151 13.9988 40.7462C13.7267 40.9703 13.5437 41.2841 13.4826 41.6311C13.4216 41.9782 13.4866 42.3355 13.6658 42.6389V42.6759C12.7261 43.8737 13.1553 44.6056 14.1763 45.0419C12.6374 47.26 15.7671 47.7849 18.8302 47.8145C18.8559 48.2911 18.9583 48.7605 19.1336 49.2045C19.4221 49.7812 20.2064 49.8256 20.7687 49.8182C21.5092 49.8543 22.2476 49.7123 22.9218 49.4041C23.4841 49.064 23.5877 48.2433 23.6247 47.6001C25.1045 47.5409 27.6645 47.7479 28.7521 46.6019C28.8635 46.492 28.9508 46.3601 29.0085 46.2147C29.0663 46.0693 29.0932 45.9135 29.0877 45.7572C29.0821 45.6008 29.0442 45.4473 28.9762 45.3064C28.9083 45.1655 28.8118 45.0401 28.6929 44.9384C29.5142 44.4947 29.8102 43.8145 29.0259 42.7646C29.3884 42.2323 29.2479 41.5373 28.5672 40.8793C28.689 40.7423 28.7934 40.5908 28.8779 40.4283C29.2774 39.6224 29.0555 38.7943 29.2331 37.9292C29.5364 36.4505 30.5723 35.5263 31.4897 34.432C32.7122 33.147 33.7124 31.6679 34.4493 30.055C36.6689 24.3841 36.1584 17.3823 31.6451 12.9166C29.2183 10.4471 25.9332 8.63568 22.3743 8.59871ZM15.5969 41.3598C17.5115 41.634 19.4415 41.7871 21.3755 41.8182C23.0846 41.8182 24.7937 41.6852 26.4955 41.5817C26.9325 41.5729 27.367 41.5133 27.7903 41.4042C29.0777 42.602 25.4892 42.8829 24.6162 42.9273C23.5433 42.9273 22.4631 42.9273 21.3828 42.8903C20.3026 42.8534 19.0448 42.8164 17.8758 42.7425C17.3283 42.7055 13.1035 42.0475 14.9162 41.2268C15.1391 41.2898 15.3667 41.3343 15.5969 41.3598ZM18.8894 33.5818C18.89 31.3693 18.7044 29.1607 18.3345 26.9793C19.254 26.6909 20.1264 26.27 20.9241 25.7297C21.7047 26.4069 22.6201 26.9108 23.6099 27.2085C22.3965 31.408 22.6333 36.4061 22.87 40.6205H21.3902C20.6504 40.6205 19.9771 40.6205 19.2742 40.5392C19.1459 38.1978 19.0177 35.8787 18.8894 33.5818ZM20.3692 23.5856C19.9105 22.8462 19.5257 21.4932 20.3692 20.7834C21.4124 19.9405 22.0266 20.9461 22.1893 21.9146C22.2475 22.4118 22.1759 22.9155 21.9814 23.3768C21.7869 23.8381 21.4762 24.2411 21.0795 24.5468C20.8041 24.2568 20.5655 23.934 20.3692 23.5856ZM25.2303 44.7461C23.9207 44.7979 22.6111 44.7461 21.3089 44.7461C20.199 44.7461 19.0892 44.7461 17.9794 44.6722C17.2025 44.6278 13.4587 44.7313 14.4427 43.2674C15.9225 44.0068 18.882 43.7332 20.051 43.7776C22.5297 43.8737 25.2303 44.1546 27.6867 43.5779C27.9104 43.5254 28.1285 43.4511 28.3378 43.3561C29.0629 44.5835 25.7778 44.7239 25.2303 44.7461ZM22.2263 48.6869C21.7686 48.8271 21.2918 48.8945 20.8131 48.8866C20.4432 48.8866 20.1472 48.8866 19.9919 48.6278C19.8814 48.3701 19.8188 48.0945 19.8069 47.8145C20.9537 47.8145 22.0265 47.7184 22.7294 47.6666C22.6924 48.088 22.5963 48.5465 22.2263 48.6869ZM25.541 46.5502C24.483 46.6315 23.4102 46.6833 22.3521 46.7424C21.2941 46.8016 20.2952 46.8459 19.2742 46.8607C18.9264 46.8607 14.0062 46.9125 15.079 45.4411C15.1016 45.4058 15.1214 45.3687 15.1382 45.3302C17.2395 45.8256 20.4136 45.6703 21.3089 45.6777C22.0488 45.6777 25.5114 45.8774 27.7089 45.3154C29.1073 46.077 25.9554 46.5206 25.541 46.5502ZM33.8352 27.933C33.4127 29.6284 32.6022 31.2026 31.4675 32.5319C30.5057 33.737 29.2479 34.8461 28.5598 36.2287C27.8199 37.7961 28.2638 39.7998 26.2661 40.3321C25.4653 40.5136 24.6455 40.598 23.8245 40.5835C23.6734 38.1213 23.6734 35.6521 23.8245 33.1899C23.8696 31.2277 24.1025 29.2742 24.52 27.3563C24.7503 27.3895 24.9828 27.4043 25.2155 27.4007C27.1096 27.4007 30.3503 25.922 29.3366 23.4155C29.0111 22.6096 27.99 22.447 27.2132 22.5431C25.6372 22.7501 24.6753 24.2806 24.1352 25.6262C24.0538 25.8406 23.9798 26.0551 23.9059 26.2695C23.6654 26.2072 23.4303 26.1256 23.203 26.0255C22.6737 25.7883 22.1765 25.4852 21.7232 25.1235C23.4545 23.5782 24.1722 21.1235 21.9156 19.5413C20.273 18.3953 18.734 21.02 18.956 22.4987C19.1444 23.4939 19.6173 24.4133 20.3174 25.1456C19.6321 25.5777 18.883 25.8996 18.0978 26.0994C17.491 24.1697 16.2036 21.8185 13.8508 22.6688C12.4154 23.1863 12.4598 25.0273 13.3181 26.0846C14.3095 27.312 15.8559 27.519 17.4023 27.2232C17.7218 29.0647 17.8901 30.9292 17.9054 32.798C18.0386 35.334 18.1791 37.8701 18.3123 40.4061L17.5132 40.3247C16.9344 40.3111 16.3578 40.2493 15.7893 40.1399C14.7016 39.8368 14.6055 39.1787 14.3613 38.1362C13.688 35.2897 10.9726 33.5744 9.54462 31.0679C8.11664 28.5615 7.0956 26.0403 7.24358 23.1641C7.43695 20.1347 8.58422 17.2439 10.5213 14.9055C14.6425 9.48595 23.4101 8.30297 28.8557 12.1772C31.8153 14.3066 33.2951 17.0792 34.2125 20.5986C34.908 23.1715 34.4567 25.3896 33.8352 27.933ZM24.8011 26.4543C24.915 26.124 25.0535 25.8027 25.2155 25.4931C25.7852 24.3693 26.0367 24.0662 27.3315 24.0144C28.3304 23.9553 28.8779 23.9479 28.3304 24.9608C27.6497 26.1586 26.1699 26.5504 24.8011 26.4321V26.4543ZM17.1655 26.299C16.4947 26.4119 15.8073 26.374 15.153 26.1881C14.4131 25.9441 13.3255 25.0791 13.6732 24.1475C14.5019 21.996 16.6328 24.8869 16.9509 25.6706C17.0397 25.8554 17.1063 26.0403 17.1655 26.2769V26.299Z" fill="#F9F9F9" stroke="#EEFEFB" stroke-width="2" mask="url(#path-3-inside-1_48_1063)"/>
<path d="M41.2782 11.9925C39.6801 12.6294 38.1486 13.4219 36.7057 14.3584C36.2248 14.7059 36.7057 15.5193 37.1793 15.1718C38.6186 14.2315 40.1478 13.4365 41.7444 12.7984C42.2845 12.5544 41.811 11.7485 41.2782 11.9925Z" fill="#333333"/>
<path d="M30.4392 8.19944C31.4523 6.82606 32.3553 5.37486 33.1398 3.85939C33.2026 3.75252 33.2203 3.6251 33.1891 3.50516C33.1579 3.38523 33.0803 3.28259 32.9733 3.21984C32.8664 3.15709 32.7389 3.13937 32.6188 3.17057C32.4988 3.20177 32.3961 3.27933 32.3333 3.3862C31.5871 4.83201 30.7312 6.21866 29.7733 7.53402C29.4404 8.00721 30.0693 8.67263 30.4392 8.19944Z" fill="#333333"/>
<path d="M21.1906 5.33816C21.3016 3.70417 21.3534 2.07758 21.346 0.443585C21.346 0.320048 21.2969 0.201568 21.2095 0.114214C21.1221 0.0268596 21.0035 -0.0222168 20.8799 -0.0222168C20.7563 -0.0222168 20.6377 0.0268596 20.5503 0.114214C20.4629 0.201568 20.4137 0.320048 20.4137 0.443585C20.4137 2.07758 20.3694 3.70417 20.2584 5.33816C20.214 5.94444 21.1462 5.94444 21.1906 5.33816Z" fill="#333333"/>
<path d="M11.4684 8.23641C11.8014 8.73179 12.6078 8.23641 12.2749 7.76322C11.1851 6.33351 10.264 4.78292 9.5299 3.14221C9.32273 2.58029 8.41267 2.82428 8.62724 3.3862C9.38546 5.10624 10.3388 6.73363 11.4684 8.23641Z" fill="#333333"/>
<path d="M5.11999 14.2106C3.71096 13.1809 2.17703 12.3337 0.554869 11.6894C-4.71284e-05 11.4675 -0.2442 12.3696 0.310716 12.5914C1.85282 13.2132 3.3097 14.0281 4.64645 15.0165C5.13478 15.3936 5.60092 14.5803 5.11999 14.2106Z" fill="#333333"/>
<path d="M62.5873 92.228C62.6317 90.7493 62.0472 89.034 61.7808 87.5923C61.4257 85.6847 61.041 83.7771 60.7006 81.8696C60.5304 81.0045 59.9977 79.7328 60.0939 78.8382C60.1753 78.0988 61.2555 77.4186 61.3221 76.8715C61.2205 76.3664 61.0301 75.8833 60.7598 75.4445C60.3898 74.8604 60.8486 75.171 60.1309 74.9861C59.613 74.853 59.0063 75.0896 58.4809 74.9861C58.3282 74.9768 58.175 74.9768 58.0222 74.9861C57.4776 75.5828 57.0665 76.2885 56.8162 77.0563C57.7558 78.328 58.4662 78.3576 58.0518 80.0138C57.4303 82.498 56.6534 84.9453 56.0319 87.4074C55.7212 88.6348 55.4252 89.8695 55.2032 91.1042C54.9369 92.5829 55.0479 92.6199 56.1873 93.4924C57.1214 94.1415 58.0068 94.8581 58.8361 95.6365L58.9471 95.7622C59.2401 95.538 59.5147 95.2907 59.7683 95.0228C60.5526 94.3278 61.3073 93.5959 62.0842 92.8935C62.2596 92.7545 62.4275 92.6065 62.5873 92.4499C62.5873 92.4499 62.5799 92.3537 62.5873 92.228Z" fill="#2E5C62"/>
<path d="M63.3049 90.838C62.7574 87.533 62.1137 84.2502 61.47 80.9675C61.3154 80.428 61.2065 79.8764 61.1445 79.3187C61.1445 78.5793 61.0705 78.8381 61.6698 78.0396C62.5207 76.9084 62.2913 75.6958 61.3738 74.5276C60.7523 73.7365 58.7324 73.7883 57.8224 74.084C56.9123 74.3798 56.1354 75.9989 55.8543 76.9305C55.8091 76.9943 55.7847 77.0705 55.7847 77.1487C55.7847 77.2268 55.8091 77.303 55.8543 77.3668V77.4037C56.4388 78.217 57.2305 78.6089 57.1861 79.3926C57.1195 80.62 56.4462 82.0174 56.1428 83.1929C55.1406 86.361 54.4104 89.6087 53.9602 92.9008C53.9576 92.983 53.9777 93.0644 54.0181 93.1361C54.0585 93.2077 54.1178 93.267 54.1895 93.3074C55.1058 93.8981 55.9809 94.5502 56.8087 95.2593C57.2749 95.6438 57.9556 96.4793 58.5475 96.6641C59.3465 96.9155 59.8053 96.2427 60.4046 95.7104C61.2037 94.971 63.0164 93.8546 63.4381 92.8416C63.7119 92.2945 63.4011 91.3851 63.3049 90.838ZM62.0989 92.9156C61.3221 93.618 60.5674 94.3499 59.7831 95.0449C59.5294 95.3128 59.2548 95.56 58.9618 95.7843L58.8508 95.6586C58.0215 94.8802 57.1362 94.1636 56.202 93.5145C55.0626 92.642 54.9516 92.6272 55.218 91.1263C55.4399 89.8842 55.7359 88.6494 56.0466 87.4295C56.6681 84.9378 57.445 82.4906 58.0665 80.0359C58.4809 78.3797 57.7706 78.3501 56.8309 77.0784C57.0863 76.3178 57.4998 75.6199 58.0443 75.0304C58.1971 75.021 58.3503 75.021 58.5031 75.0304C59.0284 75.1117 59.6351 74.8751 60.153 75.0304C60.8929 75.2152 60.412 74.9047 60.7819 75.4888C61.0522 75.9275 61.2426 76.4107 61.3442 76.9158C61.2777 77.4629 60.1974 78.1357 60.116 78.8825C60.0198 79.7771 60.5526 81.0488 60.7227 81.9139C61.0927 83.8214 61.4626 85.729 61.803 87.6365C62.0693 89.0783 62.6538 90.7936 62.6094 92.2723C62.6094 92.398 62.6094 92.5015 62.6094 92.5163C62.4462 92.658 62.2758 92.7912 62.0989 92.9156Z" fill="white"/>
<path d="M87.0332 84.9823C82.1295 79.7656 76.7823 74.9838 71.0516 70.6905C76.2308 67.733 79.8045 61.9586 79.6639 55.9032C79.5159 49.7222 76.142 42.9348 70.4893 40.0217C67.5963 38.543 63.6675 38.1585 60.4564 38.2768C57.2642 38.4139 54.1469 39.2869 51.3484 40.8276C46.3911 43.4819 42.3143 48.0364 42.0998 53.8922C41.9962 56.4873 42.2182 59.4817 43.3798 61.8551C44.8929 64.8546 47.1089 67.4444 49.839 69.404C46.4682 70.6228 43.1615 72.0122 39.9319 73.5666C38.2302 74.3429 36.5432 75.134 34.8489 75.9104C34.2422 76.1839 33.6429 76.4649 33.0288 76.7237C32.8137 76.8419 32.5851 76.9338 32.3481 76.9972H32.0891C32.0891 76.9972 32.1631 76.9972 32.1335 76.9972C31.5638 76.6571 31.2382 74.8753 31.0311 74.2616C30.6833 73.1969 30.3726 72.1174 30.084 71.038C29.2775 67.9992 28.1085 65.1231 27.191 62.1065C26.133 58.6315 24.6162 53.3524 19.7921 54.9125C19.0769 55.127 18.4354 55.5357 17.939 56.0931C17.4425 56.6506 17.1107 57.3348 16.9806 58.0696C16.5293 60.576 17.1138 63.7183 17.5873 66.2025C18.5344 71.1563 20.68 75.8956 22.108 80.7162C23.0921 84.0508 24.52 88.1912 28.3823 88.8492C31.7488 89.4185 35.1522 87.6071 38.0748 86.1505C38.9923 85.6995 39.9097 85.2485 40.842 84.8345C42.0628 84.2873 44.4822 82.6534 45.0741 84.6422C45.2887 85.3816 44.9631 86.3576 44.8596 87.1043C44.5562 89.2411 44.2677 91.3852 43.9791 93.5294C42.7879 102.402 41.6706 111.23 40.7162 120.109C40.1909 124.974 39.673 129.854 39.3622 134.734C39.2142 137.07 39.1994 139.725 40.3315 141.854C40.9678 143.067 42.3809 144.494 43.8533 144.457C45.5181 144.42 46.8129 142.579 47.5084 141.285C48.8764 138.592 50.003 135.784 50.8749 132.893C52.7616 127.237 53.1537 120.915 55.7581 115.525C56.5498 113.884 57.6966 112.22 59.6869 114.232C60.8338 115.4 61.3739 117.189 61.8474 118.668C62.8314 121.803 63.9339 124.886 65.0511 127.984C66.2793 131.414 67.5075 134.845 68.8097 138.246C69.5496 140.191 70.2895 143.155 72.3982 144.072C74.2405 144.863 76.1494 143.643 76.9559 141.965C78.2063 139.37 77.422 135.717 77.2001 132.974C76.5898 126.084 75.532 119.24 74.0334 112.487C76.253 112.161 78.2729 110.66 79.7897 109.049C82.1943 106.476 84.599 103.703 86.7446 100.916C90.5477 95.9101 91.4725 89.8695 87.0332 84.9823ZM86.3303 99.3112C84.488 101.943 82.1721 104.309 80.093 106.757C79.3029 107.742 78.4264 108.655 77.4738 109.485C75.9127 110.771 72.8421 112.302 71.1626 110.416C69.0169 108.006 73.9002 103.71 75.306 101.914C76.8449 99.9544 78.776 98.0764 80.0043 95.9027C81.1733 93.8473 81.1585 92.2059 79.4419 90.424C76.7857 87.6958 73.8336 85.1006 70.9776 82.5794C70.6077 82.2541 69.8678 82.4463 69.9122 83.023C70.4967 90.1653 70.8149 97.3223 71.4364 104.465C71.4438 104.539 71.4638 104.611 71.4955 104.679L71.022 105.263C70.1729 106.088 69.6324 107.179 69.4904 108.354C69.3795 110.276 70.2895 112.191 72.3094 112.472C72.4574 112.472 72.598 112.472 72.7385 112.509C74.0753 118.495 75.0635 124.553 75.6981 130.653C76.0724 133.412 76.2554 136.194 76.2456 138.978C76.2815 139.975 76.0408 140.963 75.5501 141.832C75.3474 142.161 75.0638 142.432 74.7265 142.62C74.3891 142.809 74.0091 142.907 73.6227 142.907C73.2363 142.907 72.8563 142.809 72.519 142.62C72.1816 142.432 71.898 142.161 71.6953 141.832C70.9638 140.59 70.3849 139.264 69.9714 137.884C67.8627 132.383 65.791 126.83 63.9117 121.248C63.2532 119.289 62.824 117.233 61.8992 115.378C61.2037 113.988 59.8127 111.806 58.0444 111.718C54.7445 111.548 53.4275 117.81 52.8208 120.065C51.304 125.706 50.246 131.34 48.0559 136.789C47.316 138.667 45.1851 145.248 42.1368 142.216C39.9171 140.035 40.4498 136.08 40.657 133.277C41.022 128.841 41.4363 124.437 41.9 120.065C42.8027 111.659 43.8533 103.267 44.9705 94.8824C45.2813 92.546 45.5921 90.217 45.925 87.8807C46.1248 86.4537 46.6205 84.7088 46.0804 83.341C44.9114 80.3465 39.1032 84.1764 37.3793 85.0341C34.4198 86.5128 29.0851 89.4703 26.1034 86.4167C24.6828 84.938 23.9281 82.5646 23.351 80.694C22.6111 78.3355 21.96 75.9695 21.1313 73.6405C19.4592 69.0343 17.9128 64.2506 18.1052 59.2673C18.1792 57.3302 19.2594 55.8071 21.3607 55.8737C23.2696 55.9328 24.4016 57.5372 25.0601 59.1638C25.6521 60.6425 25.9332 62.2987 26.4585 63.8366C26.9839 65.3745 27.5166 66.7201 27.9901 68.1766C28.7818 70.6165 29.2849 73.1378 30.1654 75.5703C30.4761 76.4205 30.9053 78.1802 31.9929 78.3429C32.6514 78.4316 33.6281 77.8031 34.2126 77.5591C35.8773 76.8198 37.5273 76.0361 39.1772 75.2745C43.1338 73.3188 47.2144 71.6245 51.3928 70.2025C51.5098 70.1687 51.6144 70.1017 51.694 70.0096C51.7736 69.9175 51.8247 69.8043 51.8412 69.6837C51.8576 69.5631 51.8387 69.4404 51.7867 69.3304C51.7347 69.2203 51.6518 69.1278 51.5482 69.0639C45.8658 65.3227 42.196 59.0603 43.5278 52.1251C44.8596 45.1899 52.1845 40.4875 58.8656 39.7038C62.5133 39.2676 67.219 39.5337 70.4301 41.4487C73.6643 43.4936 76.0823 46.603 77.2667 50.2397C80.0043 57.9513 77.0743 66.3282 69.6236 70.0694C69.5319 70.1265 69.4562 70.206 69.4037 70.3005C69.3512 70.3949 69.3237 70.5011 69.3237 70.6091C69.3237 70.7172 69.3512 70.8234 69.4037 70.9178C69.4562 71.0123 69.5319 71.0918 69.6236 71.1489C74.1584 74.6934 78.5073 78.4692 82.6531 82.4611C84.8727 84.5683 87.6621 86.7199 88.5722 89.7734C89.534 93.1301 88.2614 96.5608 86.3303 99.3112ZM72.5906 103.341C72.0727 97.0783 71.7619 90.7715 71.281 84.5387C72.3859 85.5541 73.476 86.5744 74.5513 87.5997C75.9275 88.9084 77.5108 90.0987 78.7834 91.5257C80.4556 93.4333 79.0202 95.3408 77.7254 96.9083C76.5416 98.35 75.3874 99.814 74.2331 101.278C73.693 101.973 73.1455 102.653 72.5906 103.341Z" fill="white"/>
<path d="M76.586 142.527C75.6538 143.88 73.989 144.745 72.3687 144.043C71.5083 143.627 70.8051 142.945 70.3636 142.098C66.8787 141.928 62.9647 141.824 58.7843 141.824C54.604 141.824 50.505 141.928 46.9461 142.105C46.2062 143.229 45.126 144.383 43.809 144.412C42.6326 144.412 41.4931 143.532 40.7533 142.542C35.7812 143.015 32.6885 143.68 32.6885 144.412C32.6885 145.847 44.3639 147 58.7695 147C73.1752 147 84.8506 145.847 84.8506 144.412C84.8654 143.665 81.6765 143 76.586 142.527Z" fill="white"/>
<path d="M53.442 48.9606C53.2437 50.5473 53.1523 52.1454 53.1683 53.7443C53.1683 53.909 53.2338 54.067 53.3503 54.1835C53.4669 54.3 53.625 54.3654 53.7898 54.3654C53.9546 54.3654 54.1127 54.3 54.2293 54.1835C54.3458 54.067 54.4113 53.909 54.4113 53.7443C54.3978 52.1453 54.4917 50.5471 54.6925 48.9606C54.7886 48.14 53.5456 48.1474 53.442 48.9606Z" fill="white"/>
<path d="M65.2433 49.5963C65.0177 51.0644 64.9015 52.5472 64.8955 54.0325C64.8955 54.1972 64.961 54.3552 65.0775 54.4716C65.1941 54.5881 65.3522 54.6535 65.517 54.6535C65.6818 54.6535 65.8399 54.5881 65.9565 54.4716C66.073 54.3552 66.1385 54.1972 66.1385 54.0325C66.1431 52.6519 66.2445 51.2733 66.4419 49.9068C66.5529 49.1453 65.3542 48.8052 65.2433 49.5963Z" fill="white"/>
</g>
<defs>
<clipPath id="clip0_48_1063">
<rect width="90" height="147" fill="white"/>
</clipPath>
</defs>
</svg>
