<svg width="34" height="34" viewBox="0 0 34 34" fill="none" xmlns="http://www.w3.org/2000/svg">
<g clip-path="url(#clip0_48_1041)">
<path d="M18.8787 16.5716L23.3015 12.1591C23.4952 11.9654 23.604 11.7027 23.604 11.4288C23.604 11.1549 23.4952 10.8922 23.3015 10.6985C23.1078 10.5048 22.8451 10.396 22.5712 10.396C22.2973 10.396 22.0346 10.5048 21.8409 10.6985L17.4284 15.1213L13.0158 10.6985C12.8221 10.5048 12.5594 10.396 12.2855 10.396C12.0116 10.396 11.7489 10.5048 11.5552 10.6985C11.3615 10.8922 11.2527 11.1549 11.2527 11.4288C11.2527 11.7027 11.3615 11.9654 11.5552 12.1591L15.9781 16.5716L11.5552 20.9842C11.4588 21.0798 11.3823 21.1936 11.3301 21.3189C11.2779 21.4443 11.251 21.5787 11.251 21.7145C11.251 21.8503 11.2779 21.9847 11.3301 22.1101C11.3823 22.2354 11.4588 22.3492 11.5552 22.4448C11.6508 22.5412 11.7646 22.6177 11.8899 22.6699C12.0153 22.7221 12.1497 22.749 12.2855 22.749C12.4213 22.749 12.5557 22.7221 12.6811 22.6699C12.8064 22.6177 12.9202 22.5412 13.0158 22.4448L17.4284 18.0219L21.8409 22.4448C21.9366 22.5412 22.0503 22.6177 22.1757 22.6699C22.301 22.7221 22.4354 22.749 22.5712 22.749C22.707 22.749 22.8415 22.7221 22.9668 22.6699C23.0921 22.6177 23.2059 22.5412 23.3015 22.4448C23.3979 22.3492 23.4744 22.2354 23.5267 22.1101C23.5789 21.9847 23.6058 21.8503 23.6058 21.7145C23.6058 21.5787 23.5789 21.4443 23.5267 21.3189C23.4744 21.1936 23.3979 21.0798 23.3015 20.9842L18.8787 16.5716Z" fill="#11273C"/>
</g>
<rect x="1.99976" y="1.14283" width="30.8571" height="30.8571" rx="15.4286" stroke="#11273C" stroke-width="2.05714"/>
<defs>
<clipPath id="clip0_48_1041">
<rect width="24.6857" height="24.6857" fill="white" transform="translate(5.08545 4.22852)"/>
</clipPath>
</defs>
</svg>
