<svg width="282" height="234" viewBox="0 0 282 234" fill="none" xmlns="http://www.w3.org/2000/svg">
<g clip-path="url(#clip0_195_1451)">
<path d="M259.409 19.1826C260.569 19.1817 261.718 19.4304 262.79 19.9145C263.862 20.3986 264.836 21.1086 265.657 22.0038C266.477 22.899 267.128 23.962 267.571 25.1318C268.015 26.3017 268.243 27.5555 268.242 28.8215V101.178" stroke="#11273C" stroke-width="3" stroke-linecap="round" stroke-linejoin="round" stroke-dasharray="14 15"/>
<path d="M126.662 31.6376H58.1791" stroke="#11273C" stroke-width="3" stroke-linecap="round" stroke-linejoin="round" stroke-dasharray="14 15"/>
<path d="M0.935059 167.392H4.50703C6.84973 167.392 9.09644 166.376 10.753 164.568C12.4095 162.761 13.3401 160.309 13.3401 157.753V134.428C13.3401 131.985 14.2294 129.642 15.8123 127.915C17.3952 126.188 19.542 125.217 21.7806 125.217H74.0065" stroke="#11273C" stroke-width="3" stroke-linecap="round" stroke-linejoin="round" stroke-dasharray="14 15"/>
<path d="M105.275 31.6376V62.5201C105.275 65.0765 104.344 67.5282 102.687 69.3359C101.031 71.1435 98.7842 72.159 96.4415 72.159H91.9844C90.8239 72.1581 89.6746 72.4068 88.6022 72.8908C87.5298 73.3748 86.5553 74.0846 85.7344 74.9798C84.9135 75.8749 84.2623 76.9378 83.818 78.1077C83.3737 79.2776 83.145 80.5316 83.145 81.7979V116.946" stroke="#11273C" stroke-width="3" stroke-linecap="round" stroke-linejoin="round" stroke-dasharray="14 15"/>
<path d="M274.8 88.335H256.448V84.1856C256.448 83.1338 256.831 82.1251 257.513 81.3814C258.194 80.6377 259.118 80.2198 260.082 80.2198H271.166C272.13 80.2198 273.054 80.6377 273.736 81.3814C274.417 82.1251 274.8 83.1338 274.8 84.1856V88.335Z" fill="#C3CAD4" stroke="#11273C" stroke-width="3" stroke-linecap="round" stroke-linejoin="round"/>
<path d="M247.447 88.2806H236.363V86.5188C236.363 86.2588 236.41 86.0014 236.501 85.7613C236.592 85.5211 236.726 85.3029 236.894 85.1191C237.063 84.9353 237.263 84.7895 237.483 84.69C237.703 84.5905 237.939 84.5393 238.177 84.5393H245.658C246.139 84.5393 246.6 84.7478 246.94 85.1191C247.28 85.4903 247.472 85.9938 247.472 86.5188L247.447 88.2806Z" fill="#C3CAD4" stroke="#11273C" stroke-width="3" stroke-linecap="round" stroke-linejoin="round"/>
<path d="M277.431 88.3418H234.611C232.608 88.3418 230.983 90.1143 230.983 92.3008V117.163C230.983 119.35 232.608 121.122 234.611 121.122H277.431C279.434 121.122 281.059 119.35 281.059 117.163V92.3008C281.059 90.1143 279.434 88.3418 277.431 88.3418Z" fill="#143861"/>
<path d="M277.431 89.3554C278.144 89.3572 278.828 89.6674 279.333 90.2181C279.838 90.7688 280.122 91.5152 280.124 92.294V117.156C280.122 117.935 279.838 118.682 279.333 119.232C278.828 119.783 278.144 120.093 277.431 120.095H234.611C233.898 120.093 233.214 119.783 232.709 119.232C232.204 118.682 231.92 117.935 231.918 117.156V92.294C231.92 91.5152 232.204 90.7688 232.709 90.2181C233.214 89.6674 233.898 89.3572 234.611 89.3554H277.431ZM277.431 87.3147H234.611C233.402 87.3183 232.244 87.844 231.388 88.7771C230.533 89.7101 230.052 90.9745 230.048 92.294V117.156C230.05 118.477 230.531 119.742 231.387 120.675C232.242 121.609 233.402 122.134 234.611 122.136H277.431C278.03 122.136 278.623 122.007 279.177 121.757C279.731 121.507 280.234 121.14 280.657 120.677C281.081 120.215 281.417 119.666 281.646 119.062C281.876 118.458 281.994 117.81 281.994 117.156V92.294C281.992 90.974 281.511 89.7085 280.655 88.7751C279.8 87.8417 278.64 87.3165 277.431 87.3147Z" fill="#11273C"/>
<path d="M281.065 95.3754H230.983V113.857H281.065V95.3754Z" fill="#C3CAD4" stroke="#11273C" stroke-width="3" stroke-linecap="round" stroke-linejoin="round"/>
<path d="M251.231 93.9197C248.685 93.9233 246.246 95.0281 244.446 96.9919C242.646 98.9557 241.634 101.618 241.631 104.395C241.634 107.172 242.646 109.835 244.446 111.799C246.246 113.762 248.685 114.867 251.231 114.871C253.776 114.867 256.215 113.762 258.015 111.799C259.815 109.835 260.827 107.172 260.83 104.395C260.827 101.618 259.815 98.9557 258.015 96.9919C256.215 95.0281 253.776 93.9233 251.231 93.9197Z" fill="#C3CAD4" stroke="#11273C" stroke-width="3" stroke-linecap="round" stroke-linejoin="round"/>
<path d="M262.42 104.395C262.412 107.631 261.23 110.731 259.134 113.019C257.037 115.307 254.196 116.596 251.23 116.605C249.758 116.611 248.299 116.299 246.938 115.688C245.576 115.076 244.339 114.178 243.296 113.043C242.254 111.909 241.427 110.561 240.863 109.077C240.299 107.593 240.009 106.002 240.01 104.395C240.018 101.154 241.204 98.0481 243.307 95.7593C245.411 93.4704 248.26 92.185 251.23 92.1851C254.196 92.194 257.037 93.4833 259.134 95.7712C261.23 98.0592 262.412 101.16 262.42 104.395Z" fill="#169579"/>
<path d="M249.529 99.7425C249.529 100.062 249.471 100.379 249.359 100.674C249.247 100.97 249.082 101.238 248.875 101.464C248.668 101.691 248.422 101.87 248.151 101.992C247.88 102.115 247.59 102.178 247.297 102.178C246.705 102.178 246.137 101.921 245.719 101.464C245.3 101.008 245.065 100.388 245.065 99.7425C245.065 99.423 245.123 99.1067 245.235 98.8116C245.348 98.5166 245.512 98.2485 245.719 98.023C245.927 97.7974 246.173 97.6186 246.443 97.497C246.714 97.3753 247.004 97.3132 247.297 97.3141C247.888 97.3141 248.454 97.5697 248.873 98.0249C249.291 98.4802 249.527 99.0978 249.529 99.7425Z" fill="#C3CAD4"/>
<path d="M47.7252 149.189C54.2644 152.542 63.3843 146.202 63.2409 142.114C63.2035 141.06 62.9666 140.005 61.4269 138.386C59.7064 136.577 57.6866 136.414 55.9537 138.264C52.7371 141.747 53.242 146.304 47.7252 149.189Z" fill="#11273C"/>
<path d="M65.485 130.033L60.3734 137.516C60.7543 137.757 61.1061 138.05 61.4206 138.386C62.0366 138.986 62.5423 139.709 62.9105 140.516L69.886 134.836" fill="#C3CAD4"/>
<path d="M65.485 130.033L60.3734 137.516C60.7543 137.757 61.1061 138.05 61.4206 138.386C62.0366 138.986 62.5423 139.709 62.9105 140.516L69.886 134.836" stroke="#11273C" stroke-width="3" stroke-linecap="round" stroke-linejoin="round"/>
<path d="M69.886 134.836C74.9104 130.931 90.1517 114.368 87.2094 111.136C84.2671 107.905 69.0694 124.557 65.485 130.033C66.1127 130.94 66.7892 131.806 67.5109 132.625C68.2616 133.413 69.0547 134.151 69.886 134.836Z" fill="#11273C" stroke="#11273C" stroke-width="3" stroke-miterlimit="10"/>
<path d="M116.645 89.0153C116.408 89.0153 116.308 88.9336 116.308 88.7364C116.308 88.4099 116.77 88.4371 117.069 88.4235C117.504 88.4075 117.916 88.2063 118.216 87.863C118.517 87.5197 118.682 87.0616 118.677 86.5868C118.673 86.1076 118.499 85.6487 118.193 85.3054C117.886 84.9622 117.47 84.7609 117.031 84.7434C117.069 84.7434 111.421 84.5802 110.287 84.5802H109.152C109.886 82.6658 110.334 80.6358 110.48 78.5669C110.48 76.9752 110.025 75.0569 109.09 75.3562C108.317 75.6079 108.423 77.5601 107.22 79.975C106.291 81.832 104.682 83.9815 103.617 86.2671C103.328 86.8881 103.072 87.5262 102.85 88.1786H100.518V87.3487C100.518 87.2687 100.49 87.1918 100.438 87.1346C100.387 87.0774 100.317 87.0444 100.244 87.0426H95.8805C95.8061 87.0426 95.7348 87.0748 95.6822 87.1323C95.6296 87.1897 95.6 87.2675 95.6 87.3487V97.8923C95.6016 97.9723 95.6319 98.0484 95.6843 98.1044C95.7368 98.1603 95.8072 98.1916 95.8805 98.1916H100.244C100.318 98.1916 100.39 98.1593 100.442 98.1019C100.495 98.0445 100.525 97.9667 100.525 97.8855V97.2869H102.395C102.395 97.2869 103.641 99.3276 107.506 99.3276H111.564C111.564 99.3276 111.851 99.3276 112.269 99.3276H114.949C115.31 99.3495 115.664 99.2211 115.941 98.9685C116.217 98.7159 116.395 98.3579 116.439 97.9671C116.439 97.8855 116.439 97.8039 116.439 97.729C116.439 97.6542 116.439 97.6678 116.439 97.6406C116.443 97.5999 116.443 97.5589 116.439 97.5182V97.4025V97.3141C116.403 97.2556 116.354 97.2086 116.296 97.1781V97.1168L116.24 96.9876C116.242 96.9741 116.242 96.9603 116.24 96.9468C116.219 96.9013 116.193 96.858 116.165 96.8175C116.135 96.7714 116.102 96.7282 116.065 96.6883L115.953 96.559L115.903 96.5114C115.766 96.3141 115.984 96.2938 115.984 96.2938C116.334 96.2949 116.675 96.1722 116.956 95.9441C117.237 95.716 117.443 95.3948 117.543 95.0285C117.675 94.6623 117.674 94.2543 117.538 93.8894C117.402 93.5246 117.142 93.2309 116.813 93.0694C116.62 92.9538 116.738 92.7633 116.869 92.7701C117.284 92.6994 117.663 92.4733 117.942 92.1307C118.221 91.7882 118.381 91.3505 118.397 90.8927C118.392 90.3906 118.205 89.911 117.876 89.5591C117.548 89.2072 117.105 89.0116 116.645 89.0153Z" fill="#169579"/>
<path d="M28.195 56.847H60.498C61.4757 56.847 62.4133 56.4237 63.1052 55.67C63.7971 54.9162 64.1867 53.8937 64.1884 52.8269V22.7742H24.5046V52.8269C24.5063 53.8937 24.8958 54.9162 25.5877 55.67C26.2796 56.4237 27.2174 56.847 28.195 56.847Z" fill="#C3CAD4" stroke="#11273C" stroke-width="3" stroke-linecap="round" stroke-linejoin="round"/>
<path d="M64.1884 17.5908C64.1884 16.5228 63.7995 15.4985 63.1074 14.7433C62.4154 13.9881 61.4767 13.5638 60.498 13.5638H28.195C27.7104 13.5638 27.2305 13.668 26.7828 13.8704C26.335 14.0728 25.9282 14.3694 25.5855 14.7433C25.2428 15.1173 24.971 15.5612 24.7856 16.0498C24.6001 16.5383 24.5046 17.062 24.5046 17.5908V22.7878H64.1884V17.5908Z" fill="#11273C" stroke="#11273C" stroke-width="3" stroke-linecap="round" stroke-linejoin="round"/>
<path d="M35.8437 33.1001C39.4094 29.454 44.1969 34.3857 41.0801 37.5692C39.291 39.399 34.7903 39.8412 34.7903 43.5076L36.5544 43.5688H42.1647" fill="#C3CAD4"/>
<path d="M35.8437 33.1001C39.4094 29.454 44.1969 34.3857 41.0801 37.5692C39.291 39.399 34.7903 39.8412 34.7903 43.5076L36.5544 43.5688H42.1647" stroke="#11273C" stroke-width="3" stroke-linecap="round" stroke-linejoin="round"/>
<path d="M46.0109 31.9233H52.7557V34.0457C50.2622 37.2087 47.8498 40.6983 47.563 43.5689" fill="#C3CAD4"/>
<path d="M46.0109 31.9233H52.7557V34.0457C50.2622 37.2087 47.8498 40.6983 47.563 43.5689" stroke="#11273C" stroke-width="3" stroke-linecap="round" stroke-linejoin="round"/>
<path d="M60.498 56.847C61.4756 56.847 62.4133 56.4237 63.1052 55.6699C63.7971 54.9162 64.1867 53.8937 64.1883 52.8268V45.0314L53.3354 56.847H60.498Z" fill="#11273C" stroke="#11273C" stroke-width="3" stroke-linecap="round" stroke-linejoin="round"/>
<path d="M57.3749 44.5076C56.2435 44.5076 55.1584 44.9976 54.3578 45.8699C53.5571 46.7423 53.1065 47.9257 53.1049 49.1604V55.4933H53.2545L63.2284 44.6096V44.5348L57.3749 44.5076Z" fill="#169579"/>
<path d="M134.941 53.7656C134.941 53.7656 133.27 50.2488 130.939 50.2488C128.938 50.2488 126.825 53.2758 127.71 56.9151C128.595 60.5543 130.272 66.6084 130.272 66.6084C130.272 66.6084 131.712 70.853 134.941 69.1524C138.17 67.4519 134.941 53.7656 134.941 53.7656Z" fill="#CECECE"/>
<path d="M175.678 54.2554C175.678 54.2554 177.324 50.7794 179.636 50.7794C181.606 50.7794 183.695 53.7724 182.816 57.3641C181.937 60.9557 180.291 66.9418 180.291 66.9418C180.291 66.9418 178.87 71.1388 175.678 69.4586C172.486 67.7784 175.678 54.2554 175.678 54.2554Z" fill="#CECECE"/>
<path d="M230.429 214.26L210.58 131.271C208.991 122.551 204.023 115.449 194.229 113.973L179.399 110.517L176.744 109.898C174.765 109.434 172.983 108.268 171.675 106.582C170.367 104.896 169.607 102.786 169.513 100.579L169.182 92.845L168.983 87.9406H141.293L141.087 92.845L140.763 100.579C140.664 102.783 139.901 104.889 138.592 106.57C137.283 108.252 135.502 109.415 133.526 109.878L130.87 110.497L116.04 113.953C106.247 115.429 101.279 122.53 99.6954 131.251L87.9699 202.675C78.9809 206.165 63.8081 210.226 63.8081 210.226C63.8081 210.226 60.6912 201.723 55.4611 201.124C43.2867 199.764 45.3189 205.662 43.4862 208.396C40.9054 212.253 39.4967 217.491 40.5876 220.463C42.8067 226.518 48.2051 228.572 62.1748 227.381C64.3753 227.198 76.0385 231.735 81.7611 231.735C93.5552 231.735 105.892 231.143 109.52 218.681C109.769 217.817 108.896 215.634 107.188 213.239L116.24 163.031L116.314 163.324V163.48L192.085 216.783C192.085 216.783 203.256 229.068 206.728 230.34C236.637 241.333 230.429 214.26 230.429 214.26Z" fill="#C3CAD4"/>
<path d="M55.4611 201.152C43.2867 199.791 45.3189 205.689 43.4862 208.423C40.9054 212.28 39.4967 217.518 40.5876 220.491C42.8067 226.545 48.2051 228.599 62.1748 227.409H62.4553C64.5623 220.926 64.0138 212.552 63.8081 210.253C63.8081 210.253 60.7224 201.75 55.4611 201.152Z" fill="#CECECE"/>
<path d="M55.1058 227.409C54.0897 227.497 53.1173 227.565 52.1885 227.619C53.6472 227.728 55.2804 227.758 57.0882 227.708C56.4407 227.522 55.7751 227.422 55.1058 227.409Z" fill="#CECECE"/>
<path d="M187.167 113.98C196.96 115.456 201.928 122.558 203.518 131.278L223.36 214.267C223.36 214.267 227.019 230.211 215.206 232.667C235.366 235.816 230.429 214.267 230.429 214.267L210.581 131.278C208.991 122.558 204.023 115.456 194.23 113.98H187.167Z" fill="#CECECE"/>
<path d="M155.126 105.048C161.471 105.048 166.184 101.606 169.401 97.94L169.183 92.8723L168.983 87.9678H141.293L141.087 92.8723L140.875 97.9808C144.023 101.518 148.767 105.048 155.126 105.048Z" fill="#CECECE"/>
<path d="M230.429 214.26L210.58 131.271C208.991 122.551 204.023 115.449 194.229 113.973L179.399 110.517L176.744 109.898C174.765 109.434 172.983 108.268 171.675 106.582C170.367 104.896 169.607 102.786 169.513 100.579L169.182 92.845L168.983 87.9406H141.293L141.087 92.845L140.763 100.579C140.664 102.783 139.901 104.889 138.592 106.57C137.283 108.252 135.502 109.415 133.526 109.878L130.87 110.497L116.04 113.953C106.247 115.429 101.279 122.53 99.6954 131.251L87.9699 202.675C78.9809 206.165 63.8081 210.226 63.8081 210.226C63.8081 210.226 60.6912 201.723 55.4611 201.124C43.2867 199.764 45.3189 205.662 43.4862 208.396C40.9054 212.253 39.4967 217.491 40.5876 220.463C42.8067 226.518 48.2051 228.572 62.1748 227.381C64.3753 227.198 76.0385 231.735 81.7611 231.735C93.5552 231.735 105.892 231.143 109.52 218.681C109.769 217.817 108.896 215.634 107.188 213.239L116.24 163.031L116.314 163.324V163.48L192.085 216.783C192.085 216.783 203.256 229.068 206.728 230.34C236.637 241.333 230.429 214.26 230.429 214.26Z" stroke="#11273C" stroke-width="3" stroke-linecap="round" stroke-linejoin="round"/>
<path d="M61.2024 220.205L32.5897 183.527L29.2235 186.656L57.8362 223.327L60.9032 223.592V223.558L61.2024 220.205Z" fill="#11273C"/>
<path d="M61.2024 220.205L32.5897 183.527L29.2235 186.656L57.8362 223.327L60.9032 223.592V223.558L61.2024 220.205Z" stroke="#11273C" stroke-width="3" stroke-linecap="round" stroke-linejoin="round"/>
<path d="M28.1078 185.18L29.2236 186.656L32.5898 183.527L31.4553 182.071C31.2688 181.827 31.0396 181.626 30.781 181.48C30.5223 181.334 30.2396 181.245 29.9493 181.22C29.659 181.195 29.367 181.233 29.0904 181.332C28.8137 181.432 28.5581 181.59 28.3385 181.799C28.1189 182.004 27.9386 182.254 27.8081 182.535C27.6775 182.816 27.5993 183.123 27.5778 183.437C27.5564 183.751 27.5922 184.067 27.6831 184.366C27.7741 184.665 27.9184 184.942 28.1078 185.18Z" fill="#C3CAD4" stroke="#11273C" stroke-width="3" stroke-linecap="round" stroke-linejoin="round"/>
<path d="M183.969 111.592C184.072 112.145 184.147 112.704 184.193 113.266C184.185 121.453 181.198 129.301 175.889 135.086C170.579 140.87 163.382 144.118 155.88 144.114C148.375 144.116 141.177 140.865 135.868 135.076C130.56 129.287 127.576 121.435 127.573 113.245C127.573 112.98 127.573 112.157 127.523 111.286L116.539 113.844C116.539 113.953 116.539 114.027 116.502 114.027C116.47 121.422 116.364 156.766 117.056 162.712V163.317V163.474H194.666L194.747 163.018L194.815 162.882C195.507 156.937 195.395 121.53 195.364 114.184C194.978 114.109 194.597 114.021 194.192 113.959L183.969 111.592Z" fill="#169579"/>
<path d="M183.969 111.592C184.072 112.145 184.147 112.704 184.193 113.266C184.185 121.453 181.198 129.301 175.889 135.086C170.579 140.87 163.382 144.118 155.88 144.114C148.375 144.116 141.177 140.865 135.868 135.076C130.56 129.287 127.576 121.435 127.573 113.245C127.573 112.98 127.573 112.157 127.523 111.286L116.539 113.844C116.539 113.953 116.539 114.027 116.502 114.027C116.47 121.422 116.364 156.766 117.056 162.712V163.317V163.474H194.666L194.747 163.018L194.815 162.882C195.507 156.937 195.395 121.53 195.364 114.184C194.978 114.109 194.597 114.021 194.192 113.959L183.969 111.592Z" stroke="#11273C" stroke-width="3" stroke-linecap="round" stroke-linejoin="round"/>
<path d="M216.129 230.096C216.128 230.469 216.06 230.839 215.928 231.183C215.796 231.528 215.603 231.841 215.361 232.104C215.118 232.368 214.831 232.576 214.514 232.718C214.198 232.86 213.859 232.933 213.517 232.932H107.394C106.474 232.932 105.592 232.534 104.941 231.825C104.29 231.116 103.924 230.154 103.922 229.15V157.556C103.922 154.012 106.347 151.134 109.333 151.134H210.718C213.704 151.134 216.129 154.012 216.129 157.556V230.096Z" fill="#11273C"/>
<path d="M216.129 230.096C216.128 230.469 216.06 230.839 215.928 231.183C215.796 231.528 215.603 231.841 215.361 232.104C215.118 232.368 214.831 232.576 214.514 232.718C214.198 232.86 213.859 232.933 213.517 232.932H107.394C106.474 232.932 105.592 232.534 104.941 231.825C104.29 231.116 103.924 230.154 103.922 229.15V157.556C103.922 154.012 106.347 151.134 109.333 151.134H210.718C213.704 151.134 216.129 154.012 216.129 157.556V230.096Z" stroke="#11273C" stroke-width="3" stroke-linecap="round" stroke-linejoin="round"/>
<path d="M134.941 53.7656C134.941 53.7656 133.27 50.2488 130.939 50.2488C128.938 50.2488 126.825 53.2758 127.71 56.9151C128.595 60.5543 130.272 66.6084 130.272 66.6084C130.272 66.6084 131.712 70.853 134.941 69.1524C138.17 67.4519 134.941 53.7656 134.941 53.7656Z" stroke="#11273C" stroke-width="3" stroke-linecap="round" stroke-linejoin="round"/>
<path d="M175.678 54.2554C175.678 54.2554 177.324 50.7794 179.636 50.7794C181.606 50.7794 183.695 53.7724 182.816 57.3641C181.937 60.9557 180.291 66.9418 180.291 66.9418C180.291 66.9418 178.87 71.1388 175.678 69.4586C172.486 67.7784 175.678 54.2554 175.678 54.2554Z" stroke="#11273C" stroke-width="3" stroke-linecap="round" stroke-linejoin="round"/>
<path d="M154.621 15.1012C134.629 14.8631 130.259 32.8485 130.814 42.671C131.288 50.9699 133.451 69.5947 133.451 69.5947C133.451 71.8394 134.698 78.4921 136.169 81.1994C136.169 81.1994 142.403 95.3006 155.126 95.3006C168.684 95.3006 174.78 79.5737 174.78 79.5737C175.722 77.1588 176.738 71.1932 176.8 69.8055C176.8 69.8055 178.92 51.174 179.437 42.8819C180.085 32.556 174.606 15.3393 154.621 15.1012Z" fill="#C3CAD4"/>
<path d="M161.179 15.8835C169.856 21.6315 172.48 32.4064 172.019 39.6917C171.502 47.9905 169.382 66.6153 169.382 66.6153C169.32 67.9758 168.304 73.9686 167.369 76.3834C167.369 76.3834 161.266 92.1172 147.707 92.1104C146.77 92.1087 145.835 92.0291 144.909 91.8723C147.934 94.0833 151.491 95.2668 155.132 95.2735C168.69 95.2735 174.787 79.5465 174.787 79.5465C175.728 77.1317 176.744 71.166 176.806 69.7784C176.806 69.7784 178.926 51.1468 179.443 42.8548C180.01 33.8077 175.821 19.3663 161.179 15.8835Z" fill="#CECECE"/>
<path d="M154.621 15.1012C134.629 14.8631 130.259 32.8485 130.814 42.671C131.288 50.9699 133.451 69.5947 133.451 69.5947C133.451 71.8394 134.698 78.4921 136.169 81.1994C136.169 81.1994 142.403 95.3006 155.126 95.3006C168.684 95.3006 174.78 79.5737 174.78 79.5737C175.722 77.1588 176.738 71.1932 176.8 69.8055C176.8 69.8055 178.92 51.1739 179.437 42.8819C180.085 32.556 174.606 15.3393 154.621 15.1012Z" stroke="#11273C" stroke-width="3" stroke-linecap="round" stroke-linejoin="round"/>
<path d="M183.177 21.8015C183.271 20.3662 180.416 18.8221 176.189 17.414C178.664 13.7993 179.763 9.28066 179.256 4.80249C176.441 7.27405 172.979 8.70354 169.37 8.88389C164.931 9.06755 160.088 9.06755 152.451 9.84302C135.521 11.5776 132.429 16.6453 130.926 18.686C128.321 22.2913 126.631 28.1617 128.296 36.3721C129 39.8957 131.812 50.7386 131.812 50.7386C131.693 50.8542 132.952 41.3038 134 39.0046C135.764 35.1681 139.759 33.2906 141.48 32.7192C149.858 29.9575 164.925 31.6581 167.842 32.7192C169.818 33.3995 173.771 34.6919 175.946 38.7665C177.69 42.1242 178.601 45.9201 178.589 49.7795C178.589 49.7795 182.622 30.2024 183.177 21.8015Z" fill="#11273C"/>
<path d="M176.189 17.414C178.664 13.7993 179.763 9.28066 179.256 4.80249C176.441 7.27405 172.979 8.70354 169.37 8.88389L167.774 8.9451C163.58 14.5175 159.062 19.7889 154.247 24.7265L154.209 24.7673C152.794 26.2502 148.075 31.0663 147.764 31.5696H147.832C155.132 27.6447 164.507 24.9986 166.895 24.8762C168.977 24.7741 173.079 24.4 176.47 27.3386C178.567 29.2079 180.296 31.522 181.55 34.1409C182.323 29.5494 183.003 24.9374 183.208 21.8423C183.271 20.3662 180.416 18.8221 176.189 17.414Z" fill="#143861"/>
<path d="M183.395 7.1969C183.395 7.1969 183.695 10.394 177.903 15.3597C172.917 19.6179 160.711 25.6788 156.036 27.7195H155.98C153.997 28.631 146.966 31.7261 147.77 31.5424C155.874 30.7329 165.53 31.9302 167.799 32.76C169.775 33.4403 173.727 34.7327 175.902 38.8073C177.646 42.165 178.557 45.9609 178.546 49.8203C182.071 44.2842 184.884 38.2463 186.905 31.8757C191.724 16.5365 183.395 7.1969 183.395 7.1969Z" fill="#11273C"/>
<path d="M183.395 7.1969C183.395 7.1969 183.495 8.30567 182.398 10.2307C183.439 14.3121 183.751 19.7132 181.712 26.189C180.256 30.7601 178.405 35.1697 176.183 39.3583C177.75 42.5924 178.568 46.1959 178.564 49.8543C182.086 44.3065 184.892 38.2571 186.905 31.8757C191.724 16.5365 183.395 7.1969 183.395 7.1969Z" fill="#143861"/>
<path d="M177.068 16.0195C178.925 12.6522 179.696 8.70324 179.256 4.80249C176.441 7.27405 172.979 8.70354 169.37 8.88389C164.931 9.06755 160.088 9.06755 152.451 9.84302C135.521 11.5776 132.429 16.6453 130.926 18.686C128.321 22.2913 126.631 28.1617 128.296 36.3721C129 39.8957 131.812 50.7386 131.812 50.7386C131.693 50.8542 132.952 41.3038 134 39.0046C135.764 35.1681 139.759 33.2906 141.48 32.7192C149.858 29.9575 164.925 31.6581 167.842 32.7192C169.818 33.3995 173.771 34.6919 175.946 38.7665C177.69 42.1242 178.601 45.9201 178.589 49.7795" stroke="#11273C" stroke-width="3" stroke-linecap="round" stroke-linejoin="round"/>
<path d="M183.395 7.1969C183.395 7.1969 183.695 10.394 177.903 15.3597C172.917 19.6179 160.711 25.6788 156.036 27.7195H155.98C153.997 28.631 146.966 31.7261 147.77 31.5424C155.874 30.7329 165.53 31.9302 167.799 32.76C169.775 33.4403 173.727 34.7327 175.902 38.8073C177.646 42.165 178.557 45.9609 178.546 49.8203C182.071 44.2842 184.884 38.2464 186.905 31.8757C191.724 16.5365 183.395 7.1969 183.395 7.1969Z" stroke="#11273C" stroke-width="3" stroke-linecap="round" stroke-linejoin="round"/>
<path d="M169.457 195.438C169.457 196.789 169.213 198.127 168.739 199.375C168.265 200.624 167.57 201.758 166.694 202.713C165.818 203.668 164.778 204.425 163.634 204.942C162.49 205.458 161.264 205.724 160.025 205.723C158.786 205.725 157.559 205.46 156.414 204.944C155.268 204.428 154.227 203.671 153.35 202.716C152.473 201.76 151.777 200.626 151.302 199.377C150.827 198.129 150.582 196.79 150.581 195.438C150.582 194.086 150.827 192.748 151.301 191.5C151.776 190.251 152.472 189.117 153.348 188.162C154.224 187.207 155.265 186.45 156.409 185.933C157.554 185.417 158.78 185.152 160.019 185.153C161.258 185.151 162.485 185.416 163.63 185.932C164.775 186.448 165.815 187.205 166.692 188.16C167.568 189.115 168.264 190.25 168.738 191.499C169.213 192.747 169.457 194.086 169.457 195.438Z" fill="#C3CAD4" stroke="#11273C" stroke-width="3" stroke-linecap="round" stroke-linejoin="round"/>
<path d="M40.5876 200.573C41.2609 198.737 43.854 196.812 46.9397 198.199C49.4332 199.335 56.7329 205.913 56.0035 208.09C54.9189 211.348 52.7433 210.206 52.7433 211.648C52.7433 213.233 49.8384 222.722 46.572 222.926C43.0811 223.137 39.6775 221.688 39.6775 214.818C39.6775 211.457 39.4967 203.512 40.5876 200.573Z" fill="#C3CAD4" stroke="#11273C" stroke-width="3" stroke-linecap="round" stroke-linejoin="round"/>
<path d="M74.6361 231.81C74.6361 226.898 71.2512 222.912 67.0746 222.912H24.3738V231.81" fill="#C3CAD4"/>
<path d="M74.6361 231.81C74.6361 226.898 71.2512 222.912 67.0746 222.912H24.3738V231.81" stroke="#11273C" stroke-width="3" stroke-linecap="round" stroke-linejoin="round"/>
<path d="M124.898 231.81V222.912H82.2038C78.021 222.912 74.6361 226.898 74.6361 231.81" fill="#C3CAD4"/>
<path d="M124.898 231.81V222.912H82.2038C78.021 222.912 74.6361 226.898 74.6361 231.81" stroke="#11273C" stroke-width="3" stroke-linecap="round" stroke-linejoin="round"/>
<path d="M18.2959 232.939H130.976" stroke="#11273C" stroke-width="3" stroke-linecap="round" stroke-linejoin="round"/>
<path d="M271.247 159.855C271.16 159.683 271.131 159.483 271.165 159.29C271.199 159.098 271.294 158.924 271.434 158.8C271.791 158.483 272.128 158.14 272.444 157.773C272.567 157.624 272.733 157.525 272.915 157.494C273.096 157.463 273.282 157.502 273.441 157.603L274.002 157.977C274.255 158.146 274.559 158.199 274.848 158.123C275.136 158.048 275.386 157.851 275.542 157.576C275.619 157.439 275.671 157.286 275.695 157.127C275.718 156.968 275.713 156.806 275.679 156.649C275.645 156.492 275.582 156.345 275.496 156.214C275.409 156.084 275.3 155.973 275.174 155.889L274.632 155.528C274.48 155.426 274.365 155.268 274.308 155.083C274.251 154.898 274.255 154.697 274.32 154.515C274.493 154.044 274.635 153.559 274.744 153.066C274.787 152.871 274.89 152.698 275.035 152.575C275.179 152.451 275.358 152.385 275.542 152.386H276.128C276.425 152.393 276.713 152.272 276.929 152.049C277.145 151.826 277.271 151.519 277.281 151.195C277.285 151.034 277.26 150.874 277.208 150.724C277.155 150.574 277.076 150.436 276.975 150.319C276.873 150.203 276.752 150.109 276.617 150.043C276.483 149.977 276.338 149.941 276.19 149.937H275.642C275.467 149.932 275.299 149.862 275.166 149.738C275.033 149.614 274.944 149.444 274.912 149.257C274.85 148.745 274.75 148.24 274.613 147.747C274.551 147.55 274.554 147.335 274.622 147.141C274.689 146.946 274.816 146.782 274.981 146.679L275.405 146.42C275.535 146.344 275.649 146.24 275.742 146.116C275.836 145.991 275.905 145.847 275.948 145.693C275.99 145.539 276.004 145.377 275.989 145.217C275.974 145.057 275.93 144.902 275.86 144.76C275.717 144.475 275.477 144.264 275.192 144.172C274.907 144.08 274.6 144.116 274.339 144.271L273.952 144.495C273.789 144.588 273.601 144.614 273.422 144.57C273.242 144.525 273.083 144.411 272.974 144.25C272.678 143.833 272.353 143.442 272.001 143.08C271.86 142.944 271.766 142.759 271.734 142.556C271.703 142.353 271.735 142.144 271.827 141.965L272.026 141.604C272.181 141.328 272.229 140.996 272.16 140.681C272.091 140.366 271.911 140.094 271.658 139.924C271.533 139.84 271.393 139.783 271.248 139.758C271.102 139.733 270.954 139.74 270.81 139.778C270.667 139.816 270.533 139.884 270.414 139.979C270.295 140.075 270.195 140.194 270.119 140.332L269.938 140.645C269.833 140.815 269.678 140.94 269.498 140.997C269.317 141.054 269.125 141.04 268.953 140.958C268.476 140.748 267.984 140.582 267.482 140.461C267.307 140.416 267.153 140.305 267.045 140.149C266.937 139.992 266.882 139.8 266.89 139.604V139.284C266.894 139.124 266.869 138.964 266.816 138.814C266.763 138.664 266.684 138.527 266.583 138.411C266.481 138.295 266.36 138.201 266.225 138.136C266.091 138.072 265.946 138.036 265.799 138.033C265.501 138.025 265.214 138.146 264.998 138.369C264.782 138.592 264.655 138.899 264.645 139.223V139.516C264.633 139.72 264.555 139.914 264.425 140.062C264.295 140.21 264.122 140.303 263.935 140.325C263.424 140.415 262.92 140.544 262.426 140.713C262.255 140.775 262.07 140.77 261.902 140.697C261.735 140.625 261.596 140.491 261.51 140.318L261.385 140.073C261.315 139.932 261.22 139.807 261.106 139.705C260.991 139.604 260.86 139.528 260.718 139.482C260.577 139.437 260.428 139.422 260.282 139.44C260.135 139.457 259.993 139.506 259.864 139.584C259.603 139.739 259.409 140.001 259.325 140.312C259.241 140.623 259.273 140.958 259.415 141.243L259.534 141.488C259.62 141.663 259.647 141.864 259.611 142.059C259.574 142.253 259.476 142.426 259.334 142.55C258.913 142.919 258.523 143.329 258.169 143.774C258.05 143.918 257.888 144.012 257.713 144.038C257.537 144.064 257.358 144.021 257.209 143.917L256.978 143.76C256.723 143.592 256.417 143.54 256.128 143.617C255.838 143.693 255.588 143.891 255.432 144.168C255.278 144.446 255.231 144.778 255.301 145.093C255.371 145.408 255.553 145.68 255.806 145.849L256.055 146.019C256.212 146.135 256.327 146.307 256.383 146.504C256.438 146.702 256.431 146.915 256.361 147.107C256.186 147.632 256.048 148.171 255.949 148.719C255.919 148.914 255.826 149.09 255.686 149.215C255.546 149.34 255.37 149.406 255.189 149.399H254.846C254.699 149.394 254.552 149.421 254.414 149.478C254.276 149.535 254.151 149.621 254.044 149.732C253.937 149.843 253.852 149.976 253.792 150.123C253.733 150.27 253.701 150.429 253.699 150.59C253.695 150.75 253.72 150.91 253.772 151.06C253.825 151.21 253.904 151.347 254.006 151.463C254.107 151.58 254.229 151.673 254.363 151.738C254.498 151.803 254.643 151.838 254.79 151.842H255.17C255.357 151.854 255.534 151.936 255.672 152.073C255.81 152.211 255.901 152.395 255.931 152.597C256.021 153.135 256.15 153.665 256.317 154.182C256.373 154.366 256.368 154.566 256.302 154.747C256.236 154.927 256.113 155.077 255.956 155.168L255.569 155.392C255.309 155.549 255.116 155.811 255.032 156.122C254.948 156.432 254.98 156.767 255.12 157.052C255.19 157.194 255.285 157.319 255.399 157.421C255.514 157.522 255.645 157.598 255.786 157.644C255.928 157.69 256.076 157.706 256.223 157.689C256.369 157.673 256.512 157.625 256.641 157.549L257.071 157.29C257.235 157.197 257.422 157.168 257.602 157.208C257.783 157.247 257.945 157.353 258.063 157.508C258.368 157.903 258.701 158.272 259.06 158.61C259.202 158.74 259.297 158.92 259.329 159.119C259.361 159.318 259.328 159.523 259.235 159.698L258.954 160.208C258.877 160.345 258.825 160.497 258.801 160.655C258.778 160.814 258.783 160.976 258.818 161.132C258.852 161.288 258.914 161.435 259 161.565C259.087 161.695 259.196 161.805 259.322 161.889C259.447 161.973 259.586 162.03 259.731 162.055C259.877 162.081 260.025 162.075 260.168 162.037C260.311 162 260.446 161.932 260.565 161.838C260.684 161.743 260.785 161.624 260.862 161.487L261.173 160.936C261.267 160.768 261.412 160.64 261.582 160.575C261.752 160.509 261.938 160.509 262.108 160.576C262.546 160.748 262.993 160.887 263.449 160.991C263.627 161.032 263.786 161.139 263.9 161.294C264.014 161.449 264.074 161.642 264.072 161.841V162.521C264.067 162.682 264.091 162.843 264.144 162.993C264.196 163.144 264.275 163.282 264.376 163.399C264.478 163.516 264.6 163.61 264.735 163.675C264.87 163.741 265.015 163.776 265.163 163.78C265.46 163.787 265.748 163.666 265.964 163.443C266.18 163.22 266.306 162.913 266.316 162.589V161.875C266.319 161.682 266.383 161.496 266.496 161.347C266.61 161.199 266.766 161.097 266.939 161.059C267.393 160.977 267.841 160.859 268.28 160.705C268.455 160.637 268.647 160.638 268.821 160.709C268.996 160.78 269.142 160.916 269.233 161.093L269.551 161.732C269.694 162.017 269.933 162.229 270.218 162.322C270.503 162.415 270.81 162.381 271.072 162.229C271.202 162.152 271.317 162.049 271.41 161.924C271.503 161.799 271.573 161.656 271.615 161.502C271.657 161.348 271.671 161.186 271.656 161.026C271.641 160.866 271.597 160.71 271.527 160.569L271.247 159.855ZM267.039 154.107C266.219 154.591 265.256 154.7 264.362 154.41C263.468 154.121 262.716 153.456 262.27 152.563C261.827 151.667 261.727 150.617 261.992 149.641C262.257 148.666 262.866 147.845 263.685 147.359C264.506 146.875 265.468 146.766 266.362 147.055C267.256 147.345 268.009 148.009 268.454 148.903C268.896 149.798 268.995 150.848 268.73 151.823C268.465 152.798 267.857 153.619 267.039 154.107Z" fill="#11273C"/>
<path d="M215.518 89.8452C215.518 85.7638 211.416 82.4987 206.36 82.4987C201.305 82.4987 197.197 85.7842 197.197 89.8452C197.197 93.6613 200.825 96.7971 205.463 97.1577C207.781 99.5594 210.702 101.155 213.853 101.742C211.983 100.382 211.011 97.9535 210.549 96.3754C213.504 95.1374 215.518 92.6885 215.518 89.8452Z" fill="#169579"/>
<path d="M196.605 74.1862C190.302 74.1862 185.197 78.3832 185.197 83.553C185.197 87.1174 187.622 90.226 191.2 91.8042C190.514 93.8434 189.293 95.6175 187.69 96.9059C190.084 96.627 193.594 95.0217 196.168 92.9062H196.605C202.907 92.9062 208.012 88.7091 208.012 83.5394C208.012 78.3696 202.907 74.1862 196.605 74.1862Z" fill="#11273C"/>
<path d="M192.204 83.5257C192.204 83.9966 192.032 84.4482 191.727 84.7811C191.422 85.1141 191.008 85.3012 190.577 85.3012C190.362 85.302 190.15 85.2568 189.952 85.168C189.754 85.0791 189.574 84.9485 189.422 84.7835C189.27 84.6186 189.15 84.4226 189.068 84.2067C188.986 83.9909 188.943 83.7595 188.943 83.5257C188.943 83.0531 189.115 82.5998 189.422 82.2655C189.728 81.9313 190.143 81.7435 190.577 81.7435C190.791 81.7435 191.003 81.7897 191.201 81.8793C191.398 81.969 191.578 82.1003 191.729 82.2659C191.88 82.4315 192 82.628 192.082 82.8442C192.163 83.0604 192.204 83.292 192.204 83.5257Z" fill="#11273C"/>
<path d="M198.362 83.5733C198.362 84.046 198.19 84.4993 197.884 84.8336C197.578 85.1678 197.162 85.3555 196.729 85.3555C196.297 85.3538 195.883 85.1652 195.578 84.8312C195.273 84.4971 195.102 84.0448 195.102 83.5733C195.102 83.1018 195.273 82.6496 195.578 82.3155C195.883 81.9815 196.297 81.7929 196.729 81.7911C197.162 81.7911 197.578 81.9789 197.884 82.3131C198.19 82.6474 198.362 83.1007 198.362 83.5733Z" fill="#11273C"/>
<path d="M204.528 83.5733C204.528 84.046 204.356 84.4993 204.049 84.8336C203.743 85.1678 203.328 85.3555 202.894 85.3555C202.462 85.3538 202.049 85.1652 201.744 84.8312C201.439 84.4971 201.267 84.0448 201.267 83.5733C201.267 83.1018 201.439 82.6496 201.744 82.3155C202.049 81.9815 202.462 81.7929 202.894 81.7911C203.328 81.7911 203.743 81.9789 204.049 82.3131C204.356 82.6474 204.528 83.1007 204.528 83.5733Z" fill="#11273C"/>
<path d="M241.998 26.5767C242.002 24.8619 241.695 23.1633 241.096 21.5781C240.497 19.9929 239.617 18.5521 238.507 17.3384C237.397 16.1246 236.079 15.1616 234.627 14.5046C233.176 13.8476 231.62 13.5094 230.048 13.5094C226.879 13.5094 223.839 14.8833 221.598 17.3287C219.357 19.7742 218.098 23.091 218.098 26.5495C218.09 28.668 218.557 30.7565 219.458 32.6332C220.358 34.51 221.666 36.1181 223.266 37.3175C223.508 37.4913 223.709 37.7259 223.851 38.0016C223.993 38.2774 224.073 38.5863 224.083 38.9025V43.222C224.083 45.1402 225.51 44.9838 227.262 44.9838H232.866C234.624 44.9838 236.051 45.1402 236.051 43.222V38.9025C236.06 38.5868 236.139 38.2781 236.28 38.0023C236.421 37.7265 236.62 37.4916 236.862 37.3175C238.453 36.1169 239.752 34.5114 240.647 32.64C241.542 30.7686 242.006 28.6876 241.998 26.5767Z" fill="#143861"/>
<path d="M232.529 32.073V41.5963" stroke="#C3CAD4" stroke-width="3" stroke-linecap="round" stroke-linejoin="round"/>
<path d="M227.411 31.175V41.5962" stroke="#C3CAD4" stroke-width="3" stroke-linecap="round" stroke-linejoin="round"/>
<path d="M227.256 31.1274C226.774 31.529 226.185 31.7465 225.579 31.7464C224.848 31.7464 224.147 31.4297 223.63 30.8658C223.114 30.302 222.823 29.5372 222.823 28.7398C222.823 27.9424 223.114 27.1776 223.63 26.6138C224.147 26.0499 224.848 25.7332 225.579 25.7332C227.118 25.7332 228.265 26.8828 229.892 28.7534C231.694 30.7397 232.642 31.7464 234.156 31.7464C234.886 31.7446 235.585 31.4271 236.101 30.8634C236.616 30.2998 236.905 29.536 236.905 28.7398C236.905 27.9436 236.616 27.1799 236.101 26.6162C235.585 26.0525 234.886 25.735 234.156 25.7332C233.551 25.7307 232.962 25.9458 232.479 26.3454" stroke="#C3CAD4" stroke-width="3" stroke-miterlimit="10" stroke-linecap="round"/>
<path d="M233.346 47.902C233.346 48.3977 233.257 48.8887 233.083 49.3467C232.909 49.8047 232.654 50.2209 232.333 50.5715C232.011 50.9221 231.63 51.2002 231.21 51.3899C230.79 51.5796 230.341 51.6773 229.886 51.6773C229.432 51.6773 228.982 51.5796 228.562 51.3899C228.143 51.2002 227.761 50.9221 227.44 50.5715C227.119 50.2209 226.864 49.8047 226.69 49.3467C226.516 48.8887 226.427 48.3977 226.427 47.902C226.427 45.8205 227.979 45.8613 229.886 45.8613C231.794 45.8613 233.346 45.8205 233.346 47.902Z" fill="#143861"/>
<path d="M224.076 40.3242V44.3648C224.08 45.0209 224.321 45.649 224.747 46.1117C225.174 46.5743 225.75 46.8341 226.352 46.834H233.745C234.043 46.8349 234.338 46.7718 234.614 46.6482C234.889 46.5246 235.14 46.3429 235.351 46.1136C235.563 45.8843 235.73 45.6119 235.845 45.3118C235.96 45.0118 236.019 44.69 236.02 44.3648V40.3242H224.076Z" fill="#C3CAD4" stroke="#11273C" stroke-width="3" stroke-linecap="round" stroke-linejoin="round"/>
<path d="M206.323 26.9032H211.996" stroke="#11273C" stroke-width="3" stroke-linecap="round" stroke-linejoin="round"/>
<path d="M248.101 26.9032H253.774" stroke="#11273C" stroke-width="3" stroke-linecap="round" stroke-linejoin="round"/>
<path d="M213.273 45.2082L217.282 40.8344" stroke="#11273C" stroke-width="3" stroke-linecap="round" stroke-linejoin="round"/>
<path d="M242.815 12.9789L246.823 8.60498" stroke="#11273C" stroke-width="3" stroke-linecap="round" stroke-linejoin="round"/>
<path d="M230.048 7.2105V1.02039" stroke="#11273C" stroke-width="3" stroke-linecap="round" stroke-linejoin="round"/>
<path d="M246.823 45.2082L242.815 40.8344" stroke="#11273C" stroke-width="3" stroke-linecap="round" stroke-linejoin="round"/>
<path d="M217.282 12.9789L213.273 8.60498" stroke="#11273C" stroke-width="3" stroke-linecap="round" stroke-linejoin="round"/>
</g>
<defs>
<clipPath id="clip0_195_1451">
<rect width="282" height="234" fill="white"/>
</clipPath>
</defs>
</svg>
