<svg width="460" height="338" viewBox="0 0 460 338" fill="none" xmlns="http://www.w3.org/2000/svg">
<g clip-path="url(#clip0_351_403)">
<path d="M423.149 27.7083C425.042 27.707 426.916 28.0662 428.665 28.7654C430.414 29.4647 432.003 30.4902 433.341 31.7833C434.679 33.0764 435.74 34.6117 436.464 36.3015C437.188 37.9913 437.559 39.8024 437.558 41.6311V146.146" stroke="#11273C" stroke-width="3" stroke-linecap="round" stroke-linejoin="round" stroke-dasharray="14 15"/>
<path d="M206.612 45.6987H94.9019" stroke="#11273C" stroke-width="3" stroke-linecap="round" stroke-linejoin="round" stroke-dasharray="14 15"/>
<path d="M1.52539 241.788H7.35201C11.1734 241.788 14.8383 240.321 17.5404 237.71C20.2426 235.099 21.7606 231.558 21.7606 227.865V194.173C21.7606 190.645 23.2112 187.261 25.7932 184.766C28.3752 182.271 31.8772 180.869 35.5287 180.869H120.72" stroke="#11273C" stroke-width="3" stroke-linecap="round" stroke-linejoin="round" stroke-dasharray="14 15"/>
<path d="M171.724 45.6987V90.3069C171.724 93.9994 170.206 97.5408 167.504 100.152C164.802 102.763 161.137 104.23 157.316 104.23H150.045C148.152 104.228 146.278 104.588 144.528 105.287C142.779 105.986 141.189 107.011 139.85 108.304C138.511 109.597 137.449 111.132 136.724 112.822C135.999 114.512 135.626 116.323 135.626 118.153V168.921" stroke="#11273C" stroke-width="3" stroke-linecap="round" stroke-linejoin="round" stroke-dasharray="14 15"/>
<path d="M448.255 127.595H418.319V121.601C418.319 120.082 418.944 118.625 420.056 117.551C421.167 116.477 422.675 115.873 424.247 115.873H442.327C443.899 115.873 445.407 116.477 446.519 117.551C447.631 118.625 448.255 120.082 448.255 121.601V127.595Z" fill="#C3CAD4" stroke="#11273C" stroke-width="3" stroke-linecap="round" stroke-linejoin="round"/>
<path d="M403.636 127.516H385.557V124.972C385.557 124.596 385.633 124.224 385.782 123.877C385.931 123.53 386.149 123.215 386.423 122.95C386.698 122.684 387.024 122.474 387.383 122.33C387.742 122.186 388.127 122.112 388.516 122.112H400.718C401.503 122.112 402.255 122.414 402.81 122.95C403.365 123.486 403.677 124.213 403.677 124.972L403.636 127.516Z" fill="#C3CAD4" stroke="#11273C" stroke-width="3" stroke-linecap="round" stroke-linejoin="round"/>
<path d="M452.546 127.605H382.699C379.431 127.605 376.781 130.165 376.781 133.323V169.236C376.781 172.394 379.431 174.954 382.699 174.954H452.546C455.815 174.954 458.464 172.394 458.464 169.236V133.323C458.464 130.165 455.815 127.605 452.546 127.605Z" fill="#143861"/>
<path d="M452.547 129.069C453.711 129.071 454.827 129.519 455.65 130.315C456.473 131.11 456.937 132.188 456.939 133.313V169.226C456.937 170.351 456.473 171.429 455.65 172.224C454.827 173.02 453.711 173.468 452.547 173.471H382.7C381.535 173.468 380.42 173.02 379.596 172.224C378.773 171.429 378.31 170.351 378.307 169.226V133.313C378.31 132.188 378.773 131.11 379.596 130.315C380.42 129.519 381.535 129.071 382.7 129.069H452.547ZM452.547 126.121H382.7C380.727 126.126 378.837 126.886 377.442 128.233C376.048 129.581 375.262 131.407 375.256 133.313V169.226C375.259 171.133 376.044 172.961 377.439 174.309C378.835 175.657 380.726 176.416 382.7 176.418H452.547C453.524 176.418 454.492 176.232 455.395 175.871C456.298 175.509 457.119 174.98 457.81 174.312C458.501 173.644 459.049 172.851 459.423 171.978C459.797 171.106 459.99 170.17 459.99 169.226V133.313C459.987 131.407 459.202 129.579 457.807 128.231C456.412 126.882 454.52 126.124 452.547 126.121V126.121Z" fill="#11273C"/>
<path d="M458.475 137.764H376.781V164.461H458.475V137.764Z" fill="#C3CAD4" stroke="#11273C" stroke-width="3" stroke-linecap="round" stroke-linejoin="round"/>
<path d="M409.809 135.662C405.657 135.667 401.677 137.263 398.742 140.1C395.806 142.936 394.155 146.782 394.149 150.793C394.155 154.805 395.806 158.65 398.742 161.487C401.677 164.324 405.657 165.919 409.809 165.925C413.96 165.919 417.94 164.324 420.876 161.487C423.811 158.65 425.463 154.805 425.468 150.793C425.463 146.782 423.811 142.936 420.876 140.1C417.94 137.263 413.96 135.667 409.809 135.662V135.662Z" fill="#C3CAD4" stroke="#11273C" stroke-width="3" stroke-linecap="round" stroke-linejoin="round"/>
<path d="M428.061 150.793C428.047 155.467 426.12 159.945 422.7 163.25C419.28 166.555 414.645 168.417 409.809 168.43C407.407 168.438 405.027 167.987 402.806 167.104C400.586 166.221 398.567 164.923 396.866 163.285C395.166 161.646 393.817 159.699 392.897 157.555C391.977 155.412 391.504 153.114 391.505 150.793C391.519 146.111 393.453 141.625 396.884 138.319C400.315 135.013 404.963 133.156 409.809 133.156C414.645 133.169 419.28 135.032 422.7 138.336C426.12 141.641 428.047 146.12 428.061 150.793Z" fill="#169579"/>
<path d="M407.033 144.072C407.033 144.534 406.938 144.992 406.755 145.419C406.572 145.845 406.304 146.233 405.966 146.56C405.628 146.886 405.227 147.145 404.785 147.322C404.344 147.499 403.87 147.59 403.392 147.59C402.427 147.59 401.501 147.219 400.818 146.56C400.135 145.9 399.752 145.005 399.752 144.072C399.752 143.611 399.846 143.154 400.029 142.728C400.212 142.302 400.481 141.914 400.819 141.589C401.157 141.263 401.558 141.005 402 140.829C402.442 140.653 402.915 140.563 403.392 140.565C404.356 140.565 405.28 140.934 405.963 141.591C406.645 142.249 407.03 143.141 407.033 144.072V144.072Z" fill="#C3CAD4"/>
<path d="M77.8496 215.495C88.5163 220.339 103.393 211.181 103.159 205.276C103.098 203.753 102.711 202.23 100.2 199.892C97.3933 197.278 94.0987 197.042 91.2719 199.715C86.025 204.745 86.8487 211.329 77.8496 215.495Z" fill="#11273C"/>
<path d="M106.82 187.826L98.4814 198.634C99.1028 198.983 99.6766 199.405 100.19 199.891C101.195 200.758 102.019 201.802 102.62 202.967L113.998 194.763" fill="#C3CAD4"/>
<path d="M106.82 187.826L98.4814 198.634C99.1028 198.983 99.6766 199.405 100.19 199.891C101.195 200.758 102.019 201.802 102.62 202.967L113.998 194.763" stroke="#11273C" stroke-width="3" stroke-linecap="round" stroke-linejoin="round"/>
<path d="M113.998 194.763C122.194 189.123 147.056 165.197 142.256 160.53C137.457 155.863 112.666 179.916 106.819 187.826C107.843 189.136 108.947 190.386 110.124 191.569C111.349 192.707 112.642 193.774 113.998 194.763V194.763Z" fill="#11273C" stroke="#11273C" stroke-width="3" stroke-miterlimit="10"/>
<path d="M190.272 128.577C189.886 128.577 189.723 128.46 189.723 128.175C189.723 127.703 190.475 127.742 190.963 127.723C191.673 127.7 192.345 127.409 192.835 126.913C193.325 126.417 193.595 125.756 193.587 125.07C193.58 124.378 193.297 123.715 192.797 123.219C192.297 122.723 191.618 122.432 190.902 122.407C190.963 122.407 181.751 122.171 179.9 122.171H178.05C179.246 119.406 179.977 116.474 180.215 113.485C180.215 111.186 179.473 108.415 177.948 108.848C176.687 109.211 176.86 112.031 174.897 115.519C173.382 118.202 170.759 121.307 169.02 124.608C168.55 125.505 168.132 126.427 167.769 127.369H163.966V126.17C163.966 126.055 163.92 125.944 163.836 125.861C163.752 125.778 163.638 125.731 163.519 125.728H156.401C156.28 125.728 156.163 125.775 156.077 125.858C155.992 125.94 155.943 126.053 155.943 126.17V141.4C155.946 141.515 155.995 141.625 156.081 141.706C156.166 141.787 156.281 141.832 156.401 141.832H163.519C163.64 141.832 163.757 141.786 163.842 141.703C163.928 141.62 163.976 141.507 163.976 141.39V140.525H167.027C167.027 140.525 169.061 143.473 175.365 143.473H181.985C181.985 143.473 182.452 143.473 183.134 143.473H187.506C188.094 143.505 188.672 143.319 189.123 142.954C189.574 142.589 189.865 142.072 189.936 141.508C189.936 141.39 189.936 141.272 189.936 141.164C189.936 141.056 189.936 141.076 189.936 141.036C189.942 140.977 189.942 140.918 189.936 140.859V140.692V140.565C189.878 140.48 189.797 140.412 189.703 140.368V140.28L189.611 140.093C189.614 140.073 189.614 140.054 189.611 140.034C189.576 139.968 189.536 139.906 189.489 139.847V139.847C189.44 139.781 189.386 139.718 189.326 139.661V139.661L189.143 139.474L189.062 139.405C188.838 139.12 189.194 139.091 189.194 139.091C189.765 139.092 190.322 138.915 190.78 138.586C191.238 138.256 191.574 137.792 191.736 137.263C191.953 136.734 191.95 136.145 191.728 135.618C191.507 135.091 191.084 134.667 190.547 134.433C190.231 134.266 190.425 133.991 190.638 134.001C191.315 133.899 191.933 133.572 192.388 133.078C192.842 132.583 193.105 131.951 193.129 131.289C193.121 130.564 192.816 129.871 192.281 129.363C191.745 128.855 191.023 128.572 190.272 128.577Z" fill="#169579"/>
<path d="M45.9919 82.1123H98.6847C100.28 82.1123 101.809 81.5009 102.938 80.4121C104.066 79.3234 104.702 77.8464 104.705 76.3054V32.896H39.9722V76.3054C39.9749 77.8464 40.6102 79.3234 41.7389 80.4121C42.8675 81.5009 44.3972 82.1123 45.9919 82.1123V82.1123Z" fill="#C3CAD4" stroke="#11273C" stroke-width="3" stroke-linecap="round" stroke-linejoin="round"/>
<path d="M104.705 25.409C104.705 23.8663 104.07 22.3868 102.941 21.296C101.812 20.2051 100.281 19.5923 98.6847 19.5923H45.9919C45.2014 19.5923 44.4186 19.7427 43.6883 20.0351C42.9579 20.3274 42.2942 20.7558 41.7353 21.296C41.1763 21.8361 40.733 22.4773 40.4304 23.1831C40.1279 23.8888 39.9722 24.6452 39.9722 25.409V32.9158H104.705V25.409Z" fill="#11273C" stroke="#11273C" stroke-width="3" stroke-linecap="round" stroke-linejoin="round"/>
<path d="M58.4684 47.8112C64.2848 42.5447 72.0941 49.6682 67.0099 54.2666C64.0916 56.9097 56.75 57.5484 56.75 62.8444L59.6276 62.9328H68.7792" fill="#C3CAD4"/>
<path d="M58.4684 47.8112C64.2848 42.5447 72.0941 49.6682 67.0099 54.2666C64.0916 56.9097 56.75 57.5484 56.75 62.8444L59.6276 62.9328H68.7792" stroke="#11273C" stroke-width="3" stroke-linecap="round" stroke-linejoin="round"/>
<path d="M75.0532 46.1116H86.0554V49.1771C81.988 53.746 78.0529 58.7866 77.5852 62.933" fill="#C3CAD4"/>
<path d="M75.0532 46.1116H86.0554V49.1771C81.988 53.746 78.0529 58.7866 77.5852 62.933" stroke="#11273C" stroke-width="3" stroke-linecap="round" stroke-linejoin="round"/>
<path d="M98.6845 82.1125C100.279 82.1125 101.809 81.501 102.937 80.4122C104.066 79.3235 104.702 77.8465 104.704 76.3055V65.0454L87.001 82.1125H98.6845Z" fill="#11273C" stroke="#11273C" stroke-width="3" stroke-linecap="round" stroke-linejoin="round"/>
<path d="M93.5904 64.2888C91.7448 64.2888 89.9747 64.9966 88.6687 66.2567C87.3628 67.5168 86.6277 69.2262 86.625 71.0095V80.1571H86.869L103.139 64.4362V64.3281L93.5904 64.2888Z" fill="#169579"/>
<path d="M220.116 77.6614C220.116 77.6614 217.391 72.5815 213.588 72.5815C210.324 72.5815 206.877 76.9539 208.321 82.2106C209.765 87.4673 212.5 96.2121 212.5 96.2121C212.5 96.2121 214.849 102.343 220.116 99.8868C225.383 97.4304 220.116 77.6614 220.116 77.6614Z" fill="#CECECE"/>
<path d="M286.567 78.3688C286.567 78.3688 289.251 73.3479 293.024 73.3479C296.237 73.3479 299.643 77.6712 298.21 82.8591C296.776 88.047 294.091 96.6935 294.091 96.6935C294.091 96.6935 291.773 102.756 286.567 100.329C281.361 97.902 286.567 78.3688 286.567 78.3688Z" fill="#CECECE"/>
<path d="M375.877 309.486L343.5 189.614C340.907 177.018 332.803 166.76 316.828 164.628L292.638 159.636L288.306 158.742C285.078 158.071 282.17 156.387 280.037 153.952C277.903 151.517 276.663 148.468 276.51 145.281L275.972 134.109L275.646 127.025H230.478L230.142 134.109L229.614 145.281C229.452 148.464 228.207 151.506 226.072 153.935C223.937 156.364 221.032 158.043 217.808 158.713L213.476 159.607L189.286 164.598C173.311 166.73 165.207 176.988 162.624 189.585L143.497 292.753C128.834 297.794 104.084 303.66 104.084 303.66C104.084 303.66 99 291.378 90.4687 290.513C70.6097 288.548 73.9245 297.067 70.935 301.017C66.7253 306.588 64.4273 314.153 66.2068 318.447C69.8267 327.192 78.6326 330.159 101.42 328.44C105.01 328.174 124.035 334.728 133.369 334.728C152.608 334.728 172.731 333.873 178.649 315.873C179.056 314.625 177.633 311.471 174.846 308.012L189.611 235.49L189.733 235.912V236.138L313.33 313.131C313.33 313.131 331.552 330.876 337.216 332.714C386.004 348.592 375.877 309.486 375.877 309.486Z" fill="#C3CAD4"/>
<path d="M90.4687 290.552C70.6097 288.587 73.9245 297.106 70.935 301.056C66.7253 306.627 64.4273 314.192 66.2068 318.486C69.8267 327.231 78.6326 330.198 101.42 328.479H101.878C105.315 319.115 104.42 307.02 104.084 303.699C104.084 303.699 99.0508 291.417 90.4687 290.552Z" fill="#CECECE"/>
<path d="M89.8886 328.479C88.2312 328.607 86.645 328.705 85.1299 328.784C87.5093 328.941 90.1734 328.983 93.1223 328.911C92.0661 328.643 90.9805 328.498 89.8886 328.479V328.479Z" fill="#CECECE"/>
<path d="M305.307 164.637C321.282 166.77 329.386 177.028 331.979 189.624L364.345 309.496C364.345 309.496 370.314 332.527 351.045 336.074C383.93 340.623 375.876 309.496 375.876 309.496L343.5 189.624C340.907 177.028 332.803 166.77 316.828 164.637H305.307Z" fill="#CECECE"/>
<path d="M253.041 151.736C263.393 151.736 271.08 146.765 276.327 141.469L275.971 134.148L275.646 127.064H230.478L230.142 134.148L229.796 141.527C234.931 146.637 242.67 151.736 253.041 151.736Z" fill="#CECECE"/>
<path d="M375.877 309.486L343.5 189.614C340.907 177.018 332.803 166.76 316.828 164.628L292.638 159.636L288.306 158.742C285.078 158.071 282.17 156.387 280.037 153.952C277.903 151.517 276.663 148.468 276.51 145.281L275.972 134.109L275.646 127.025H230.478L230.142 134.109L229.614 145.281C229.452 148.464 228.207 151.506 226.072 153.935C223.937 156.364 221.032 158.043 217.808 158.713L213.476 159.607L189.286 164.598C173.311 166.73 165.207 176.988 162.624 189.585L143.497 292.753C128.834 297.794 104.084 303.66 104.084 303.66C104.084 303.66 99 291.378 90.4687 290.513C70.6097 288.548 73.9245 297.067 70.935 301.017C66.7253 306.588 64.4273 314.153 66.2068 318.447C69.8267 327.192 78.6326 330.159 101.42 328.44C105.01 328.174 124.035 334.728 133.369 334.728C152.608 334.728 172.731 333.873 178.649 315.873C179.056 314.625 177.633 311.471 174.846 308.012L189.611 235.49L189.733 235.912V236.138L313.33 313.131C313.33 313.131 331.552 330.876 337.216 332.714C386.004 348.592 375.877 309.486 375.877 309.486Z" stroke="#11273C" stroke-width="3" stroke-linecap="round" stroke-linejoin="round"/>
<path d="M99.8336 318.074L53.1604 265.094L47.6694 269.614L94.3426 322.583L99.3455 322.967V322.918L99.8336 318.074Z" fill="#11273C"/>
<path d="M99.8336 318.074L53.1604 265.094L47.6694 269.614L94.3426 322.583L99.3455 322.967V322.918L99.8336 318.074Z" stroke="#11273C" stroke-width="3" stroke-linecap="round" stroke-linejoin="round"/>
<path d="M45.8495 267.482L47.6696 269.614L53.1605 265.094L51.3099 262.991C51.0057 262.639 50.6318 262.349 50.2099 262.137C49.7881 261.926 49.3269 261.799 48.8533 261.762C48.3798 261.726 47.9034 261.781 47.4522 261.924C47.001 262.068 46.5841 262.297 46.2257 262.598C45.8675 262.894 45.5735 263.255 45.3606 263.661C45.1476 264.068 45.0199 264.51 44.9849 264.964C44.95 265.418 45.0084 265.874 45.1567 266.307C45.3051 266.739 45.5406 267.138 45.8495 267.482V267.482Z" fill="#C3CAD4" stroke="#11273C" stroke-width="3" stroke-linecap="round" stroke-linejoin="round"/>
<path d="M300.091 161.189C300.26 161.987 300.382 162.794 300.457 163.606C300.443 175.431 295.571 186.768 286.91 195.123C278.25 203.479 266.51 208.17 254.272 208.165C242.03 208.167 230.288 203.471 221.629 195.11C212.97 186.748 208.102 175.405 208.097 163.576C208.097 163.193 208.097 162.004 208.016 160.746L190.099 164.441C190.099 164.598 190.099 164.706 190.038 164.706C189.987 175.386 189.814 226.44 190.943 235.028V235.902V236.128H317.54L317.672 235.47L317.784 235.273C318.913 226.686 318.73 175.544 318.679 164.932C318.048 164.824 317.428 164.696 316.767 164.608L300.091 161.189Z" fill="#169579"/>
<path d="M300.091 161.189C300.26 161.987 300.382 162.794 300.457 163.606C300.443 175.431 295.571 186.768 286.91 195.123C278.25 203.479 266.51 208.17 254.272 208.165C242.03 208.167 230.288 203.471 221.629 195.11C212.97 186.748 208.102 175.405 208.097 163.576C208.097 163.193 208.097 162.004 208.016 160.746L190.099 164.441C190.099 164.598 190.099 164.706 190.038 164.706C189.987 175.386 189.814 226.44 190.943 235.028V235.902V236.128H317.54L317.672 235.47L317.784 235.273C318.913 226.686 318.73 175.544 318.679 164.932C318.048 164.824 317.428 164.696 316.767 164.608L300.091 161.189Z" stroke="#11273C" stroke-width="3" stroke-linecap="round" stroke-linejoin="round"/>
<path d="M352.55 332.36C352.549 332.899 352.437 333.433 352.223 333.931C352.008 334.429 351.694 334.881 351.298 335.261C350.902 335.642 350.433 335.943 349.917 336.148C349.401 336.354 348.848 336.459 348.289 336.457H175.182C173.681 336.457 172.242 335.882 171.181 334.858C170.119 333.834 169.521 332.444 169.518 330.994V227.58C169.518 222.461 173.474 218.305 178.344 218.305H343.724C348.594 218.305 352.55 222.461 352.55 227.58V332.36Z" fill="#11273C"/>
<path d="M352.55 332.36C352.549 332.899 352.437 333.433 352.223 333.931C352.008 334.429 351.694 334.881 351.298 335.261C350.902 335.642 350.433 335.943 349.917 336.148C349.401 336.354 348.848 336.459 348.289 336.457H175.182C173.681 336.457 172.242 335.882 171.181 334.858C170.119 333.834 169.521 332.444 169.518 330.994V227.58C169.518 222.461 173.474 218.305 178.344 218.305H343.724C348.594 218.305 352.55 222.461 352.55 227.58V332.36Z" stroke="#11273C" stroke-width="3" stroke-linecap="round" stroke-linejoin="round"/>
<path d="M220.116 77.6614C220.116 77.6614 217.391 72.5815 213.588 72.5815C210.324 72.5815 206.877 76.9539 208.321 82.2106C209.765 87.4673 212.5 96.2121 212.5 96.2121C212.5 96.2121 214.849 102.343 220.116 99.8868C225.383 97.4304 220.116 77.6614 220.116 77.6614Z" stroke="#11273C" stroke-width="3" stroke-linecap="round" stroke-linejoin="round"/>
<path d="M286.567 78.3688C286.567 78.3688 289.251 73.3479 293.024 73.3479C296.237 73.3479 299.643 77.6712 298.21 82.8591C296.776 88.047 294.091 96.6935 294.091 96.6935C294.091 96.6935 291.773 102.756 286.567 100.329C281.361 97.902 286.567 78.3688 286.567 78.3688Z" stroke="#11273C" stroke-width="3" stroke-linecap="round" stroke-linejoin="round"/>
<path d="M252.218 21.8127C219.608 21.4688 212.48 47.4476 213.385 61.6358C214.157 73.623 217.686 100.525 217.686 100.525C217.686 103.768 219.72 113.377 222.119 117.288C222.119 117.288 232.288 137.656 253.042 137.656C275.158 137.656 285.103 114.94 285.103 114.94C286.638 111.451 288.296 102.834 288.397 100.83C288.397 100.83 291.855 73.9178 292.698 61.9404C293.756 47.0251 284.818 22.1566 252.218 21.8127Z" fill="#C3CAD4"/>
<path d="M262.915 22.9426C277.07 31.2452 281.351 46.809 280.598 57.3322C279.754 69.3194 276.297 96.2218 276.297 96.2218C276.195 98.1869 274.538 106.843 273.012 110.331C273.012 110.331 263.057 133.058 240.941 133.048C239.412 133.046 237.886 132.931 236.375 132.704C241.31 135.898 247.113 137.607 253.052 137.617C275.168 137.617 285.113 114.9 285.113 114.9C286.648 111.412 288.306 102.795 288.407 100.791C288.407 100.791 291.865 73.8784 292.709 61.9011C293.634 48.833 286.801 27.9733 262.915 22.9426Z" fill="#CECECE"/>
<path d="M252.218 21.8127C219.608 21.4688 212.48 47.4476 213.385 61.6358C214.157 73.623 217.686 100.525 217.686 100.525C217.686 103.768 219.72 113.377 222.119 117.288C222.119 117.288 232.288 137.656 253.042 137.656C275.158 137.656 285.103 114.94 285.103 114.94C286.638 111.451 288.296 102.834 288.397 100.83C288.397 100.83 291.855 73.9178 292.698 61.9404C293.756 47.0251 284.818 22.1566 252.218 21.8127Z" stroke="#11273C" stroke-width="3" stroke-linecap="round" stroke-linejoin="round"/>
<path d="M298.8 31.4909C298.952 29.4177 294.295 27.1873 287.401 25.1534C291.438 19.9322 293.231 13.4052 292.404 6.93677C287.812 10.5068 282.164 12.5716 276.277 12.8321C269.037 13.0974 261.136 13.0974 248.679 14.2175C221.062 16.7231 216.018 24.0431 213.568 26.9908C209.317 32.1983 206.562 40.6778 209.277 52.5373C210.426 57.6269 215.012 73.2889 215.012 73.2889C214.819 73.456 216.873 59.6608 218.581 56.3398C221.459 50.7982 227.977 48.0863 230.783 47.261C244.449 43.2718 269.026 45.7282 273.785 47.261C277.009 48.2435 283.456 50.1104 287.004 55.9959C289.849 60.8459 291.335 66.3289 291.316 71.9035C291.316 71.9035 297.895 43.6255 298.8 31.4909Z" fill="#11273C"/>
<path d="M287.401 25.1534C291.438 19.9322 293.231 13.4052 292.404 6.93677C287.812 10.5068 282.164 12.5716 276.277 12.8321L273.673 12.9205C266.833 20.9695 259.463 28.5838 251.608 35.7159L251.547 35.7749C249.239 37.9168 241.541 44.8733 241.033 45.6004H241.145C253.052 39.9311 268.345 36.1089 272.24 35.9321C275.636 35.7847 282.327 35.2443 287.858 39.4889C291.28 42.1891 294.099 45.5316 296.146 49.3145C297.407 42.6822 298.515 36.0205 298.851 31.5499C298.952 29.4177 294.295 27.1873 287.401 25.1534Z" fill="#143861"/>
<path d="M299.156 10.3953C299.156 10.3953 299.644 15.0133 290.197 22.186C282.062 28.3368 262.153 37.0914 254.526 40.039H254.435C251.201 41.3557 239.731 45.8263 241.043 45.561C254.262 44.3918 270.013 46.1211 273.714 47.3198C276.938 48.3024 283.384 50.1692 286.933 56.0547C289.778 60.9047 291.264 66.3877 291.245 71.9624C296.995 63.9658 301.584 55.2445 304.88 46.0425C312.741 23.8858 299.156 10.3953 299.156 10.3953Z" fill="#11273C"/>
<path d="M299.156 10.3953C299.156 10.3953 299.318 11.9968 297.529 14.7775C299.227 20.6728 299.735 28.4743 296.41 37.8283C294.034 44.431 291.014 50.8005 287.391 56.8506C289.947 61.5221 291.28 66.7272 291.275 72.0115C297.019 63.998 301.597 55.26 304.88 46.0425C312.741 23.8858 299.156 10.3953 299.156 10.3953Z" fill="#143861"/>
<path d="M288.835 23.1392C291.864 18.2753 293.121 12.5712 292.404 6.93677C287.812 10.5068 282.164 12.5716 276.277 12.8321C269.037 13.0974 261.136 13.0974 248.679 14.2175C221.062 16.7231 216.018 24.0431 213.568 26.9908C209.317 32.1983 206.562 40.6778 209.277 52.5373C210.426 57.6269 215.012 73.2889 215.012 73.2889C214.819 73.456 216.873 59.6608 218.581 56.3398C221.459 50.7982 227.977 48.0863 230.783 47.261C244.449 43.2718 269.026 45.7282 273.785 47.261C277.009 48.2435 283.456 50.1104 287.004 55.9959C289.849 60.8459 291.335 66.3289 291.316 71.9035" stroke="#11273C" stroke-width="3" stroke-linecap="round" stroke-linejoin="round"/>
<path d="M299.156 10.3953C299.156 10.3953 299.644 15.0133 290.197 22.186C282.062 28.3368 262.153 37.0914 254.526 40.039H254.435C251.201 41.3557 239.731 45.8263 241.043 45.561C254.262 44.3918 270.013 46.1211 273.714 47.3198C276.938 48.3024 283.384 50.1692 286.933 56.0547C289.778 60.9047 291.264 66.3877 291.245 71.9624C296.995 63.9658 301.584 55.2445 304.88 46.0425C312.741 23.8858 299.156 10.3953 299.156 10.3953Z" stroke="#11273C" stroke-width="3" stroke-linecap="round" stroke-linejoin="round"/>
<path d="M276.419 282.299C276.419 284.25 276.021 286.183 275.248 287.986C274.474 289.789 273.341 291.427 271.912 292.807C270.483 294.187 268.787 295.281 266.921 296.027C265.054 296.773 263.054 297.156 261.034 297.155C259.013 297.158 257.011 296.775 255.143 296.03C253.274 295.285 251.576 294.191 250.146 292.811C248.715 291.432 247.58 289.793 246.805 287.989C246.03 286.185 245.63 284.252 245.629 282.299C245.63 280.346 246.029 278.414 246.804 276.61C247.578 274.807 248.713 273.169 250.142 271.79C251.572 270.41 253.269 269.316 255.136 268.57C257.003 267.824 259.004 267.441 261.024 267.442C263.045 267.44 265.046 267.822 266.914 268.568C268.781 269.313 270.479 270.407 271.909 271.787C273.338 273.167 274.473 274.805 275.247 276.609C276.021 278.413 276.419 280.346 276.419 282.299V282.299Z" fill="#C3CAD4" stroke="#11273C" stroke-width="3" stroke-linecap="round" stroke-linejoin="round"/>
<path d="M66.2065 289.717C67.3047 287.064 71.5348 284.283 76.5681 286.288C80.6355 287.929 92.5428 297.43 91.3531 300.574C89.5838 305.281 86.035 303.63 86.035 305.713C86.035 308.002 81.2965 321.709 75.9682 322.004C70.2739 322.308 64.7219 320.216 64.7219 310.292C64.7219 305.438 64.4271 293.962 66.2065 289.717Z" fill="#C3CAD4" stroke="#11273C" stroke-width="3" stroke-linecap="round" stroke-linejoin="round"/>
<path d="M121.746 334.836C121.746 327.742 116.225 321.984 109.412 321.984H39.7583V334.836" fill="#C3CAD4"/>
<path d="M121.746 334.836C121.746 327.742 116.225 321.984 109.412 321.984H39.7583V334.836" stroke="#11273C" stroke-width="3" stroke-linecap="round" stroke-linejoin="round"/>
<path d="M203.735 334.836V321.984H134.091C127.268 321.984 121.747 327.742 121.747 334.836" fill="#C3CAD4"/>
<path d="M203.735 334.836V321.984H134.091C127.268 321.984 121.747 327.742 121.747 334.836" stroke="#11273C" stroke-width="3" stroke-linecap="round" stroke-linejoin="round"/>
<path d="M29.8442 336.467H213.649" stroke="#11273C" stroke-width="3" stroke-linecap="round" stroke-linejoin="round"/>
<path d="M442.459 230.901C442.317 230.653 442.27 230.365 442.326 230.086C442.381 229.808 442.537 229.557 442.764 229.378C443.347 228.92 443.897 228.424 444.412 227.895C444.612 227.679 444.883 227.536 445.18 227.492C445.476 227.447 445.78 227.502 446.039 227.649L446.954 228.189C447.367 228.433 447.863 228.509 448.333 228.401C448.804 228.292 449.211 228.008 449.465 227.61C449.592 227.412 449.677 227.192 449.715 226.962C449.753 226.732 449.745 226.497 449.689 226.271C449.633 226.045 449.532 225.831 449.39 225.643C449.249 225.454 449.071 225.295 448.865 225.173L447.981 224.652C447.733 224.504 447.546 224.276 447.453 224.009C447.36 223.742 447.367 223.451 447.472 223.188C447.755 222.508 447.986 221.808 448.164 221.095C448.235 220.814 448.402 220.564 448.638 220.386C448.874 220.207 449.166 220.111 449.465 220.113H450.421C450.906 220.123 451.375 219.949 451.728 219.627C452.08 219.305 452.286 218.862 452.302 218.393C452.309 218.161 452.269 217.93 452.183 217.713C452.097 217.496 451.968 217.297 451.803 217.128C451.637 216.959 451.439 216.824 451.22 216.729C451 216.634 450.763 216.582 450.523 216.576H449.628C449.343 216.569 449.069 216.467 448.853 216.288C448.636 216.11 448.49 215.864 448.438 215.593C448.336 214.854 448.173 214.125 447.95 213.412C447.85 213.127 447.855 212.818 447.964 212.537C448.074 212.255 448.281 212.019 448.55 211.869L449.242 211.496C449.453 211.386 449.641 211.236 449.793 211.056C449.945 210.876 450.058 210.668 450.127 210.446C450.196 210.223 450.219 209.989 450.194 209.758C450.17 209.527 450.098 209.303 449.984 209.098C449.752 208.687 449.36 208.381 448.895 208.249C448.43 208.116 447.929 208.167 447.503 208.391L446.872 208.715C446.606 208.849 446.299 208.888 446.007 208.823C445.714 208.758 445.455 208.594 445.276 208.361C444.793 207.759 444.263 207.194 443.69 206.671C443.46 206.474 443.306 206.207 443.254 205.914C443.203 205.621 443.256 205.32 443.405 205.06L443.73 204.539C443.983 204.14 444.061 203.661 443.949 203.206C443.836 202.751 443.542 202.358 443.13 202.112C442.926 201.991 442.698 201.91 442.461 201.873C442.224 201.837 441.981 201.847 441.748 201.902C441.514 201.956 441.294 202.055 441.1 202.193C440.907 202.33 440.743 202.503 440.619 202.702L440.324 203.154C440.154 203.4 439.9 203.58 439.606 203.662C439.312 203.745 438.997 203.725 438.717 203.606C437.939 203.303 437.137 203.063 436.318 202.889C436.033 202.823 435.781 202.663 435.605 202.437C435.428 202.211 435.339 201.933 435.352 201.651V201.189C435.358 200.957 435.318 200.726 435.232 200.51C435.146 200.293 435.016 200.095 434.851 199.927C434.686 199.759 434.488 199.624 434.268 199.531C434.049 199.437 433.812 199.386 433.572 199.381C433.087 199.37 432.618 199.545 432.266 199.867C431.913 200.189 431.707 200.632 431.691 201.1V201.523C431.671 201.818 431.544 202.098 431.332 202.312C431.12 202.526 430.837 202.66 430.532 202.692C429.699 202.822 428.876 203.009 428.071 203.252C427.792 203.342 427.49 203.334 427.216 203.23C426.943 203.126 426.716 202.932 426.576 202.682L426.373 202.329C426.259 202.124 426.104 201.943 425.917 201.796C425.731 201.65 425.516 201.541 425.285 201.475C425.054 201.409 424.812 201.388 424.573 201.413C424.334 201.438 424.103 201.509 423.892 201.621C423.466 201.845 423.15 202.224 423.012 202.673C422.875 203.123 422.928 203.607 423.16 204.019L423.353 204.372C423.494 204.624 423.538 204.916 423.478 205.196C423.419 205.476 423.259 205.727 423.028 205.905C422.34 206.438 421.704 207.03 421.126 207.674C420.933 207.882 420.669 208.017 420.382 208.055C420.095 208.093 419.804 208.031 419.56 207.88L419.184 207.654C418.768 207.411 418.27 207.336 417.797 207.446C417.325 207.557 416.917 207.843 416.662 208.243C416.411 208.644 416.334 209.124 416.448 209.579C416.562 210.034 416.859 210.426 417.272 210.67L417.679 210.916C417.934 211.085 418.123 211.332 418.213 211.618C418.304 211.903 418.291 212.21 418.177 212.488C417.892 213.247 417.668 214.025 417.506 214.817C417.457 215.098 417.304 215.352 417.076 215.533C416.848 215.713 416.56 215.808 416.265 215.799H415.706C415.466 215.792 415.227 215.83 415.002 215.913C414.777 215.995 414.572 216.12 414.398 216.28C414.223 216.44 414.084 216.632 413.987 216.845C413.891 217.057 413.839 217.287 413.835 217.519C413.828 217.751 413.869 217.981 413.955 218.198C414.041 218.415 414.17 218.612 414.336 218.781C414.501 218.949 414.699 219.083 414.919 219.177C415.138 219.271 415.375 219.322 415.615 219.327H416.235C416.539 219.345 416.828 219.464 417.053 219.662C417.279 219.86 417.428 220.127 417.476 220.417C417.622 221.196 417.833 221.961 418.106 222.707C418.198 222.973 418.189 223.263 418.081 223.523C417.973 223.784 417.773 224 417.516 224.131L416.886 224.456C416.462 224.682 416.147 225.06 416.01 225.509C415.873 225.958 415.925 226.441 416.154 226.853C416.268 227.058 416.422 227.239 416.609 227.385C416.795 227.532 417.01 227.642 417.24 227.709C417.471 227.775 417.713 227.797 417.952 227.774C418.191 227.75 418.423 227.681 418.635 227.57L419.336 227.197C419.602 227.063 419.908 227.021 420.202 227.078C420.496 227.135 420.762 227.288 420.953 227.511C421.451 228.083 421.995 228.615 422.58 229.103C422.812 229.291 422.967 229.551 423.02 229.839C423.072 230.127 423.017 230.423 422.865 230.675L422.407 231.412C422.281 231.609 422.196 231.829 422.158 232.058C422.12 232.287 422.129 232.521 422.185 232.746C422.24 232.972 422.342 233.185 422.483 233.372C422.624 233.56 422.802 233.718 423.007 233.839C423.211 233.961 423.438 234.043 423.675 234.08C423.912 234.117 424.154 234.108 424.388 234.054C424.621 234 424.841 233.902 425.035 233.766C425.229 233.63 425.394 233.457 425.519 233.259L426.027 232.464C426.181 232.221 426.416 232.036 426.694 231.941C426.972 231.846 427.275 231.847 427.552 231.943C428.266 232.192 428.996 232.392 429.739 232.542C430.029 232.601 430.289 232.756 430.475 232.98C430.66 233.204 430.76 233.484 430.755 233.77V234.753C430.747 234.986 430.787 235.217 430.872 235.435C430.958 235.653 431.087 235.852 431.252 236.021C431.418 236.19 431.616 236.326 431.837 236.42C432.057 236.514 432.294 236.566 432.535 236.571C433.02 236.581 433.489 236.407 433.841 236.085C434.194 235.763 434.4 235.319 434.416 234.851V233.819C434.422 233.541 434.526 233.272 434.71 233.058C434.895 232.843 435.15 232.696 435.433 232.64C436.174 232.522 436.904 232.352 437.619 232.13C437.905 232.031 438.218 232.034 438.503 232.136C438.787 232.238 439.025 232.434 439.175 232.69L439.694 233.613C439.926 234.024 440.317 234.33 440.781 234.465C441.246 234.599 441.747 234.551 442.175 234.33C442.386 234.22 442.574 234.071 442.726 233.891C442.877 233.71 442.991 233.503 443.06 233.28C443.129 233.058 443.152 232.824 443.127 232.593C443.103 232.362 443.031 232.137 442.917 231.933L442.459 230.901ZM435.596 222.599C434.258 223.298 432.687 223.455 431.229 223.037C429.771 222.619 428.544 221.659 427.817 220.368C427.093 219.075 426.93 217.558 427.363 216.149C427.796 214.74 428.789 213.554 430.125 212.852C431.463 212.153 433.033 211.995 434.492 212.413C435.95 212.831 437.177 213.791 437.904 215.082C438.625 216.376 438.786 217.892 438.354 219.3C437.921 220.709 436.93 221.894 435.596 222.599V222.599Z" fill="#11273C"/>
<path d="M351.553 129.776C351.553 123.881 344.863 119.165 336.616 119.165C328.369 119.165 321.668 123.91 321.668 129.776C321.668 135.288 327.586 139.818 335.152 140.339C338.934 143.808 343.698 146.113 348.839 146.961C345.788 144.996 344.202 141.488 343.449 139.209C348.269 137.42 351.553 133.883 351.553 129.776Z" fill="#169579"/>
<path d="M320.702 107.158C310.422 107.158 302.094 113.22 302.094 120.688C302.094 125.836 306.05 130.326 311.886 132.606C310.767 135.552 308.776 138.114 306.162 139.975C310.066 139.572 315.791 137.253 319.991 134.198H320.702C330.983 134.198 339.311 128.135 339.311 120.668C339.311 113.2 330.983 107.158 320.702 107.158Z" fill="#11273C"/>
<path d="M313.524 120.648C313.524 121.328 313.244 121.981 312.746 122.462C312.249 122.943 311.574 123.213 310.87 123.213C310.52 123.214 310.174 123.149 309.851 123.02C309.528 122.892 309.234 122.703 308.987 122.465C308.739 122.227 308.543 121.944 308.409 121.632C308.275 121.32 308.206 120.986 308.206 120.648C308.206 119.966 308.486 119.311 308.986 118.828C309.486 118.345 310.163 118.074 310.87 118.074C311.219 118.074 311.565 118.141 311.888 118.27C312.21 118.4 312.503 118.589 312.75 118.829C312.997 119.068 313.192 119.352 313.325 119.664C313.457 119.976 313.525 120.311 313.524 120.648V120.648Z" fill="#11273C"/>
<path d="M323.57 120.717C323.57 121.4 323.289 122.055 322.79 122.537C322.29 123.02 321.613 123.291 320.906 123.291C320.201 123.289 319.526 123.016 319.029 122.534C318.531 122.051 318.252 121.398 318.252 120.717C318.252 120.036 318.531 119.383 319.029 118.9C319.526 118.418 320.201 118.145 320.906 118.143C321.613 118.143 322.29 118.414 322.79 118.897C323.289 119.38 323.57 120.034 323.57 120.717V120.717Z" fill="#11273C"/>
<path d="M333.627 120.717C333.627 121.4 333.346 122.055 332.846 122.537C332.347 123.02 331.669 123.291 330.963 123.291C330.258 123.289 329.583 123.016 329.085 122.534C328.588 122.051 328.309 121.398 328.309 120.717C328.309 120.036 328.588 119.383 329.085 118.9C329.583 118.418 330.258 118.145 330.963 118.143C331.669 118.143 332.347 118.414 332.846 118.897C333.346 119.38 333.627 120.034 333.627 120.717V120.717Z" fill="#11273C"/>
<path d="M394.749 38.3886C394.755 35.9118 394.254 33.4582 393.277 31.1685C392.3 28.8787 390.865 26.7976 389.054 25.0444C387.244 23.2912 385.093 21.9002 382.725 20.9512C380.358 20.0022 377.82 19.5137 375.256 19.5137C370.086 19.5137 365.128 21.4981 361.473 25.0305C357.817 28.5629 355.763 33.3538 355.763 38.3493C355.75 41.4094 356.512 44.4261 357.981 47.137C359.45 49.8478 361.583 52.1706 364.193 53.9032C364.588 54.1542 364.915 54.493 365.147 54.8914C365.379 55.2897 365.508 55.7359 365.525 56.1926V62.4318C365.525 65.2026 367.854 64.9766 370.711 64.9766H379.852C382.72 64.9766 385.048 65.2026 385.048 62.4318V56.1926C385.063 55.7366 385.191 55.2907 385.421 54.8923C385.651 54.4939 385.976 54.1547 386.37 53.9032C388.966 52.1689 391.085 49.8499 392.545 47.1468C394.004 44.4437 394.761 41.4377 394.749 38.3886V38.3886Z" fill="#143861"/>
<path d="M379.303 46.3276V60.0835" stroke="#C3CAD4" stroke-width="3" stroke-linecap="round" stroke-linejoin="round"/>
<path d="M370.955 45.0308V60.0836" stroke="#C3CAD4" stroke-width="3" stroke-linecap="round" stroke-linejoin="round"/>
<path d="M370.7 44.9619C369.915 45.5419 368.954 45.8561 367.965 45.856C366.773 45.856 365.63 45.3985 364.787 44.584C363.944 43.7695 363.471 42.6649 363.471 41.5131C363.471 40.3613 363.944 39.2567 364.787 38.4422C365.63 37.6278 366.773 37.1702 367.965 37.1702C370.477 37.1702 372.348 38.8307 375.002 41.5328C377.94 44.4018 379.486 45.856 381.957 45.856C383.147 45.8534 384.288 45.3947 385.128 44.5805C385.969 43.7664 386.441 42.6632 386.441 41.5131C386.441 40.363 385.969 39.2598 385.128 38.4457C384.288 37.6315 383.147 37.1728 381.957 37.1702C380.969 37.1666 380.008 37.4774 379.222 38.0545" stroke="#C3CAD4" stroke-width="3" stroke-miterlimit="10" stroke-linecap="round"/>
<path d="M380.635 69.1917C380.635 69.9078 380.489 70.6169 380.206 71.2785C379.922 71.9401 379.506 72.5413 378.982 73.0476C378.458 73.554 377.836 73.9557 377.151 74.2298C376.467 74.5038 375.733 74.6449 374.992 74.6449C374.251 74.6449 373.517 74.5038 372.832 74.2298C372.147 73.9557 371.525 73.554 371.001 73.0476C370.477 72.5413 370.061 71.9401 369.778 71.2785C369.494 70.6169 369.348 69.9078 369.348 69.1917C369.348 66.185 371.88 66.244 374.992 66.244C378.103 66.244 380.635 66.185 380.635 69.1917Z" fill="#143861"/>
<path d="M365.515 58.2461V64.0825C365.52 65.0302 365.913 65.9374 366.609 66.6057C367.304 67.274 368.245 67.6492 369.226 67.6492H381.286C381.772 67.6505 382.253 67.5592 382.703 67.3807C383.153 67.2022 383.561 66.9398 383.906 66.6086C384.251 66.2774 384.525 65.8839 384.712 65.4504C384.899 65.017 384.996 64.5522 384.997 64.0825V58.2461H365.515Z" fill="#C3CAD4" stroke="#11273C" stroke-width="3" stroke-linecap="round" stroke-linejoin="round"/>
<path d="M336.555 38.8601H345.808" stroke="#11273C" stroke-width="3" stroke-linecap="round" stroke-linejoin="round"/>
<path d="M404.704 38.8601H413.957" stroke="#11273C" stroke-width="3" stroke-linecap="round" stroke-linejoin="round"/>
<path d="M347.893 65.3008L354.431 58.9829" stroke="#11273C" stroke-width="3" stroke-linecap="round" stroke-linejoin="round"/>
<path d="M396.081 18.7473L402.619 12.4294" stroke="#11273C" stroke-width="3" stroke-linecap="round" stroke-linejoin="round"/>
<path d="M375.256 10.4152V1.47388" stroke="#11273C" stroke-width="3" stroke-linecap="round" stroke-linejoin="round"/>
<path d="M402.619 65.3008L396.081 58.9829" stroke="#11273C" stroke-width="3" stroke-linecap="round" stroke-linejoin="round"/>
<path d="M354.431 18.7473L347.893 12.4294" stroke="#11273C" stroke-width="3" stroke-linecap="round" stroke-linejoin="round"/>
</g>
<defs>
<clipPath id="clip0_351_403">
<rect width="460" height="338" fill="white"/>
</clipPath>
</defs>
</svg>
