<svg width="64" height="64" viewBox="0 0 64 64" fill="none" xmlns="http://www.w3.org/2000/svg">
<g clip-path="url(#clip0_48_1061)">
<path d="M28 45.3333C27.649 45.3353 27.3011 45.2681 26.9762 45.1354C26.6513 45.0027 26.3558 44.8071 26.1067 44.56C25.8567 44.3121 25.6583 44.0171 25.523 43.6922C25.3876 43.3672 25.3179 43.0187 25.3179 42.6666C25.3179 42.3146 25.3876 41.9661 25.523 41.6411C25.6583 41.3161 25.8567 41.0212 26.1067 40.7733L34.9333 32L26.4533 23.1733C25.9567 22.6737 25.6779 21.9978 25.6779 21.2933C25.6779 20.5888 25.9567 19.9129 26.4533 19.4133C26.7012 19.1634 26.9962 18.965 27.3211 18.8296C27.6461 18.6942 27.9946 18.6245 28.3467 18.6245C28.6987 18.6245 29.0472 18.6942 29.3722 18.8296C29.6972 18.965 29.9921 19.1634 30.24 19.4133L40.5333 30.08C41.0219 30.5785 41.2956 31.2486 41.2956 31.9466C41.2956 32.6446 41.0219 33.3148 40.5333 33.8133L29.8667 44.48C29.6273 44.7385 29.3391 44.947 29.0187 45.0934C28.6983 45.2399 28.3521 45.3214 28 45.3333Z" fill="#EEFEFB"/>
</g>
<defs>
<clipPath id="clip0_48_1061">
<rect width="64" height="64" fill="white"/>
</clipPath>
</defs>
</svg>
