<svg width="520" height="372" viewBox="0 0 520 372" fill="none" xmlns="http://www.w3.org/2000/svg">
<g clip-path="url(#clip0_351_403)">
<path d="M478.343 30.4954C480.482 30.4939 482.601 30.8893 484.578 31.6589C486.555 32.4285 488.351 33.5571 489.864 34.9803C491.376 36.4035 492.576 38.0933 493.394 39.9531C494.212 41.8128 494.632 43.806 494.631 45.8187V160.847" stroke="#11273C" stroke-width="3" stroke-linecap="round" stroke-linejoin="round" stroke-dasharray="14 15"/>
<path d="M233.562 50.2957H107.281" stroke="#11273C" stroke-width="3" stroke-linecap="round" stroke-linejoin="round" stroke-dasharray="14 15"/>
<path d="M1.72412 266.11H8.31074C12.6306 266.11 16.7735 264.495 19.8281 261.622C22.8827 258.748 24.5987 254.85 24.5987 250.786V213.705C24.5987 209.822 26.2385 206.098 29.1573 203.352C32.0761 200.606 36.0349 199.063 40.1627 199.063H136.466" stroke="#11273C" stroke-width="3" stroke-linecap="round" stroke-linejoin="round" stroke-dasharray="14 15"/>
<path d="M194.124 50.2957V99.391C194.124 103.455 192.408 107.353 189.353 110.226C186.298 113.1 182.156 114.714 177.836 114.714H169.617C167.477 114.713 165.358 115.108 163.38 115.878C161.403 116.647 159.606 117.776 158.092 119.199C156.578 120.622 155.378 122.311 154.558 124.171C153.739 126.031 153.317 128.025 153.317 130.038V185.913" stroke="#11273C" stroke-width="3" stroke-linecap="round" stroke-linejoin="round" stroke-dasharray="14 15"/>
<path d="M506.723 140.43H472.883V133.834C472.883 132.162 473.589 130.558 474.846 129.376C476.102 128.193 477.807 127.529 479.584 127.529H500.022C501.799 127.529 503.504 128.193 504.761 129.376C506.017 130.558 506.723 132.162 506.723 133.834V140.43Z" fill="#C3CAD4" stroke="#11273C" stroke-width="3" stroke-linecap="round" stroke-linejoin="round"/>
<path d="M456.284 140.343H435.847V137.543C435.847 137.129 435.933 136.72 436.101 136.338C436.269 135.957 436.516 135.61 436.826 135.317C437.137 135.025 437.506 134.793 437.912 134.635C438.317 134.477 438.752 134.396 439.192 134.396H452.985C453.873 134.396 454.723 134.727 455.351 135.317C455.978 135.908 456.33 136.708 456.33 137.543L456.284 140.343Z" fill="#C3CAD4" stroke="#11273C" stroke-width="3" stroke-linecap="round" stroke-linejoin="round"/>
<path d="M511.574 140.441H432.617C428.922 140.441 425.927 143.259 425.927 146.735V186.26C425.927 189.736 428.922 192.553 432.617 192.553H511.574C515.269 192.553 518.264 189.736 518.264 186.26V146.735C518.264 143.259 515.269 140.441 511.574 140.441Z" fill="#143861"/>
<path d="M511.574 142.052C512.89 142.055 514.152 142.548 515.082 143.423C516.013 144.299 516.537 145.486 516.54 146.724V186.249C516.537 187.487 516.013 188.673 515.082 189.549C514.152 190.424 512.89 190.917 511.574 190.92H432.617C431.301 190.917 430.039 190.424 429.109 189.549C428.178 188.673 427.654 187.487 427.651 186.249V146.724C427.654 145.486 428.178 144.299 429.109 143.423C430.039 142.548 431.301 142.055 432.617 142.052H511.574ZM511.574 138.808H432.617C430.387 138.814 428.25 139.649 426.674 141.133C425.097 142.616 424.209 144.626 424.203 146.724V186.249C424.206 188.347 425.093 190.359 426.67 191.843C428.248 193.327 430.386 194.162 432.617 194.165H511.574C512.679 194.165 513.773 193.96 514.794 193.562C515.815 193.164 516.743 192.581 517.524 191.846C518.305 191.111 518.925 190.238 519.348 189.278C519.771 188.318 519.989 187.288 519.989 186.249V146.724C519.985 144.625 519.098 142.613 517.521 141.13C515.943 139.646 513.805 138.811 511.574 138.808Z" fill="#11273C"/>
<path d="M518.276 151.623H425.927V181.004H518.276V151.623Z" fill="#C3CAD4" stroke="#11273C" stroke-width="3" stroke-linecap="round" stroke-linejoin="round"/>
<path d="M463.262 149.308C458.569 149.314 454.07 151.07 450.752 154.192C447.433 157.314 445.566 161.547 445.56 165.962C445.566 170.377 447.433 174.609 450.752 177.731C454.07 180.853 458.569 182.61 463.262 182.615C467.955 182.61 472.454 180.853 475.772 177.731C479.091 174.609 480.958 170.377 480.964 165.962C480.958 161.547 479.091 157.314 475.772 154.192C472.454 151.07 467.955 149.314 463.262 149.308Z" fill="#C3CAD4" stroke="#11273C" stroke-width="3" stroke-linecap="round" stroke-linejoin="round"/>
<path d="M483.895 165.962C483.88 171.106 481.701 176.035 477.835 179.672C473.969 183.309 468.729 185.359 463.262 185.373C460.547 185.381 457.857 184.886 455.346 183.914C452.836 182.942 450.554 181.513 448.632 179.71C446.709 177.906 445.184 175.764 444.144 173.404C443.104 171.045 442.57 168.516 442.571 165.962C442.587 160.809 444.773 155.872 448.652 152.233C452.53 148.594 457.784 146.551 463.262 146.551C468.729 146.565 473.969 148.615 477.835 152.252C481.701 155.889 483.88 160.818 483.895 165.962Z" fill="#169579"/>
<path d="M460.124 158.565C460.124 159.073 460.017 159.577 459.811 160.046C459.604 160.516 459.301 160.943 458.919 161.302C458.536 161.662 458.083 161.947 457.583 162.142C457.084 162.336 456.549 162.436 456.009 162.436C454.917 162.436 453.871 162.028 453.099 161.302C452.327 160.576 451.894 159.592 451.894 158.565C451.894 158.057 452 157.554 452.207 157.085C452.414 156.616 452.717 156.19 453.1 155.831C453.482 155.473 453.936 155.188 454.435 154.995C454.934 154.802 455.469 154.703 456.009 154.704C457.098 154.704 458.143 155.111 458.914 155.834C459.686 156.558 460.121 157.54 460.124 158.565Z" fill="#C3CAD4"/>
<path d="M88.0039 237.172C100.062 242.503 116.879 232.424 116.614 225.925C116.545 224.249 116.109 222.573 113.269 219.999C110.097 217.123 106.372 216.863 103.177 219.805C97.2456 225.341 98.1768 232.587 88.0039 237.172Z" fill="#11273C"/>
<path d="M120.752 206.719L111.327 218.615C112.029 218.999 112.678 219.464 113.258 219.999C114.394 220.953 115.326 222.102 116.005 223.384L128.868 214.354" fill="#C3CAD4"/>
<path d="M120.752 206.719L111.327 218.615C112.029 218.999 112.678 219.464 113.258 219.999C114.394 220.953 115.326 222.102 116.005 223.384L128.868 214.354" stroke="#11273C" stroke-width="3" stroke-linecap="round" stroke-linejoin="round"/>
<path d="M128.868 214.354C138.133 208.147 166.237 181.815 160.812 176.678C155.386 171.542 127.362 198.014 120.752 206.72C121.91 208.161 123.157 209.537 124.488 210.84C125.872 212.092 127.335 213.266 128.868 214.354Z" fill="#11273C" stroke="#11273C" stroke-width="3" stroke-miterlimit="10"/>
<path d="M215.09 141.511C214.653 141.511 214.469 141.382 214.469 141.068C214.469 140.549 215.32 140.592 215.872 140.571C216.674 140.545 217.433 140.225 217.987 139.68C218.542 139.134 218.847 138.406 218.837 137.651C218.829 136.889 218.509 136.16 217.944 135.614C217.379 135.068 216.612 134.748 215.803 134.72C215.872 134.72 205.457 134.461 203.365 134.461H201.273C202.626 131.417 203.453 128.19 203.722 124.901C203.722 122.371 202.883 119.321 201.158 119.797C199.733 120.197 199.928 123.301 197.71 127.14C195.997 130.092 193.032 133.509 191.066 137.143C190.534 138.13 190.062 139.144 189.652 140.181H185.353V138.862C185.353 138.735 185.3 138.613 185.206 138.522C185.111 138.431 184.982 138.378 184.847 138.375H176.801C176.664 138.375 176.532 138.427 176.435 138.518C176.338 138.609 176.284 138.733 176.284 138.862V155.624C176.287 155.751 176.343 155.872 176.439 155.961C176.536 156.05 176.666 156.099 176.801 156.099H184.847C184.984 156.099 185.116 156.048 185.213 155.957C185.31 155.866 185.365 155.742 185.365 155.613V154.661H188.813C188.813 154.661 191.112 157.905 198.239 157.905H205.722C205.722 157.905 206.251 157.905 207.021 157.905H211.963C212.628 157.94 213.281 157.736 213.791 157.335C214.301 156.933 214.63 156.364 214.711 155.743C214.711 155.613 214.711 155.483 214.711 155.364C214.711 155.245 214.711 155.267 214.711 155.224C214.717 155.159 214.717 155.094 214.711 155.029V154.845V154.704C214.645 154.612 214.553 154.537 214.446 154.488V154.391L214.343 154.185C214.346 154.164 214.346 154.142 214.343 154.121C214.304 154.048 214.257 153.979 214.205 153.915C214.15 153.842 214.088 153.773 214.021 153.71L213.814 153.504L213.722 153.428C213.469 153.115 213.872 153.082 213.872 153.082C214.517 153.084 215.146 152.889 215.664 152.527C216.182 152.164 216.561 151.653 216.745 151.071C216.99 150.489 216.987 149.84 216.736 149.26C216.486 148.68 216.007 148.213 215.4 147.957C215.044 147.773 215.262 147.47 215.504 147.481C216.269 147.368 216.968 147.009 217.482 146.464C217.996 145.92 218.292 145.224 218.32 144.496C218.311 143.698 217.966 142.935 217.36 142.376C216.755 141.817 215.939 141.506 215.09 141.511Z" fill="#169579"/>
<path d="M51.991 90.3722H111.557C113.36 90.3722 115.089 89.6992 116.364 88.5009C117.64 87.3027 118.359 85.6771 118.362 83.9811V36.2051H45.186V83.9811C45.1891 85.6771 45.9073 87.3027 47.1832 88.5009C48.459 89.6992 50.1882 90.3722 51.991 90.3722Z" fill="#C3CAD4" stroke="#11273C" stroke-width="3" stroke-linecap="round" stroke-linejoin="round"/>
<path d="M118.362 27.9648C118.362 26.267 117.645 24.6386 116.369 23.4381C115.092 22.2375 113.362 21.563 111.557 21.563H51.991C51.0974 21.563 50.2125 21.7286 49.3868 22.0503C48.5612 22.372 47.811 22.8436 47.1791 23.4381C46.5472 24.0325 46.0461 24.7382 45.7041 25.515C45.3621 26.2917 45.186 27.1241 45.186 27.9648V36.2267H118.362V27.9648Z" fill="#11273C" stroke="#11273C" stroke-width="3" stroke-linecap="round" stroke-linejoin="round"/>
<path d="M66.0949 52.6206C72.6699 46.8243 81.4979 54.6644 75.7505 59.7254C72.4515 62.6343 64.1523 63.3372 64.1523 69.166L67.4053 69.2633H77.7506" fill="#C3CAD4"/>
<path d="M66.0949 52.6206C72.6699 46.8243 81.4979 54.6644 75.7505 59.7254C72.4515 62.6343 64.1523 63.3372 64.1523 69.166L67.4053 69.2633H77.7506" stroke="#11273C" stroke-width="3" stroke-linecap="round" stroke-linejoin="round"/>
<path d="M84.8428 50.75H97.28V54.1239C92.6821 59.1524 88.2337 64.7 87.705 69.2635" fill="#C3CAD4"/>
<path d="M84.8428 50.75H97.28V54.1239C92.6821 59.1524 88.2337 64.7 87.705 69.2635" stroke="#11273C" stroke-width="3" stroke-linecap="round" stroke-linejoin="round"/>
<path d="M111.557 90.3722C113.359 90.3722 115.088 89.6992 116.364 88.501C117.64 87.3027 118.358 85.6772 118.362 83.9812V71.5884L98.3491 90.3722H111.557Z" fill="#11273C" stroke="#11273C" stroke-width="3" stroke-linecap="round" stroke-linejoin="round"/>
<path d="M105.798 70.7556C103.711 70.7556 101.71 71.5346 100.234 72.9214C98.7578 74.3083 97.9269 76.1896 97.9238 78.1524V88.2201H98.1997L116.591 70.9178V70.7989L105.798 70.7556Z" fill="#169579"/>
<path d="M248.827 85.4736C248.827 85.4736 245.747 79.8828 241.447 79.8828C237.758 79.8828 233.861 84.695 235.493 90.4805C237.125 96.266 240.218 105.89 240.218 105.89C240.218 105.89 242.873 112.638 248.827 109.935C254.781 107.231 248.827 85.4736 248.827 85.4736Z" fill="#CECECE"/>
<path d="M323.945 86.2523C323.945 86.2523 326.98 80.7263 331.244 80.7263C334.877 80.7263 338.728 85.4845 337.107 91.1942C335.486 96.904 332.451 106.42 332.451 106.42C332.451 106.42 329.831 113.092 323.945 110.421C318.06 107.75 323.945 86.2523 323.945 86.2523Z" fill="#CECECE"/>
<path d="M424.904 340.618L388.305 208.688C385.374 194.824 376.212 183.535 358.154 181.188L330.808 175.694L325.911 174.71C322.262 173.972 318.975 172.118 316.564 169.438C314.152 166.758 312.75 163.403 312.577 159.895L311.968 147.6L311.6 139.803H260.54L260.161 147.6L259.563 159.895C259.381 163.398 257.973 166.746 255.56 169.42C253.147 172.093 249.863 173.941 246.218 174.678L241.321 175.662L213.975 181.156C195.917 183.502 186.756 194.792 183.836 208.655L162.214 322.202C145.639 327.749 117.661 334.205 117.661 334.205C117.661 334.205 111.913 320.688 102.269 319.736C79.8198 317.574 83.567 326.949 80.1876 331.296C75.4287 337.428 72.831 345.755 74.8426 350.48C78.9348 360.105 88.8892 363.371 114.649 361.478C118.707 361.186 140.213 368.399 150.765 368.399C172.514 368.399 195.262 367.458 201.952 347.647C202.411 346.274 200.802 342.803 197.653 338.996L214.343 259.178L214.481 259.643V259.892L354.2 344.63C354.2 344.63 374.798 364.16 381.201 366.182C436.353 383.658 424.904 340.618 424.904 340.618Z" fill="#C3CAD4"/>
<path d="M102.269 319.779C79.8198 317.617 83.567 326.992 80.1876 331.34C75.4287 337.471 72.831 345.798 74.8426 350.524C78.9348 360.148 88.8892 363.414 114.649 361.521H115.166C119.051 351.216 118.04 337.904 117.661 334.249C117.661 334.249 111.971 320.731 102.269 319.779Z" fill="#CECECE"/>
<path d="M101.614 361.521C99.7402 361.662 97.9471 361.77 96.2344 361.857C98.9241 362.03 101.936 362.077 105.269 361.997C104.075 361.702 102.848 361.543 101.614 361.521Z" fill="#CECECE"/>
<path d="M345.13 181.199C363.189 183.545 372.35 194.835 375.281 208.699L411.869 340.629C411.869 340.629 418.616 365.977 396.834 369.881C434.008 374.887 424.904 340.629 424.904 340.629L388.305 208.699C385.374 194.835 376.212 183.545 358.154 181.199H345.13Z" fill="#CECECE"/>
<path d="M286.047 167C297.749 167 306.439 161.528 312.37 155.699L311.968 147.643L311.6 139.846H260.54L260.161 147.643L259.77 155.764C265.575 161.388 274.322 167 286.047 167Z" fill="#CECECE"/>
<path d="M424.904 340.618L388.305 208.688C385.374 194.824 376.212 183.535 358.154 181.188L330.808 175.694L325.911 174.71C322.262 173.972 318.975 172.118 316.564 169.438C314.152 166.758 312.75 163.403 312.577 159.895L311.968 147.6L311.6 139.803H260.54L260.161 147.6L259.563 159.895C259.381 163.398 257.973 166.746 255.56 169.42C253.147 172.093 249.863 173.941 246.218 174.678L241.321 175.662L213.975 181.156C195.917 183.502 186.756 194.792 183.836 208.655L162.214 322.202C145.639 327.749 117.661 334.205 117.661 334.205C117.661 334.205 111.913 320.688 102.269 319.736C79.8198 317.574 83.567 326.949 80.1876 331.296C75.4287 337.428 72.831 345.755 74.8426 350.48C78.9348 360.105 88.8892 363.371 114.649 361.478C118.707 361.186 140.213 368.399 150.765 368.399C172.514 368.399 195.262 367.458 201.952 347.647C202.411 346.274 200.802 342.803 197.653 338.996L214.343 259.178L214.481 259.643V259.892L354.2 344.63C354.2 344.63 374.798 364.16 381.201 366.182C436.353 383.658 424.904 340.618 424.904 340.618Z" stroke="#11273C" stroke-width="3" stroke-linecap="round" stroke-linejoin="round"/>
<path d="M112.856 350.069L60.0949 291.76L53.8877 296.735L106.649 355.033L112.304 355.455V355.401L112.856 350.069Z" fill="#11273C"/>
<path d="M112.856 350.069L60.0949 291.76L53.8877 296.735L106.649 355.033L112.304 355.455V355.401L112.856 350.069Z" stroke="#11273C" stroke-width="3" stroke-linecap="round" stroke-linejoin="round"/>
<path d="M51.8302 294.388L53.8877 296.735L60.0949 291.761L58.0029 289.446C57.659 289.058 57.2363 288.739 56.7594 288.507C56.2826 288.274 55.7612 288.134 55.2259 288.094C54.6906 288.053 54.1521 288.114 53.642 288.272C53.132 288.43 52.6606 288.682 52.2555 289.014C51.8507 289.339 51.5183 289.737 51.2775 290.184C51.0368 290.631 50.8925 291.118 50.8529 291.618C50.8134 292.117 50.8794 292.62 51.0471 293.095C51.2149 293.571 51.481 294.01 51.8302 294.388Z" fill="#C3CAD4" stroke="#11273C" stroke-width="3" stroke-linecap="round" stroke-linejoin="round"/>
<path d="M339.234 177.403C339.424 178.282 339.562 179.17 339.647 180.063C339.632 193.079 334.124 205.556 324.334 214.752C314.544 223.948 301.273 229.11 287.438 229.105C273.6 229.108 260.326 223.939 250.538 214.736C240.749 205.534 235.247 193.05 235.241 180.031C235.241 179.609 235.241 178.301 235.149 176.917L214.895 180.983C214.895 181.156 214.895 181.275 214.826 181.275C214.768 193.029 214.573 249.219 215.849 258.67V259.632V259.881H358.959L359.108 259.157L359.235 258.94C360.51 249.489 360.304 193.202 360.246 181.523C359.533 181.404 358.832 181.264 358.085 181.166L339.234 177.403Z" fill="#169579"/>
<path d="M339.234 177.403C339.424 178.282 339.562 179.17 339.647 180.063C339.632 193.079 334.124 205.556 324.334 214.752C314.544 223.948 301.273 229.11 287.438 229.105C273.6 229.108 260.326 223.939 250.538 214.736C240.749 205.534 235.247 193.05 235.241 180.031C235.241 179.609 235.241 178.301 235.149 176.917L214.895 180.983C214.895 181.156 214.895 181.275 214.826 181.275C214.768 193.029 214.573 249.219 215.849 258.67V259.632V259.881H358.959L359.108 259.157L359.235 258.94C360.51 249.489 360.304 193.202 360.246 181.523C359.533 181.404 358.832 181.264 358.085 181.166L339.234 177.403Z" stroke="#11273C" stroke-width="3" stroke-linecap="round" stroke-linejoin="round"/>
<path d="M398.535 365.793C398.534 366.387 398.408 366.974 398.165 367.522C397.922 368.07 397.567 368.567 397.12 368.986C396.672 369.405 396.142 369.737 395.558 369.962C394.975 370.188 394.35 370.304 393.719 370.302H198.032C196.336 370.302 194.709 369.669 193.509 368.542C192.308 367.415 191.632 365.886 191.629 364.29V250.473C191.629 244.839 196.101 240.265 201.607 240.265H388.558C394.064 240.265 398.535 244.839 398.535 250.473V365.793Z" fill="#11273C"/>
<path d="M398.535 365.793C398.534 366.387 398.408 366.974 398.165 367.522C397.922 368.07 397.567 368.567 397.12 368.986C396.672 369.405 396.142 369.737 395.558 369.962C394.975 370.188 394.35 370.304 393.719 370.302H198.032C196.336 370.302 194.709 369.669 193.509 368.542C192.308 367.415 191.632 365.886 191.629 364.29V250.473C191.629 244.839 196.101 240.265 201.607 240.265H388.558C394.064 240.265 398.535 244.839 398.535 250.473V365.793Z" stroke="#11273C" stroke-width="3" stroke-linecap="round" stroke-linejoin="round"/>
<path d="M248.827 85.4736C248.827 85.4736 245.747 79.8828 241.447 79.8828C237.758 79.8828 233.861 84.695 235.493 90.4805C237.125 96.266 240.218 105.89 240.218 105.89C240.218 105.89 242.873 112.638 248.827 109.935C254.781 107.231 248.827 85.4736 248.827 85.4736Z" stroke="#11273C" stroke-width="3" stroke-linecap="round" stroke-linejoin="round"/>
<path d="M323.945 86.2523C323.945 86.2523 326.98 80.7263 331.244 80.7263C334.877 80.7263 338.728 85.4845 337.107 91.1942C335.486 96.904 332.451 106.42 332.451 106.42C332.451 106.42 329.831 113.092 323.945 110.421C318.06 107.75 323.945 86.2523 323.945 86.2523Z" stroke="#11273C" stroke-width="3" stroke-linecap="round" stroke-linejoin="round"/>
<path d="M285.116 24.0071C248.252 23.6286 240.194 52.2207 241.217 67.8361C242.091 81.0291 246.08 110.638 246.08 110.638C246.08 114.206 248.379 124.782 251.092 129.086C251.092 129.086 262.586 151.504 286.047 151.504C311.048 151.504 322.29 126.502 322.29 126.502C324.026 122.663 325.899 113.179 326.014 110.973C326.014 110.973 329.923 81.3535 330.877 68.1713C332.072 51.7557 321.968 24.3856 285.116 24.0071Z" fill="#C3CAD4"/>
<path d="M297.209 25.2507C313.21 34.3885 318.049 51.5178 317.198 63.0996C316.244 76.2926 312.336 105.901 312.336 105.901C312.221 108.064 310.347 117.591 308.623 121.43C308.623 121.43 297.37 146.443 272.369 146.432C270.641 146.429 268.915 146.303 267.208 146.053C272.786 149.568 279.345 151.45 286.059 151.46C311.06 151.46 322.302 126.459 322.302 126.459C324.038 122.62 325.911 113.136 326.026 110.93C326.026 110.93 329.934 81.3103 330.888 68.1281C331.934 53.7455 324.21 30.7875 297.209 25.2507Z" fill="#CECECE"/>
<path d="M285.116 24.0071C248.252 23.6286 240.194 52.2207 241.217 67.8361C242.091 81.0291 246.08 110.638 246.08 110.638C246.08 114.206 248.379 124.782 251.092 129.086C251.092 129.086 262.586 151.504 286.047 151.504C311.048 151.504 322.29 126.502 322.29 126.502C324.026 122.663 325.899 113.179 326.014 110.973C326.014 110.973 329.923 81.3535 330.877 68.1713C332.072 51.7557 321.968 24.3856 285.116 24.0071Z" stroke="#11273C" stroke-width="3" stroke-linecap="round" stroke-linejoin="round"/>
<path d="M337.774 34.6588C337.946 32.3771 332.682 29.9223 324.888 27.6838C329.452 21.9374 331.478 14.7539 330.544 7.63477C325.353 11.5639 318.968 13.8364 312.313 14.1231C304.129 14.4151 295.197 14.4151 281.116 15.6479C249.896 18.4055 244.195 26.4619 241.425 29.706C236.62 35.4374 233.505 44.7699 236.574 57.8223C237.873 63.424 243.057 80.6614 243.057 80.6614C242.839 80.8452 245.161 65.6624 247.092 62.0073C250.345 55.9083 257.713 52.9236 260.885 52.0152C276.334 47.6248 304.117 50.3283 309.497 52.0152C313.141 53.0966 320.428 55.1513 324.44 61.6288C327.655 66.9667 329.335 73.0013 329.314 79.1366C329.314 79.1366 336.751 48.0141 337.774 34.6588Z" fill="#11273C"/>
<path d="M324.888 27.6838C329.452 21.9374 331.478 14.7539 330.544 7.63477C325.353 11.5639 318.968 13.8364 312.313 14.1231L309.37 14.2205C301.638 23.0791 293.306 31.4593 284.427 39.3088L284.358 39.3737C281.748 41.7312 273.047 49.3874 272.472 50.1877H272.599C286.059 43.948 303.347 39.7414 307.75 39.5468C311.589 39.3845 319.152 38.7898 325.406 43.4614C329.273 46.4331 332.46 50.1119 334.774 54.2753C336.199 46.9759 337.452 39.6441 337.831 34.7237C337.946 32.3771 332.682 29.9223 324.888 27.6838Z" fill="#143861"/>
<path d="M338.176 11.4412C338.176 11.4412 338.728 16.5237 328.049 24.4179C318.853 31.1874 296.346 40.8227 287.725 44.0669H287.622C283.967 45.5159 271 50.4363 272.483 50.1443C287.426 48.8574 305.232 50.7607 309.416 52.08C313.06 53.1614 320.347 55.216 324.359 61.6936C327.575 67.0315 329.254 73.066 329.233 79.2014C335.734 70.4004 340.921 60.8018 344.647 50.6742C353.533 26.2887 338.176 11.4412 338.176 11.4412Z" fill="#11273C"/>
<path d="M338.176 11.4412C338.176 11.4412 338.36 13.2038 336.337 16.2642C338.256 22.7525 338.831 31.3388 335.072 41.6337C332.387 48.9007 328.973 55.9108 324.876 62.5695C327.766 67.7109 329.274 73.4397 329.267 79.2555C335.761 70.4359 340.936 60.8189 344.647 50.6742C353.533 26.2887 338.176 11.4412 338.176 11.4412Z" fill="#143861"/>
<path d="M326.509 25.467C329.934 20.1138 331.354 13.836 330.544 7.63477C325.353 11.5639 318.968 13.8364 312.313 14.1231C304.129 14.4151 295.197 14.4151 281.116 15.6479C249.896 18.4055 244.195 26.4619 241.425 29.706C236.62 35.4374 233.505 44.7699 236.574 57.8223C237.873 63.424 243.057 80.6614 243.057 80.6614C242.839 80.8452 245.161 65.6624 247.092 62.0073C250.345 55.9083 257.713 52.9236 260.885 52.0152C276.334 47.6248 304.117 50.3283 309.497 52.0152C313.141 53.0966 320.428 55.1513 324.44 61.6288C327.655 66.9667 329.335 73.0013 329.314 79.1366" stroke="#11273C" stroke-width="3" stroke-linecap="round" stroke-linejoin="round"/>
<path d="M338.176 11.4412C338.176 11.4412 338.728 16.5237 328.049 24.4179C318.853 31.1874 296.346 40.8227 287.725 44.0669H287.622C283.967 45.5159 271 50.4363 272.483 50.1443C287.426 48.8574 305.232 50.7607 309.416 52.08C313.06 53.1614 320.347 55.216 324.359 61.6936C327.575 67.0315 329.254 73.066 329.233 79.2014C335.734 70.4004 340.921 60.8018 344.647 50.6742C353.533 26.2887 338.176 11.4412 338.176 11.4412Z" stroke="#11273C" stroke-width="3" stroke-linecap="round" stroke-linejoin="round"/>
<path d="M312.474 310.696C312.474 312.844 312.024 314.971 311.15 316.956C310.275 318.94 308.994 320.743 307.379 322.261C305.764 323.78 303.847 324.984 301.737 325.805C299.627 326.626 297.365 327.048 295.082 327.047C292.797 327.049 290.534 326.629 288.422 325.808C286.31 324.988 284.391 323.784 282.774 322.266C281.156 320.747 279.873 318.944 278.997 316.959C278.121 314.974 277.669 312.845 277.667 310.696C277.669 308.547 278.12 306.42 278.996 304.435C279.871 302.451 281.153 300.648 282.769 299.13C284.385 297.611 286.304 296.407 288.414 295.587C290.525 294.766 292.787 294.344 295.071 294.345C297.355 294.342 299.617 294.763 301.729 295.584C303.84 296.404 305.759 297.608 307.375 299.127C308.991 300.645 310.274 302.449 311.148 304.434C312.023 306.419 312.474 308.547 312.474 310.696Z" fill="#C3CAD4" stroke="#11273C" stroke-width="3" stroke-linecap="round" stroke-linejoin="round"/>
<path d="M74.8425 318.86C76.084 315.941 80.8657 312.88 86.5556 315.086C91.1535 316.892 104.614 327.349 103.269 330.81C101.269 335.99 97.2573 334.173 97.2573 336.466C97.2573 338.985 91.9007 354.071 85.8775 354.395C79.4404 354.73 73.1642 352.427 73.1642 341.505C73.1642 336.163 72.8309 323.532 74.8425 318.86Z" fill="#C3CAD4" stroke="#11273C" stroke-width="3" stroke-linecap="round" stroke-linejoin="round"/>
<path d="M137.627 368.518C137.627 360.71 131.385 354.373 123.684 354.373H44.9448V368.518" fill="#C3CAD4"/>
<path d="M137.627 368.518C137.627 360.71 131.385 354.373 123.684 354.373H44.9448V368.518" stroke="#11273C" stroke-width="3" stroke-linecap="round" stroke-linejoin="round"/>
<path d="M230.309 368.518V354.373H151.582C143.869 354.373 137.627 360.71 137.627 368.518" fill="#C3CAD4"/>
<path d="M230.309 368.518V354.373H151.582C143.869 354.373 137.627 360.71 137.627 368.518" stroke="#11273C" stroke-width="3" stroke-linecap="round" stroke-linejoin="round"/>
<path d="M33.7373 370.313H241.517" stroke="#11273C" stroke-width="3" stroke-linecap="round" stroke-linejoin="round"/>
<path d="M500.172 254.128C500.011 253.855 499.957 253.537 500.02 253.231C500.083 252.925 500.259 252.649 500.516 252.452C501.175 251.947 501.797 251.401 502.379 250.819C502.605 250.581 502.912 250.425 503.247 250.375C503.582 250.326 503.925 250.387 504.218 250.549L505.252 251.143C505.719 251.412 506.28 251.495 506.812 251.376C507.344 251.256 507.804 250.943 508.091 250.505C508.235 250.287 508.33 250.045 508.374 249.792C508.417 249.539 508.407 249.281 508.344 249.032C508.281 248.783 508.166 248.548 508.007 248.34C507.847 248.133 507.645 247.957 507.413 247.823L506.413 247.25C506.133 247.087 505.922 246.837 505.817 246.542C505.712 246.248 505.719 245.928 505.838 245.639C506.158 244.89 506.419 244.12 506.62 243.336C506.7 243.026 506.889 242.751 507.156 242.555C507.423 242.358 507.753 242.252 508.091 242.254H509.172C509.72 242.266 510.251 242.074 510.649 241.719C511.047 241.365 511.28 240.877 511.299 240.362C511.306 240.106 511.26 239.852 511.163 239.613C511.066 239.374 510.92 239.155 510.733 238.969C510.547 238.784 510.323 238.634 510.074 238.53C509.826 238.426 509.559 238.368 509.287 238.361H508.275C507.953 238.354 507.644 238.242 507.399 238.045C507.154 237.848 506.989 237.578 506.931 237.28C506.815 236.467 506.631 235.664 506.379 234.879C506.265 234.566 506.271 234.226 506.394 233.916C506.518 233.606 506.752 233.347 507.057 233.181L507.839 232.77C508.078 232.649 508.29 232.485 508.461 232.286C508.633 232.088 508.762 231.86 508.839 231.615C508.917 231.37 508.943 231.113 508.915 230.858C508.888 230.604 508.807 230.357 508.678 230.132C508.415 229.679 507.972 229.342 507.447 229.197C506.921 229.051 506.355 229.107 505.873 229.353L505.16 229.71C504.859 229.858 504.512 229.9 504.182 229.829C503.851 229.757 503.558 229.577 503.356 229.321C502.81 228.658 502.21 228.036 501.562 227.461C501.302 227.244 501.129 226.95 501.07 226.627C501.012 226.305 501.072 225.973 501.241 225.687L501.608 225.114C501.894 224.675 501.982 224.147 501.855 223.647C501.728 223.146 501.396 222.714 500.93 222.443C500.699 222.309 500.442 222.22 500.173 222.18C499.905 222.14 499.631 222.151 499.367 222.211C499.103 222.271 498.854 222.38 498.635 222.531C498.416 222.683 498.231 222.873 498.091 223.092L497.758 223.589C497.565 223.86 497.278 224.058 496.946 224.149C496.614 224.24 496.258 224.218 495.942 224.087C495.062 223.754 494.155 223.49 493.229 223.297C492.907 223.225 492.622 223.049 492.423 222.801C492.223 222.552 492.122 222.246 492.137 221.935V221.427C492.144 221.171 492.098 220.917 492.001 220.679C491.904 220.441 491.758 220.223 491.571 220.038C491.384 219.853 491.16 219.705 490.912 219.602C490.664 219.498 490.396 219.442 490.125 219.437C489.577 219.425 489.046 219.617 488.648 219.972C488.25 220.326 488.017 220.814 487.999 221.329V221.794C487.976 222.12 487.833 222.427 487.593 222.662C487.353 222.898 487.033 223.046 486.688 223.081C485.747 223.224 484.817 223.43 483.906 223.697C483.591 223.796 483.249 223.788 482.94 223.673C482.631 223.558 482.375 223.345 482.217 223.07L481.987 222.681C481.858 222.456 481.683 222.257 481.472 222.095C481.261 221.934 481.018 221.814 480.757 221.741C480.496 221.669 480.223 221.646 479.952 221.674C479.682 221.701 479.42 221.779 479.182 221.902C478.701 222.149 478.343 222.566 478.188 223.061C478.033 223.555 478.093 224.088 478.355 224.541L478.573 224.93C478.732 225.207 478.782 225.528 478.715 225.837C478.648 226.145 478.467 226.421 478.205 226.617C477.428 227.204 476.709 227.856 476.056 228.564C475.837 228.793 475.539 228.942 475.215 228.983C474.891 229.025 474.561 228.957 474.285 228.791L473.86 228.542C473.39 228.274 472.827 228.192 472.293 228.314C471.758 228.435 471.297 228.751 471.009 229.191C470.725 229.631 470.638 230.16 470.767 230.661C470.897 231.161 471.232 231.593 471.699 231.862L472.159 232.132C472.447 232.318 472.66 232.59 472.763 232.905C472.865 233.219 472.851 233.557 472.722 233.863C472.4 234.697 472.146 235.554 471.963 236.425C471.908 236.735 471.735 237.015 471.478 237.213C471.22 237.412 470.894 237.516 470.561 237.507H469.929C469.657 237.498 469.387 237.541 469.133 237.631C468.879 237.722 468.646 237.86 468.45 238.036C468.253 238.212 468.095 238.423 467.986 238.657C467.877 238.892 467.818 239.144 467.814 239.399C467.806 239.654 467.852 239.908 467.949 240.147C468.046 240.385 468.193 240.603 468.38 240.788C468.567 240.973 468.791 241.121 469.039 241.224C469.287 241.328 469.554 241.383 469.825 241.389H470.527C470.871 241.41 471.197 241.54 471.452 241.758C471.706 241.976 471.875 242.269 471.929 242.589C472.095 243.446 472.333 244.288 472.642 245.109C472.745 245.402 472.735 245.721 472.613 246.008C472.491 246.295 472.265 246.532 471.975 246.677L471.262 247.034C470.783 247.283 470.427 247.7 470.273 248.193C470.118 248.687 470.176 249.219 470.435 249.673C470.564 249.898 470.738 250.097 470.949 250.258C471.16 250.42 471.403 250.541 471.663 250.614C471.924 250.687 472.197 250.712 472.467 250.686C472.738 250.66 473 250.584 473.239 250.462L474.033 250.051C474.333 249.903 474.679 249.857 475.011 249.92C475.344 249.983 475.644 250.151 475.86 250.397C476.423 251.026 477.038 251.612 477.699 252.149C477.961 252.355 478.137 252.642 478.196 252.959C478.255 253.275 478.193 253.601 478.021 253.879L477.504 254.69C477.361 254.907 477.265 255.149 477.222 255.401C477.179 255.653 477.189 255.91 477.252 256.159C477.315 256.407 477.43 256.641 477.59 256.847C477.749 257.054 477.95 257.228 478.182 257.361C478.413 257.496 478.669 257.586 478.937 257.626C479.205 257.667 479.479 257.657 479.743 257.598C480.007 257.539 480.255 257.431 480.475 257.281C480.694 257.131 480.88 256.941 481.021 256.723L481.596 255.847C481.77 255.58 482.036 255.377 482.35 255.272C482.664 255.168 483.007 255.169 483.32 255.274C484.127 255.548 484.952 255.768 485.792 255.934C486.12 255.999 486.414 256.169 486.624 256.416C486.834 256.663 486.946 256.97 486.941 257.286V258.367C486.932 258.623 486.977 258.878 487.073 259.118C487.17 259.357 487.316 259.577 487.503 259.763C487.69 259.949 487.914 260.098 488.163 260.202C488.412 260.306 488.68 260.362 488.953 260.368C489.501 260.379 490.031 260.187 490.43 259.833C490.828 259.478 491.061 258.991 491.079 258.475V257.34C491.086 257.033 491.203 256.737 491.412 256.501C491.621 256.265 491.909 256.103 492.229 256.042C493.066 255.912 493.892 255.724 494.7 255.48C495.023 255.372 495.377 255.374 495.699 255.487C496.02 255.6 496.289 255.815 496.459 256.096L497.045 257.113C497.308 257.565 497.75 257.902 498.275 258.05C498.8 258.198 499.366 258.145 499.85 257.902C500.089 257.781 500.301 257.616 500.472 257.418C500.644 257.22 500.773 256.991 500.851 256.746C500.929 256.501 500.954 256.244 500.927 255.99C500.899 255.735 500.818 255.488 500.689 255.263L500.172 254.128ZM492.413 244.99C490.9 245.759 489.125 245.933 487.476 245.473C485.828 245.013 484.441 243.956 483.619 242.535C482.801 241.112 482.617 239.442 483.106 237.892C483.595 236.341 484.718 235.036 486.228 234.263C487.741 233.493 489.516 233.32 491.165 233.78C492.813 234.24 494.2 235.297 495.022 236.717C495.837 238.141 496.019 239.81 495.531 241.36C495.042 242.91 493.921 244.215 492.413 244.99Z" fill="#11273C"/>
<path d="M397.409 142.831C397.409 136.342 389.845 131.152 380.523 131.152C371.2 131.152 363.625 136.375 363.625 142.831C363.625 148.897 370.315 153.883 378.867 154.456C383.143 158.274 388.528 160.811 394.339 161.744C390.891 159.581 389.098 155.721 388.247 153.212C393.696 151.244 397.409 147.351 397.409 142.831Z" fill="#169579"/>
<path d="M362.533 117.937C350.912 117.937 341.498 124.609 341.498 132.828C341.498 138.494 345.969 143.436 352.567 145.945C351.302 149.187 349.052 152.007 346.096 154.056C350.51 153.612 356.981 151.06 361.729 147.697H362.533C374.155 147.697 383.569 141.025 383.569 132.806C383.569 124.588 374.155 117.937 362.533 117.937Z" fill="#11273C"/>
<path d="M354.418 132.784C354.418 133.533 354.102 134.251 353.539 134.78C352.977 135.31 352.214 135.607 351.418 135.607C351.023 135.608 350.632 135.536 350.266 135.395C349.901 135.254 349.569 135.046 349.289 134.784C349.009 134.522 348.787 134.21 348.636 133.867C348.484 133.524 348.406 133.156 348.406 132.784C348.406 132.033 348.724 131.312 349.288 130.781C349.853 130.25 350.619 129.951 351.418 129.951C351.813 129.951 352.204 130.025 352.569 130.167C352.933 130.31 353.265 130.518 353.543 130.782C353.822 131.045 354.043 131.357 354.193 131.701C354.343 132.045 354.42 132.413 354.418 132.784Z" fill="#11273C"/>
<path d="M365.775 132.86C365.775 133.612 365.458 134.332 364.893 134.864C364.328 135.395 363.562 135.694 362.763 135.694C361.967 135.691 361.204 135.391 360.641 134.86C360.079 134.329 359.763 133.61 359.763 132.86C359.763 132.111 360.079 131.392 360.641 130.861C361.204 130.33 361.967 130.03 362.763 130.027C363.562 130.027 364.328 130.326 364.893 130.857C365.458 131.388 365.775 132.109 365.775 132.86Z" fill="#11273C"/>
<path d="M377.143 132.86C377.143 133.612 376.826 134.332 376.261 134.864C375.696 135.395 374.93 135.694 374.131 135.694C373.335 135.691 372.572 135.391 372.009 134.86C371.447 134.329 371.131 133.61 371.131 132.86C371.131 132.111 371.447 131.392 372.009 130.861C372.572 130.33 373.335 130.03 374.131 130.027C374.93 130.027 375.696 130.326 376.261 130.857C376.826 131.388 377.143 132.109 377.143 132.86Z" fill="#11273C"/>
<path d="M446.238 42.2502C446.244 39.5242 445.679 36.8238 444.574 34.3037C443.469 31.7836 441.847 29.4932 439.8 27.5636C437.754 25.634 435.322 24.1032 432.646 23.0587C429.969 22.0142 427.1 21.4766 424.203 21.4766C418.358 21.4766 412.754 23.6606 408.621 27.5483C404.489 31.436 402.167 36.7089 402.167 42.2069C402.153 45.5748 403.013 48.895 404.674 51.8785C406.335 54.8621 408.745 57.4185 411.696 59.3254C412.143 59.6016 412.513 59.9746 412.775 60.413C413.037 60.8513 413.183 61.3424 413.202 61.8451V68.7119C413.202 71.7614 415.834 71.5127 419.064 71.5127H429.398C432.64 71.5127 435.272 71.7614 435.272 68.7119V61.8451C435.289 61.3432 435.433 60.8524 435.693 60.414C435.953 59.9755 436.321 59.6022 436.766 59.3254C439.7 57.4166 442.096 54.8644 443.746 51.8894C445.396 48.9143 446.252 45.6059 446.238 42.2502Z" fill="#143861"/>
<path d="M428.777 50.9878V66.1273" stroke="#C3CAD4" stroke-width="3" stroke-linecap="round" stroke-linejoin="round"/>
<path d="M419.34 49.5603V66.1273" stroke="#C3CAD4" stroke-width="3" stroke-linecap="round" stroke-linejoin="round"/>
<path d="M419.053 49.4847C418.165 50.123 417.079 50.4688 415.961 50.4687C414.614 50.4687 413.321 49.9652 412.368 49.0688C411.416 48.1724 410.88 46.9567 410.88 45.689C410.88 44.4213 411.416 43.2056 412.368 42.3092C413.321 41.4128 414.614 40.9092 415.961 40.9092C418.8 40.9092 420.915 42.7368 423.915 45.7106C427.237 48.8683 428.985 50.4687 431.778 50.4687C433.123 50.4659 434.413 49.961 435.363 49.065C436.313 48.1689 436.847 46.9548 436.847 45.689C436.847 44.4232 436.313 43.2091 435.363 42.313C434.413 41.4169 433.123 40.9121 431.778 40.9092C430.661 40.9052 429.575 41.2473 428.686 41.8825" stroke="#C3CAD4" stroke-width="3" stroke-miterlimit="10" stroke-linecap="round"/>
<path d="M430.284 76.1517C430.284 76.9399 430.119 77.7204 429.798 78.4485C429.477 79.1767 429.008 79.8383 428.415 80.3956C427.823 80.9529 427.119 81.395 426.345 81.6966C425.571 81.9983 424.742 82.1535 423.904 82.1535C423.066 82.1535 422.237 81.9983 421.463 81.6966C420.689 81.395 419.985 80.9529 419.393 80.3956C418.801 79.8383 418.331 79.1767 418.01 78.4485C417.689 77.7204 417.524 76.9399 417.524 76.1517C417.524 72.8427 420.387 72.9076 423.904 72.9076C427.421 72.9076 430.284 72.8427 430.284 76.1517Z" fill="#143861"/>
<path d="M413.19 64.1052V70.5287C413.197 71.5718 413.641 72.5702 414.427 73.3058C415.214 74.0413 416.277 74.4542 417.386 74.4542H431.019C431.568 74.4556 432.113 74.3552 432.621 74.1587C433.129 73.9622 433.591 73.6734 433.981 73.3089C434.37 72.9444 434.68 72.5113 434.891 72.0342C435.103 71.5572 435.213 71.0456 435.214 70.5287V64.1052H413.19Z" fill="#C3CAD4" stroke="#11273C" stroke-width="3" stroke-linecap="round" stroke-linejoin="round"/>
<path d="M380.454 42.7693H390.914" stroke="#11273C" stroke-width="3" stroke-linecap="round" stroke-linejoin="round"/>
<path d="M457.492 42.7693H467.952" stroke="#11273C" stroke-width="3" stroke-linecap="round" stroke-linejoin="round"/>
<path d="M393.271 71.8696L400.662 64.9163" stroke="#11273C" stroke-width="3" stroke-linecap="round" stroke-linejoin="round"/>
<path d="M447.744 20.6331L455.135 13.6797" stroke="#11273C" stroke-width="3" stroke-linecap="round" stroke-linejoin="round"/>
<path d="M424.203 11.4628V1.62207" stroke="#11273C" stroke-width="3" stroke-linecap="round" stroke-linejoin="round"/>
<path d="M455.135 71.8696L447.744 64.9163" stroke="#11273C" stroke-width="3" stroke-linecap="round" stroke-linejoin="round"/>
<path d="M400.662 20.6331L393.271 13.6797" stroke="#11273C" stroke-width="3" stroke-linecap="round" stroke-linejoin="round"/>
</g>
<defs>
<clipPath id="clip0_351_403">
<rect width="520" height="372" fill="white"/>
</clipPath>
</defs>
</svg>

