<svg width="74" height="27" viewBox="0 0 74 27" fill="none" xmlns="http://www.w3.org/2000/svg">
<rect x="1.31422" y="1.22852" width="70.9714" height="24.6857" rx="12.3429" fill="#EEFEFB"/>
<path d="M19.0571 7.05728H18.2428V6.243C18.2428 6.02703 18.157 5.81992 18.0043 5.66721C17.8516 5.5145 17.6444 5.42871 17.4285 5.42871C17.2125 5.42871 17.0054 5.5145 16.8527 5.66721C16.7 5.81992 16.6142 6.02703 16.6142 6.243V7.05728H11.7285V6.243C11.7285 6.02703 11.6427 5.81992 11.49 5.66721C11.3373 5.5145 11.1302 5.42871 10.9142 5.42871C10.6982 5.42871 10.4911 5.5145 10.3384 5.66721C10.1857 5.81992 10.0999 6.02703 10.0999 6.243V7.05728H9.28563C8.63774 7.05728 8.01639 7.31465 7.55827 7.77278C7.10015 8.2309 6.84277 8.85225 6.84277 9.50014V19.2716C6.84277 19.9195 7.10015 20.5408 7.55827 20.9989C8.01639 21.4571 8.63774 21.7144 9.28563 21.7144H19.0571C19.7049 21.7144 20.3263 21.4571 20.7844 20.9989C21.2425 20.5408 21.4999 19.9195 21.4999 19.2716V9.50014C21.4999 8.85225 21.2425 8.2309 20.7844 7.77278C20.3263 7.31465 19.7049 7.05728 19.0571 7.05728ZM9.28563 8.68585H10.0999V9.50014C10.0999 9.7161 10.1857 9.92322 10.3384 10.0759C10.4911 10.2286 10.6982 10.3144 10.9142 10.3144C11.1302 10.3144 11.3373 10.2286 11.49 10.0759C11.6427 9.92322 11.7285 9.7161 11.7285 9.50014V8.68585H16.6142V9.50014C16.6142 9.7161 16.7 9.92322 16.8527 10.0759C17.0054 10.2286 17.2125 10.3144 17.4285 10.3144C17.6444 10.3144 17.8516 10.2286 18.0043 10.0759C18.157 9.92322 18.2428 9.7161 18.2428 9.50014V8.68585H19.0571C19.273 8.68585 19.4801 8.77164 19.6328 8.92435C19.7856 9.07706 19.8713 9.28418 19.8713 9.50014V12.7573H8.47134V9.50014C8.47134 9.28418 8.55714 9.07706 8.70984 8.92435C8.86255 8.77164 9.06967 8.68585 9.28563 8.68585ZM19.0571 20.0859H9.28563C9.06967 20.0859 8.86255 20.0001 8.70984 19.8474C8.55714 19.6946 8.47134 19.4875 8.47134 19.2716V14.3859H19.8713V19.2716C19.8713 19.4875 19.7856 19.6946 19.6328 19.8474C19.4801 20.0001 19.273 20.0859 19.0571 20.0859Z" fill="black"/>
<path d="M10.9144 17.643C11.3641 17.643 11.7287 17.2784 11.7287 16.8287C11.7287 16.379 11.3641 16.0144 10.9144 16.0144C10.4647 16.0144 10.1001 16.379 10.1001 16.8287C10.1001 17.2784 10.4647 17.643 10.9144 17.643Z" fill="black"/>
<path d="M17.4284 16.0144H14.1712C13.9553 16.0144 13.7481 16.1002 13.5954 16.2529C13.4427 16.4056 13.3569 16.6127 13.3569 16.8287C13.3569 17.0447 13.4427 17.2518 13.5954 17.4045C13.7481 17.5572 13.9553 17.643 14.1712 17.643H17.4284C17.6443 17.643 17.8514 17.5572 18.0041 17.4045C18.1569 17.2518 18.2426 17.0447 18.2426 16.8287C18.2426 16.6127 18.1569 16.4056 18.0041 16.2529C17.8514 16.1002 17.6443 16.0144 17.4284 16.0144Z" fill="black"/>
<g clip-path="url(#clip0_48_1029)">
<path d="M50.2565 11.8998C50.2557 11.7532 50.2838 11.6078 50.3392 11.472C50.3947 11.3363 50.4764 11.2128 50.5797 11.1087C50.6833 11.0042 50.8065 10.9213 50.9423 10.8647C51.0781 10.8082 51.2237 10.7791 51.3708 10.7791C51.5179 10.7791 51.6636 10.8082 51.7993 10.8647C51.9351 10.9213 52.0584 11.0042 52.162 11.1087L55.828 14.7969L59.5162 11.2535C59.725 11.046 60.0074 10.9295 60.3018 10.9295C60.5962 10.9295 60.8786 11.046 61.0874 11.2535C61.1918 11.3571 61.2747 11.4803 61.3313 11.6161C61.3879 11.7519 61.417 11.8976 61.417 12.0447C61.417 12.1918 61.3879 12.3374 61.3313 12.4732C61.2747 12.609 61.1918 12.7322 61.0874 12.8358L56.6302 17.1369C56.422 17.3411 56.1419 17.4555 55.8502 17.4555C55.5586 17.4555 55.2785 17.3411 55.0702 17.1369L50.6131 12.6798C50.5051 12.5798 50.418 12.4594 50.3568 12.3255C50.2956 12.1916 50.2615 12.0469 50.2565 11.8998Z" fill="black"/>
</g>
<rect x="1.31422" y="1.22852" width="70.9714" height="24.6857" rx="12.3429" stroke="#11273C" stroke-width="2.05714"/>
<defs>
<clipPath id="clip0_48_1029">
<rect width="26.7429" height="26.7429" fill="white" transform="translate(69.1997 0.199951) rotate(90)"/>
</clipPath>
</defs>
</svg>
