<svg width="64" height="64" viewBox="0 0 64 64" fill="none" xmlns="http://www.w3.org/2000/svg">
<g clip-path="url(#clip0_48_1062)">
<path d="M36 45.3333C36.351 45.3353 36.6989 45.2681 37.0238 45.1354C37.3487 45.0027 37.6442 44.8071 37.8933 44.56C38.1433 44.3121 38.3417 44.0171 38.477 43.6922C38.6124 43.3672 38.6821 43.0187 38.6821 42.6666C38.6821 42.3146 38.6124 41.9661 38.477 41.6411C38.3417 41.3161 38.1433 41.0212 37.8933 40.7733L29.0667 32L37.5467 23.1733C38.0433 22.6737 38.3221 21.9978 38.3221 21.2933C38.3221 20.5888 38.0433 19.9129 37.5467 19.4133C37.2988 19.1634 37.0038 18.965 36.6789 18.8296C36.3539 18.6942 36.0054 18.6245 35.6533 18.6245C35.3013 18.6245 34.9528 18.6942 34.6278 18.8296C34.3028 18.965 34.0079 19.1634 33.76 19.4133L23.4667 30.08C22.9781 30.5784 22.7044 31.2486 22.7044 31.9466C22.7044 32.6446 22.9781 33.3148 23.4667 33.8133L34.1333 44.48C34.3727 44.7385 34.6609 44.947 34.9813 45.0934C35.3017 45.2399 35.6479 45.3214 36 45.3333V45.3333Z" fill="#EEFEFB"/>
</g>
<defs>
<clipPath id="clip0_48_1062">
<rect width="64" height="64" fill="white" transform="matrix(-1 0 0 1 64 0)"/>
</clipPath>
</defs>
</svg>
