<svg width="111" height="156" viewBox="0 0 111 156" fill="none" xmlns="http://www.w3.org/2000/svg">
<g clip-path="url(#clip0_397_294)">
<path d="M74.5403 141.015H37.784C36.3333 141.015 35.1572 142.191 35.1572 143.642V143.851C35.1572 145.302 36.3333 146.478 37.784 146.478H74.5403C75.991 146.478 77.1671 145.302 77.1671 143.851V143.642C77.1671 142.191 75.991 141.015 74.5403 141.015Z" fill="#0C695B" stroke="#222221" stroke-width="0.475871" stroke-miterlimit="10"/>
<path d="M45.2412 149.742H67.8832C67.8832 149.742 64.8709 155.762 56.0958 155.762C46.9353 155.762 45.2412 149.742 45.2412 149.742Z" fill="#0C695B" stroke="#222221" stroke-width="0.475871" stroke-miterlimit="10"/>
<path d="M67.2693 22.5087C66.4332 21.174 65.2214 20.1162 63.786 19.4681C62.3506 18.82 60.7557 18.6106 59.2016 18.8662C57.6476 19.1217 56.2037 19.8309 55.0515 20.9045C53.8992 21.9781 53.09 23.3683 52.7254 24.9004C52.3608 26.4326 52.4571 28.0383 53.0022 29.5158C53.5474 30.9934 54.517 32.2769 55.7894 33.205C57.0617 34.1332 58.58 34.6646 60.1534 34.7326C61.7269 34.8005 63.2853 34.4019 64.6329 33.5869L64.7329 33.5155L59.3222 55.6959L76.7581 59.9502L76.6868 59.8502C75.8854 58.5086 75.4974 56.9605 75.5712 55.3995C75.6451 53.8384 76.1775 52.3339 77.102 51.0739C78.0265 49.8139 79.3019 48.8544 80.7688 48.3155C82.2356 47.7766 83.8289 47.6821 85.3492 48.0439C86.8695 48.4057 88.2494 49.2077 89.3163 50.3496C90.3831 51.4915 91.0897 52.9226 91.3475 54.4639C91.6053 56.0053 91.403 57.5884 90.7658 59.0154C90.1286 60.4423 89.0848 61.6497 87.765 62.4866L87.5985 62.5913L106.338 67.1596C110.388 58.1181 112.739 45.9976 107.766 32.1498C105.179 24.7171 100.851 18.0115 95.1428 12.5939C89.4345 7.17619 82.5122 3.2038 74.9546 1.00881L72.7846 0.485352L67.374 22.6752L67.2693 22.5087Z" fill="#169579" stroke="#222221" stroke-width="0.475871" stroke-miterlimit="10"/>
<path d="M67.2693 22.5086C67.3104 22.561 67.3471 22.6167 67.3788 22.6752V22.6752C67.5691 21.7948 69.4964 13.7859 72.7228 0.46628V0.399658H72.7942L74.5787 0.832701C75.1878 0.975462 75.7922 1.18009 76.4108 1.36568C77.6386 1.77017 78.8949 2.22224 80.1607 2.75998C82.8535 3.87943 85.4413 5.23625 87.8936 6.8144C93.5891 10.4225 98.4627 15.1875 102.198 20.8002C102.707 21.5521 103.15 22.3516 103.626 23.1368C103.864 23.5317 104.102 23.9267 104.344 24.3264C104.587 24.7262 104.763 25.1592 104.977 25.578L106.262 28.1334C106.619 29.0138 106.976 29.9037 107.342 30.7983C108.819 34.4916 109.826 38.3558 110.34 42.3001C110.857 46.446 110.797 50.6435 110.16 54.7727C110.017 55.8291 109.779 56.876 109.569 57.9277C109.36 58.9794 109.06 60.0263 108.737 61.0637C108.108 63.1622 107.343 65.2175 106.448 67.2167L106.41 67.3119H106.31L93.2281 64.1235L87.5652 62.7387L87.275 62.6674L87.5319 62.5151C88.9311 61.6733 90.0325 60.4156 90.6822 58.9175C91.002 58.1795 91.2044 57.3959 91.2818 56.5953C91.3725 55.8012 91.3339 54.9976 91.1676 54.2159C91.0853 53.8289 90.9788 53.4475 90.8488 53.0738C90.7058 52.704 90.5373 52.3447 90.3443 51.9983C89.9704 51.3048 89.4885 50.6751 88.9167 50.1329C88.0813 49.3339 87.0794 48.7296 85.9829 48.3633C84.8864 47.997 83.7225 47.8779 82.5745 48.0143C81.4266 48.1507 80.323 48.5394 79.343 49.1525C78.3629 49.7656 77.5306 50.588 76.9057 51.5605C76.4987 52.1882 76.1876 52.8731 75.9825 53.5925C75.7623 54.2996 75.6515 55.0362 75.6542 55.7768C75.6616 57.2442 76.0804 58.6802 76.8629 59.9216L77.0152 60.169L76.7392 60.0977L59.308 55.8148H59.2033V55.7101C61.1877 47.6203 63.0103 40.1825 64.6282 33.5345L64.7663 33.6297C63.5521 34.3948 62.1558 34.822 60.7214 34.867C59.3619 34.9004 58.0167 34.5841 56.8145 33.9486C55.3763 33.1996 54.1989 32.0326 53.4373 30.6011C52.6756 29.1697 52.3656 27.5411 52.548 25.93C52.7304 24.3188 53.3967 22.8008 54.459 21.5758C55.5213 20.3509 56.9299 19.4766 58.499 19.0681C59.2446 18.8848 60.0109 18.8 60.7785 18.8159C61.4513 18.8475 62.1186 18.9544 62.7676 19.1347C64.4161 19.6112 65.8634 20.6139 66.8886 21.9899C67.0235 22.1652 67.1459 22.3496 67.2551 22.5419L67.1599 22.4039C67.098 22.3135 67.0029 22.1803 66.8696 22.009C66.4763 21.4977 66.0225 21.0359 65.5181 20.6337C64.6998 19.9773 63.758 19.4918 62.7486 19.2061C62.1054 19.0298 61.4447 18.926 60.7785 18.8968C60.0185 18.8864 59.2603 18.9744 58.5228 19.1585C56.7892 19.6311 55.2622 20.6675 54.1829 22.1041C53.5037 23.0213 53.0315 24.0749 52.799 25.1923C52.5665 26.3096 52.5791 27.4641 52.8361 28.5761C53.0931 29.6881 53.5882 30.7311 54.2874 31.6332C54.9865 32.5352 55.8731 33.2749 56.8858 33.801C58.0581 34.4176 59.3687 34.724 60.6928 34.6909C62.0936 34.6433 63.4567 34.2246 64.6425 33.4774L64.8329 33.3585L64.7805 33.5726C63.1626 40.2348 61.359 47.6441 59.3889 55.7577L59.308 55.6292L76.7439 59.8692L76.6488 60.0168C75.8348 58.7363 75.4008 57.2512 75.3972 55.7339C75.3915 54.9709 75.5038 54.2117 75.7303 53.4831C75.9397 52.7409 76.2606 52.035 76.6821 51.3892C77.3281 50.39 78.1866 49.5457 79.1964 48.9163C80.2061 48.2869 81.3423 47.888 82.5239 47.7481C83.7054 47.6081 84.9034 47.7305 86.0322 48.1065C87.1611 48.4825 88.1931 49.103 89.0547 49.9235C89.6438 50.4774 90.1431 51.1196 90.5347 51.827C90.7324 52.1845 90.9057 52.5549 91.0534 52.9358C91.1916 53.3206 91.3014 53.7151 91.3817 54.116C91.5538 54.9226 91.5956 55.7516 91.5054 56.5715C91.3825 57.82 90.9684 59.0223 90.2965 60.0819C89.6246 61.1414 88.7136 62.0285 87.6366 62.6721L87.6033 62.4485L93.2662 63.8285L106.343 67.0168L106.2 67.0882C107.099 65.0998 107.868 63.0557 108.504 60.9685C108.827 59.9359 109.075 58.8889 109.332 57.8516C109.589 56.8142 109.779 55.7625 109.917 54.7108C110.557 50.6045 110.621 46.4289 110.107 42.3048C109.598 38.3792 108.599 34.5327 107.133 30.8554L106.058 28.2C105.639 27.3482 105.215 26.5059 104.801 25.6732C104.592 25.2544 104.392 24.8356 104.173 24.4264L103.459 23.2415C102.983 22.461 102.536 21.6616 102.032 20.9145C98.3171 15.3211 93.4717 10.5682 87.8079 6.96192C85.3663 5.38683 82.7897 4.03162 80.1083 2.91226C78.8473 2.37452 77.5957 1.91769 76.3727 1.5132C75.7541 1.32761 75.1593 1.11822 74.5502 0.980221L72.7704 0.542419L72.8561 0.490074C69.5916 13.8145 67.6215 21.7948 67.3788 22.6657L67.2693 22.5086Z" fill="#169579" stroke="#222221" stroke-width="0.475871" stroke-miterlimit="10"/>
<path d="M83.6297 80.0843L83.7677 79.9463C84.8478 78.8396 85.5765 77.4383 85.8624 75.9186C86.1482 74.3989 85.9785 72.8286 85.3744 71.4052C84.7703 69.9817 83.7589 68.7686 82.4672 67.9183C81.1756 67.0681 79.6615 66.6187 78.1151 66.6266C76.5688 66.6345 75.0593 67.0993 73.7764 67.9628C72.4936 68.8262 71.4946 70.0496 70.9051 71.4791C70.3156 72.9087 70.1619 74.4807 70.4633 75.9974C70.7647 77.5141 71.5077 78.9078 72.599 80.0034L72.6847 80.0843H54.0781V100.965L54.1543 100.88C54.8718 100.159 55.7245 99.5864 56.6636 99.1952C57.6026 98.8041 58.6095 98.602 59.6268 98.6004C60.9048 98.6007 62.1633 98.9144 63.2918 99.5142C64.4204 100.114 65.3846 100.981 66.1 102.04C66.8154 103.099 67.2601 104.318 67.3951 105.589C67.5301 106.86 67.3514 108.144 66.8745 109.33C66.3976 110.516 65.6371 111.566 64.6598 112.39C63.6824 113.213 62.518 113.784 61.2686 114.053C60.0191 114.322 58.7228 114.28 57.4932 113.932C56.2637 113.583 55.1384 112.938 54.2161 112.053L54.0781 111.915V135.861H75.0593C75.0593 135.861 76.011 127.871 76.9627 121.799C77.9145 115.727 91.5006 103.34 95.398 98.1721C96.9684 96.0926 100.847 89.2781 102.536 80.089L83.6297 80.0843Z" fill="#C3CAD4" stroke="#222221" stroke-width="0.475871" stroke-miterlimit="10"/>
<path d="M90.054 104.163C89.8203 103.635 89.411 103.205 88.8957 102.945C88.3804 102.684 87.7908 102.61 87.2273 102.736C86.4706 102.926 85.7997 103.483 85.005 103.402C84.6555 103.326 84.3299 103.165 84.0562 102.935C83.7826 102.704 83.5693 102.411 83.4346 102.079C83.111 101.441 82.9587 100.737 82.5542 100.128C82.3877 99.8113 82.1337 99.5491 81.8223 99.3728C81.511 99.1964 81.1555 99.1133 80.7983 99.1334C79.8798 99.2857 79.304 100.414 78.3713 100.433C78.0959 100.41 77.83 100.321 77.5964 100.174C77.3627 100.026 77.1682 99.8245 77.0294 99.5855C76.7201 99.1096 76.525 98.6004 76.2109 98.1579C75.6784 97.4698 74.8979 97.0174 74.0361 96.8974C73.1744 96.7773 72.3 96.9992 71.5997 97.5155C70.7098 97.9675 69.7581 99.4665 69.6296 100.989C69.2441 105.605 67.4453 106.438 67.4453 106.438C67.4444 107.97 66.9934 109.468 66.1485 110.746C65.3035 112.023 64.1018 113.025 62.6926 113.626C61.2834 114.226 59.7288 114.4 58.2218 114.124C56.7149 113.849 55.3219 113.137 54.2161 112.077L54.0781 111.939V135.885H75.0593C75.0593 135.885 76.011 127.895 76.9627 121.823L76.9295 121.666C76.9445 121.605 76.9556 121.543 76.9627 121.48C77.5671 117.121 90.054 104.163 90.054 104.163Z" fill="#C3CAD4" stroke="#C3CAD4" stroke-width="0.475871" stroke-miterlimit="10"/>
<path d="M83.6297 80.0842L102.555 80.0176H102.636V80.0937C101.878 84.1567 100.654 88.1184 98.986 91.9001C98.0384 94.1159 96.8715 96.2314 95.5026 98.2149C93.9703 100.209 92.1715 102.098 90.3299 104.092C88.4883 106.086 86.5801 108.123 84.6718 110.278C82.6794 112.484 80.8398 114.822 79.166 117.278C78.2835 118.537 77.6102 119.93 77.1721 121.404C76.8818 122.932 76.6962 124.516 76.4488 126.101C76.0015 129.284 75.5779 132.549 75.1782 135.866V135.975H53.9544V111.615L54.1637 111.825C55.0001 112.677 56.0251 113.32 57.156 113.703C58.2868 114.085 59.4918 114.197 60.6736 114.028C61.4516 113.927 62.2083 113.702 62.915 113.362C63.2666 113.194 63.6068 113.003 63.9334 112.791C64.2509 112.567 64.5545 112.324 64.8423 112.063C65.4076 111.538 65.889 110.93 66.2699 110.259C66.8364 109.277 67.179 108.183 67.2732 107.053C67.3675 105.924 67.211 104.787 66.815 103.725C66.419 102.663 65.7933 101.702 64.9825 100.909C64.1718 100.117 63.196 99.514 62.125 99.1428C61.4339 98.9008 60.7106 98.7629 59.9789 98.7336C59.2527 98.6897 58.5242 98.7571 57.8184 98.9335C56.4212 99.2791 55.1497 100.011 54.1494 101.046L53.9448 101.251V100.965C53.9448 93.6037 53.9448 86.6227 53.9448 80.0842V80.0033H54.0495H72.6561L72.599 80.1603C71.5792 79.1762 70.8443 77.9349 70.4718 76.5675C70.1293 75.27 70.1293 73.9058 70.4718 72.6083C70.9117 70.8697 71.932 69.3335 73.3639 68.2539C74.7959 67.1742 76.5535 66.616 78.346 66.6715C80.1385 66.727 81.8582 67.393 83.2206 68.5591C84.583 69.7253 85.5063 71.3217 85.8377 73.0842C85.902 73.4219 85.9418 73.7638 85.9567 74.1073C85.9777 74.4242 85.9777 74.7421 85.9567 75.059C85.8875 76.1001 85.6091 77.1165 85.1382 78.0475C84.8508 78.6183 84.4926 79.1507 84.0722 79.6321C83.9342 79.7939 83.8152 79.9129 83.7439 79.989L83.6202 80.1032L83.7344 79.9795C83.8057 79.8986 83.9152 79.7797 84.0532 79.6179C84.4635 79.1304 84.8134 78.5951 85.0953 78.0237C85.5507 77.0955 85.8176 76.0862 85.8805 75.0543C85.9043 74.7375 85.9043 74.4193 85.8805 74.1025C85.8616 73.7639 85.8203 73.4268 85.7568 73.0937C85.4262 71.3606 84.514 69.7923 83.1709 68.6481C81.8279 67.504 80.1346 66.8525 78.371 66.8014C76.6074 66.7504 74.8793 67.3028 73.4723 68.3674C72.0654 69.4319 71.0639 70.9448 70.6336 72.6559C70.3006 73.9272 70.3006 75.2629 70.6336 76.5342C71.0045 77.8652 71.7222 79.0738 72.7132 80.0366L72.875 80.1889H72.6561H54.0495L54.1542 80.0842C54.1542 86.6227 54.1542 93.6037 54.1542 100.965L53.9544 100.889C54.9912 99.8158 56.3113 99.0584 57.7613 98.705C58.4887 98.5227 59.2399 98.4537 59.9884 98.5004C60.7429 98.5278 61.4889 98.6689 62.2012 98.9192C63.3067 99.3007 64.3141 99.9219 65.1514 100.738C65.9887 101.555 66.6351 102.546 67.0443 103.642C67.4536 104.737 67.6156 105.91 67.5188 107.075C67.4219 108.24 67.0686 109.37 66.484 110.383C66.0886 111.076 65.5859 111.703 64.9946 112.239C64.695 112.512 64.377 112.765 64.0428 112.995C63.7062 113.215 63.3548 113.41 62.9911 113.581C62.2713 113.93 61.5001 114.161 60.707 114.266C59.9012 114.381 59.0824 114.37 58.28 114.233C56.6546 113.951 55.1575 113.169 53.9972 111.996L54.2113 111.91V119.153C54.2113 124.864 54.2113 130.503 54.2113 135.856L54.0923 135.733H75.0735L74.9545 135.842C75.3638 132.508 75.7921 129.25 76.2394 126.068C76.4726 124.473 76.6724 122.908 76.9675 121.347C77.4139 119.847 78.0984 118.428 78.9947 117.145C80.6791 114.683 82.5281 112.338 84.5291 110.126C86.4325 107.956 88.3598 105.91 90.2014 103.94C92.043 101.97 93.8466 100.061 95.3741 98.0864C96.7353 96.1149 97.8989 94.0141 98.848 91.8144C100.51 88.0514 101.738 84.1112 102.507 80.0699L102.569 80.1508L83.6297 80.0842Z" fill="#C3CAD4" stroke="#222221" stroke-width="0.475871" stroke-miterlimit="10"/>
<path d="M69.6676 95.0219C69.6686 95.3807 69.563 95.7317 69.3644 96.0305C69.1657 96.3293 68.8829 96.5624 68.5517 96.7004C68.2205 96.8383 67.8558 96.8749 67.5038 96.8055C67.1518 96.7361 66.8283 96.5638 66.5742 96.3104C66.3202 96.057 66.147 95.734 66.0767 95.3822C66.0063 95.0303 66.042 94.6655 66.1791 94.334C66.3162 94.0024 66.5485 93.7189 66.8468 93.5195C67.145 93.3201 67.4958 93.2136 67.8546 93.2136C68.3342 93.2149 68.7939 93.4056 69.1335 93.7444C69.4732 94.0831 69.6651 94.5423 69.6676 95.0219V95.0219Z" fill="#11273C" stroke="#222221" stroke-width="0.475871" stroke-miterlimit="10"/>
<g opacity="0.2">
<path d="M60.3499 114.1C58.5035 114.252 56.4573 113.505 55.5912 111.854L54.1636 112.477C54.1636 113.429 55.3485 115.299 56.2193 115.66C57.9616 116.437 59.9193 116.585 61.7585 116.079C62.6851 115.759 63.5147 115.207 64.1691 114.477C64.8235 113.747 65.2811 112.862 65.4988 111.906C63.8809 113.096 62.1963 113.947 60.3499 114.1Z" fill="#11273C" stroke="#222221" stroke-width="0.475871" stroke-miterlimit="10"/>
</g>
<path d="M43.2803 28.4571C45.281 28.1318 47.3296 28.5995 48.9908 29.761L49.1478 29.8752L45.6549 7.74243L43.4945 8.0803C35.9273 9.61353 28.8372 12.936 22.8168 17.7701C16.7964 22.6041 12.0208 28.8091 8.88913 35.8664C2.90743 49.0052 4.22083 61.0638 7.46152 70.2148L9.76474 69.8531L27.7051 67.0217L27.5909 67.1787C26.8611 68.2276 26.3997 69.4395 26.2471 70.7081C26.0946 71.9768 26.2554 73.2635 26.7157 74.4555C27.1759 75.6476 27.9214 76.7085 28.887 77.5455C29.8525 78.3825 31.0085 78.9699 32.2538 79.2562C33.4991 79.5426 34.7957 79.5192 36.0298 79.1881C37.2639 78.857 38.398 78.2283 39.3328 77.357C40.2675 76.4858 40.9743 75.3986 41.3912 74.1908C41.8081 72.9829 41.9225 71.6912 41.7242 70.4289C41.5594 69.4213 41.1966 68.4562 40.6567 67.5896C40.1168 66.723 39.4106 65.972 38.5787 65.3799L38.4788 65.3133L38.9785 65.2372L54.3205 62.815L50.8276 40.6917L50.761 40.7869C50.1663 41.6116 49.4146 42.3106 48.5489 42.8439C47.6833 43.3771 46.7208 43.7341 45.7168 43.8943C43.6697 44.2174 41.5781 43.7141 39.9021 42.495C38.2261 41.276 37.103 39.4411 36.7799 37.3939C36.4568 35.3468 36.9602 33.2552 38.1792 31.5792C39.3983 29.9033 41.2332 28.7802 43.2803 28.4571Z" fill="#C3CAD4" stroke="#222221" stroke-width="0.475871" stroke-miterlimit="10"/>
<path d="M43.2806 28.4572L42.7571 28.5762C42.5423 28.6221 42.3309 28.6825 42.1242 28.757C42.0005 28.7998 41.8672 28.8379 41.7245 28.8902L41.2772 29.0853C39.4186 29.9345 37.9713 31.4844 37.2513 33.3967C36.7342 34.763 36.6121 36.2472 36.8991 37.6796C37.2745 39.5332 38.315 41.1856 39.8244 42.3251C41.3339 43.4647 43.2081 44.0127 45.0936 43.8659C46.1911 43.7799 47.2566 43.4551 48.2154 42.9141C49.2271 42.3466 50.0974 41.5576 50.7613 40.6062L50.8802 40.4349L50.9135 40.6395C51.9462 47.1494 53.1263 54.592 54.4255 62.7627V62.8626H54.3256L38.4886 65.3752L38.5314 65.1659C39.7294 66.003 40.6717 67.1562 41.2534 68.497C41.5515 69.1756 41.7425 69.8964 41.8197 70.6336C41.9164 71.377 41.9035 72.1305 41.7816 72.8702C41.6542 73.6165 41.4252 74.3418 41.1011 75.0259C40.7658 75.7173 40.3349 76.3581 39.821 76.9294C39.2998 77.5013 38.6988 77.995 38.0365 78.3951C37.3662 78.795 36.6418 79.0963 35.8856 79.2897C35.1193 79.4732 34.3315 79.55 33.5443 79.5181C32.7498 79.4719 31.9661 79.3116 31.2173 79.0423C29.6989 78.4781 28.3878 77.4658 27.4579 76.1395C27.2249 75.8052 27.0151 75.4554 26.8297 75.0925C26.6556 74.7243 26.5077 74.3442 26.3872 73.9552C26.1366 73.1741 26.0129 72.358 26.0207 71.5378C26.031 69.8678 26.569 68.2438 27.5578 66.898L27.6768 67.0884L14.5856 69.1584L7.44749 70.2862H7.3428L7.3095 70.1911C5.92678 66.2942 5.05501 62.2345 4.716 58.1135C4.5552 56.0933 4.53453 54.0644 4.65413 52.0413C4.73979 51.0373 4.79689 50.0427 4.94917 49.0576C5.01579 48.5818 5.06339 48.0726 5.15381 47.5872C5.24422 47.1018 5.33463 46.6355 5.42504 46.131C6.17193 42.3455 7.39847 38.6707 9.07498 35.1955C9.49374 34.358 9.91728 33.5252 10.3313 32.702L10.6453 32.0786C10.7548 31.8787 10.8833 31.6836 10.9975 31.4885L11.7161 30.3131C11.9492 29.9229 12.1919 29.5326 12.4251 29.1472L12.7773 28.5666L13.1722 28.0146L14.7474 25.8399C15.0033 25.4785 15.2797 25.1322 15.5754 24.8025L16.4272 23.7984L17.2695 22.7991C17.555 22.4755 17.8738 22.1804 18.1736 21.8473C18.778 21.243 19.3633 20.6196 19.9772 20.039L21.8807 18.3782C24.3425 16.3276 26.994 14.5158 29.7991 12.9676C32.3911 11.5719 35.0975 10.4001 37.889 9.46518C40.403 8.6204 42.9926 8.01962 45.6219 7.67114H45.698V7.74728C47.2589 17.7834 48.4295 25.2926 49.1481 29.8896V29.98L49.0767 29.9276C47.8229 28.9993 46.3193 28.4688 44.7605 28.4048C44.3812 28.3914 44.0014 28.401 43.6232 28.4334L43.252 28.4762L43.6232 28.4144C44.0007 28.3712 44.3807 28.3537 44.7605 28.362C46.3318 28.4128 47.8512 28.9369 49.1195 29.8658L49.0577 29.9038C48.3534 25.2784 47.1447 17.7834 45.5505 7.75204L45.6409 7.81866C43.0178 8.1824 40.4361 8.79915 37.9318 9.66028C35.1537 10.5941 32.4614 11.7659 29.8848 13.1627C27.0932 14.7082 24.4546 16.5151 22.0044 18.5591L20.1247 20.2151C19.5108 20.7957 18.9303 21.4143 18.3259 22.0234C18.0309 22.3327 17.7168 22.6278 17.4313 22.9752L16.5937 23.965C16.3082 24.2981 16.0274 24.6312 15.7467 24.969C15.4526 25.2967 15.1762 25.6399 14.9187 25.9969L13.3578 28.1336L12.9628 28.6808L12.6107 29.2566C12.3775 29.6421 12.1348 30.0323 11.9064 30.4178C11.678 30.8032 11.4305 31.1982 11.1974 31.5884C11.0784 31.7883 10.9547 31.9786 10.8452 32.1833L10.5359 32.7971C10.1171 33.6204 9.70313 34.4532 9.28436 35.2859C7.61937 38.7387 6.40086 42.3894 5.65823 46.1501C5.56781 46.6259 5.48216 47.1018 5.39174 47.5777C5.30133 48.0535 5.25373 48.5294 5.18711 49.0386C5.03483 50.0189 4.97773 51.0135 4.89683 52.008C4.77725 54.02 4.79793 56.0378 4.9587 58.0468C5.29052 62.1758 6.15916 66.2438 7.54267 70.1482L7.40943 70.0673L14.5475 68.9348L27.6339 66.898L27.929 66.8552L27.7529 67.0931C27.0349 68.0622 26.5574 69.1879 26.3597 70.3776C26.1619 71.5673 26.2496 72.787 26.6156 73.9362C26.8366 74.6952 27.1876 75.41 27.653 76.049C28.5517 77.3365 29.8216 78.3193 31.2934 78.8662C32.0185 79.1324 32.7782 79.2926 33.549 79.3421C34.3139 79.3727 35.0794 79.2974 35.8237 79.1184C37.2893 78.747 38.6133 77.9527 39.6307 76.8342C40.127 76.2818 40.5449 75.6637 40.8727 74.9974C41.1862 74.3323 41.4087 73.628 41.5341 72.9035C41.6514 72.1858 41.6642 71.4549 41.5722 70.7336C41.4946 70.0185 41.3102 69.3191 41.025 68.6588C40.4619 67.3574 39.5514 66.2363 38.3934 65.4181L38.1602 65.2563L38.4362 65.2134L54.2732 62.7246L54.1875 62.8388C52.9074 54.6681 51.7368 47.2255 50.7184 40.7109L50.866 40.7442C50.1877 41.7242 49.2961 42.5377 48.2582 43.1235C47.2773 43.6689 46.1892 43.9937 45.0699 44.0753C43.1521 44.2192 41.2479 43.6565 39.7165 42.4933C38.185 41.33 37.1321 39.6466 36.7564 37.7605C36.6003 36.9983 36.5634 36.2165 36.6469 35.443C36.6812 35.0844 36.7385 34.7283 36.8182 34.377C36.9078 34.034 37.019 33.697 37.1514 33.3682C37.5773 32.2661 38.2458 31.274 39.1072 30.4654C39.7348 29.8737 40.457 29.3911 41.2438 29.0377L41.7197 28.8426C41.8625 28.7903 42.0005 28.7522 42.1242 28.7142C42.3318 28.6399 42.545 28.5826 42.7619 28.5428L43.2806 28.4572Z" fill="#222221" stroke="#222221" stroke-width="0.475871" stroke-miterlimit="10"/>
<path d="M46.7592 133.72H27.7815C27.7815 133.72 26.8297 125.73 25.878 119.658C24.9262 113.586 11.3449 101.199 7.44275 96.0355C5.87238 93.9559 1.99403 87.1367 0.304688 77.9524H18.226L18.088 78.0904C17.0107 79.1975 16.2846 80.5982 16.0009 82.1166C15.7172 83.6351 15.8885 85.2035 16.4933 86.6249C17.0981 88.0463 18.1094 89.2573 19.4002 90.1057C20.6911 90.9542 22.2038 91.4023 23.7485 91.3937C25.2932 91.3852 26.8009 90.9203 28.0823 90.0576C29.3637 89.1949 30.3615 87.9728 30.9506 86.5448C31.5396 85.1168 31.6935 83.5466 31.393 82.0314C31.0924 80.5162 30.3509 79.1236 29.2614 78.0285L29.1758 77.9524L46.6164 78.0809V98.9621C46.6164 98.9621 48.2439 96.4828 52.1699 96.5827C56.0958 96.6827 59.0605 99.476 59.6934 102.293C60.3263 105.11 59.7981 110.431 54.5064 111.858C49.2147 113.286 46.5593 109.564 46.5593 109.564L46.6164 133.834" fill="#169579"/>
<path d="M46.7592 133.72H27.7815C27.7815 133.72 26.8297 125.73 25.878 119.658C24.9262 113.586 11.3449 101.199 7.44275 96.0355C5.87238 93.9559 1.99403 87.1367 0.304688 77.9524H18.226L18.088 78.0904C17.0107 79.1975 16.2846 80.5982 16.0009 82.1166C15.7172 83.6351 15.8885 85.2035 16.4933 86.6249C17.0981 88.0463 18.1094 89.2573 19.4002 90.1057C20.6911 90.9542 22.2038 91.4023 23.7485 91.3937C25.2932 91.3852 26.8009 90.9203 28.0823 90.0576C29.3637 89.1949 30.3615 87.9728 30.9506 86.5448C31.5396 85.1168 31.6935 83.5466 31.393 82.0314C31.0924 80.5162 30.3509 79.1236 29.2614 78.0285L29.1758 77.9524L46.6164 78.0809V98.9621C46.6164 98.9621 48.2439 96.4828 52.1699 96.5827C56.0958 96.6827 59.0605 99.476 59.6934 102.293C60.3263 105.11 59.7981 110.431 54.5064 111.858C49.2147 113.286 46.5593 109.564 46.5593 109.564L46.6164 133.834" stroke="#222221" stroke-width="0.475871" stroke-miterlimit="10"/>
<path d="M46.5926 132.658C46.664 132.658 46.7211 132.925 46.7211 133.253C46.7211 133.582 46.664 133.848 46.5973 133.848C46.5307 133.848 46.4736 133.582 46.4736 133.253C46.4736 132.925 46.526 132.658 46.5926 132.658Z" fill="#1A2E35"/>
<path d="M46.5829 127.79C46.7042 128.184 46.7478 128.598 46.7114 129.009C46.7533 129.417 46.7112 129.83 46.5876 130.222C46.4259 129.419 46.4259 128.593 46.5876 127.79H46.5829Z" fill="#1A2E35"/>
<path d="M46.5687 122.922C46.6955 123.315 46.7392 123.73 46.6972 124.141C46.7363 124.549 46.6959 124.961 46.5782 125.354C46.4512 124.963 46.4074 124.55 46.4497 124.141C46.4108 123.731 46.4512 123.317 46.5687 122.922Z" fill="#1A2E35"/>
<path d="M46.5592 118.073C46.6805 118.467 46.7241 118.881 46.6877 119.291C46.7288 119.701 46.6868 120.116 46.564 120.509C46.4435 120.115 46.4014 119.701 46.4403 119.291C46.3985 118.881 46.439 118.467 46.5592 118.073V118.073Z" fill="#1A2E35"/>
<path d="M46.5495 113.186C46.67 113.58 46.712 113.994 46.6732 114.404C46.715 114.814 46.6745 115.228 46.5542 115.622C46.428 115.229 46.3843 114.815 46.4257 114.404C46.3841 113.994 46.4262 113.579 46.5495 113.186Z" fill="#1A2E35"/>
<path d="M47.3587 110.421C47.3587 110.445 47.2159 110.383 47.0399 110.25C46.9385 110.171 46.8431 110.085 46.7543 109.993C46.6985 109.941 46.646 109.885 46.5973 109.826L46.5164 109.736L46.4783 109.688V109.66L46.702 109.588C46.7436 109.989 46.7015 110.394 46.5782 110.778C46.4576 110.394 46.4156 109.989 46.4545 109.588L46.6782 109.512V109.536L46.7115 109.584L46.7876 109.669L46.9256 109.841L47.1683 110.121C47.3016 110.283 47.3825 110.393 47.3587 110.421Z" fill="#1A2E35"/>
<path d="M51.5795 112.168C51.1906 112.262 50.783 112.244 50.4041 112.115C50.0082 112.06 49.6357 111.895 49.3286 111.639C49.7204 111.669 50.1062 111.753 50.4754 111.887C50.8544 111.93 51.2258 112.025 51.5795 112.168V112.168Z" fill="#1A2E35"/>
<path d="M56.0816 111.249C55.7991 111.532 55.443 111.73 55.0537 111.82C54.6888 111.98 54.2887 112.042 53.8926 112.001C53.8926 111.925 54.3685 111.787 54.9728 111.582C55.3256 111.421 55.6986 111.309 56.0816 111.249Z" fill="#1A2E35"/>
<path d="M59.1791 107.904C59.1372 108.301 58.9838 108.679 58.7366 108.993C58.3844 109.55 57.9704 109.893 57.9229 109.845C58.0858 109.495 58.2886 109.164 58.5272 108.86C58.8698 108.332 59.1125 107.875 59.1791 107.904Z" fill="#1A2E35"/>
<path d="M59.8407 103.345C59.9976 103.712 60.055 104.114 60.0073 104.511C60.041 104.909 59.967 105.308 59.7931 105.667C59.7328 104.893 59.7487 104.116 59.8407 103.345V103.345Z" fill="#1A2E35"/>
<path d="M57.9704 99.1907C58.018 99.1478 58.4463 99.4857 58.7984 100.028C59.0583 100.335 59.2236 100.71 59.2743 101.108C59.2077 101.137 58.9555 100.69 58.5986 100.157C58.2417 99.6237 57.9181 99.243 57.9704 99.1907Z" fill="#1A2E35"/>
<path d="M54.0254 96.8491C54.4239 96.8294 54.8203 96.9182 55.1722 97.1061C55.7766 97.3583 56.2001 97.6867 56.162 97.7438C55.7837 97.6566 55.4187 97.5189 55.077 97.3345C54.7046 97.2252 54.3502 97.0617 54.0254 96.8491V96.8491Z" fill="#1A2E35"/>
<path d="M49.4385 96.9681C49.7624 96.7319 50.1471 96.5932 50.5473 96.5684C50.9313 96.458 51.3386 96.458 51.7227 96.5684C51.3559 96.6967 50.9732 96.7736 50.5853 96.7968C50.212 96.9031 49.8265 96.9606 49.4385 96.9681V96.9681Z" fill="#1A2E35"/>
<path d="M46.5975 97.7629C46.7181 98.1472 46.7602 98.5518 46.7212 98.9526L46.4928 98.886V98.8622L46.5309 98.8099L46.6118 98.7147C46.6641 98.6528 46.7165 98.6005 46.7688 98.5481C46.8575 98.4556 46.953 98.3697 47.0543 98.2911C47.2304 98.1579 47.3541 98.096 47.3779 98.1246C47.4017 98.1532 47.316 98.2578 47.178 98.4196C47.04 98.5814 47.0067 98.6195 46.9353 98.7004L46.7974 98.8717L46.7307 98.9574L46.6926 99.005L46.4642 98.9336C46.4309 98.5384 46.4762 98.1405 46.5975 97.7629V97.7629Z" fill="#1A2E35"/>
<path d="M46.5973 92.4761C46.7622 93.3503 46.7622 94.2477 46.5973 95.1219C46.4324 94.2477 46.4324 93.3503 46.5973 92.4761V92.4761Z" fill="#1A2E35"/>
<path d="M46.5973 87.189C46.7622 88.0632 46.7622 88.9606 46.5973 89.8348C46.4324 88.9606 46.4324 88.0632 46.5973 87.189V87.189Z" fill="#1A2E35"/>
<path d="M46.5973 81.907C46.7622 82.7812 46.7622 83.6786 46.5973 84.5528C46.4324 83.6786 46.4324 82.7812 46.5973 81.907V81.907Z" fill="#1A2E35"/>
<path d="M45.4077 78.062C45.7926 77.9447 46.1972 77.9058 46.5974 77.9477L46.7211 78.0715V78.3046C46.7211 78.376 46.7211 78.4474 46.7211 78.5283C46.7211 78.6092 46.7211 78.7996 46.6926 78.9043C46.6926 79.1232 46.6402 79.2564 46.6069 79.2564C46.5736 79.2564 46.5403 79.1232 46.5213 78.9043C46.5213 78.7996 46.5213 78.6711 46.4927 78.5283V78.3046V78.1L46.6164 78.2238C46.2067 78.2531 45.7953 78.198 45.4077 78.062V78.062Z" fill="#1A2E35"/>
<path d="M41.106 78.0285C41.4516 77.9114 41.8189 77.8724 42.1814 77.9142C42.5454 77.8753 42.9134 77.9209 43.2569 78.0475C42.9095 78.1642 42.5408 78.2032 42.1767 78.1617C41.8143 78.1999 41.4479 78.1543 41.106 78.0285Z" fill="#1A2E35"/>
<path d="M36.7993 78.0001C37.1439 77.8784 37.5119 77.8377 37.8748 77.8811C38.2387 77.8454 38.6061 77.8909 38.9503 78.0144C38.6046 78.1315 38.2373 78.1705 37.8748 78.1286C37.5112 78.1645 37.1442 78.1206 36.7993 78.0001V78.0001Z" fill="#1A2E35"/>
<path d="M32.4971 77.9667C32.8427 77.8496 33.21 77.8106 33.5725 77.8525C33.9361 77.8166 34.3031 77.8605 34.648 77.981C34.3037 78.1037 33.9354 78.1444 33.5725 78.0999C33.2086 78.1357 32.8413 78.0902 32.4971 77.9667Z" fill="#1A2E35"/>
<path d="M29.9466 78.8281C29.918 78.8519 29.8038 78.771 29.6515 78.6235C29.5706 78.5521 29.4802 78.4617 29.3851 78.3618L29.2375 78.2L29.1614 78.1143L29.1138 78.0762C29.0424 78.2714 29.2185 77.8145 29.1995 77.8621C29.601 77.8234 30.0061 77.8688 30.3891 77.9953C30.0024 78.1119 29.5965 78.1507 29.1947 78.1096C29.1947 78.1571 29.3565 77.7003 29.2804 77.8954H29.3042L29.347 77.9382L29.4279 78.0334L29.5706 78.2095L29.8038 78.514C29.9085 78.6901 29.9704 78.8091 29.9466 78.8281Z" fill="#1A2E35"/>
<path d="M31.5124 83.0872C31.3735 82.7298 31.2838 82.3552 31.2459 81.9736C31.1299 81.6067 31.0642 81.2257 31.0508 80.8411C31.2962 81.1523 31.4481 81.527 31.4886 81.9213C31.6086 82.2995 31.6169 82.7044 31.5124 83.0872Z" fill="#1A2E35"/>
<path d="M30.4224 87.4984C30.5036 87.1226 30.6382 86.7605 30.8221 86.4229C30.9324 86.0539 31.0925 85.7017 31.298 85.376C31.3242 85.7723 31.2385 86.1681 31.0505 86.5181C30.9383 86.8978 30.7204 87.2377 30.4224 87.4984V87.4984Z" fill="#1A2E35"/>
<path d="M27.0628 90.5582C27.0343 90.4916 27.4768 90.2346 28.0146 89.8825C28.5523 89.5303 28.9378 89.2258 28.9663 89.2781C28.9949 89.3304 28.6713 89.7302 28.1335 90.0871C27.8271 90.3402 27.4565 90.5033 27.0628 90.5582V90.5582Z" fill="#1A2E35"/>
<path d="M22.5703 91.2292C23.3355 91.1752 24.1036 91.1752 24.8688 91.2292C24.5038 91.3787 24.1114 91.45 23.7172 91.4386C23.3243 91.4511 22.9334 91.3797 22.5703 91.2292V91.2292Z" fill="#1A2E35"/>
<path d="M18.4639 89.2877C18.5115 89.2354 18.9397 89.5495 19.4156 89.8921C19.8915 90.2347 20.3674 90.5012 20.3674 90.5631C19.972 90.5111 19.6001 90.3458 19.2966 90.0872C18.7589 89.7398 18.4163 89.3353 18.4639 89.2877Z" fill="#1A2E35"/>
<path d="M16.1273 85.395C16.3318 85.7213 16.4918 86.0733 16.6032 86.4419C16.7904 86.7784 16.9268 87.1409 17.0077 87.5174C16.7104 87.2552 16.4913 86.9159 16.3747 86.5371C16.185 86.1878 16.0992 85.7915 16.1273 85.395V85.395Z" fill="#1A2E35"/>
<path d="M16.346 80.8601C16.3388 81.2446 16.2763 81.626 16.1605 81.9927C16.1261 82.3754 16.0396 82.7516 15.9035 83.111C15.7939 82.7301 15.7939 82.326 15.9035 81.9451C15.9478 81.5494 16.101 81.1738 16.346 80.8601V80.8601Z" fill="#1A2E35"/>
<path d="M17.0171 77.943C17.4013 77.8224 17.8059 77.7803 18.2068 77.8192C18.2448 77.9144 18.1211 77.6099 18.2972 78.0286L18.2544 78.0715L18.1735 78.1571L18.0259 78.3189C17.9308 78.4236 17.8403 78.514 17.7642 78.5854C17.6072 78.7377 17.4977 78.8186 17.4692 78.7995C17.4406 78.7805 17.5025 78.6568 17.6262 78.4759C17.6881 78.3855 17.769 78.2808 17.8546 78.1666C17.9403 78.0524 17.9498 78.0429 17.9974 77.9906C18.0218 77.9582 18.0489 77.928 18.0783 77.9001L18.1211 77.8573V77.8335C18.2972 78.2523 18.1687 77.9477 18.2068 78.0429C17.8075 78.0896 17.403 78.0556 17.0171 77.943V77.943Z" fill="#1A2E35"/>
<path d="M12.8818 77.9428C12.8818 77.8762 13.1483 77.8191 13.4767 77.8191C13.805 77.8191 14.0715 77.8762 14.0715 77.9428C14.0715 78.0094 13.805 78.0665 13.4767 78.0665C13.1483 78.0665 12.8818 78.0094 12.8818 77.9428Z" fill="#1A2E35"/>
<path d="M46.8209 133.72H46.4783H45.4837L41.6768 133.748L27.848 133.791H27.7623V133.701C27.2864 129.808 26.7059 125.387 25.9826 120.628C25.8017 118.206 24.4074 116.036 22.9513 113.966C21.3983 111.841 19.7369 109.796 17.9737 107.842C15.6371 105.201 13.2673 102.707 11.0259 100.266C9.90764 99.0477 8.81788 97.8437 7.81856 96.6065C7.32651 95.9926 6.87506 95.3472 6.46708 94.6744C6.06101 94.0114 5.68349 93.3468 5.33452 92.6805C4.02263 90.1793 2.92421 87.5718 2.051 84.8858C1.30071 82.6153 0.709205 80.2954 0.280762 77.9428V77.8477H0.380705L9.33658 77.8857H11.7159H12.3346C12.4059 77.8815 12.4774 77.8815 12.5487 77.8857C12.4774 77.8899 12.4059 77.8899 12.3346 77.8857H11.7159H9.33658L0.380705 77.9238L0.461595 77.8286C0.902578 80.1702 1.50358 82.4789 2.26039 84.7383C3.14288 87.4085 4.2443 90.0012 5.55342 92.4902C5.90556 93.1517 6.27675 93.8131 6.68599 94.4651C7.08668 95.13 7.5335 95.7661 8.02319 96.3685C9.013 97.5963 10.1075 98.7955 11.2258 100.014C13.4671 102.445 15.837 104.939 18.1783 107.59C19.9469 109.55 21.6131 111.601 23.1702 113.733C23.9166 114.765 24.5877 115.85 25.1783 116.979C25.4622 117.536 25.6978 118.117 25.8826 118.715C26.0429 119.307 26.1606 119.91 26.2348 120.519C26.9486 125.278 27.5053 129.699 27.9765 133.605L27.8765 133.515L41.7053 133.558L45.5123 133.586H46.5069L46.8209 133.72Z" fill="#1A2E35"/>
<path d="M45.5693 133.72C45.5693 133.653 45.8358 133.596 46.1642 133.596C46.4925 133.596 46.759 133.653 46.759 133.72C46.759 133.786 46.4925 133.843 46.1642 133.843C45.8358 133.843 45.5693 133.777 45.5693 133.72Z" fill="#1A2E35"/>
<path d="M40.8296 133.72C41.614 133.553 42.4245 133.553 43.2089 133.72C42.4245 133.886 41.614 133.886 40.8296 133.72Z" fill="#1A2E35"/>
<path d="M36.0854 133.72C36.8698 133.553 37.6804 133.553 38.4648 133.72C37.6804 133.886 36.8698 133.886 36.0854 133.72V133.72Z" fill="#1A2E35"/>
<path d="M31.3457 133.72C32.1301 133.553 32.9407 133.553 33.7251 133.72C32.9407 133.886 32.1301 133.886 31.3457 133.72Z" fill="#1A2E35"/>
<path d="M27.6338 132.54C27.6671 132.54 27.7147 132.663 27.7623 132.877C27.7861 132.982 27.8146 133.111 27.8384 133.249C27.8622 133.387 27.8384 133.401 27.8718 133.472V133.591V133.648V133.696L27.748 133.582C28.1473 133.542 28.5504 133.585 28.933 133.705C28.5511 133.83 28.1473 133.872 27.748 133.829V133.829C27.748 133.582 27.591 133.777 27.6291 133.72V133.61V133.496V133.272C27.6291 133.134 27.6291 133.006 27.6291 132.896C27.591 132.682 27.6053 132.544 27.6338 132.54Z" fill="#1A2E35"/>
<path d="M27.0106 127.643C27.2835 128.428 27.392 129.26 27.3294 130.089C27.0626 129.303 26.9543 128.471 27.0106 127.643V127.643Z" fill="#1A2E35"/>
<path d="M26.3346 122.746C26.6131 123.537 26.7312 124.375 26.682 125.211C26.5034 124.834 26.4031 124.424 26.387 124.007C26.2875 123.594 26.2698 123.166 26.3346 122.746V122.746Z" fill="#1A2E35"/>
<path d="M25.3447 117.926C25.6151 118.251 25.7956 118.641 25.8682 119.058C26.0024 119.459 26.0383 119.887 25.9729 120.305C25.7997 119.929 25.6842 119.53 25.6303 119.12C25.4842 118.736 25.3883 118.334 25.3447 117.926V117.926Z" fill="#1A2E35"/>
<path d="M22.8179 113.69C22.875 113.647 23.2271 114.076 23.6078 114.642C23.8756 114.963 24.0748 115.335 24.1931 115.736C24.136 115.775 23.7839 115.341 23.4032 114.785C23.1422 114.459 22.9437 114.088 22.8179 113.69V113.69Z" fill="#1A2E35"/>
<path d="M19.7583 109.812C19.8106 109.769 20.2056 110.159 20.6387 110.687C21.0717 111.216 21.381 111.677 21.3239 111.72C21.2668 111.763 20.8766 111.373 20.4483 110.844C20.1527 110.549 19.9183 110.198 19.7583 109.812V109.812Z" fill="#1A2E35"/>
<path d="M16.4937 106.105C16.546 106.057 16.9695 106.433 17.4121 106.942C17.8546 107.452 18.1973 107.894 18.1449 107.947C18.0926 107.999 17.6691 107.613 17.2265 107.109C16.9214 106.823 16.6728 106.483 16.4937 106.105V106.105Z" fill="#1A2E35"/>
<path d="M13.1484 102.474C13.196 102.427 13.6243 102.793 14.0764 103.293C14.3891 103.57 14.6446 103.907 14.8282 104.282C14.7759 104.33 14.3524 103.964 13.8765 103.464C13.4006 102.964 13.0961 102.517 13.1484 102.474Z" fill="#1A2E35"/>
<path d="M9.79834 98.8383C9.85069 98.7908 10.2742 99.1619 10.7501 99.6664C11.226 100.171 11.54 100.618 11.4877 100.661C11.4353 100.704 11.0118 100.337 10.5645 99.8329C10.2474 99.5538 9.98728 99.2161 9.79834 98.8383V98.8383Z" fill="#1A2E35"/>
<path d="M7.43302 96.0355C7.49012 95.9926 7.69951 96.1687 7.90889 96.4209C8.11827 96.6731 8.23725 96.9206 8.1849 96.9634C8.13256 97.0063 7.92317 96.8349 7.70903 96.578C7.49489 96.321 7.38067 96.0735 7.43302 96.0355Z" fill="#1A2E35"/>
</g>
<defs>
<clipPath id="clip0_397_294">
<rect width="110.921" height="156" fill="white"/>
</clipPath>
</defs>
</svg>
