<svg width="32" height="28" viewBox="0 0 32 28" fill="none" xmlns="http://www.w3.org/2000/svg">
<path d="M30.589 24.5899L24.7604 19.6502C26.641 17.6138 27.6614 15.099 27.6576 12.5102C27.6576 10.2046 26.8533 7.95082 25.3463 6.03381C23.8394 4.11681 21.6975 2.62268 19.1915 1.74038C16.6856 0.858078 13.9281 0.627228 11.2678 1.07702C8.60746 1.52681 6.16381 2.63705 4.24583 4.26733C2.32785 5.89761 1.02169 7.97472 0.492526 10.236C-0.0366425 12.4972 0.234946 14.8411 1.27295 16.9712C2.31095 19.1012 4.06874 20.9218 6.32405 22.2027C8.57935 23.4836 11.2309 24.1673 13.9433 24.1673C16.989 24.1705 19.9475 23.3032 22.3433 21.7047L28.1547 26.659C28.3141 26.7956 28.5037 26.904 28.7126 26.978C28.9215 27.052 29.1456 27.0901 29.3719 27.0901C29.5982 27.0901 29.8222 27.052 30.0311 26.978C30.24 26.904 30.4296 26.7956 30.589 26.659C30.7497 26.5236 30.8772 26.3624 30.9643 26.1848C31.0513 26.0073 31.0961 25.8168 31.0961 25.6245C31.0961 25.4321 31.0513 25.2416 30.9643 25.0641C30.8772 24.8865 30.7497 24.7253 30.589 24.5899V24.5899ZM3.65758 12.5102C3.65758 10.781 4.26083 9.09066 5.39104 7.6529C6.52125 6.21515 8.12766 5.09455 10.0071 4.43283C11.8866 3.7711 13.9547 3.59796 15.9499 3.93531C17.9452 4.27265 19.7779 5.10533 21.2164 6.32804C22.6549 7.55075 23.6345 9.10858 24.0314 10.8045C24.4283 12.5005 24.2246 14.2584 23.4461 15.8559C22.6676 17.4535 21.3492 18.8189 19.6577 19.7796C17.9663 20.7403 15.9776 21.253 13.9433 21.253C11.2154 21.253 8.59914 20.3319 6.6702 18.6923C4.74125 17.0527 3.65758 14.8289 3.65758 12.5102Z" fill="#EEFEFB"/>
</svg>
