<svg width="111" height="156" viewBox="0 0 111 156" fill="none" xmlns="http://www.w3.org/2000/svg">
<g clip-path="url(#clip0_379_294)">
<path d="M74.5404 141.015H37.7842C36.3334 141.015 35.1573 142.191 35.1573 143.642V143.851C35.1573 145.302 36.3334 146.478 37.7842 146.478H74.5404C75.9912 146.478 77.1672 145.302 77.1672 143.851V143.642C77.1672 142.191 75.9912 141.015 74.5404 141.015Z" fill="#0C695B" stroke="#222221" stroke-width="0.475871" stroke-miterlimit="10"/>
<path d="M45.2411 149.742H67.883C67.883 149.742 64.8708 155.762 56.0957 155.762C46.9352 155.762 45.2411 149.742 45.2411 149.742Z" fill="#0C695B" stroke="#222221" stroke-width="0.475871" stroke-miterlimit="10"/>
<path d="M67.2691 22.5087C66.4331 21.174 65.2212 20.1162 63.7858 19.4681C62.3505 18.8201 60.7556 18.6107 59.2015 18.8662C57.6475 19.1218 56.2036 19.8309 55.0514 20.9045C53.8991 21.9782 53.0898 23.3684 52.7252 24.9005C52.3606 26.4326 52.457 28.0383 53.0021 29.5159C53.5473 30.9934 54.5169 32.2769 55.7892 33.2051C57.0616 34.1332 58.5799 34.6647 60.1533 34.7326C61.7268 34.8006 63.2852 34.402 64.6328 33.587L64.7328 33.5156L59.3221 55.696L76.758 59.9502L76.6866 59.8503C75.8853 58.5087 75.4972 56.9605 75.5711 55.3995C75.6449 53.8385 76.1774 52.3339 77.1019 51.0739C78.0263 49.8139 79.3017 48.8545 80.7686 48.3156C82.2355 47.7766 83.8287 47.6821 85.349 48.0439C86.8693 48.4057 88.2492 49.2077 89.3161 50.3496C90.383 51.4915 91.0896 52.9226 91.3474 54.464C91.6052 56.0053 91.4029 57.5885 90.7657 59.0154C90.1285 60.4424 89.0847 61.6498 87.7649 62.4866L87.5984 62.5913L106.338 67.1597C110.388 58.1181 112.739 45.9977 107.766 32.1499C105.179 24.7171 100.851 18.0116 95.1427 12.5939C89.4344 7.17625 82.5121 3.20386 74.9545 1.00887L72.7845 0.485413L67.3738 22.6753L67.2691 22.5087Z" fill="#169579" stroke="#222221" stroke-width="0.475871" stroke-miterlimit="10"/>
<path d="M67.2691 22.5087C67.3102 22.561 67.3468 22.6167 67.3786 22.6752V22.6752C67.5689 21.7949 69.4962 13.786 72.7226 0.466341V0.399719H72.794L74.5785 0.832762C75.1876 0.975523 75.7919 1.18015 76.4106 1.36574C77.6383 1.77023 78.8946 2.2223 80.1604 2.76004C82.8532 3.87949 85.4411 5.23631 87.8933 6.81446C93.5889 10.4226 98.4625 15.1875 102.198 20.8003C102.707 21.5522 103.15 22.3516 103.626 23.1368C103.864 23.5318 104.102 23.9268 104.344 24.3265C104.587 24.7262 104.763 25.1593 104.977 25.578L106.262 28.1335C106.619 29.0138 106.976 29.9037 107.342 30.7984C108.819 34.4917 109.826 38.3559 110.34 42.3002C110.857 46.446 110.796 50.6436 110.159 54.7727C110.017 55.8292 109.779 56.8761 109.569 57.9278C109.36 58.9794 109.06 60.0263 108.736 61.0637C108.108 63.1622 107.343 65.2176 106.448 67.2168L106.409 67.3119H106.31L93.2279 64.1236L87.565 62.7388L87.2747 62.6674L87.5317 62.5151C88.9309 61.6734 90.0323 60.4156 90.6819 58.9176C91.0018 58.1795 91.2041 57.396 91.2815 56.5953C91.3722 55.8012 91.3337 54.9977 91.1673 54.216C91.0851 53.829 90.9786 53.4475 90.8485 53.0739C90.7056 52.7041 90.537 52.3447 90.3441 51.9984C89.9702 51.3048 89.4883 50.6751 88.9165 50.133C88.081 49.334 87.0791 48.7297 85.9827 48.3634C84.8862 47.9971 83.7223 47.8779 82.5743 48.0144C81.4263 48.1508 80.3228 48.5395 79.3427 49.1526C78.3627 49.7657 77.5304 50.588 76.9055 51.5606C76.4985 52.1883 76.1873 52.8731 75.9823 53.5926C75.762 54.2996 75.6513 55.0362 75.6539 55.7768C75.6613 57.2443 76.0801 58.6802 76.8627 59.9217L77.0149 60.1691L76.7389 60.0977L59.3078 55.8149H59.2031V55.7102C61.1875 47.6204 63.01 40.1825 64.628 33.5346L64.766 33.6298C63.5519 34.3949 62.1555 34.822 60.7211 34.867C59.3617 34.9004 58.0164 34.5842 56.8142 33.9486C55.3761 33.1997 54.1986 32.0326 53.437 30.6012C52.6754 29.1698 52.3654 27.5412 52.5478 25.93C52.7301 24.3189 53.3964 22.8008 54.4588 21.5759C55.5211 20.3509 56.9296 19.4766 58.4988 19.0681C59.2443 18.8848 60.0107 18.8 60.7782 18.8159C61.4511 18.8475 62.1183 18.9545 62.7674 19.1348C64.4158 19.6112 65.8631 20.614 66.8884 21.99C67.0232 22.1652 67.1457 22.3497 67.2548 22.542L67.1596 22.404C67.0978 22.3136 67.0026 22.1803 66.8694 22.009C66.476 21.4977 66.0222 21.036 65.5179 20.6338C64.6995 19.9773 63.7577 19.4919 62.7483 19.2061C62.1052 19.0299 61.4444 18.9261 60.7782 18.8968C60.0182 18.8865 59.26 18.9745 58.5226 19.1585C56.7889 19.6312 55.262 20.6676 54.1826 22.1042C53.5034 23.0214 53.0313 24.075 52.7988 25.1923C52.5662 26.3097 52.5789 27.4642 52.8359 28.5762C53.0928 29.6882 53.588 30.7312 54.2871 31.6332C54.9863 32.5353 55.8728 33.2749 56.8856 33.8011C58.0578 34.4177 59.3684 34.7241 60.6925 34.691C62.0933 34.6434 63.4564 34.2246 64.6423 33.4775L64.8326 33.3585L64.7803 33.5727C63.1623 40.2349 61.3588 47.6442 59.3887 55.7578L59.3078 55.6293L76.7437 59.8693L76.6485 60.0168C75.8345 58.7364 75.4005 57.2513 75.397 55.734C75.3912 54.971 75.5036 54.2117 75.7301 53.4831C75.9395 52.741 76.2604 52.035 76.6818 51.3893C77.3279 50.3901 78.1864 49.5457 79.1961 48.9164C80.2059 48.287 81.342 47.8881 82.5236 47.7481C83.7052 47.6081 84.9031 47.7305 86.032 48.1066C87.1608 48.4826 88.1929 49.103 89.0545 49.9236C89.6435 50.4775 90.1428 51.1197 90.5344 51.8271C90.7322 52.1845 90.9055 52.555 91.0531 52.9359C91.1914 53.3207 91.3011 53.7151 91.3815 54.116C91.5536 54.9227 91.5953 55.7517 91.5052 56.5715C91.3822 57.8201 90.9682 59.0224 90.2963 60.0819C89.6243 61.1414 88.7133 62.0286 87.6364 62.6722L87.6031 62.4485L93.2659 63.8285L106.343 67.0169L106.2 67.0883C107.098 65.0999 107.868 63.0558 108.503 60.9686C108.827 59.9359 109.074 58.889 109.331 57.8516C109.588 56.8142 109.779 55.7625 109.917 54.7109C110.557 50.6045 110.621 46.429 110.107 42.3049C109.597 38.3792 108.598 34.5328 107.133 30.8555L106.057 28.2001C105.639 27.3483 105.215 26.506 104.801 25.6732C104.592 25.2545 104.392 24.8357 104.173 24.4264L103.459 23.2415C102.983 22.4611 102.536 21.6616 102.031 20.9145C98.3169 15.3212 93.4715 10.5682 87.8077 6.96198C85.3661 5.38689 82.7894 4.03168 80.1081 2.91232C78.847 2.37458 77.5955 1.91775 76.3725 1.51326C75.7539 1.32767 75.159 1.11828 74.5499 0.980282L72.7701 0.54248L72.8558 0.490135C69.5914 13.8145 67.6212 21.7949 67.3786 22.6657L67.2691 22.5087Z" fill="#169579" stroke="#222221" stroke-width="0.475871" stroke-miterlimit="10"/>
<path d="M83.6296 80.0843L83.7676 79.9463C84.8476 78.8397 85.5764 77.4384 85.8623 75.9187C86.1481 74.399 85.9784 72.8287 85.3743 71.4052C84.7702 69.9817 83.7587 68.7686 82.4671 67.9184C81.1755 67.0681 79.6613 66.6187 78.115 66.6266C76.5687 66.6345 75.0592 67.0994 73.7763 67.9628C72.4934 68.8262 71.4945 70.0496 70.905 71.4792C70.3155 72.9088 70.1617 74.4807 70.4631 75.9974C70.7645 77.5141 71.5076 78.9079 72.5989 80.0034L72.6845 80.0843H54.078V100.966L54.1541 100.88C54.8717 100.159 55.7244 99.5864 56.6634 99.1953C57.6025 98.8042 58.6094 98.602 59.6266 98.6005C60.9047 98.6007 62.1631 98.9145 63.2917 99.5142C64.4203 100.114 65.3845 100.981 66.0999 102.04C66.8153 103.1 67.26 104.318 67.395 105.589C67.53 106.86 67.3512 108.144 66.8744 109.33C66.3975 110.516 65.637 111.566 64.6597 112.39C63.6823 113.213 62.5179 113.784 61.2684 114.053C60.019 114.322 58.7227 114.28 57.4931 113.932C56.2636 113.583 55.1383 112.938 54.216 112.053L54.078 111.915V135.861H75.0591C75.0591 135.861 76.0109 127.871 76.9626 121.799C77.9144 115.727 91.5005 103.34 95.3979 98.1722C96.9683 96.0926 100.847 89.2781 102.536 80.0891L83.6296 80.0843Z" fill="#C3CAD4" stroke="#222221" stroke-width="0.475871" stroke-miterlimit="10"/>
<path d="M90.0538 104.163C89.8202 103.635 89.4109 103.205 88.8956 102.945C88.3803 102.684 87.7907 102.61 87.2272 102.736C86.4705 102.926 85.7996 103.483 85.0048 103.402C84.6554 103.326 84.3297 103.165 84.0561 102.935C83.7825 102.704 83.5692 102.411 83.4345 102.079C83.1109 101.441 82.9586 100.737 82.5541 100.128C82.3876 99.8113 82.1336 99.5491 81.8222 99.3728C81.5109 99.1964 81.1554 99.1133 80.7981 99.1334C79.8797 99.2857 79.3039 100.414 78.3712 100.433C78.0958 100.41 77.8299 100.321 77.5962 100.174C77.3626 100.026 77.168 99.8245 77.0292 99.5855C76.7199 99.1096 76.5248 98.6004 76.2108 98.1579C75.6783 97.4698 74.8977 97.0174 74.036 96.8974C73.1743 96.7773 72.2998 96.9992 71.5996 97.5155C70.7097 97.9675 69.7579 99.4665 69.6295 100.989C69.244 105.605 67.4452 106.438 67.4452 106.438C67.4442 107.97 66.9933 109.468 66.1483 110.746C65.3034 112.023 64.1017 113.025 62.6925 113.626C61.2833 114.226 59.7286 114.4 58.2217 114.124C56.7147 113.849 55.3218 113.137 54.216 112.077L54.078 111.939V135.885H75.0591C75.0591 135.885 76.0109 127.895 76.9626 121.823L76.9293 121.666C76.9444 121.605 76.9555 121.543 76.9626 121.48C77.567 117.121 90.0538 104.163 90.0538 104.163Z" fill="#C3CAD4" stroke="#C3CAD4" stroke-width="0.475871" stroke-miterlimit="10"/>
<path d="M83.6295 80.0843L102.555 80.0177H102.636V80.0939C101.878 84.1568 100.653 88.1186 98.9859 91.9002C98.0383 94.1161 96.8714 96.2315 95.5025 98.215C93.9702 100.209 92.1714 102.098 90.3298 104.092C88.4882 106.086 86.5799 108.123 84.6717 110.278C82.6793 112.484 80.8397 114.822 79.1659 117.278C78.2834 118.537 77.6101 119.931 77.172 121.404C76.8817 122.932 76.6961 124.516 76.4487 126.101C76.0013 129.285 75.5778 132.549 75.1781 135.866V135.975H53.9542V111.616L54.1636 111.825C55 112.677 56.025 113.32 57.1558 113.703C58.2867 114.086 59.4917 114.197 60.6735 114.028C61.4514 113.927 62.2082 113.702 62.9149 113.362C63.2665 113.194 63.6067 113.003 63.9333 112.791C64.2508 112.567 64.5543 112.324 64.8422 112.063C65.4074 111.538 65.8889 110.93 66.2698 110.259C66.8363 109.278 67.1789 108.183 67.2731 107.053C67.3674 105.924 67.2109 104.787 66.8149 103.725C66.4189 102.663 65.7932 101.702 64.9824 100.91C64.1717 100.117 63.1959 99.5142 62.1249 99.143C61.4338 98.9009 60.7105 98.763 59.9787 98.7337C59.2526 98.6899 58.5241 98.7573 57.8183 98.9336C56.4211 99.2793 55.1496 100.012 54.1493 101.046L53.9447 101.251V100.966C53.9447 93.6038 53.9447 86.6228 53.9447 80.0843V80.0034H54.0494H72.6559L72.5988 80.1605C71.5791 79.1763 70.8442 77.935 70.4717 76.5676C70.1292 75.2701 70.1292 73.9059 70.4717 72.6084C70.9115 70.8698 71.9319 69.3336 73.3638 68.254C74.7957 67.1744 76.5534 66.6161 78.3459 66.6716C80.1383 66.7271 81.8581 67.3931 83.2205 68.5592C84.5829 69.7254 85.5062 71.3218 85.8376 73.0843C85.9019 73.422 85.9417 73.7639 85.9565 74.1074C85.9776 74.4243 85.9776 74.7422 85.9565 75.0591C85.8874 76.1002 85.609 77.1166 85.1381 78.0476C84.8507 78.6185 84.4925 79.1509 84.0721 79.6323C83.9341 79.7941 83.8151 79.913 83.7437 79.9892L83.62 80.1034L83.7342 79.9796C83.8056 79.8987 83.9151 79.7798 84.0531 79.618C84.4634 79.1305 84.8133 78.5952 85.0952 78.0238C85.5506 77.0956 85.8175 76.0864 85.8804 75.0544C85.9042 74.7376 85.9042 74.4194 85.8804 74.1026C85.8615 73.764 85.8202 73.427 85.7567 73.0938C85.4261 71.3607 84.5138 69.7924 83.1708 68.6483C81.8278 67.5041 80.1345 66.8526 78.3709 66.8016C76.6073 66.7505 74.8791 67.3029 73.4722 68.3675C72.0652 69.432 71.0638 70.945 70.6335 72.656C70.3004 73.9273 70.3004 75.263 70.6335 76.5343C71.0044 77.8653 71.722 79.0739 72.7131 80.0367L72.8749 80.189H72.6559H54.0494L54.1541 80.0843C54.1541 86.6228 54.1541 93.6038 54.1541 100.966L53.9542 100.889C54.9911 99.8159 56.3112 99.0585 57.7612 98.7052C58.4886 98.5228 59.2398 98.4538 59.9883 98.5005C60.7427 98.5279 61.4888 98.6691 62.2011 98.9193C63.3065 99.3008 64.314 99.922 65.1513 100.738C65.9885 101.555 66.6349 102.546 67.0442 103.642C67.4535 104.737 67.6155 105.91 67.5186 107.075C67.4218 108.241 67.0684 109.37 66.4839 110.383C66.0885 111.076 65.5858 111.703 64.9944 112.239C64.6949 112.513 64.3769 112.765 64.0427 112.996C63.706 113.215 63.3546 113.41 62.991 113.581C62.2712 113.93 61.5 114.161 60.7068 114.266C59.901 114.381 59.0823 114.37 58.2799 114.233C56.6545 113.951 55.1574 113.169 53.9971 111.996L54.2112 111.911V119.153C54.2112 124.864 54.2112 130.503 54.2112 135.856L54.0922 135.733H75.0734L74.9544 135.842C75.3637 132.508 75.792 129.25 76.2393 126.068C76.4724 124.474 76.6723 122.908 76.9673 121.347C77.4138 119.847 78.0982 118.428 78.9946 117.145C80.679 114.683 82.528 112.338 84.5289 110.126C86.4324 107.956 88.3597 105.91 90.2013 103.94C92.0429 101.97 93.8465 100.061 95.374 98.0865C96.7352 96.115 97.8988 94.0142 98.8479 91.8146C100.51 88.0516 101.738 84.1113 102.507 80.0701L102.569 80.151L83.6295 80.0843Z" fill="#C3CAD4" stroke="#222221" stroke-width="0.475871" stroke-miterlimit="10"/>
<path d="M69.6675 95.0219C69.6685 95.3807 69.5629 95.7317 69.3643 96.0305C69.1656 96.3293 68.8828 96.5624 68.5516 96.7004C68.2204 96.8383 67.8557 96.8749 67.5037 96.8055C67.1516 96.7361 66.8281 96.5638 66.5741 96.3104C66.3201 96.057 66.1469 95.734 66.0766 95.3822C66.0062 95.0303 66.0419 94.6655 66.1789 94.334C66.316 94.0024 66.5484 93.7189 66.8467 93.5195C67.1449 93.3201 67.4957 93.2136 67.8545 93.2136C68.3341 93.2149 68.7938 93.4056 69.1334 93.7444C69.473 94.0831 69.665 94.5423 69.6675 95.0219V95.0219Z" fill="#11273C" stroke="#222221" stroke-width="0.475871" stroke-miterlimit="10"/>
<g opacity="0.2">
<path d="M60.3499 114.1C58.5035 114.252 56.4573 113.505 55.5912 111.853L54.1636 112.477C54.1636 113.429 55.3485 115.299 56.2193 115.66C57.9616 116.437 59.9193 116.585 61.7585 116.079C62.6851 115.758 63.5147 115.207 64.1691 114.477C64.8235 113.747 65.2811 112.862 65.4988 111.906C63.8809 113.095 62.1963 113.947 60.3499 114.1Z" fill="#11273C" stroke="#222221" stroke-width="0.475871" stroke-miterlimit="10"/>
</g>
<path d="M43.2804 28.4571C45.2811 28.1318 47.3297 28.5995 48.9909 29.761L49.1479 29.8752L45.655 7.74243L43.4946 8.0803C35.9274 9.61353 28.8373 12.936 22.8169 17.7701C16.7966 22.6041 12.0209 28.8091 8.88925 35.8664C2.90755 49.0052 4.22096 61.0638 7.46164 70.2148L9.76486 69.8531L27.7052 67.0217L27.591 67.1787C26.8612 68.2276 26.3999 69.4395 26.2473 70.7081C26.0947 71.9768 26.2556 73.2635 26.7158 74.4555C27.176 75.6476 27.9216 76.7085 28.8871 77.5455C29.8526 78.3825 31.0087 78.9699 32.2539 79.2562C33.4992 79.5426 34.7958 79.5192 36.0299 79.1881C37.2641 78.857 38.3982 78.2283 39.3329 77.357C40.2676 76.4858 40.9744 75.3986 41.3913 74.1908C41.8082 72.9829 41.9226 71.6912 41.7243 70.4289C41.5596 69.4213 41.1968 68.4562 40.6569 67.5896C40.117 66.723 39.4107 65.972 38.5788 65.3799L38.4789 65.3133L38.9786 65.2372L54.3207 62.815L50.8278 40.6917L50.7611 40.7869C50.1664 41.6116 49.4147 42.3106 48.549 42.8439C47.6834 43.3771 46.7209 43.7341 45.7169 43.8943C43.6698 44.2174 41.5782 43.7141 39.9022 42.495C38.2262 41.276 37.1031 39.4411 36.78 37.3939C36.4569 35.3468 36.9603 33.2552 38.1794 31.5792C39.3984 29.9033 41.2333 28.7802 43.2804 28.4571Z" fill="#C3CAD4" stroke="#222221" stroke-width="0.475871" stroke-miterlimit="10"/>
<path d="M43.2805 28.4571L42.757 28.576C42.5422 28.622 42.3307 28.6824 42.1241 28.7569C42.0004 28.7997 41.8671 28.8378 41.7243 28.8901L41.277 29.0852C39.4184 29.9344 37.9712 31.4843 37.2512 33.3966C36.7341 34.7628 36.612 36.2471 36.899 37.6794C37.2744 39.5331 38.3148 41.1855 39.8243 42.325C41.3338 43.4646 43.2079 44.0126 45.0935 43.8658C46.191 43.7798 47.2565 43.455 48.2152 42.914C49.227 42.3464 50.0973 41.5574 50.7611 40.606L50.8801 40.4347L50.9134 40.6394C51.9461 47.1493 53.1262 54.5919 54.4253 62.7626V62.8625H54.3254L38.4884 65.3751L38.5313 65.1657C39.7293 66.0029 40.6715 67.156 41.2532 68.4968C41.5514 69.1755 41.7424 69.8963 41.8195 70.6335C41.9163 71.3769 41.9034 72.1304 41.7815 72.8701C41.6541 73.6163 41.4251 74.3416 41.101 75.0258C40.7657 75.7172 40.3347 76.358 39.8209 76.9293C39.2997 77.5012 38.6986 77.9948 38.0364 78.395C37.366 78.7949 36.6417 79.0962 35.8854 79.2896C35.1192 79.473 34.3313 79.5499 33.5441 79.518C32.7497 79.4718 31.966 79.3115 31.2171 79.0421C29.6987 78.478 28.3877 77.4656 27.4578 76.1393C27.2248 75.805 27.0149 75.4552 26.8296 75.0924C26.6555 74.7242 26.5076 74.3441 26.387 73.9551C26.1365 73.174 26.0128 72.3579 26.0206 71.5377C26.0309 69.8677 26.5689 68.2437 27.5577 66.8979L27.6766 67.0883L14.5854 69.1583L7.44737 70.2861H7.34268L7.30938 70.1909C5.92666 66.294 5.05489 62.2344 4.71588 58.1133C4.55508 56.0932 4.53441 54.0643 4.65401 52.0412C4.73967 51.0371 4.79677 50.0426 4.94905 49.0575C5.01567 48.5816 5.06327 48.0725 5.15368 47.5871C5.2441 47.1017 5.3345 46.6353 5.42492 46.1309C6.17181 42.3454 7.39835 38.6706 9.07486 35.1954C9.49362 34.3579 9.91715 33.5251 10.3312 32.7018L10.6452 32.0784C10.7547 31.8786 10.8832 31.6835 10.9974 31.4884L11.7159 30.313C11.9491 29.9227 12.1918 29.5325 12.425 29.1471L12.7771 28.5665L13.1721 28.0145L14.7472 25.8398C15.0032 25.4784 15.2796 25.132 15.5753 24.8024L16.4271 23.7983L17.2694 22.799C17.5549 22.4754 17.8737 22.1803 18.1735 21.8472C18.7779 21.2429 19.3632 20.6195 19.9771 20.0389L21.8805 18.3781C24.3424 16.3274 26.9939 14.5157 29.799 12.9675C32.391 11.5718 35.0974 10.4 37.8888 9.46505C40.4029 8.62028 42.9925 8.0195 45.6217 7.67102H45.6979V7.74716C47.2587 17.7833 48.4294 25.2925 49.148 29.8894V29.9798L49.0766 29.9275C47.8228 28.9992 46.3191 28.4687 44.7604 28.4047C44.3811 28.3913 44.0013 28.4009 43.6231 28.4333L43.2519 28.4761L43.6231 28.4142C44.0006 28.371 44.3806 28.3536 44.7604 28.3619C46.3317 28.4127 47.851 28.9368 49.1194 29.8656L49.0575 29.9037C48.3532 25.2782 47.1445 17.7833 45.5504 7.75192L45.6408 7.81854C43.0177 8.18228 40.4359 8.79902 37.9317 9.66016C35.1536 10.594 32.4613 11.7658 29.8847 13.1626C27.0931 14.7081 24.4545 16.515 22.0043 18.5589L20.1246 20.215C19.5107 20.7955 18.9301 21.4142 18.3258 22.0233C18.0307 22.3326 17.7167 22.6276 17.4311 22.975L16.5936 23.9648C16.3081 24.2979 16.0273 24.6311 15.7466 24.9689C15.4525 25.2966 15.1761 25.6397 14.9185 25.9968L13.3577 28.1335L12.9627 28.6807L12.6106 29.2565C12.3774 29.642 12.1347 30.0322 11.9063 30.4177C11.6779 30.8031 11.4304 31.1981 11.1972 31.5883C11.0783 31.7882 10.9545 31.9785 10.8451 32.1831L10.5358 32.797C10.117 33.6203 9.70301 34.453 9.28424 35.2858C7.61925 38.7386 6.40074 42.3893 5.65811 46.1499C5.56769 46.6258 5.48204 47.1017 5.39162 47.5776C5.3012 48.0534 5.25361 48.5293 5.18698 49.0385C5.03471 50.0188 4.97761 51.0133 4.89671 52.0079C4.77713 54.0198 4.7978 56.0377 4.95858 58.0467C5.2904 62.1757 6.15904 66.2437 7.54255 70.1481L7.40931 70.0672L14.5474 68.9346L27.6338 66.8979L27.9289 66.8551L27.7528 67.093C27.0348 68.062 26.5573 69.1878 26.3596 70.3775C26.1618 71.5672 26.2495 72.7869 26.6154 73.936C26.8364 74.695 27.1875 75.4099 27.6529 76.0489C28.5516 77.3364 29.8215 78.3191 31.2933 78.8661C32.0184 79.1323 32.7781 79.2925 33.5489 79.3419C34.3138 79.3726 35.0793 79.2973 35.8236 79.1183C37.2892 78.7469 38.6132 77.9525 39.6305 76.8341C40.1269 76.2817 40.5448 75.6636 40.8726 74.9972C41.1861 74.3322 41.4086 73.6279 41.534 72.9034C41.6513 72.1857 41.6641 71.4548 41.5721 70.7334C41.4945 70.0183 41.3101 69.3189 41.0248 68.6586C40.4617 67.3573 39.5513 66.2361 38.3933 65.418L38.1601 65.2562L38.4361 65.2133L54.2731 62.7245L54.1874 62.8387C52.9073 54.668 51.7367 47.2254 50.7183 40.7107L50.8658 40.744C50.1876 41.7241 49.296 42.5376 48.2581 43.1234C47.2772 43.6688 46.1891 43.9936 45.0697 44.0751C43.152 44.2191 41.2478 43.6564 39.7164 42.4931C38.1849 41.3299 37.132 39.6464 36.7563 37.7603C36.6002 36.9981 36.5633 36.2164 36.6468 35.4428C36.6811 35.0842 36.7383 34.7282 36.8181 34.3769C36.9076 34.0339 37.0189 33.6969 37.1512 33.368C37.5772 32.266 38.2456 31.2739 39.1071 30.4652C39.7347 29.8735 40.4569 29.391 41.2437 29.0376L41.7196 28.8425C41.8623 28.7902 42.0004 28.7521 42.1241 28.714C42.3317 28.6398 42.5449 28.5825 42.7617 28.5427L43.2805 28.4571Z" fill="#222221" stroke="#222221" stroke-width="0.475871" stroke-miterlimit="10"/>
<path d="M46.7591 133.72H27.7813C27.7813 133.72 26.8296 125.73 25.8779 119.658C24.9261 113.586 11.3448 101.199 7.44263 96.0355C5.87226 93.956 1.99391 87.1368 0.304565 77.9525H18.2259L18.0879 78.0905C17.0106 79.1975 16.2845 80.5983 16.0008 82.1167C15.717 83.6351 15.8883 85.2036 16.4931 86.6249C17.0979 88.0463 18.1093 89.2573 19.4001 90.1058C20.6909 90.9542 22.2037 91.4023 23.7484 91.3938C25.2931 91.3852 26.8008 90.9204 28.0822 90.0577C29.3635 89.195 30.3614 87.9729 30.9504 86.5449C31.5395 85.1169 31.6934 83.5467 31.3928 82.0315C31.0923 80.5163 30.3508 79.1237 29.2613 78.0286L29.1756 77.9525L46.6163 78.0809V98.9622C46.6163 98.9622 48.2438 96.4829 52.1697 96.5828C56.0957 96.6827 59.0603 99.4761 59.6932 102.293C60.3262 105.11 59.7979 110.431 54.5062 111.858C49.2146 113.286 46.5592 109.565 46.5592 109.565L46.6163 133.834" fill="#169579"/>
<path d="M46.7591 133.72H27.7813C27.7813 133.72 26.8296 125.73 25.8779 119.658C24.9261 113.586 11.3448 101.199 7.44263 96.0355C5.87226 93.956 1.99391 87.1368 0.304565 77.9525H18.2259L18.0879 78.0905C17.0106 79.1975 16.2845 80.5983 16.0008 82.1167C15.717 83.6351 15.8883 85.2036 16.4931 86.6249C17.0979 88.0463 18.1093 89.2573 19.4001 90.1058C20.6909 90.9542 22.2037 91.4023 23.7484 91.3938C25.2931 91.3852 26.8008 90.9204 28.0822 90.0577C29.3635 89.195 30.3614 87.9729 30.9504 86.5449C31.5395 85.1169 31.6934 83.5467 31.3928 82.0315C31.0923 80.5163 30.3508 79.1237 29.2613 78.0286L29.1756 77.9525L46.6163 78.0809V98.9622C46.6163 98.9622 48.2438 96.4829 52.1697 96.5828C56.0957 96.6827 59.0603 99.4761 59.6932 102.293C60.3262 105.11 59.7979 110.431 54.5062 111.858C49.2146 113.286 46.5592 109.565 46.5592 109.565L46.6163 133.834" stroke="#222221" stroke-width="0.475871" stroke-miterlimit="10"/>
<path d="M46.5925 132.659C46.6639 132.659 46.7209 132.925 46.7209 133.253C46.7209 133.582 46.6638 133.848 46.5972 133.848C46.5306 133.848 46.4735 133.582 46.4735 133.253C46.4735 132.925 46.5259 132.659 46.5925 132.659Z" fill="#1A2E35"/>
<path d="M46.583 127.79C46.7043 128.184 46.7479 128.598 46.7115 129.009C46.7534 129.417 46.7113 129.83 46.5878 130.222C46.426 129.42 46.426 128.593 46.5878 127.79H46.583Z" fill="#1A2E35"/>
<path d="M46.5687 122.922C46.6955 123.315 46.7392 123.73 46.6972 124.14C46.7363 124.549 46.6959 124.961 46.5782 125.354C46.4512 124.963 46.4074 124.549 46.4497 124.14C46.4108 123.731 46.4512 123.317 46.5687 122.922Z" fill="#1A2E35"/>
<path d="M46.5592 118.073C46.6805 118.467 46.7241 118.881 46.6877 119.291C46.7288 119.702 46.6868 120.116 46.564 120.51C46.4435 120.115 46.4014 119.702 46.4403 119.291C46.3985 118.881 46.439 118.467 46.5592 118.073V118.073Z" fill="#1A2E35"/>
<path d="M46.5497 113.186C46.6702 113.58 46.7123 113.994 46.6734 114.404C46.7152 114.814 46.6748 115.228 46.5545 115.622C46.4283 115.229 46.3845 114.815 46.426 114.404C46.3843 113.994 46.4264 113.579 46.5497 113.186Z" fill="#1A2E35"/>
<path d="M47.3587 110.421C47.3587 110.445 47.2159 110.383 47.0399 110.25C46.9385 110.171 46.8431 110.085 46.7543 109.993C46.6985 109.941 46.646 109.885 46.5973 109.826L46.5164 109.736L46.4783 109.688V109.66L46.702 109.588C46.7436 109.989 46.7015 110.394 46.5782 110.778C46.4576 110.394 46.4156 109.989 46.4545 109.588L46.6782 109.512V109.536L46.7115 109.584L46.7876 109.669L46.9256 109.84L47.1683 110.121C47.3016 110.283 47.3825 110.393 47.3587 110.421Z" fill="#1A2E35"/>
<path d="M51.5796 112.167C51.1907 112.262 50.7831 112.244 50.4042 112.115C50.0083 112.06 49.6358 111.895 49.3287 111.639C49.7205 111.669 50.1063 111.753 50.4756 111.887C50.8545 111.93 51.2259 112.025 51.5796 112.167V112.167Z" fill="#1A2E35"/>
<path d="M56.0814 111.249C55.7989 111.532 55.4428 111.73 55.0535 111.82C54.6886 111.98 54.2885 112.042 53.8923 112.001C53.8923 111.925 54.3682 111.787 54.9726 111.582C55.3254 111.422 55.6984 111.309 56.0814 111.249Z" fill="#1A2E35"/>
<path d="M59.1793 107.904C59.1373 108.301 58.9839 108.679 58.7367 108.993C58.3845 109.55 57.9706 109.893 57.923 109.845C58.0859 109.495 58.2887 109.164 58.5273 108.86C58.8699 108.332 59.1126 107.875 59.1793 107.904Z" fill="#1A2E35"/>
<path d="M59.8408 103.345C59.9977 103.712 60.0552 104.114 60.0074 104.511C60.0411 104.908 59.9672 105.308 59.7932 105.667C59.7329 104.893 59.7489 104.116 59.8408 103.345V103.345Z" fill="#1A2E35"/>
<path d="M57.9706 99.1905C58.0181 99.1477 58.4464 99.4856 58.7986 100.028C59.0584 100.334 59.2237 100.71 59.2744 101.108C59.2078 101.137 58.9556 100.69 58.5987 100.157C58.2418 99.6236 57.9182 99.2429 57.9706 99.1905Z" fill="#1A2E35"/>
<path d="M54.0256 96.8493C54.4241 96.8295 54.8205 96.9183 55.1725 97.1062C55.7768 97.3584 56.2004 97.6868 56.1623 97.7439C55.7839 97.6567 55.419 97.519 55.0773 97.3347C54.7048 97.2254 54.3505 97.0618 54.0256 96.8493V96.8493Z" fill="#1A2E35"/>
<path d="M49.4382 96.9682C49.7622 96.732 50.1469 96.5933 50.547 96.5685C50.931 96.4581 51.3384 96.4581 51.7224 96.5685C51.3557 96.6968 50.9729 96.7736 50.5851 96.7969C50.2118 96.9031 49.8263 96.9607 49.4382 96.9682V96.9682Z" fill="#1A2E35"/>
<path d="M46.5972 97.7629C46.7178 98.1471 46.7599 98.5517 46.721 98.9526L46.4925 98.8859V98.8621L46.5306 98.8098L46.6115 98.7146C46.6639 98.6528 46.7162 98.6004 46.7686 98.5481C46.8573 98.4555 46.9527 98.3696 47.0541 98.2911C47.2301 98.1578 47.3539 98.096 47.3777 98.1245C47.4015 98.1531 47.3158 98.2578 47.1778 98.4196C47.0398 98.5814 47.0065 98.6194 46.9351 98.7003L46.7971 98.8717L46.7305 98.9573L46.6924 99.0049L46.464 98.9335C46.4307 98.5383 46.4759 98.1405 46.5972 97.7629V97.7629Z" fill="#1A2E35"/>
<path d="M46.5973 92.476C46.7622 93.3502 46.7622 94.2476 46.5973 95.1218C46.4324 94.2476 46.4324 93.3502 46.5973 92.476V92.476Z" fill="#1A2E35"/>
<path d="M46.5973 87.189C46.7622 88.0633 46.7622 88.9606 46.5973 89.8349C46.4324 88.9606 46.4324 88.0633 46.5973 87.189V87.189Z" fill="#1A2E35"/>
<path d="M46.5973 81.9069C46.7622 82.7812 46.7622 83.6785 46.5973 84.5528C46.4324 83.6785 46.4324 82.7812 46.5973 81.9069V81.9069Z" fill="#1A2E35"/>
<path d="M45.4076 78.0618C45.7925 77.9446 46.1971 77.9057 46.5973 77.9476L46.721 78.0714V78.3045C46.721 78.3759 46.721 78.4473 46.721 78.5282C46.721 78.6091 46.721 78.7994 46.6924 78.9041C46.6924 79.123 46.6401 79.2563 46.6068 79.2563C46.5735 79.2563 46.5402 79.123 46.5211 78.9041C46.5211 78.7994 46.5211 78.6709 46.4926 78.5282V78.3045V78.0999L46.6163 78.2236C46.2066 78.2529 45.7952 78.1979 45.4076 78.0618V78.0618Z" fill="#1A2E35"/>
<path d="M41.1057 78.0286C41.4514 77.9115 41.8187 77.8725 42.1812 77.9144C42.5452 77.8755 42.9132 77.9211 43.2567 78.0476C42.9093 78.1643 42.5405 78.2033 42.1764 78.1618C41.814 78.2 41.4477 78.1544 41.1057 78.0286Z" fill="#1A2E35"/>
<path d="M36.7991 78C37.1437 77.8783 37.5117 77.8376 37.8745 77.881C38.2385 77.8453 38.6058 77.8908 38.95 78.0143C38.6044 78.1313 38.2371 78.1703 37.8745 78.1285C37.511 78.1643 37.144 78.1205 36.7991 78V78Z" fill="#1A2E35"/>
<path d="M32.4972 77.9667C32.8428 77.8496 33.2101 77.8106 33.5727 77.8525C33.9362 77.8166 34.3033 77.8605 34.6481 77.981C34.3038 78.1037 33.9355 78.1444 33.5727 78.0999C33.2087 78.1357 32.8414 78.0902 32.4972 77.9667Z" fill="#1A2E35"/>
<path d="M29.9466 78.8281C29.918 78.8519 29.8038 78.771 29.6515 78.6234C29.5706 78.5521 29.4802 78.4616 29.3851 78.3617L29.2375 78.1999L29.1614 78.1143L29.1138 78.0762C29.0424 78.2713 29.2185 77.8145 29.1995 77.862C29.601 77.8233 30.0061 77.8687 30.3891 77.9953C30.0024 78.1118 29.5965 78.1506 29.1947 78.1095C29.1947 78.1571 29.3565 77.7003 29.2804 77.8954H29.3042L29.347 77.9382L29.4279 78.0334L29.5706 78.2094L29.8038 78.514C29.9085 78.6901 29.9704 78.809 29.9466 78.8281Z" fill="#1A2E35"/>
<path d="M31.5121 83.0871C31.3732 82.7297 31.2836 82.3551 31.2457 81.9735C31.1296 81.6066 31.064 81.2256 31.0505 80.8409C31.296 81.1522 31.4478 81.5269 31.4883 81.9212C31.6084 82.2994 31.6166 82.7042 31.5121 83.0871Z" fill="#1A2E35"/>
<path d="M30.4224 87.4984C30.5036 87.1227 30.6382 86.7605 30.8221 86.423C30.9324 86.054 31.0925 85.7018 31.298 85.376C31.3242 85.7724 31.2385 86.1682 31.0505 86.5181C30.9383 86.8978 30.7204 87.2378 30.4224 87.4984V87.4984Z" fill="#1A2E35"/>
<path d="M27.0628 90.5583C27.0343 90.4916 27.4768 90.2347 28.0146 89.8825C28.5523 89.5304 28.9378 89.2258 28.9663 89.2782C28.9949 89.3305 28.6713 89.7302 28.1335 90.0871C27.8271 90.3403 27.4565 90.5034 27.0628 90.5583V90.5583Z" fill="#1A2E35"/>
<path d="M22.5706 91.2292C23.3358 91.1753 24.1038 91.1753 24.869 91.2292C24.504 91.3787 24.1117 91.4501 23.7174 91.4386C23.3246 91.4511 22.9336 91.3797 22.5706 91.2292V91.2292Z" fill="#1A2E35"/>
<path d="M18.4637 89.2877C18.5113 89.2353 18.9396 89.5494 19.4155 89.892C19.8914 90.2346 20.3672 90.5011 20.3672 90.563C19.9719 90.5111 19.6 90.3458 19.2965 90.0871C18.7588 89.7397 18.4162 89.3352 18.4637 89.2877Z" fill="#1A2E35"/>
<path d="M16.1273 85.395C16.3318 85.7213 16.4918 86.0733 16.6032 86.4419C16.7904 86.7784 16.9268 87.1409 17.0077 87.5174C16.7104 87.2552 16.4913 86.9159 16.3747 86.5371C16.185 86.1878 16.0992 85.7915 16.1273 85.395V85.395Z" fill="#1A2E35"/>
<path d="M16.3462 80.86C16.3389 81.2445 16.2764 81.6259 16.1606 81.9926C16.1262 82.3753 16.0397 82.7515 15.9036 83.1109C15.794 82.73 15.794 82.3259 15.9036 81.945C15.9479 81.5493 16.1011 81.1737 16.3462 80.86V80.86Z" fill="#1A2E35"/>
<path d="M17.0171 77.9429C17.4013 77.8223 17.8059 77.7802 18.2068 77.8192C18.2448 77.9144 18.1211 77.6098 18.2972 78.0286L18.2544 78.0714L18.1735 78.157L18.0259 78.3188C17.9308 78.4235 17.8403 78.514 17.7642 78.5853C17.6072 78.7376 17.4977 78.8185 17.4692 78.7995C17.4406 78.7804 17.5025 78.6567 17.6262 78.4759C17.6881 78.3855 17.769 78.2808 17.8546 78.1666C17.9403 78.0524 17.9498 78.0428 17.9974 77.9905C18.0218 77.9582 18.0489 77.9279 18.0783 77.9001L18.1211 77.8573V77.8335C18.2972 78.2522 18.1687 77.9477 18.2068 78.0428C17.8075 78.0895 17.403 78.0555 17.0171 77.9429V77.9429Z" fill="#1A2E35"/>
<path d="M12.8818 77.9429C12.8818 77.8763 13.1483 77.8192 13.4767 77.8192C13.805 77.8192 14.0715 77.8763 14.0715 77.9429C14.0715 78.0096 13.805 78.0667 13.4767 78.0667C13.1483 78.0667 12.8818 78.0096 12.8818 77.9429Z" fill="#1A2E35"/>
<path d="M46.8209 133.72H46.4783H45.4837L41.6768 133.748L27.848 133.791H27.7623V133.701C27.2864 129.808 26.7059 125.387 25.9826 120.629C25.8017 118.206 24.4074 116.036 22.9513 113.966C21.3983 111.841 19.7369 109.797 17.9737 107.842C15.6371 105.201 13.2673 102.707 11.0259 100.266C9.90764 99.0478 8.81788 97.8439 7.81856 96.6066C7.32651 95.9927 6.87506 95.3473 6.46708 94.6746C6.06101 94.0115 5.68349 93.3469 5.33452 92.6807C4.02263 90.1794 2.92421 87.5719 2.051 84.8859C1.30071 82.6154 0.709205 80.2955 0.280762 77.9429V77.8478H0.380705L9.33658 77.8858H11.7159H12.3346C12.4059 77.8816 12.4774 77.8816 12.5487 77.8858C12.4774 77.8901 12.4059 77.8901 12.3346 77.8858H11.7159H9.33658L0.380705 77.9239L0.461595 77.8287C0.902578 80.1704 1.50358 82.479 2.26039 84.7384C3.14288 87.4086 4.2443 90.0014 5.55342 92.4903C5.90556 93.1518 6.27675 93.8132 6.68599 94.4652C7.08668 95.1302 7.5335 95.7662 8.02319 96.3687C9.013 97.5964 10.1075 98.7956 11.2258 100.014C13.4671 102.446 15.837 104.939 18.1783 107.59C19.9469 109.55 21.6131 111.601 23.1702 113.733C23.9166 114.765 24.5877 115.85 25.1783 116.979C25.4622 117.536 25.6978 118.118 25.8826 118.716C26.0429 119.308 26.1606 119.91 26.2348 120.519C26.9486 125.278 27.5053 129.699 27.9765 133.606L27.8765 133.515L41.7053 133.558L45.5123 133.587H46.5069L46.8209 133.72Z" fill="#1A2E35"/>
<path d="M45.5695 133.72C45.5695 133.653 45.8359 133.596 46.1643 133.596C46.4926 133.596 46.7591 133.653 46.7591 133.72C46.7591 133.786 46.4926 133.843 46.1643 133.843C45.8359 133.843 45.5695 133.777 45.5695 133.72Z" fill="#1A2E35"/>
<path d="M40.8297 133.72C41.6141 133.553 42.4247 133.553 43.2091 133.72C42.4247 133.886 41.6141 133.886 40.8297 133.72Z" fill="#1A2E35"/>
<path d="M36.0853 133.72C36.8697 133.553 37.6803 133.553 38.4647 133.72C37.6803 133.886 36.8697 133.886 36.0853 133.72V133.72Z" fill="#1A2E35"/>
<path d="M31.3456 133.72C32.13 133.553 32.9405 133.553 33.7249 133.72C32.9405 133.886 32.13 133.886 31.3456 133.72Z" fill="#1A2E35"/>
<path d="M27.6338 132.54C27.6671 132.54 27.7147 132.663 27.7623 132.877C27.7861 132.982 27.8146 133.111 27.8384 133.249C27.8622 133.387 27.8384 133.401 27.8718 133.472V133.591V133.648V133.696L27.748 133.582C28.1473 133.542 28.5504 133.585 28.933 133.705C28.5511 133.83 28.1473 133.872 27.748 133.829V133.829C27.748 133.582 27.591 133.777 27.6291 133.72V133.61V133.496V133.272C27.6291 133.134 27.6291 133.006 27.6291 132.896C27.591 132.682 27.6053 132.544 27.6338 132.54Z" fill="#1A2E35"/>
<path d="M27.0104 127.643C27.2833 128.428 27.3919 129.26 27.3293 130.089C27.0625 129.303 26.9541 128.471 27.0104 127.643V127.643Z" fill="#1A2E35"/>
<path d="M26.3346 122.746C26.6131 123.537 26.7312 124.375 26.682 125.211C26.5034 124.834 26.4031 124.424 26.387 124.007C26.2875 123.594 26.2698 123.166 26.3346 122.746V122.746Z" fill="#1A2E35"/>
<path d="M25.3448 117.926C25.6152 118.251 25.7957 118.641 25.8683 119.058C26.0026 119.459 26.0385 119.887 25.973 120.305C25.7998 119.929 25.6843 119.53 25.6304 119.12C25.4844 118.736 25.3884 118.334 25.3448 117.926V117.926Z" fill="#1A2E35"/>
<path d="M22.818 113.69C22.8751 113.648 23.2272 114.076 23.6079 114.642C23.8758 114.963 24.075 115.336 24.1933 115.737C24.1361 115.775 23.784 115.342 23.4033 114.785C23.1423 114.459 22.9438 114.088 22.818 113.69V113.69Z" fill="#1A2E35"/>
<path d="M19.7582 109.812C19.8105 109.769 20.2055 110.159 20.6385 110.688C21.0716 111.216 21.3809 111.677 21.3238 111.72C21.2667 111.763 20.8765 111.373 20.4482 110.845C20.1526 110.549 19.9182 110.198 19.7582 109.812V109.812Z" fill="#1A2E35"/>
<path d="M16.4937 106.105C16.546 106.057 16.9695 106.433 17.4121 106.942C17.8546 107.452 18.1973 107.894 18.1449 107.947C18.0926 107.999 17.6691 107.613 17.2265 107.109C16.9214 106.823 16.6728 106.483 16.4937 106.105V106.105Z" fill="#1A2E35"/>
<path d="M13.1483 102.474C13.1959 102.426 13.6242 102.793 14.0762 103.293C14.389 103.57 14.6444 103.907 14.8281 104.282C14.7758 104.33 14.3522 103.964 13.8764 103.464C13.4005 102.964 13.0959 102.517 13.1483 102.474Z" fill="#1A2E35"/>
<path d="M9.79822 98.8384C9.85056 98.7908 10.2741 99.162 10.75 99.6664C11.2258 100.171 11.5399 100.618 11.4876 100.661C11.4352 100.704 11.0117 100.337 10.5644 99.833C10.2473 99.5539 9.98715 99.2162 9.79822 98.8384V98.8384Z" fill="#1A2E35"/>
<path d="M7.43314 96.0355C7.49025 95.9926 7.69963 96.1687 7.90901 96.4209C8.1184 96.6731 8.23737 96.9206 8.18503 96.9634C8.13268 97.0063 7.9233 96.8349 7.70916 96.578C7.49501 96.321 7.3808 96.0735 7.43314 96.0355Z" fill="#1A2E35"/>
</g>
<defs>
<clipPath id="clip0_379_294">
<rect width="110.921" height="156" fill="white"/>
</clipPath>
</defs>
</svg>
