<svg width="38" height="38" viewBox="0 0 38 38" fill="none" xmlns="http://www.w3.org/2000/svg">
<path d="M19.0117 11.4977C14.6959 11.4977 11.2149 15.1148 11.2149 19.5991C11.2149 24.0834 14.6959 27.7004 19.0117 27.7004C23.3274 27.7004 26.8084 24.0834 26.8084 19.5991C26.8084 15.1148 23.3274 11.4977 19.0117 11.4977ZM19.0117 24.866C16.2227 24.866 13.9427 22.504 13.9427 19.5991C13.9427 16.6942 16.2159 14.3322 19.0117 14.3322C21.8074 14.3322 24.0806 16.6942 24.0806 19.5991C24.0806 22.504 21.8006 24.866 19.0117 24.866ZM28.9459 11.1664C28.9459 12.2169 28.1316 13.056 27.1274 13.056C26.1163 13.056 25.3088 12.2099 25.3088 11.1664C25.3088 10.1228 26.1231 9.27674 27.1274 9.27674C28.1316 9.27674 28.9459 10.1228 28.9459 11.1664ZM34.1098 13.0842C33.9945 10.5529 33.4381 8.31079 31.6534 6.46348C29.8756 4.61618 27.7177 4.03801 25.2816 3.9111C22.7709 3.76303 15.2456 3.76303 12.7349 3.9111C10.3056 4.03096 8.14774 4.60913 6.3631 6.45643C4.57846 8.30374 4.02882 10.5459 3.90668 13.0771C3.76418 15.6859 3.76418 23.5052 3.90668 26.114C4.02204 28.6452 4.57846 30.8874 6.3631 32.7347C8.14774 34.582 10.2988 35.1602 12.7349 35.2871C15.2456 35.4351 22.7709 35.4351 25.2816 35.2871C27.7177 35.1672 29.8756 34.589 31.6534 32.7347C33.4313 30.8874 33.9877 28.6452 34.1098 26.114C34.2523 23.5052 34.2523 15.693 34.1098 13.0842ZM30.8663 28.9132C30.337 30.2951 29.3123 31.3598 27.9756 31.9168C25.9738 32.7417 21.2238 32.5514 19.0117 32.5514C16.7995 32.5514 12.0427 32.7347 10.0477 31.9168C8.71774 31.3668 7.6931 30.3022 7.15703 28.9132C6.3631 26.8332 6.54632 21.8976 6.54632 19.5991C6.54632 17.3005 6.36989 12.3579 7.15703 10.285C7.68632 8.90305 8.71096 7.83838 10.0477 7.28137C12.0495 6.45643 16.7995 6.6468 19.0117 6.6468C21.2238 6.6468 25.9806 6.46348 27.9756 7.28137C29.3056 7.83133 30.3302 8.896 30.8663 10.285C31.6602 12.365 31.477 17.3005 31.477 19.5991C31.477 21.8976 31.6602 26.8402 30.8663 28.9132Z" fill="#169579"/>
</svg>
