<svg width="38" height="38" viewBox="0 0 38 38" fill="none" xmlns="http://www.w3.org/2000/svg">
<path d="M10.6045 35.3868H4.30195V14.298H10.6045V35.3868ZM7.44984 11.4212C5.43448 11.4212 3.7998 9.68675 3.7998 7.59266C3.7998 6.5868 4.18436 5.62213 4.86888 4.91088C5.55339 4.19963 6.48179 3.80005 7.44984 3.80005C8.41789 3.80005 9.34629 4.19963 10.0308 4.91088C10.7153 5.62213 11.0999 6.5868 11.0999 7.59266C11.0999 9.68675 9.46452 11.4212 7.44984 11.4212ZM34.193 35.3868H27.904V25.1209C27.904 22.6743 27.8565 19.5367 24.6272 19.5367C21.3504 19.5367 20.8482 22.1948 20.8482 24.9446V35.3868H14.5524V14.298H20.5972V17.1747H20.6854C21.5268 15.5177 23.5822 13.7691 26.6487 13.7691C33.0272 13.7691 34.1998 18.1336 34.1998 23.8024V35.3868H34.193Z" fill="#169579"/>
</svg>
