<svg width="105" height="63" viewBox="0 0 105 63" fill="none" xmlns="http://www.w3.org/2000/svg">
<path d="M4.49414 47.5767L1.43457 56H0.184082L3.70703 46.7578H4.51318L4.49414 47.5767ZM7.05859 56L3.99268 47.5767L3.97363 46.7578H4.77979L8.31543 56H7.05859ZM6.8999 52.5786V53.5815H1.70752V52.5786H6.8999ZM10.7998 50.5981V56H9.62549V49.1318H10.7363L10.7998 50.5981ZM10.5205 52.3057L10.0317 52.2866C10.036 51.8169 10.1058 51.3831 10.2412 50.9854C10.3766 50.5833 10.5671 50.2342 10.8125 49.938C11.0579 49.6418 11.3499 49.4132 11.6885 49.2524C12.0312 49.0874 12.41 49.0049 12.8247 49.0049C13.1632 49.0049 13.4679 49.0514 13.7388 49.1445C14.0096 49.2334 14.2402 49.3773 14.4307 49.5762C14.6253 49.7751 14.7734 50.0332 14.875 50.3506C14.9766 50.6637 15.0273 51.0467 15.0273 51.4995V56H13.8467V51.4868C13.8467 51.1271 13.7938 50.8394 13.688 50.6235C13.5822 50.4035 13.4277 50.2448 13.2246 50.1475C13.0215 50.0459 12.7718 49.9951 12.4756 49.9951C12.1836 49.9951 11.917 50.0565 11.6758 50.1792C11.4388 50.3019 11.2336 50.4712 11.0601 50.687C10.8908 50.9028 10.7575 51.1504 10.6602 51.4297C10.5671 51.7048 10.5205 51.9967 10.5205 52.3057ZM19.9365 49.1318V50.0332H16.2231V49.1318H19.9365ZM17.48 47.4624H18.6543V54.2988C18.6543 54.5316 18.6903 54.7072 18.7622 54.8257C18.8341 54.9442 18.9272 55.0225 19.0415 55.0605C19.1558 55.0986 19.2785 55.1177 19.4097 55.1177C19.507 55.1177 19.6086 55.1092 19.7144 55.0923C19.8244 55.0711 19.9069 55.0542 19.9619 55.0415L19.9683 56C19.8752 56.0296 19.7524 56.0571 19.6001 56.0825C19.452 56.1121 19.2721 56.127 19.0605 56.127C18.7728 56.127 18.5083 56.0698 18.2671 55.9556C18.0259 55.8413 17.8333 55.6509 17.6895 55.3843C17.5498 55.1134 17.48 54.7495 17.48 54.2925V47.4624ZM22.8398 49.1318V56H21.6592V49.1318H22.8398ZM21.5703 47.3101C21.5703 47.1196 21.6274 46.9588 21.7417 46.8276C21.8602 46.6965 22.0337 46.6309 22.2622 46.6309C22.4865 46.6309 22.6579 46.6965 22.7764 46.8276C22.8991 46.9588 22.9604 47.1196 22.9604 47.3101C22.9604 47.492 22.8991 47.6486 22.7764 47.7798C22.6579 47.9067 22.4865 47.9702 22.2622 47.9702C22.0337 47.9702 21.8602 47.9067 21.7417 47.7798C21.6274 47.6486 21.5703 47.492 21.5703 47.3101ZM24.6641 52.6421V52.4961C24.6641 52.001 24.736 51.5418 24.8799 51.1187C25.0238 50.6912 25.2311 50.321 25.502 50.0078C25.7728 49.6904 26.1007 49.445 26.4858 49.2715C26.8709 49.0938 27.3026 49.0049 27.7808 49.0049C28.2632 49.0049 28.6969 49.0938 29.082 49.2715C29.4714 49.445 29.8014 49.6904 30.0723 50.0078C30.3473 50.321 30.5568 50.6912 30.7007 51.1187C30.8446 51.5418 30.9165 52.001 30.9165 52.4961V52.6421C30.9165 53.1372 30.8446 53.5964 30.7007 54.0195C30.5568 54.4427 30.3473 54.813 30.0723 55.1304C29.8014 55.4435 29.4735 55.689 29.0884 55.8667C28.7075 56.0402 28.2759 56.127 27.7935 56.127C27.311 56.127 26.8773 56.0402 26.4922 55.8667C26.1071 55.689 25.777 55.4435 25.502 55.1304C25.2311 54.813 25.0238 54.4427 24.8799 54.0195C24.736 53.5964 24.6641 53.1372 24.6641 52.6421ZM25.8384 52.4961V52.6421C25.8384 52.9849 25.8786 53.3086 25.959 53.6133C26.0394 53.9137 26.16 54.1803 26.3208 54.4131C26.4858 54.6458 26.6911 54.8299 26.9365 54.9653C27.182 55.0965 27.4676 55.1621 27.7935 55.1621C28.1151 55.1621 28.3965 55.0965 28.6377 54.9653C28.8831 54.8299 29.0863 54.6458 29.2471 54.4131C29.4079 54.1803 29.5285 53.9137 29.6089 53.6133C29.6935 53.3086 29.7358 52.9849 29.7358 52.6421V52.4961C29.7358 52.1576 29.6935 51.8381 29.6089 51.5376C29.5285 51.2329 29.4058 50.9642 29.2407 50.7314C29.0799 50.4945 28.8768 50.3083 28.6313 50.1729C28.3901 50.0374 28.1066 49.9697 27.7808 49.9697C27.4591 49.9697 27.1756 50.0374 26.9302 50.1729C26.689 50.3083 26.4858 50.4945 26.3208 50.7314C26.16 50.9642 26.0394 51.2329 25.959 51.5376C25.8786 51.8381 25.8384 52.1576 25.8384 52.4961ZM36.9619 58.6406V50.4521L37.0635 49.1318H38.1426V58.6406H36.9619ZM32.3472 52.6421V52.5088C32.3472 51.984 32.4085 51.508 32.5312 51.0806C32.654 50.6489 32.8338 50.2786 33.0708 49.9697C33.3078 49.6608 33.5934 49.4238 33.9277 49.2588C34.2663 49.0895 34.6514 49.0049 35.083 49.0049C35.5146 49.0049 35.8934 49.0811 36.2192 49.2334C36.5493 49.3815 36.8286 49.5994 37.0571 49.8872C37.2899 50.1707 37.474 50.5135 37.6094 50.9155C37.7448 51.3175 37.8379 51.7725 37.8887 52.2803V52.8643C37.8421 53.3678 37.7511 53.8206 37.6157 54.2227C37.4803 54.6247 37.2962 54.9674 37.0635 55.251C36.835 55.5345 36.5535 55.7524 36.2192 55.9048C35.8892 56.0529 35.5062 56.127 35.0703 56.127C34.6471 56.127 34.2663 56.0402 33.9277 55.8667C33.5934 55.6932 33.3078 55.4499 33.0708 55.1367C32.8381 54.8236 32.6582 54.4554 32.5312 54.0322C32.4085 53.6048 32.3472 53.1414 32.3472 52.6421ZM33.5278 52.5088V52.6421C33.5278 52.9849 33.5638 53.3086 33.6357 53.6133C33.7077 53.9137 33.8177 54.1803 33.9658 54.4131C34.1182 54.6458 34.3086 54.8299 34.5371 54.9653C34.7699 55.0965 35.0449 55.1621 35.3623 55.1621C35.7516 55.1621 36.0754 55.0775 36.3335 54.9082C36.5959 54.7389 36.8053 54.5168 36.9619 54.2417C37.1185 53.9624 37.2391 53.6641 37.3237 53.3467V51.8169C37.2772 51.5841 37.2031 51.3577 37.1016 51.1377C37.0042 50.9176 36.8773 50.7209 36.7207 50.5474C36.5641 50.3696 36.3737 50.23 36.1494 50.1284C35.9294 50.0226 35.6712 49.9697 35.375 49.9697C35.0534 49.9697 34.7762 50.0374 34.5435 50.1729C34.3107 50.3083 34.1182 50.4945 33.9658 50.7314C33.8177 50.9642 33.7077 51.2329 33.6357 51.5376C33.5638 51.8423 33.5278 52.166 33.5278 52.5088ZM44.48 54.4131V49.1318H45.6606V56H44.5371L44.48 54.4131ZM44.7021 52.9658L45.1909 52.9531C45.1909 53.4102 45.1423 53.8333 45.0449 54.2227C44.9518 54.6077 44.7995 54.9421 44.5879 55.2256C44.3763 55.5091 44.0991 55.7313 43.7563 55.8921C43.4136 56.0487 42.9967 56.127 42.5059 56.127C42.1715 56.127 41.8647 56.0783 41.5854 55.981C41.3104 55.8836 41.0734 55.7334 40.8745 55.5303C40.6756 55.3271 40.5212 55.0627 40.4111 54.7368C40.3053 54.411 40.2524 54.0195 40.2524 53.5625V49.1318H41.4268V53.5752C41.4268 53.8841 41.4606 54.1401 41.5283 54.3433C41.6003 54.5422 41.6955 54.7008 41.814 54.8193C41.9367 54.9336 42.0721 55.014 42.2202 55.0605C42.3726 55.1071 42.5291 55.1304 42.6899 55.1304C43.1893 55.1304 43.585 55.0352 43.877 54.8447C44.1689 54.6501 44.3784 54.3898 44.5054 54.064C44.6366 53.7339 44.7021 53.3678 44.7021 52.9658ZM48.9766 49.1318V56H47.7959V49.1318H48.9766ZM47.707 47.3101C47.707 47.1196 47.7642 46.9588 47.8784 46.8276C47.9969 46.6965 48.1704 46.6309 48.3989 46.6309C48.6232 46.6309 48.7946 46.6965 48.9131 46.8276C49.0358 46.9588 49.0972 47.1196 49.0972 47.3101C49.0972 47.492 49.0358 47.6486 48.9131 47.7798C48.7946 47.9067 48.6232 47.9702 48.3989 47.9702C48.1704 47.9702 47.9969 47.9067 47.8784 47.7798C47.7642 47.6486 47.707 47.492 47.707 47.3101ZM53.5557 51.5884V52.5532H50.458V51.5884H53.5557ZM55.5195 46.7578H56.7065L59.7344 54.2925L62.7559 46.7578H63.9492L60.1914 56H59.2646L55.5195 46.7578ZM55.1323 46.7578H56.1797L56.3511 52.3945V56H55.1323V46.7578ZM63.2827 46.7578H64.3301V56H63.1113V52.3945L63.2827 46.7578ZM69.4043 56.127C68.9261 56.127 68.4924 56.0465 68.103 55.8857C67.7179 55.7207 67.3857 55.4901 67.1064 55.1938C66.8314 54.8976 66.6198 54.5464 66.4717 54.1401C66.3236 53.7339 66.2495 53.2896 66.2495 52.8071V52.5405C66.2495 51.9819 66.332 51.4847 66.4971 51.0488C66.6621 50.6087 66.8864 50.2363 67.1699 49.9316C67.4535 49.627 67.7751 49.3963 68.1348 49.2397C68.4945 49.0832 68.8669 49.0049 69.252 49.0049C69.7428 49.0049 70.166 49.0895 70.5215 49.2588C70.8812 49.4281 71.1753 49.665 71.4038 49.9697C71.6323 50.2702 71.8016 50.6257 71.9116 51.0361C72.0216 51.4424 72.0767 51.8867 72.0767 52.3691V52.896H66.9478V51.9375H70.9023V51.8486C70.8854 51.5439 70.8219 51.2477 70.7119 50.96C70.6061 50.6722 70.4368 50.4352 70.2041 50.249C69.9714 50.0628 69.654 49.9697 69.252 49.9697C68.9854 49.9697 68.7399 50.0269 68.5156 50.1411C68.2913 50.2511 68.0988 50.4162 67.938 50.6362C67.7772 50.8563 67.6523 51.125 67.5635 51.4424C67.4746 51.7598 67.4302 52.1258 67.4302 52.5405V52.8071C67.4302 53.133 67.4746 53.4398 67.5635 53.7275C67.6566 54.0111 67.7899 54.2607 67.9634 54.4766C68.1411 54.6924 68.3548 54.8617 68.6045 54.9844C68.8584 55.1071 69.1462 55.1685 69.4678 55.1685C69.8825 55.1685 70.2337 55.0838 70.5215 54.9146C70.8092 54.7453 71.061 54.5189 71.2769 54.2354L71.9878 54.8003C71.8397 55.0246 71.6514 55.2383 71.4229 55.4414C71.1943 55.6445 70.9129 55.8096 70.5786 55.9365C70.2485 56.0635 69.8571 56.127 69.4043 56.127ZM78.0269 54.667V46.25H79.2075V56H78.1284L78.0269 54.667ZM73.4058 52.6421V52.5088C73.4058 51.984 73.4692 51.508 73.5962 51.0806C73.7274 50.6489 73.9115 50.2786 74.1484 49.9697C74.3896 49.6608 74.6753 49.4238 75.0054 49.2588C75.3397 49.0895 75.7121 49.0049 76.1226 49.0049C76.5542 49.0049 76.9308 49.0811 77.2524 49.2334C77.5783 49.3815 77.8534 49.5994 78.0776 49.8872C78.3062 50.1707 78.486 50.5135 78.6172 50.9155C78.7484 51.3175 78.8394 51.7725 78.8901 52.2803V52.8643C78.8436 53.3678 78.7526 53.8206 78.6172 54.2227C78.486 54.6247 78.3062 54.9674 78.0776 55.251C77.8534 55.5345 77.5783 55.7524 77.2524 55.9048C76.9266 56.0529 76.5457 56.127 76.1099 56.127C75.7078 56.127 75.3397 56.0402 75.0054 55.8667C74.6753 55.6932 74.3896 55.4499 74.1484 55.1367C73.9115 54.8236 73.7274 54.4554 73.5962 54.0322C73.4692 53.6048 73.4058 53.1414 73.4058 52.6421ZM74.5864 52.5088V52.6421C74.5864 52.9849 74.6203 53.3065 74.688 53.6069C74.7599 53.9074 74.87 54.1719 75.0181 54.4004C75.1662 54.6289 75.3545 54.8088 75.583 54.9399C75.8115 55.0669 76.0845 55.1304 76.4019 55.1304C76.7912 55.1304 77.1107 55.0479 77.3604 54.8828C77.6143 54.7178 77.8174 54.4998 77.9697 54.229C78.1221 53.9582 78.2406 53.6641 78.3252 53.3467V51.8169C78.2744 51.5841 78.2004 51.3599 78.103 51.144C78.0099 50.924 77.8872 50.7293 77.7349 50.5601C77.5868 50.3866 77.4027 50.249 77.1826 50.1475C76.9668 50.0459 76.7108 49.9951 76.4146 49.9951C76.0929 49.9951 75.8158 50.0628 75.583 50.1982C75.3545 50.3294 75.1662 50.5114 75.0181 50.7441C74.87 50.9727 74.7599 51.2393 74.688 51.5439C74.6203 51.8444 74.5864 52.166 74.5864 52.5088ZM84.1357 56.127C83.6576 56.127 83.2238 56.0465 82.8345 55.8857C82.4494 55.7207 82.1172 55.4901 81.8379 55.1938C81.5628 54.8976 81.3512 54.5464 81.2031 54.1401C81.055 53.7339 80.981 53.2896 80.981 52.8071V52.5405C80.981 51.9819 81.0635 51.4847 81.2285 51.0488C81.3936 50.6087 81.6178 50.2363 81.9014 49.9316C82.1849 49.627 82.5065 49.3963 82.8662 49.2397C83.2259 49.0832 83.5983 49.0049 83.9834 49.0049C84.4743 49.0049 84.8975 49.0895 85.2529 49.2588C85.6126 49.4281 85.9067 49.665 86.1353 49.9697C86.3638 50.2702 86.533 50.6257 86.6431 51.0361C86.7531 51.4424 86.8081 51.8867 86.8081 52.3691V52.896H81.6792V51.9375H85.6338V51.8486C85.6169 51.5439 85.5534 51.2477 85.4434 50.96C85.3376 50.6722 85.1683 50.4352 84.9355 50.249C84.7028 50.0628 84.3854 49.9697 83.9834 49.9697C83.7168 49.9697 83.4714 50.0269 83.2471 50.1411C83.0228 50.2511 82.8302 50.4162 82.6694 50.6362C82.5086 50.8563 82.3838 51.125 82.2949 51.4424C82.2061 51.7598 82.1616 52.1258 82.1616 52.5405V52.8071C82.1616 53.133 82.2061 53.4398 82.2949 53.7275C82.388 54.0111 82.5213 54.2607 82.6948 54.4766C82.8726 54.6924 83.0863 54.8617 83.3359 54.9844C83.5898 55.1071 83.8776 55.1685 84.1992 55.1685C84.6139 55.1685 84.9652 55.0838 85.2529 54.9146C85.5407 54.7453 85.7925 54.5189 86.0083 54.2354L86.7192 54.8003C86.5711 55.0246 86.3828 55.2383 86.1543 55.4414C85.9258 55.6445 85.6444 55.8096 85.3101 55.9365C84.98 56.0635 84.5885 56.127 84.1357 56.127ZM89.7051 46.25V56H88.5244V46.25H89.7051ZM93.1162 46.25V56H91.9355V46.25H93.1162ZM96.5273 49.1318V56H95.3467V49.1318H96.5273ZM95.2578 47.3101C95.2578 47.1196 95.3149 46.9588 95.4292 46.8276C95.5477 46.6965 95.7212 46.6309 95.9497 46.6309C96.174 46.6309 96.3454 46.6965 96.4639 46.8276C96.5866 46.9588 96.6479 47.1196 96.6479 47.3101C96.6479 47.492 96.5866 47.6486 96.4639 47.7798C96.3454 47.9067 96.174 47.9702 95.9497 47.9702C95.7212 47.9702 95.5477 47.9067 95.4292 47.7798C95.3149 47.6486 95.2578 47.492 95.2578 47.3101ZM99.8369 50.5981V56H98.6626V49.1318H99.7734L99.8369 50.5981ZM99.5576 52.3057L99.0688 52.2866C99.0731 51.8169 99.1429 51.3831 99.2783 50.9854C99.4137 50.5833 99.6042 50.2342 99.8496 49.938C100.095 49.6418 100.387 49.4132 100.726 49.2524C101.068 49.0874 101.447 49.0049 101.862 49.0049C102.2 49.0049 102.505 49.0514 102.776 49.1445C103.047 49.2334 103.277 49.3773 103.468 49.5762C103.662 49.7751 103.811 50.0332 103.912 50.3506C104.014 50.6637 104.064 51.0467 104.064 51.4995V56H102.884V51.4868C102.884 51.1271 102.831 50.8394 102.725 50.6235C102.619 50.4035 102.465 50.2448 102.262 50.1475C102.059 50.0459 101.809 49.9951 101.513 49.9951C101.221 49.9951 100.954 50.0565 100.713 50.1792C100.476 50.3019 100.271 50.4712 100.097 50.687C99.9279 50.9028 99.7946 51.1504 99.6973 51.4297C99.6042 51.7048 99.5576 51.9967 99.5576 52.3057Z" fill="white"/>
<g clip-path="url(#clip0_48_1123)">
<path d="M56.5 10.75C56.5 11.7446 56.1049 12.6984 55.4017 13.4017C54.6984 14.1049 53.7446 14.5 52.75 14.5C51.7554 14.5 50.8016 14.1049 50.0983 13.4017C49.3951 12.6984 49 11.7446 49 10.75C49 9.75544 49.3951 8.80161 50.0983 8.09835C50.8016 7.39509 51.7554 7 52.75 7C53.7446 7 54.6984 7.39509 55.4017 8.09835C56.1049 8.80161 56.5 9.75544 56.5 10.75V10.75Z" stroke="#D9D9D9" stroke-width="1.5" stroke-linecap="round" stroke-linejoin="round"/>
<path d="M62.75 12.375C62.75 21.3025 53.375 26.4375 53.375 26.4375C53.375 26.4375 44 21.3025 44 12.375C44 9.8886 44.9877 7.50403 46.7459 5.74587C48.504 3.98772 50.8886 3 53.375 3C55.8614 3 58.246 3.98772 60.0041 5.74587C61.7623 7.50403 62.75 9.8886 62.75 12.375V12.375Z" stroke="#D9D9D9" stroke-width="1.5" stroke-linecap="round" stroke-linejoin="round"/>
</g>
<defs>
<clipPath id="clip0_48_1123">
<rect width="30" height="30" fill="white" transform="translate(38)"/>
</clipPath>
</defs>
</svg>
