<svg width="135" height="40" viewBox="0 0 135 40" fill="none" xmlns="http://www.w3.org/2000/svg">
<path d="M16.3194 2.335V31H9.40906V2.335H16.3194ZM24.9425 2.335V7.67031H0.982809V2.335H24.9425ZM35.2784 25.645V16.8644C35.2784 16.2606 35.1931 15.7422 35.0225 15.3091C34.8519 14.8759 34.5828 14.5413 34.2153 14.305C33.8478 14.0556 33.3556 13.9309 32.7387 13.9309C32.24 13.9309 31.8134 14.0163 31.4591 14.1869C31.1047 14.3575 30.8356 14.6134 30.6519 14.9547C30.4681 15.2959 30.3762 15.7291 30.3762 16.2541H23.7416C23.7416 15.2697 23.9581 14.3575 24.3912 13.5175C24.8375 12.6644 25.4675 11.9228 26.2812 11.2928C27.1081 10.6628 28.0925 10.1772 29.2344 9.83594C30.3894 9.48156 31.6756 9.30438 33.0931 9.30438C34.7862 9.30438 36.2956 9.58656 37.6212 10.1509C38.96 10.7153 40.0166 11.5619 40.7909 12.6906C41.5653 13.8063 41.9525 15.2106 41.9525 16.9038V25.6253C41.9525 27.0166 42.0312 28.0731 42.1887 28.795C42.3462 29.5038 42.5694 30.1272 42.8581 30.6653V31H36.2037C35.8887 30.3438 35.6525 29.5431 35.495 28.5981C35.3506 27.64 35.2784 26.6556 35.2784 25.645ZM36.0856 17.9866L36.125 21.5303H33.1916C32.5747 21.5303 32.0497 21.6156 31.6166 21.7863C31.1966 21.9569 30.8553 22.1931 30.5928 22.495C30.3434 22.7838 30.1597 23.1119 30.0416 23.4794C29.9366 23.8469 29.8841 24.2341 29.8841 24.6409C29.8841 25.0347 29.9759 25.3891 30.1597 25.7041C30.3566 26.0059 30.6191 26.2422 30.9472 26.4128C31.2753 26.5834 31.6428 26.6688 32.0497 26.6688C32.7847 26.6688 33.4081 26.5309 33.92 26.2553C34.445 25.9666 34.8453 25.6188 35.1209 25.2119C35.3966 24.805 35.5344 24.4244 35.5344 24.07L36.9912 26.7869C36.7287 27.3119 36.4269 27.8434 36.0856 28.3816C35.7575 28.9197 35.3441 29.4184 34.8453 29.8778C34.3597 30.3241 33.7625 30.6916 33.0537 30.9803C32.345 31.2559 31.4853 31.3937 30.4747 31.3937C29.1622 31.3937 27.9547 31.1247 26.8522 30.5866C25.7628 30.0484 24.89 29.3003 24.2337 28.3422C23.5775 27.3709 23.2494 26.2553 23.2494 24.9953C23.2494 23.8928 23.4462 22.9084 23.84 22.0422C24.2469 21.1759 24.8572 20.4409 25.6709 19.8372C26.4847 19.2334 27.5216 18.7741 28.7816 18.4591C30.0416 18.1441 31.5247 17.9866 33.2309 17.9866H36.0856ZM52.6428 0.76V31H45.9884V0.76H52.6428ZM67.0541 31.3937C65.3216 31.3937 63.7728 31.1247 62.4078 30.5866C61.0428 30.0353 59.8878 29.2806 58.9428 28.3225C58.0109 27.3644 57.2956 26.2619 56.7969 25.015C56.3112 23.7681 56.0684 22.4491 56.0684 21.0578V20.3097C56.0684 18.7478 56.285 17.3041 56.7181 15.9784C57.1512 14.6397 57.7944 13.4716 58.6475 12.4741C59.5006 11.4766 60.5703 10.7022 61.8566 10.1509C63.1428 9.58656 64.6391 9.30438 66.3453 9.30438C67.8547 9.30438 69.2066 9.54719 70.4009 10.0328C71.5953 10.5184 72.6059 11.2141 73.4328 12.1197C74.2728 13.0253 74.9094 14.1213 75.3425 15.4075C75.7887 16.6938 76.0119 18.1375 76.0119 19.7388V22.4359H58.6081V18.2819H69.5347V17.77C69.5478 17.0613 69.4231 16.4575 69.1606 15.9588C68.9112 15.46 68.5437 15.0794 68.0581 14.8169C67.5725 14.5544 66.9819 14.4231 66.2862 14.4231C65.5644 14.4231 64.9672 14.5806 64.4947 14.8956C64.0353 15.2106 63.6744 15.6438 63.4119 16.195C63.1625 16.7331 62.9853 17.3566 62.8803 18.0653C62.7753 18.7741 62.7228 19.5222 62.7228 20.3097V21.0578C62.7228 21.8453 62.8278 22.5606 63.0378 23.2038C63.2609 23.8469 63.5759 24.3981 63.9828 24.8575C64.4028 25.3038 64.9016 25.6516 65.4791 25.9009C66.0697 26.1503 66.7391 26.275 67.4872 26.275C68.3928 26.275 69.2853 26.1044 70.1647 25.7631C71.0441 25.4219 71.7987 24.8575 72.4287 24.07L75.4409 27.6531C75.0078 28.27 74.3909 28.8672 73.5903 29.4447C72.8028 30.0222 71.8578 30.4947 70.7553 30.8622C69.6528 31.2166 68.4191 31.3937 67.0541 31.3937ZM85.2256 14.2459V31H78.5909V9.69813H84.8122L85.2256 14.2459ZM84.4381 19.6206L82.8828 19.66C82.8828 18.0325 83.0797 16.5822 83.4734 15.3091C83.8672 14.0228 84.425 12.9334 85.1469 12.0409C85.8687 11.1484 86.7284 10.4725 87.7259 10.0131C88.7366 9.54063 89.8587 9.30438 91.0925 9.30438C92.0769 9.30438 92.9759 9.44875 93.7897 9.7375C94.6166 10.0263 95.3253 10.4922 95.9159 11.1353C96.5197 11.7784 96.9791 12.6316 97.2941 13.6947C97.6222 14.7447 97.7862 16.0441 97.7862 17.5928V31H91.1122V17.5731C91.1122 16.72 90.9941 16.0703 90.7578 15.6241C90.5216 15.1647 90.1803 14.8497 89.7341 14.6791C89.2878 14.5084 88.7431 14.4231 88.1 14.4231C87.4175 14.4231 86.84 14.5544 86.3675 14.8169C85.895 15.0794 85.5144 15.4469 85.2256 15.9194C84.95 16.3788 84.7466 16.9234 84.6153 17.5534C84.4972 18.1834 84.4381 18.8725 84.4381 19.6206ZM112.69 9.69813V14.305H99.8534V9.69813H112.69ZM102.551 4.40219H109.185V24.0503C109.185 24.6147 109.251 25.0544 109.382 25.3694C109.513 25.6713 109.737 25.8878 110.052 26.0191C110.38 26.1372 110.813 26.1963 111.351 26.1963C111.732 26.1963 112.047 26.1897 112.296 26.1766C112.545 26.1503 112.782 26.1175 113.005 26.0781V30.8228C112.44 31.0066 111.85 31.1444 111.233 31.2362C110.616 31.3412 109.96 31.3937 109.264 31.3937C107.847 31.3937 106.633 31.1706 105.622 30.7244C104.624 30.2781 103.863 29.5759 103.338 28.6178C102.813 27.6597 102.551 26.4128 102.551 24.8772V4.40219ZM121.864 28.4997L127.377 9.69813H134.503L125.939 34.1697C125.756 34.7078 125.513 35.2853 125.211 35.9022C124.909 36.5322 124.496 37.1294 123.971 37.6937C123.446 38.2581 122.77 38.7175 121.943 39.0719C121.129 39.4262 120.118 39.6034 118.911 39.6034C118.268 39.6034 117.795 39.5706 117.493 39.505C117.205 39.4525 116.758 39.3541 116.155 39.2097V34.465C116.325 34.465 116.47 34.465 116.588 34.465C116.719 34.465 116.863 34.465 117.021 34.465C117.73 34.465 118.294 34.3928 118.714 34.2484C119.147 34.1041 119.475 33.8941 119.698 33.6184C119.935 33.3428 120.118 33.0081 120.25 32.6144L121.864 28.4997ZM120.466 9.69813L124.66 24.6016L125.388 31.63H120.939L113.359 9.69813H120.466Z" fill="white"/>
</svg>
