<svg width="99" height="63" viewBox="0 0 99 63" fill="none" xmlns="http://www.w3.org/2000/svg">
<path d="M6.83008 51.0425V52.147H0.495117V51.0425H6.83008ZM4.25293 48.3447V55.0732H3.07861V48.3447H4.25293ZM9.87939 51.6011L8.93994 51.3599L9.40332 46.7578H14.145V47.8433H10.3999L10.1206 50.3569C10.2899 50.2596 10.5036 50.1686 10.7617 50.084C11.0241 49.9993 11.3245 49.957 11.6631 49.957C12.0905 49.957 12.4735 50.0311 12.812 50.1792C13.1506 50.3231 13.4383 50.5304 13.6753 50.8013C13.9165 51.0721 14.1006 51.3979 14.2275 51.7788C14.3545 52.1597 14.418 52.585 14.418 53.0547C14.418 53.499 14.3566 53.9074 14.2339 54.2798C14.1154 54.6522 13.9355 54.978 13.6943 55.2573C13.4531 55.5324 13.1484 55.7461 12.7803 55.8984C12.4163 56.0508 11.9868 56.127 11.4917 56.127C11.1193 56.127 10.766 56.0762 10.4316 55.9746C10.1016 55.8688 9.80534 55.7101 9.54297 55.4985C9.28483 55.2827 9.07324 55.0161 8.9082 54.6987C8.7474 54.3771 8.64583 54.0005 8.60352 53.5688H9.7207C9.77148 53.9159 9.87305 54.2078 10.0254 54.4448C10.1777 54.6818 10.3766 54.8617 10.6221 54.9844C10.8717 55.1029 11.1616 55.1621 11.4917 55.1621C11.771 55.1621 12.0186 55.1134 12.2344 55.0161C12.4502 54.9188 12.6322 54.7791 12.7803 54.5972C12.9284 54.4152 13.0405 54.1951 13.1167 53.937C13.1971 53.6789 13.2373 53.389 13.2373 53.0674C13.2373 52.7754 13.1971 52.5046 13.1167 52.2549C13.0363 52.0052 12.9157 51.7873 12.7549 51.6011C12.5983 51.4149 12.4058 51.271 12.1772 51.1694C11.9487 51.0636 11.6864 51.0107 11.3901 51.0107C10.9966 51.0107 10.6982 51.0636 10.4951 51.1694C10.2962 51.2752 10.091 51.4191 9.87939 51.6011ZM21.9297 46.7578V47.418L18.1021 56H16.8643L20.6855 47.7227H15.6836V46.7578H21.9297ZM29.3462 53.499C29.3462 54.0618 29.215 54.54 28.9526 54.9336C28.6945 55.3229 28.3433 55.6191 27.8989 55.8223C27.4588 56.0254 26.9616 56.127 26.4072 56.127C25.8529 56.127 25.3535 56.0254 24.9092 55.8223C24.4648 55.6191 24.1136 55.3229 23.8555 54.9336C23.5973 54.54 23.4683 54.0618 23.4683 53.499C23.4683 53.1309 23.5381 52.7944 23.6777 52.4897C23.8216 52.1808 24.0226 51.9121 24.2808 51.6836C24.5431 51.4551 24.8521 51.2795 25.2075 51.1567C25.5672 51.0298 25.9629 50.9663 26.3945 50.9663C26.9616 50.9663 27.4673 51.0763 27.9116 51.2964C28.356 51.5122 28.7051 51.8105 28.959 52.1914C29.2171 52.5723 29.3462 53.0081 29.3462 53.499ZM28.1655 53.4736C28.1655 53.1309 28.0915 52.8283 27.9434 52.5659C27.7952 52.2993 27.5879 52.092 27.3213 51.9438C27.0547 51.7957 26.7458 51.7217 26.3945 51.7217C26.0348 51.7217 25.7238 51.7957 25.4614 51.9438C25.2033 52.092 25.0023 52.2993 24.8584 52.5659C24.7145 52.8283 24.6426 53.1309 24.6426 53.4736C24.6426 53.8291 24.7124 54.1338 24.8521 54.3877C24.9959 54.6374 25.1991 54.8299 25.4614 54.9653C25.728 55.0965 26.0433 55.1621 26.4072 55.1621C26.7712 55.1621 27.0843 55.0965 27.3467 54.9653C27.609 54.8299 27.8101 54.6374 27.9497 54.3877C28.0936 54.1338 28.1655 53.8291 28.1655 53.4736ZM29.1304 49.1636C29.1304 49.6121 29.0119 50.0163 28.7749 50.376C28.5379 50.7357 28.2142 51.0192 27.8037 51.2266C27.3932 51.4339 26.9277 51.5376 26.4072 51.5376C25.8783 51.5376 25.4064 51.4339 24.9917 51.2266C24.5812 51.0192 24.2596 50.7357 24.0269 50.376C23.7941 50.0163 23.6777 49.6121 23.6777 49.1636C23.6777 48.6261 23.7941 48.1691 24.0269 47.7925C24.2638 47.4159 24.5876 47.1281 24.998 46.9292C25.4085 46.7303 25.8761 46.6309 26.4009 46.6309C26.9299 46.6309 27.3996 46.7303 27.8101 46.9292C28.2205 47.1281 28.5422 47.4159 28.7749 47.7925C29.0119 48.1691 29.1304 48.6261 29.1304 49.1636ZM27.9561 49.1826C27.9561 48.8737 27.8905 48.6007 27.7593 48.3638C27.6281 48.1268 27.4461 47.9406 27.2134 47.8052C26.9806 47.6655 26.7098 47.5957 26.4009 47.5957C26.092 47.5957 25.8211 47.6613 25.5884 47.7925C25.3599 47.9194 25.18 48.1014 25.0488 48.3384C24.9219 48.5754 24.8584 48.8568 24.8584 49.1826C24.8584 49.5 24.9219 49.7772 25.0488 50.0142C25.18 50.2511 25.362 50.4352 25.5947 50.5664C25.8275 50.6976 26.0983 50.7632 26.4072 50.7632C26.7161 50.7632 26.9849 50.6976 27.2134 50.5664C27.4461 50.4352 27.6281 50.2511 27.7593 50.0142C27.8905 49.7772 27.9561 49.5 27.9561 49.1826ZM32.2495 55.0161H32.3701C33.0472 55.0161 33.5973 54.9209 34.0205 54.7305C34.4437 54.54 34.7695 54.284 34.998 53.9624C35.2266 53.6408 35.3831 53.279 35.4678 52.877C35.5524 52.4707 35.5947 52.0539 35.5947 51.6265V50.2109C35.5947 49.792 35.5461 49.4196 35.4487 49.0938C35.3556 48.7679 35.2244 48.495 35.0552 48.2749C34.8901 48.0549 34.7018 47.8877 34.4902 47.7734C34.2786 47.6592 34.0544 47.6021 33.8174 47.6021C33.5465 47.6021 33.3032 47.6571 33.0874 47.7671C32.8758 47.8729 32.696 48.0231 32.5479 48.2178C32.404 48.4124 32.2939 48.641 32.2178 48.9033C32.1416 49.1657 32.1035 49.4513 32.1035 49.7603C32.1035 50.0353 32.1374 50.3019 32.2051 50.5601C32.2728 50.8182 32.3765 51.0509 32.5161 51.2583C32.6558 51.4657 32.8293 51.6307 33.0366 51.7534C33.2482 51.8719 33.4958 51.9312 33.7793 51.9312C34.0417 51.9312 34.2871 51.8804 34.5156 51.7788C34.7484 51.673 34.9536 51.5312 35.1313 51.3535C35.3133 51.1715 35.4572 50.9663 35.563 50.7378C35.673 50.5093 35.7365 50.2702 35.7534 50.0205H36.312C36.312 50.3717 36.2422 50.7188 36.1025 51.0615C35.9671 51.4001 35.7767 51.709 35.5312 51.9883C35.2858 52.2676 34.998 52.4919 34.668 52.6611C34.3379 52.8262 33.9782 52.9087 33.5889 52.9087C33.1318 52.9087 32.7362 52.8198 32.4019 52.6421C32.0675 52.4644 31.7925 52.2274 31.5767 51.9312C31.3651 51.6349 31.2064 51.3049 31.1006 50.9409C30.999 50.5728 30.9482 50.2004 30.9482 49.8237C30.9482 49.3836 31.0096 48.971 31.1323 48.5859C31.255 48.2008 31.437 47.8623 31.6782 47.5703C31.9194 47.2741 32.2178 47.0435 32.5732 46.8784C32.9329 46.7134 33.3477 46.6309 33.8174 46.6309C34.3464 46.6309 34.797 46.7367 35.1694 46.9482C35.5418 47.1598 35.8444 47.4434 36.0771 47.7988C36.3141 48.1543 36.4876 48.5542 36.5977 48.9985C36.7077 49.4429 36.7627 49.8999 36.7627 50.3696V50.7949C36.7627 51.2731 36.731 51.7598 36.6675 52.2549C36.6082 52.7458 36.4919 53.2155 36.3184 53.6641C36.1491 54.1126 35.9015 54.5146 35.5757 54.8701C35.2498 55.2214 34.8245 55.5007 34.2998 55.708C33.7793 55.9111 33.1361 56.0127 32.3701 56.0127H32.2495V55.0161ZM39.812 55.0161H39.9326C40.6097 55.0161 41.1598 54.9209 41.583 54.7305C42.0062 54.54 42.332 54.284 42.5605 53.9624C42.7891 53.6408 42.9456 53.279 43.0303 52.877C43.1149 52.4707 43.1572 52.0539 43.1572 51.6265V50.2109C43.1572 49.792 43.1086 49.4196 43.0112 49.0938C42.9181 48.7679 42.7869 48.495 42.6177 48.2749C42.4526 48.0549 42.2643 47.8877 42.0527 47.7734C41.8411 47.6592 41.6169 47.6021 41.3799 47.6021C41.109 47.6021 40.8657 47.6571 40.6499 47.7671C40.4383 47.8729 40.2585 48.0231 40.1104 48.2178C39.9665 48.4124 39.8564 48.641 39.7803 48.9033C39.7041 49.1657 39.666 49.4513 39.666 49.7603C39.666 50.0353 39.6999 50.3019 39.7676 50.5601C39.8353 50.8182 39.939 51.0509 40.0786 51.2583C40.2183 51.4657 40.3918 51.6307 40.5991 51.7534C40.8107 51.8719 41.0583 51.9312 41.3418 51.9312C41.6042 51.9312 41.8496 51.8804 42.0781 51.7788C42.3109 51.673 42.5161 51.5312 42.6938 51.3535C42.8758 51.1715 43.0197 50.9663 43.1255 50.7378C43.2355 50.5093 43.299 50.2702 43.3159 50.0205H43.8745C43.8745 50.3717 43.8047 50.7188 43.665 51.0615C43.5296 51.4001 43.3392 51.709 43.0938 51.9883C42.8483 52.2676 42.5605 52.4919 42.2305 52.6611C41.9004 52.8262 41.5407 52.9087 41.1514 52.9087C40.6943 52.9087 40.2987 52.8198 39.9644 52.6421C39.63 52.4644 39.355 52.2274 39.1392 51.9312C38.9276 51.6349 38.7689 51.3049 38.6631 50.9409C38.5615 50.5728 38.5107 50.2004 38.5107 49.8237C38.5107 49.3836 38.5721 48.971 38.6948 48.5859C38.8175 48.2008 38.9995 47.8623 39.2407 47.5703C39.4819 47.2741 39.7803 47.0435 40.1357 46.8784C40.4954 46.7134 40.9102 46.6309 41.3799 46.6309C41.9089 46.6309 42.3595 46.7367 42.7319 46.9482C43.1043 47.1598 43.4069 47.4434 43.6396 47.7988C43.8766 48.1543 44.0501 48.5542 44.1602 48.9985C44.2702 49.4429 44.3252 49.8999 44.3252 50.3696V50.7949C44.3252 51.2731 44.2935 51.7598 44.23 52.2549C44.1707 52.7458 44.0544 53.2155 43.8809 53.6641C43.7116 54.1126 43.464 54.5146 43.1382 54.8701C42.8123 55.2214 42.387 55.5007 41.8623 55.708C41.3418 55.9111 40.6986 56.0127 39.9326 56.0127H39.812V55.0161ZM47.6919 51.6011L46.7524 51.3599L47.2158 46.7578H51.9575V47.8433H48.2124L47.9331 50.3569C48.1024 50.2596 48.3161 50.1686 48.5742 50.084C48.8366 49.9993 49.137 49.957 49.4756 49.957C49.903 49.957 50.286 50.0311 50.6245 50.1792C50.9631 50.3231 51.2508 50.5304 51.4878 50.8013C51.729 51.0721 51.9131 51.3979 52.04 51.7788C52.167 52.1597 52.2305 52.585 52.2305 53.0547C52.2305 53.499 52.1691 53.9074 52.0464 54.2798C51.9279 54.6522 51.748 54.978 51.5068 55.2573C51.2656 55.5324 50.9609 55.7461 50.5928 55.8984C50.2288 56.0508 49.7993 56.127 49.3042 56.127C48.9318 56.127 48.5785 56.0762 48.2441 55.9746C47.9141 55.8688 47.6178 55.7101 47.3555 55.4985C47.0973 55.2827 46.8857 55.0161 46.7207 54.6987C46.5599 54.3771 46.4583 54.0005 46.416 53.5688H47.5332C47.584 53.9159 47.6855 54.2078 47.8379 54.4448C47.9902 54.6818 48.1891 54.8617 48.4346 54.9844C48.6842 55.1029 48.9741 55.1621 49.3042 55.1621C49.5835 55.1621 49.8311 55.1134 50.0469 55.0161C50.2627 54.9188 50.4447 54.7791 50.5928 54.5972C50.7409 54.4152 50.853 54.1951 50.9292 53.937C51.0096 53.6789 51.0498 53.389 51.0498 53.0674C51.0498 52.7754 51.0096 52.5046 50.9292 52.2549C50.8488 52.0052 50.7282 51.7873 50.5674 51.6011C50.4108 51.4149 50.2183 51.271 49.9897 51.1694C49.7612 51.0636 49.4989 51.0107 49.2026 51.0107C48.8091 51.0107 48.5107 51.0636 48.3076 51.1694C48.1087 51.2752 47.9035 51.4191 47.6919 51.6011ZM58.2759 46.7451H58.3774V47.7417H58.2759C57.6538 47.7417 57.1333 47.8433 56.7144 48.0464C56.2954 48.2453 55.9632 48.514 55.7178 48.8525C55.4723 49.1868 55.2946 49.5635 55.1846 49.9824C55.0788 50.4014 55.0259 50.8267 55.0259 51.2583V52.6167C55.0259 53.0272 55.0745 53.3911 55.1719 53.7085C55.2692 54.0216 55.4025 54.2861 55.5718 54.502C55.741 54.7178 55.9315 54.8807 56.1431 54.9907C56.3589 55.1007 56.5832 55.1558 56.8159 55.1558C57.0868 55.1558 57.328 55.105 57.5396 55.0034C57.7511 54.8976 57.9289 54.7516 58.0728 54.5654C58.2209 54.375 58.333 54.1507 58.4092 53.8926C58.4854 53.6344 58.5234 53.3509 58.5234 53.042C58.5234 52.7669 58.4896 52.5024 58.4219 52.2485C58.3542 51.9904 58.2505 51.7619 58.1108 51.563C57.9712 51.3599 57.7956 51.2012 57.584 51.0869C57.3766 50.9684 57.1291 50.9092 56.8413 50.9092C56.5155 50.9092 56.2108 50.9896 55.9272 51.1504C55.6479 51.307 55.4173 51.5143 55.2354 51.7725C55.0576 52.0264 54.9561 52.3035 54.9307 52.604L54.3086 52.5977C54.3678 52.1237 54.4779 51.7196 54.6387 51.3853C54.8037 51.0467 55.0068 50.7716 55.248 50.5601C55.4935 50.3442 55.7664 50.1877 56.0669 50.0903C56.3716 49.9888 56.6932 49.938 57.0317 49.938C57.493 49.938 57.8908 50.0247 58.2251 50.1982C58.5594 50.3717 58.8345 50.6045 59.0503 50.8965C59.2661 51.1842 59.4248 51.5101 59.5264 51.874C59.6322 52.2337 59.6851 52.604 59.6851 52.9849C59.6851 53.4207 59.6237 53.8291 59.501 54.21C59.3783 54.5908 59.1942 54.9251 58.9487 55.2129C58.7075 55.5007 58.4092 55.7249 58.0537 55.8857C57.6982 56.0465 57.2856 56.127 56.8159 56.127C56.3166 56.127 55.8807 56.0254 55.5083 55.8223C55.1359 55.6149 54.827 55.3398 54.5815 54.9971C54.3361 54.6543 54.152 54.2734 54.0293 53.8545C53.9066 53.4355 53.8452 53.0103 53.8452 52.5786V52.0264C53.8452 51.3747 53.9108 50.7357 54.042 50.1094C54.1732 49.4831 54.3996 48.916 54.7212 48.4082C55.047 47.9004 55.4977 47.4963 56.0732 47.1958C56.6488 46.8953 57.383 46.7451 58.2759 46.7451ZM65.8384 46.7451H65.9399V47.7417H65.8384C65.2163 47.7417 64.6958 47.8433 64.2769 48.0464C63.8579 48.2453 63.5257 48.514 63.2803 48.8525C63.0348 49.1868 62.8571 49.5635 62.7471 49.9824C62.6413 50.4014 62.5884 50.8267 62.5884 51.2583V52.6167C62.5884 53.0272 62.637 53.3911 62.7344 53.7085C62.8317 54.0216 62.965 54.2861 63.1343 54.502C63.3035 54.7178 63.494 54.8807 63.7056 54.9907C63.9214 55.1007 64.1457 55.1558 64.3784 55.1558C64.6493 55.1558 64.8905 55.105 65.1021 55.0034C65.3136 54.8976 65.4914 54.7516 65.6353 54.5654C65.7834 54.375 65.8955 54.1507 65.9717 53.8926C66.0479 53.6344 66.0859 53.3509 66.0859 53.042C66.0859 52.7669 66.0521 52.5024 65.9844 52.2485C65.9167 51.9904 65.813 51.7619 65.6733 51.563C65.5337 51.3599 65.3581 51.2012 65.1465 51.0869C64.9391 50.9684 64.6916 50.9092 64.4038 50.9092C64.078 50.9092 63.7733 50.9896 63.4897 51.1504C63.2104 51.307 62.9798 51.5143 62.7979 51.7725C62.6201 52.0264 62.5186 52.3035 62.4932 52.604L61.8711 52.5977C61.9303 52.1237 62.0404 51.7196 62.2012 51.3853C62.3662 51.0467 62.5693 50.7716 62.8105 50.5601C63.056 50.3442 63.3289 50.1877 63.6294 50.0903C63.9341 49.9888 64.2557 49.938 64.5942 49.938C65.0555 49.938 65.4533 50.0247 65.7876 50.1982C66.1219 50.3717 66.397 50.6045 66.6128 50.8965C66.8286 51.1842 66.9873 51.5101 67.0889 51.874C67.1947 52.2337 67.2476 52.604 67.2476 52.9849C67.2476 53.4207 67.1862 53.8291 67.0635 54.21C66.9408 54.5908 66.7567 54.9251 66.5112 55.2129C66.27 55.5007 65.9717 55.7249 65.6162 55.8857C65.2607 56.0465 64.8481 56.127 64.3784 56.127C63.8791 56.127 63.4432 56.0254 63.0708 55.8223C62.6984 55.6149 62.3895 55.3398 62.144 54.9971C61.8986 54.6543 61.7145 54.2734 61.5918 53.8545C61.4691 53.4355 61.4077 53.0103 61.4077 52.5786V52.0264C61.4077 51.3747 61.4733 50.7357 61.6045 50.1094C61.7357 49.4831 61.9621 48.916 62.2837 48.4082C62.6095 47.9004 63.0602 47.4963 63.6357 47.1958C64.2113 46.8953 64.9455 46.7451 65.8384 46.7451ZM73.4009 46.7451H73.5024V47.7417H73.4009C72.7788 47.7417 72.2583 47.8433 71.8394 48.0464C71.4204 48.2453 71.0882 48.514 70.8428 48.8525C70.5973 49.1868 70.4196 49.5635 70.3096 49.9824C70.2038 50.4014 70.1509 50.8267 70.1509 51.2583V52.6167C70.1509 53.0272 70.1995 53.3911 70.2969 53.7085C70.3942 54.0216 70.5275 54.2861 70.6968 54.502C70.866 54.7178 71.0565 54.8807 71.2681 54.9907C71.4839 55.1007 71.7082 55.1558 71.9409 55.1558C72.2118 55.1558 72.453 55.105 72.6646 55.0034C72.8761 54.8976 73.0539 54.7516 73.1978 54.5654C73.3459 54.375 73.458 54.1507 73.5342 53.8926C73.6104 53.6344 73.6484 53.3509 73.6484 53.042C73.6484 52.7669 73.6146 52.5024 73.5469 52.2485C73.4792 51.9904 73.3755 51.7619 73.2358 51.563C73.0962 51.3599 72.9206 51.2012 72.709 51.0869C72.5016 50.9684 72.2541 50.9092 71.9663 50.9092C71.6405 50.9092 71.3358 50.9896 71.0522 51.1504C70.7729 51.307 70.5423 51.5143 70.3604 51.7725C70.1826 52.0264 70.0811 52.3035 70.0557 52.604L69.4336 52.5977C69.4928 52.1237 69.6029 51.7196 69.7637 51.3853C69.9287 51.0467 70.1318 50.7716 70.373 50.5601C70.6185 50.3442 70.8914 50.1877 71.1919 50.0903C71.4966 49.9888 71.8182 49.938 72.1567 49.938C72.618 49.938 73.0158 50.0247 73.3501 50.1982C73.6844 50.3717 73.9595 50.6045 74.1753 50.8965C74.3911 51.1842 74.5498 51.5101 74.6514 51.874C74.7572 52.2337 74.8101 52.604 74.8101 52.9849C74.8101 53.4207 74.7487 53.8291 74.626 54.21C74.5033 54.5908 74.3192 54.9251 74.0737 55.2129C73.8325 55.5007 73.5342 55.7249 73.1787 55.8857C72.8232 56.0465 72.4106 56.127 71.9409 56.127C71.4416 56.127 71.0057 56.0254 70.6333 55.8223C70.2609 55.6149 69.952 55.3398 69.7065 54.9971C69.4611 54.6543 69.277 54.2734 69.1543 53.8545C69.0316 53.4355 68.9702 53.0103 68.9702 52.5786V52.0264C68.9702 51.3747 69.0358 50.7357 69.167 50.1094C69.2982 49.4831 69.5246 48.916 69.8462 48.4082C70.172 47.9004 70.6227 47.4963 71.1982 47.1958C71.7738 46.8953 72.508 46.7451 73.4009 46.7451ZM82.4297 46.7578V47.418L78.6021 56H77.3643L81.1855 47.7227H76.1836V46.7578H82.4297ZM89.9922 46.7578V47.418L86.1646 56H84.9268L88.748 47.7227H83.7461V46.7578H89.9922ZM97.8276 52.8896V53.8545H91.1499V53.1626L95.2886 46.7578H96.2471L95.2188 48.6113L92.4829 52.8896H97.8276ZM96.5391 46.7578V56H95.3647V46.7578H96.5391Z" fill="white"/>
<g clip-path="url(#clip0_48_1114)">
<path d="M45.25 10C46.2446 10 47.1984 10.3951 47.9017 11.0983C48.6049 11.8016 49 12.7554 49 13.75C49 14.0815 49.1317 14.3995 49.3661 14.6339C49.6005 14.8683 49.9185 15 50.25 15C50.5815 15 50.8995 14.8683 51.1339 14.6339C51.3683 14.3995 51.5 14.0815 51.5 13.75C51.5 12.0924 50.8415 10.5027 49.6694 9.33058C48.4973 8.15848 46.9076 7.5 45.25 7.5C44.9185 7.5 44.6005 7.6317 44.3661 7.86612C44.1317 8.10054 44 8.41848 44 8.75C44 9.08152 44.1317 9.39946 44.3661 9.63388C44.6005 9.8683 44.9185 10 45.25 10Z" fill="#EDF0F5"/>
<path d="M45.25 5C47.5706 5 49.7962 5.92187 51.4372 7.56282C53.0781 9.20376 54 11.4294 54 13.75C54 14.0815 54.1317 14.3995 54.3661 14.6339C54.6005 14.8683 54.9185 15 55.25 15C55.5815 15 55.8995 14.8683 56.1339 14.6339C56.3683 14.3995 56.5 14.0815 56.5 13.75C56.5 10.7663 55.3147 7.90483 53.205 5.79505C51.0952 3.68526 48.2337 2.5 45.25 2.5C44.9185 2.5 44.6005 2.6317 44.3661 2.86612C44.1317 3.10054 44 3.41848 44 3.75C44 4.08152 44.1317 4.39946 44.3661 4.63388C44.6005 4.8683 44.9185 5 45.25 5Z" fill="#EDF0F5"/>
<path d="M56.1875 19.8875C56.1187 19.6868 56.0001 19.507 55.8426 19.3648C55.6852 19.2227 55.4941 19.1229 55.2875 19.075L47.7875 17.3625C47.5839 17.3163 47.372 17.3219 47.1711 17.3787C46.9703 17.4354 46.7868 17.5416 46.6375 17.6875C46.4625 17.85 46.45 17.8625 45.6375 19.4125C42.9415 18.1702 40.7812 16.0011 39.55 13.3C41.1375 12.5 41.15 12.5 41.3125 12.3125C41.4584 12.1632 41.5646 11.9797 41.6213 11.7789C41.6781 11.578 41.6837 11.3661 41.6375 11.1625L39.925 3.75C39.8771 3.54337 39.7773 3.35234 39.6352 3.19489C39.493 3.03744 39.3132 2.91875 39.1125 2.85C38.8206 2.74574 38.5191 2.67038 38.2125 2.625C37.8966 2.55174 37.5742 2.50987 37.25 2.5C35.725 2.5 34.2625 3.1058 33.1841 4.18414C32.1058 5.26247 31.5 6.72501 31.5 8.25C31.5066 13.3534 33.5369 18.2459 37.1455 21.8545C40.7541 25.4631 45.6466 27.4934 50.75 27.5C51.5051 27.5 52.2528 27.3513 52.9504 27.0623C53.6481 26.7733 54.2819 26.3498 54.8159 25.8159C55.3498 25.2819 55.7733 24.6481 56.0623 23.9504C56.3513 23.2528 56.5 22.5051 56.5 21.75C56.5004 21.4318 56.4753 21.1142 56.425 20.8C56.3725 20.4895 56.293 20.1842 56.1875 19.8875ZM50.75 25C46.3086 24.9967 42.0501 23.2309 38.9096 20.0904C35.7691 16.9499 34.0033 12.6914 34 8.25C34.0033 7.38906 34.3468 6.56432 34.9555 5.95554C35.5643 5.34676 36.3891 5.00329 37.25 5H37.6625L39 10.8L38.325 11.15C37.25 11.7125 36.4 12.1625 36.85 13.1375C37.5828 15.212 38.7685 17.0972 40.3209 18.6561C41.8734 20.215 43.7536 21.4086 45.825 22.15C46.875 22.575 47.2875 21.7875 47.85 20.7L48.2125 20.0125L54 21.3375V21.75C53.9967 22.6109 53.6532 23.4357 53.0445 24.0445C52.4357 24.6532 51.6109 24.9967 50.75 25Z" fill="#EDF0F5"/>
</g>
<defs>
<clipPath id="clip0_48_1114">
<rect width="30" height="30" fill="white" transform="translate(29)"/>
</clipPath>
</defs>
</svg>
