<svg width="38" height="38" viewBox="0 0 38 38" fill="none" xmlns="http://www.w3.org/2000/svg">
<path d="M37.0406 9.15893C36.6056 7.49142 35.3236 6.17814 33.696 5.73246C30.7457 4.92261 18.9156 4.92261 18.9156 4.92261C18.9156 4.92261 7.08551 4.92261 4.13519 5.73246C2.50753 6.17821 1.22561 7.49142 0.790519 9.15893C0 12.1814 0 18.4875 0 18.4875C0 18.4875 0 24.7935 0.790519 27.816C1.22561 29.4835 2.50753 30.7421 4.13519 31.1878C7.08551 31.9976 18.9156 31.9976 18.9156 31.9976C18.9156 31.9976 30.7457 31.9976 33.696 31.1878C35.3236 30.7421 36.6056 29.4835 37.0406 27.816C37.8312 24.7935 37.8312 18.4875 37.8312 18.4875C37.8312 18.4875 37.8312 12.1814 37.0406 9.15893ZM15.0465 24.2129V12.762L24.9341 18.4876L15.0465 24.2129Z" fill="#169579"/>
</svg>
